<?xml version="1.0" encoding="UTF-8"?>
<svg width="24" height="24" fill="#bebebe" version="1.1" xmlns="http://www.w3.org/2000/svg"><path d="m7.5 1.06c-3.56 0-6.48 2.91-6.48 6.48s2.92 6.49 6.48 6.49c3.58 0 6.5-2.92 6.5-6.49s-2.92-6.48-6.5-6.48zm0 2c2.5 0 4.5 1.99 4.5 4.48s-2 4.49-4.5 4.49c-2.48 0-4.48-2-4.48-4.49s2-4.48 4.48-4.48z"/><path d="m7.42 0a0.5 0.5 0 0 0-0.41 0.5v4.04a0.5 0.5 0 1 0 1 0v-4.04a0.5 0.5 0 0 0-0.59-0.5zm3.02 6.98a0.50359 0.50359 0 1 0 0.12 1h3.94a0.5 0.5 0 1 0 0-1h-3.94a0.5 0.5 0 0 0-0.12 0zm-9.98 0.02a0.50202 0.50202 0 1 0 0.09 1h3.97a0.5 0.5 0 1 0 0-1h-3.97a0.5 0.5 0 0 0-0.09 0zm6.99 3.04a0.5 0.5 0 0 0-0.44 0.53v3.93a0.5 0.5 0 1 0 1 0v-3.93a0.5 0.5 0 0 0-0.56-0.53z"/><circle cx="7.5" cy="7.5" r="1.5" fill="#bebebe"/><path d="m16.14 0.8c-0.66 0.01-1.36 0.08-2.11 0.2l0.5 1c4.5 0 7.17 6.24 0.4 11.33-1.59 1.19-3.9 2.67-3.9 5.67 0 3.3 4.65 4.2 10 4l1-1c-1.5 0-9.49 0.08-5.5-5.5 2.45-3.42 6.5-5.66 6.5-9.5 0-3.5-2.3-6.23-6.89-6.2z"/></svg>
