<?xml version="1.0" encoding="UTF-8"?>
<svg width="24" height="24" fill="#bebebe" version="1.1" xmlns:xlink="http://www.w3.org/1999/xlink" xmlns="http://www.w3.org/2000/svg"><path id="a" d="m22.4 0c-1.4 0-1.86 0.1-2.86 0.38-2.54 0.62-4.7 5.55-6.04 8.62-0.26 0.58-0.53 0.94-0.8 1.2l-0.23-0.4c0.3-0.15 0.5-0.46 0.53-0.8 0-0.26-0.1-0.5-0.28-0.69 0.1-0.37 0.22-0.8 0.32-1.09 0.12-0.37 0.26-0.67 0.48-0.98 0.4-0.01 0.72-0.34 0.73-0.74 0-0.41-0.34-0.75-0.75-0.75s-0.75 0.34-0.75 0.75c0.01 0.02 0.02 0.04 0.03 0.07-0.33 0.43-0.78 1.43-0.78 1.93l-0.5 6.5 0.5 5c1 0 1-1.5 1-2v-0.75c0-0.75 0-1.34-0.3-1.95 4.8 4.11 2.8 7.7 4.64 8.7 1.16 0.5 2.89-1.32 3.66-2.58 1.2-1.96 2.25-6.17 0.75-7.67-0.75-0.75-2.84-1.12-4.75-1.25h2.4c1.6 0 2.8-0.54 3.3-1.5 0.5-2.37 1.3-7 0.6-9.62-0.07-0.13-0.3-0.38-0.9-0.38z"/><use transform="matrix(-1,0,0,1,24,0)" xlink:href="#a"/></svg>
