<?xml version="1.0" encoding="UTF-8"?>
<svg width="24" height="24" fill="#bebebe" version="1.1" xmlns="http://www.w3.org/2000/svg"><path d="m17.06 1.5c-0.26-0.05-0.5 0.03-0.66 0.19l-6.42 6 6.05 6.51 6.24-5.8c0.35-0.34 0.26-1.03-0.19-1.56l-4.18-4.82c-0.28-0.32-0.58-0.47-0.84-0.52zm-8.81 7.83-3.52 3.27c-0.35 0.34-0.31 1.03 0.15 1.56l4.22 4.82c0.45 0.52 1.1 0.66 1.45 0.33l3.7-3.47z"/><path d="m1 21v2h4.5c1 0 1.5-0.45 1.5-1 0-0.5-0.5-1-1.5-1zm12.1 0c-0.6 0-1.1 0.5-1.1 1s0.5 1 1.1 1h9.9v-2z"/></svg>
