<?xml version="1.0" encoding="UTF-8"?>
<svg width="24" height="24" fill="#bebebe" version="1.1" xmlns="http://www.w3.org/2000/svg"><path d="m13 0v10.5l4.5 1 3-8.5c-3 0-2.5-3-7.5-3zm0.55 12c-1.08-0.02-2.18 0.36-3.05 1.13-0.89 0.79-1.37 1.84-1.47 2.94-0.11 1.15 0.33 3.23-2.67 6.06-0.01 0-0.03 0.01-0.04 0.02-0.12 0.05-0.22 0.15-0.26 0.28-0.08 0.26 0.06 0.54 0.32 0.63 2.5-0.32 5.37-0.52 7.58-1.6 1.06-0.54 1.99-1.11 2.54-1.59 1.85-1.66 2.02-4.51 0.37-6.37-0.62-0.7-1.41-1.15-2.25-1.37-0.35-0.09-0.72-0.13-1.07-0.13z"/></svg>
