<?xml version="1.0" encoding="UTF-8"?>
<svg width="24" height="24" fill="#bebebe" version="1.1" xmlns="http://www.w3.org/2000/svg"><path d="m22 17.5c0 1-1.5 2-2.5 2h-15.5c-1 0-1.5 1-1.5 2s0.5 2 1.5 2h16c1 0 2-1 2-2z" opacity=".3"/><path d="m3.5 1c-0.5 0-1.5 0.5-1.5 1.5v20c0 1 1 1.5 1.5 1.5h16.5c1 0 2-1 2-2v-1c0 1-1 2-2 2h-15.5c-1 0-1.5-0.5-1.5-1.5s0.5-1.5 1.5-1.5h15.5c1 0 2-1 2-2v-15c0-1-1-2-2-2h-5v9l1.5-1.5c0.28-0.28 0.6-0.5 1-0.5h1.5v1.5c0 0.4-0.22 0.72-0.5 1l-6 6-6-6c-0.28-0.28-0.5-0.6-0.5-1v-1.5h1.5c0.4 0 0.72 0.22 1 0.5l1.5 1.5v-9z"/></svg>
