<?xml version="1.0" encoding="UTF-8"?>
<svg width="24" height="24" fill="#bebebe" version="1.1" xmlns="http://www.w3.org/2000/svg"><path transform="translate(0,1)" d="m1 1v5a1 1 0 0 0 1 1 1 1 0 0 0 1-1v-3h4a1 1 0 0 0 1-1 1 1 0 0 0-1-1zm16 0a1 1 0 0 0-1 1 1 1 0 0 0 1 1h4v3a1 1 0 0 0 1 1 1 1 0 0 0 1-1v-5zm-15 14a1 1 0 0 0-1 1v5h6a1 1 0 0 0 1-1 1 1 0 0 0-1-1h-4v-3a1 1 0 0 0-1-1zm20 0a1 1 0 0 0-1 1v3h-4a1 1 0 0 0-1 1 1 1 0 0 0 1 1h6v-5a1 1 0 0 0-1-1z" opacity=".3"/><path d="m11.5 2-3.5 4 3.5 4h0.5v-8z"/><path d="m12.05 5-1.01 1 1 1c2.03 0.02 3.84 1.25 4.6 3.12 0.76 1.88 0.32 4.02-1.13 5.44-1.44 1.42-3.6 1.83-5.46 1.04-1.87-0.79-3.07-2.62-3.05-4.64 0-0.56-0.44-1.01-1-1.01-0.54-0.01-1 0.44-1 0.99-0.02 2.83 1.66 5.4 4.27 6.5 2.6 1.1 5.63 0.53 7.64-1.46 2.02-1.98 2.64-5 1.58-7.62-1.06-2.61-3.61-4.34-6.44-4.36z"/></svg>
