<?xml version="1.0" encoding="UTF-8"?>
<svg width="24" height="24" fill="#bebebe" version="1.1" xmlns="http://www.w3.org/2000/svg"><path d="m4.5 1c-0.8 0-1.5 0.71-1.5 1.5v20c0 0.79 0.71 1.5 1.5 1.5h7.52l-1.02-2h-6v-19h8l6 6v10.5l2 3v-14.05c0-0.4-0.22-0.8-0.5-1.07l-5.97-5.91c-0.28-0.29-0.67-0.47-1.08-0.47zm8.3 10.8c-0.24 0-0.5 0.02-0.74 0.06l1.47 2.59c0.3 0.53-0.04 1.15-0.68 1.51l-1.15 0.67c-0.65 0.36-1.37 0.31-1.67-0.23l-1.47-2.59c-0.31 0.39-0.59 0.82-0.76 1.28-0.86 2.21 0.35 4.33 2.68 4.76 0.49 0.09 1 0.06 1.49 0 0.04 0 2.53 4.15 2.53 4.15h5l-4-6.1c0.32-0.39 0.5-0.9 0.74-1.3 0.85-2.18-0.36-4.31-2.69-4.74-0.25-0.04-0.49-0.06-0.75-0.06z"/></svg>
