<?xml version="1.0" encoding="UTF-8"?>
<svg width="24" height="24" fill="#bebebe" version="1.1" xmlns="http://www.w3.org/2000/svg"><path d="m7.4 0c-0.23 0-0.4 0.27-0.4 0.5v0.5c-3.16 0.33-5.7 2.85-6 6h-0.54c-0.66 0-0.58 1 0.09 1h0.49c0.23 3.2 2.76 5.75 5.96 6v0.5c0 0.68 1 0.68 1 0v-0.5c3.2-0.25 5.76-2.82 5.97-6.02h0.53c0.67 0.02 0.67-1.01 0-1h-0.53c-0.27-3.14-2.81-5.65-5.97-5.9v-0.58c0-0.27-0.22-0.5-0.5-0.5zm-0.4 3.1v1.44c0 0.66 1 0.66 1 0v-1.44c2.07 0.23 3.68 1.83 3.94 3.88 0 0-1.46-0.01-1.5 0-0.68 0.07-0.56 1.1 0.12 1h1.39c-0.2 2.12-1.85 3.76-3.95 3.99v-1.4c0.03-0.31-0.24-0.57-0.56-0.53-0.26 0.03-0.44 0.26-0.44 0.53v1.4c-2.1-0.23-3.72-1.87-3.94-3.97h1.44c0.69 0.02 0.69-1 0-1h-1.43c0.23-2.06 1.86-3.67 3.93-3.9zm0.5 2.9c-0.82 0-1.5 0.68-1.5 1.5 0 0.84 0.68 1.5 1.5 1.5 0.83 0 1.5-0.66 1.5-1.5 0-0.82-0.67-1.5-1.5-1.5z"/><path d="m14.43 10c-0.43 1.18-1.17 2.2-2.09 3h7.69l3-3zm-2.4 5-3 3h11l3-3zm0 5-3 3h11l3-3z"/></svg>
