<?xml version="1.0" encoding="UTF-8"?>
<svg width="24" height="24" fill="#bebebe" version="1.1" xmlns="http://www.w3.org/2000/svg"><path d="m14.25 1c-0.83 0-1.5 0.67-1.5 1.5v8.74c0 0.83 0.67 1.5 1.5 1.5s1.5-0.67 1.5-1.5v-8.74c0-0.83-0.67-1.5-1.5-1.5zm2.85 4.45c-0.13-0.01-0.24-0.01-0.35 0.02v6.27c0 1-1 2-2 2h-1c-1 0-2-1-2-2v-5l-2.01 0.8c-0.01-0.02-0.68-0.52-3.82-0.31-3.14 0.2-4.92 2.52-5.1 3.52-0.38 1.88 0.76 2.45 1.22 4.47 0.46 2.03-1.28 3.1-1.28 4.92 0 1.99 1.97 3.16 3.2 3.03 1.22-0.14 2.68-0.53 2.82-2.9s-1.96-3.52-1.88-5.53c0.07-1.1 0.22-1.44 0.6-1.91 1.48 4.93 2.28 7.11 6.34 9.6 0.58 0.3 1.8 0.45 2.66 0.23 2.85-0.71 5.78-2.72 7.37-4.82 0.6-0.79 1.01-1.58 0.8-2.89-0.69-4.28-3.77-9.26-5.57-9.5z"/></svg>
