<?xml version="1.0" encoding="UTF-8"?>
<svg width="24" height="24" fill="#bebebe" version="1.1" xmlns="http://www.w3.org/2000/svg"><path transform="translate(0,1)" d="m1 1v5a1 1 0 0 0 1 1 1 1 0 0 0 1-1v-3h4a1 1 0 0 0 1-1 1 1 0 0 0-1-1zm16 0a1 1 0 0 0-1 1 1 1 0 0 0 1 1h4v3a1 1 0 0 0 1 1 1 1 0 0 0 1-1v-5zm-15 14a1 1 0 0 0-1 1v5h6a1 1 0 0 0 1-1 1 1 0 0 0-1-1h-4v-3a1 1 0 0 0-1-1zm20 0a1 1 0 0 0-1 1v3h-4a1 1 0 0 0-1 1 1 1 0 0 0 1 1h6v-5a1 1 0 0 0-1-1z" opacity=".3"/><path d="m15.7 13.8-1.4 1.4 4.25 4.25 1.4-1.4z"/><path d="m11.5 4c-3.578 0-6.5 2.922-6.5 6.5 0 3.578 2.922 6.5 6.5 6.5 3.578 0 6.5-2.922 6.5-6.5 0-3.578-2.922-6.5-6.5-6.5zm0 2c2.4971 0 4.5 2.0029 4.5 4.5 0 2.4971-2.0029 4.5-4.5 4.5-2.4971 0-4.5-2.0029-4.5-4.5 0-2.4971 2.0029-4.5 4.5-4.5z"/></svg>
