<?xml version="1.0" encoding="UTF-8"?>
<svg width="24" height="24" version="1.1" xmlns="http://www.w3.org/2000/svg"><path d="m16.5 0-3 8.5 0.5 1 6 2.5 1.5-0.5 2-5.5c-2.5 0-0.5-6-7-6zm-2.5 11-0.7 2.08 5 1.92 0.7-2zm0.3 3.54-1.57 4.53c-0.43 1.23 1.29 1.89 1.73 0.62l1.76-4.5z" fill="#bebebe"/><path transform="translate(-40 -708.36)" d="m41 727.36h4v4.0215h-4z" fill="#bebebe"/><g><path d="m 2,21.5 h 9 M 4.16,19.63 C 16,18 2.48,1.5 2.48,1.5 H 14" fill="none"/><path d="m1.42 1 0.68 0.82s3.35 4.1 5.2 8.34c0.93 2.11 1.46 4.25 1.1 5.84-0.17 0.8-0.55 1.46-1.22 2-0.68 0.53-1.68 0.94-3.08 1.13l0.13 0.99c1.54-0.21 2.72-0.67 3.57-1.35 0.85-0.67 1.36-1.57 1.58-2.55 0.44-1.96-0.19-4.26-1.16-6.47-1.64-3.73-3.95-6.75-4.75-7.75h10.53v-1zm0.58 20v1h9v-1z" fill="#bebebe"/></g><rect transform="translate(-40 -708.36)" x="41" y="708.37" width="4" height="4.0215" fill="#bebebe"/></svg>
