<?xml version="1.0" encoding="UTF-8"?>
<svg width="24" height="24" version="1.1" xmlns="http://www.w3.org/2000/svg"><path d="m5 1c-1.5 0-3 1.5-3 3v17c0 1.5 1.5 3 3 3h13c1.5 0 3-1.5 3-3v-17c0-1.5-1.5-3-3-3v2.5c0 0.5-0.35 1-0.9 1.3-0.5 0.2-1.2 0.1-1.6-0.3-0.5 0.5-1.5 0.5-2 0-0.5 0.5-1.5 0.5-2 0-0.5 0.5-1.5 0.5-2 0-0.5 0.5-1.5 0.5-2 0-0.8 0.8-2.5 0.15-2.5-1z" fill="#bebebe"/><path d="m6.5 0a0.5 0.5 0 0 0-0.5 0.5v3a0.5 0.5 0 0 0 0.5 0.5 0.5 0.5 0 0 0 0.5-0.5v-3a0.5 0.5 0 0 0-0.5-0.5zm2 0a0.5 0.5 0 0 0-0.5 0.5v3a0.5 0.5 0 0 0 0.5 0.5 0.5 0.5 0 0 0 0.5-0.5v-3a0.5 0.5 0 0 0-0.5-0.5zm2 0a0.5 0.5 0 0 0-0.5 0.5v3a0.5 0.5 0 0 0 0.5 0.5 0.5 0.5 0 0 0 0.5-0.5v-3a0.5 0.5 0 0 0-0.5-0.5zm2 0a0.5 0.5 0 0 0-0.5 0.5v3a0.5 0.5 0 0 0 0.5 0.5 0.5 0.5 0 0 0 0.5-0.5v-3a0.5 0.5 0 0 0-0.5-0.5zm2 0a0.5 0.5 0 0 0-0.5 0.5v3a0.5 0.5 0 0 0 0.5 0.5 0.5 0.5 0 0 0 0.5-0.5v-3a0.5 0.5 0 0 0-0.5-0.5zm2 0a0.5 0.5 0 0 0-0.5 0.5v3a0.5 0.5 0 0 0 0.5 0.5 0.5 0.5 0 0 0 0.5-0.5v-3a0.5 0.5 0 0 0-0.5-0.5z" fill="#bebebe"/><path transform="matrix(1.5 0 0 1.5 -552 -786.54)" d="m380.33 524.7-0.66667 2.6667m-0.66665-2.6667-0.66667 2.6667m-0.66667-2.6667-0.66667 2.6667m-0.66666-2.6667-0.66667 2.6667m-0.66667-2.6667-0.66667 2.6667m-0.66666-2.6667-0.66667 2.6667m-0.66667-2.6667-0.66667 2.6667" fill="none"/></svg>
