<?xml version="1.0" encoding="UTF-8"?>
<svg width="24" height="24" fill="#bebebe" version="1.1" xmlns="http://www.w3.org/2000/svg"><path d="m14.25 0.74c-0.83 0-1.5 0.66-1.5 1.5v9c0 0.83 0.67 1.5 1.5 1.5s1.5-0.67 1.5-1.5v-9c0-0.84-0.67-1.5-1.5-1.5zm-2.5 6-3.72 1.46s-0.43 0.04-0.81 0c-4.44-0.58-5.51 1.97-5.48 3.54 0.03 1.56 1.48 2.26 1.5 4 0.69-0.82 0.39-1.34 0.49-2.43 0.1-1.08 0.49-2.11 1.02-2.57 7 11 0 0.01 7.19 11.62 0.57 0.86 1.59 1.16 2.28 0.66l7.47-5.41c0.68-0.5 0.76-1.58 0.19-2.43l-5.13-7.94v4.5c0 1-1 2-2 2h-1c-1 0-2-1-2-2zm-7.5 9c0.01 2.76-2.5 3.01-2.5 4.5s1.43 1.66 2.02 1.52c0.58-0.16 1.59-0.64 1.45-2.03-0.12-1.4-0.52-2.38-0.97-3.99z"/></svg>
