<?xml version="1.0" encoding="UTF-8"?>
<svg width="24" height="24" fill="#bebebe" version="1.1" xmlns="http://www.w3.org/2000/svg"><path transform="translate(0,1)" d="m1 1v5a1 1 0 0 0 1 1 1 1 0 0 0 1-1v-3h4a1 1 0 0 0 1-1 1 1 0 0 0-1-1zm16 0a1 1 0 0 0-1 1 1 1 0 0 0 1 1h4v3a1 1 0 0 0 1 1 1 1 0 0 0 1-1v-5zm-15 14a1 1 0 0 0-1 1v5h6a1 1 0 0 0 1-1 1 1 0 0 0-1-1h-4v-3a1 1 0 0 0-1-1zm20 0a1 1 0 0 0-1 1v3h-4a1 1 0 0 0-1 1 1 1 0 0 0 1 1h6v-5a1 1 0 0 0-1-1z" opacity=".3"/><path d="m12 2v8h0.5l3.5-4-3.5-4z"/><path d="m12 5c-2.8 0-5.37 1.7-6.46 4.3s-0.54 5.64 1.5 7.64c2 2.01 5.02 2.61 7.63 1.53 2.62-1.08 4.33-3.64 4.33-6.47 0-0.55228-0.44772-1-1-1s-1 0.44772-1 1c0 2.03-1.22 3.85-3.09 4.62-1.87 0.78-4.02 0.35-5.45-1.09-1.43-1.43-1.86-3.58-1.08-5.53 0.78-1.8 2.61-3 4.63-3l0.99-1z"/></svg>
