<?xml version="1.0" encoding="UTF-8" standalone="no"?>
<svg id="svg1" xmlns="http://www.w3.org/2000/svg" version="1.1" xmlns:dc="http://purl.org/dc/elements/1.1/" height="16.024" width="16.085" xmlns:rdf="http://www.w3.org/1999/02/22-rdf-syntax-ns#" xmlns:ns4="http://creativecommons.org/ns#">
 <title id="title13694">MyPaint symbolic icons</title>
 <metadata id="metadata7">
  <rdf:RDF>
   <ns4:Work rdf:about="">
    <dc:format>image/svg+xml</dc:format>
    <dc:type rdf:resource="http://purl.org/dc/dcmitype/StillImage"/>
    <dc:title>MyPaint symbolic icons</dc:title>
    <ns4:license rdf:resource=""/>
    <dc:creator>
     <ns4:Agent>
      <dc:title>GNOME Project</dc:title>
     </ns4:Agent>
    </dc:creator>
    <dc:contributor>
     <ns4:Agent>
      <dc:title>Andrew Chadwick</dc:title>
     </ns4:Agent>
    </dc:contributor>
   </ns4:Work>
  </rdf:RDF>
 </metadata>
 <g id="layer1" transform="translate(-495.95 -524.34)">
  <path id="path12113-8" style="enable-background:new;color:#000000;text-indent:0;text-decoration-line:none;text-transform:none" font-family="Sans" d="m98.781 884.36a1.0001 1.0001 0 0 0 -0.78125 1v4a1.0001 1.0001 0 0 0 1 1h4a1.0001 1.0001 0 1 0 0 -2h-3v-3a1.0001 1.0001 0 0 0 -1.2187 -1z" transform="translate(408,-360)" line-height="normal" fill="#bebebe"/>
  <path id="path12147-8" style="enable-background:new;color:#000000;text-indent:0;text-decoration-line:none;text-transform:none" font-family="Sans" d="m102.87 884.36a1.0001 1.0001 0 0 0 -0.59375 0.28125l-4 4a1.0165 1.0165 0 1 0 1.4375 1.4375l4-4a1.0001 1.0001 0 0 0 -0.84375 -1.7188z" transform="translate(408,-360)" line-height="normal" fill="#bebebe"/>
  <rect id="rect12919-5" style="color:#000000;enable-background:new" transform="translate(408,-360)" height="1" width="1" y="889.36" x="98" fill="#bebebe"/>
  <path id="rect13039" style="enable-background:new;color:#000000;text-indent:0;text-decoration-line:none;text-transform:none" font-family="Sans" d="m88.906 890.36a1.0001 1.0001 0 0 0 -0.90625 1v8a1.0001 1.0001 0 0 0 1 1h8a1.0001 1.0001 0 0 0 1 -1v-8a1.0001 1.0001 0 0 0 -1 -1h-8a1.0001 1.0001 0 0 0 -0.09375 0zm1.0938 2h6v6h-6z" transform="translate(408,-360)" line-height="normal" fill="#bebebe"/>
  <path id="path13041" style="enable-background:new;color:#000000;text-indent:0;text-decoration-line:none;text-transform:none" font-family="Sans" d="m88.906 892.36a1.0011 1.0011 0 0 0 0.09375 2h8a1.0001 1.0001 0 1 0 0 -2h-8a1.0001 1.0001 0 0 0 -0.09375 0z" fill-rule="evenodd" transform="translate(408,-360)" line-height="normal" fill="#bebebe"/>
  <rect id="rect4479-2-9-9-0-8-6" style="color:#000000" transform="translate(408,-360)" height="1" width="1" y="889.36" x="103" fill="#bebebe"/>
  <rect id="rect4479-2-9-9-0-8-6-6" style="color:#000000" transform="translate(408,-360)" height="1" width="1" y="884.36" x="98" fill="#bebebe"/>
  <rect id="rect4479-2-9-9-0-8-6-9" style="color:#000000" transform="translate(408,-360)" height="1" width="1" y="899.36" x="97" fill="#bebebe"/>
  <rect id="rect4479-2-9-9-0-8-6-4" style="color:#000000" transform="translate(408,-360)" height="1" width="1" y="899.36" x="88" fill="#bebebe"/>
  <g id="layer2" opacity=".5" transform="translate(229.28 556.07)" display="none" fill="#859f46">
   <rect id="48x48" style="color:#000000" height="48" width="48" display="inline" y="4.25" x="-2.25"/>
   <rect id="32x32" style="color:#000000" height="32" width="32" display="inline" y="20.25" x="53.75"/>
   <rect id="24x24" style="color:#000000" height="24" width="24" display="inline" y="28.25" x="93.75"/>
   <rect id="22x22" style="color:#000000" height="22" width="22" display="inline" y="30.25" x="125.75"/>
   <rect id="16x16" style="color:#000000" height="16" width="16" display="inline" y="36.25" x="155.75"/>
  </g>
 </g>
</svg>
