<?xml version="1.0" encoding="UTF-8"?>
<svg width="16" height="16" version="1.1" xmlns="http://www.w3.org/2000/svg"><g transform="translate(-592 -876.36)"><g transform="translate(176 64.002)"><g transform="translate(229.28,556.07)" display="none" fill="#859f46" opacity=".5"><rect x="-2.25" y="4.25" width="48" height="48" display="inline" style=""/><rect x="53.75" y="20.25" width="32" height="32" display="inline" style=""/><rect x="93.75" y="28.25" width="24" height="24" display="inline" style=""/><rect x="125.75" y="30.25" width="22" height="22" display="inline" style=""/></g><path d="m421.5 813.36c-2.452 0-4.4512 2.0162-4.4512 4.4766s1.9992 4.4766 4.4512 4.4766 4.4512-2.0162 4.4512-4.4766-1.9992-4.4766-4.4512-4.4766zm0 1.5c1.6358 0 2.9512 1.3214 2.9512 2.9766s-1.3154 2.9766-2.9512 2.9766-2.9512-1.3214-2.9512-2.9766 1.3154-2.9766 2.9512-2.9766z" fill="#bebebe" line-height="normal"/><circle cx="421.5" cy="817.86" r="1.0745" fill="#bebebe"/><path d="m416.51 817.36a0.50005 0.50005 0 1 0 0 1h2.4922a0.50005 0.50005 0 1 0 0-1z" fill="#bebebe" line-height="normal"/><path d="m424 817.36a0.50005 0.50005 0 1 0 0 1h2.5078a0.50005 0.50005 0 1 0 0-1z" fill="#bebebe" line-height="normal"/><path d="m421.49 819.86a0.50005 0.50005 0 0 0-0.49 0.5v2.5a0.50005 0.50005 0 1 0 1 0v-2.5a0.50005 0.50005 0 0 0-0.50781-0.50586z" fill="#bebebe" line-height="normal"/><path d="m421.49 812.36a0.50005 0.50005 0 0 0-0.49 0.51v2.4922a0.50005 0.50005 0 1 0 1 0v-2.4922a0.50005 0.50005 0 0 0-0.50781-0.50781z" fill="#bebebe" line-height="normal"/><path d="m425.5 813.36c5.6472 0.52208 6.3383 4.2007 1 8-1.1522 0.82002-2.5 2-2.5 4 0 3 4 3 6 3l0.5-1c-1.5 0-5.5881-0.47523-2.5-4 1.8936-2.1613 4-4.0721 4-6 0-2.5-1-5-7-5z" fill="#bebebe"/></g></g></svg>
