<?xml version="1.0" encoding="UTF-8"?>
<svg width="16" height="16" fill="#bebebe" version="1.1" xmlns="http://www.w3.org/2000/svg"><path d="m12 0-1 8 3 1 2-4c0-3.5-2-5-4-5z"/><path d="m11.12 9.03c-0.72-0.04-1.45 0.17-2.06 0.66-0.62 0.49-1 1.15-1.11 1.88-0.11 0.75 0.25 1.82-1.72 3.52-0.01 0.01-0.03 0.01-0.03 0.01-0.13 0.06-0.23 0.14-0.28 0.27-0.1 0.26 0.01 0.53 0.27 0.63 2.21-0.18 4.09-0.26 5.88-1.16 0.33-0.18 0.52-0.3 0.73-0.46 1.29-1.04 1.5-2.92 0.47-4.21-0.39-0.49-0.9-0.84-1.45-1.01-0.22-0.07-0.47-0.12-0.7-0.13z"/><path d="m5.5 0a0.5 0.5 0 0 0-0.5 0.5v0.55c-2.06 0.24-3.68 1.88-3.9 3.95h-0.6a0.5 0.5 0 1 0 0 1h0.6c0.25 2.05 1.86 3.67 3.9 3.9v0.6a0.5 0.5 0 1 0 1 0v-0.6c2.04-0.23 3.66-1.85 3.9-3.9h0.6a0.5 0.5 0 1 0 0-1h-0.6c-0.22-2.07-1.84-3.71-3.9-3.95v-0.55a0.5 0.5 0 0 0-0.5-0.5zm-0.5 2.55v0.45a0.5 0.5 0 1 0 1 0v-0.45c1.24 0.21 2.2 1.19 2.4 2.45h-0.4a0.5 0.5 0 1 0 0 1h0.4c-0.22 1.24-1.17 2.2-2.4 2.4v-0.4a0.5 0.5 0 0 0-0.5-0.5 0.5 0.5 0 0 0-0.5 0.5v0.4c-1.22-0.2-2.18-1.16-2.4-2.4h0.4a0.5 0.5 0 1 0 0-1h-0.4c0.2-1.26 1.16-2.24 2.4-2.45zm0.5 1.88a1.07 1.07 0 0 0-1.07 1.07 1.07 1.07 0 0 0 1.07 1.08 1.07 1.07 0 0 0 1.08-1.08 1.07 1.07 0 0 0-1.08-1.07z"/></svg>
