<?xml version="1.0" encoding="UTF-8" standalone="no"?>
<svg id="svg1" xmlns="http://www.w3.org/2000/svg" version="1.1" xmlns:dc="http://purl.org/dc/elements/1.1/" height="16" width="16" xmlns:rdf="http://www.w3.org/1999/02/22-rdf-syntax-ns#" xmlns:ns3="http://www.openswatchbook.org/uri/2009/osb" xmlns:ns5="http://creativecommons.org/ns#">
 <title id="title13694">MyPaint symbolic icons</title>
 <metadata id="metadata7">
  <rdf:RDF>
   <ns5:Work rdf:about="">
    <dc:format>image/svg+xml</dc:format>
    <dc:type rdf:resource="http://purl.org/dc/dcmitype/StillImage"/>
    <dc:title>MyPaint symbolic icons</dc:title>
    <ns5:license rdf:resource=""/>
    <dc:creator>
     <ns5:Agent>
      <dc:title>GNOME Project</dc:title>
     </ns5:Agent>
    </dc:creator>
    <dc:contributor>
     <ns5:Agent>
      <dc:title>Andrew Chadwick</dc:title>
     </ns5:Agent>
    </dc:contributor>
   </ns5:Work>
  </rdf:RDF>
 </metadata>
 <g id="layer1" transform="translate(-80 -684.36)">
  <path id="rect18654" d="m87.969 687.55-2.469 1.81c0.009-0.0122-0.0298-0.0176-0.28125 0.0312-4 0.77746-4.25 1.6573-4.25 3v5c0 0.554 0.446 1 1 1s1-0.446 1-1v-6.1875l1.2812 1.875 1.0625 1.5625 2.7812 4.1562c0.38364 0.5682 1.0736 0.76981 1.5312 0.4375l4.9688-3.5938c0.45762-0.33233 0.50866-1.0568 0.125-1.625l-2.75-4.0625v1.4375c0 1.1046-0.89543 2-2 2s-2-0.89543-2-2v-3.8438z" fill="#bebebe"/>
  <rect id="rect18680" rx="1" ry="1" height="8" width="1.9975" y="684.39" x="88.971" fill="#bebebe"/>
  <g id="layer2" opacity=".5" transform="translate(229.28 556.07)" display="none" fill="#859f46">
   <rect id="48x48" style="color:#000000" height="48" width="48" display="inline" y="4.25" x="-2.25"/>
   <rect id="32x32" style="color:#000000" height="32" width="32" display="inline" y="20.25" x="53.75"/>
   <rect id="24x24" style="color:#000000" height="24" width="24" display="inline" y="28.25" x="93.75"/>
   <rect id="22x22" style="color:#000000" height="22" width="22" display="inline" y="30.25" x="125.75"/>
  </g>
 </g>
</svg>
