<?xml version="1.0" encoding="UTF-8" ?><svg height="48" width="48" xmlns="http://www.w3.org/2000/svg" xmlns:xlink="http://www.w3.org/1999/xlink"><clipPath id="a"><path d="m46.457521 28.065519c0-12.414621-10.106038-22.520659-22.520659-22.520659s-22.5206592 10.106038-22.5206592 22.520659 10.1060382 22.520659 22.5206592 22.520659 22.520659-10.106038 22.520659-22.520659zm-3.916636 0c0 10.297914-8.306109 18.604023-18.604023 18.604023s-18.6040228-8.306109-18.6040228-18.604023 8.3061088-18.6040226 18.6040228-18.6040226 18.604023 8.3061086 18.604023 18.6040226z"/></clipPath><linearGradient id="b" gradientUnits="userSpaceOnUse" x1="6.5" x2="96.500038" y1="59.5" y2="59.5"><stop offset="0" stop-color="#ffff3e"/><stop offset=".37222207" stop-color="#b50000"/><stop offset="1" stop-color="#ba00ff"/></linearGradient><linearGradient id="c" gradientUnits="userSpaceOnUse" x1="19.240755" x2="60.563465" y1="51.252811" y2="51.252811"><stop offset="0" stop-color="#dc0000"/><stop offset=".48494351" stop-color="#ba00ff"/><stop offset="1" stop-color="#005c94"/></linearGradient><linearGradient id="d" gradientUnits="userSpaceOnUse" x1="29" x2="74" y1="59.5" y2="59.5"><stop offset="0" stop-color="#005c94" stop-opacity="0"/><stop offset=".24444444" stop-color="#005c94"/><stop offset="1" stop-color="#19aeff"/></linearGradient><linearGradient id="e" gradientUnits="userSpaceOnUse" x1="29" x2="74" y1="59.5" y2="59.5"><stop offset="0" stop-color="#005c94" stop-opacity="0"/><stop offset=".24444444" stop-color="#19aeff"/><stop offset="1" stop-color="#9ade00"/></linearGradient><linearGradient id="f" gradientUnits="userSpaceOnUse" x1="29" x2="74" y1="59.5" y2="59.5"><stop offset="0" stop-color="#19aeff" stop-opacity="0"/><stop offset=".24444444" stop-color="#9ade00"/><stop offset="1" stop-color="#ffff3e"/></linearGradient><linearGradient id="g" gradientUnits="userSpaceOnUse" x1="29" x2="51.158821" y1="59.5" y2="59.5"><stop offset="0" stop-color="#9ade00" stop-opacity="0"/><stop offset=".50495309" stop-color="#ffff3e"/><stop offset="1" stop-color="#dc0000"/></linearGradient><text transform="translate(0 -4)" x="115.47568" y="57.869144"><tspan x="115.47568" y="57.869144"/></text><g clip-path="url(#a)" transform="matrix(0 -1.0212845 1.0212845 0 -4.66288 48.446346)"><path d="m60.563467 49.132022c-5.043477 11.356889-18.3386 16.474921-29.695489 11.431445-5.251162-2.331987-9.411235-6.584537-11.627223-11.885694l20.759245-8.677773z" fill="url(#b)" transform="matrix(-1 0 0 1 63.873724 -12)"/><path d="m58.875 29.466506c-.07735.04466-.17265.04466-.25 0" fill="none" transform="matrix(-1 0 0 1 63.873724 -12)"/><path d="m60.563467 49.132022c-5.043477 11.356889-18.3386 16.474921-29.695489 11.431445-5.251162-2.331987-9.411235-6.584537-11.627223-11.885694l20.759245-8.677773z" fill="url(#c)" transform="matrix(-.5 -.8660254 -.8660254 .5 78.577878 42.706535)"/><path d="m60.563467 49.132022c-5.043477 11.356889-18.3386 16.474921-29.695489 11.431445-5.251162-2.331987-9.411235-6.584537-11.627223-11.885694l20.759245-8.677773z" fill="url(#d)" transform="matrix(.5 -.8660254 -.8660254 -.5 38.577878 82.706535)"/><path d="m60.563467 49.132022c-5.043477 11.356889-18.3386 16.474921-29.695489 11.431445-5.251162-2.331987-9.411235-6.584537-11.627223-11.885694l20.759245-8.677773z" fill="url(#e)" transform="matrix(1 0 0 -1 -16.063138 68.065519)"/><path d="m60.563467 49.132022c-5.043477 11.356889-18.3386 16.474921-29.695489 11.431445-5.251162-2.331987-9.411235-6.584537-11.627223-11.885694l20.759245-8.677773z" fill="url(#f)" transform="matrix(.5 .8660254 .8660254 -.5 -30.704154 13.424503)"/><path d="m59.485572 51.25c-6.213204 10.761584-19.973988 14.448775-30.735572 8.235572-4.267797-2.464014-7.608609-6.261037-9.509245-10.807799l20.759245-8.677773z" fill="url(#g)" transform="matrix(-.5 .8660254 .8660254 .5 9.295846 -26.575497)"/></g></svg>
