<?xml version="1.0" encoding="UTF-8" standalone="no"?>
<!-- Created with Inkscape (http://www.inkscape.org/) -->

<svg
   xmlns:dc="http://purl.org/dc/elements/1.1/"
   xmlns:cc="http://creativecommons.org/ns#"
   xmlns:rdf="http://www.w3.org/1999/02/22-rdf-syntax-ns#"
   xmlns:svg="http://www.w3.org/2000/svg"
   xmlns="http://www.w3.org/2000/svg"
   version="1.1"
   width="16"
   height="16"
   id="svg7384">
  <metadata
     id="metadata12">
    <rdf:RDF>
      <cc:Work
         rdf:about="">
        <dc:format>image/svg+xml</dc:format>
        <dc:type
           rdf:resource="http://purl.org/dc/dcmitype/StillImage" />
        <dc:title></dc:title>
      </cc:Work>
    </rdf:RDF>
  </metadata>
  <defs
     id="defs10" />
  <g
     transform="matrix(1,0,0,0.99836067,0,-0.00968157)"
     id="g35716"
     style="fill:#bebebe;stroke:none">
    <path
       d="m 9,2.0312 v 2 H 7 v 2 h 2 v 2 h 2 v -2 h 2 v -2 h -2 v -2 H 9 z"
       id="path35810"
       style="fill:#bebebe;stroke:none" />
  </g>
  <path
     d="M 3,1 A 1.0000747,1.0000747 0 0 0 2,2 l 0,13 a 1.0000747,1.0000747 0 0 0 1,1 l 10,0 a 1.0000747,1.0000747 0 0 0 1,-1 l 0,-5 a 1.0000747,1.0000747 0 1 0 -2,0 L 12,14 4,14 4,3 6,3 A 1.0000747,1.0000747 0 1 0 6,1 L 3,1 z"
     id="path36400"
     style="font-size:medium;font-style:normal;font-variant:normal;font-weight:normal;font-stretch:normal;text-indent:0;text-align:start;text-decoration:none;line-height:normal;letter-spacing:normal;word-spacing:normal;text-transform:none;direction:ltr;block-progression:tb;writing-mode:lr-tb;text-anchor:start;baseline-shift:baseline;color:#000000;fill:#bebebe;fill-opacity:1;stroke:none;stroke-width:1.99994934;marker:none;visibility:visible;display:inline;overflow:visible;enable-background:accumulate;font-family:Sans;-inkscape-font-specification:Sans" />
</svg>
