<?xml version="1.0" encoding="UTF-8"?>
<svg width="16" height="16" version="1.1" xmlns="http://www.w3.org/2000/svg"><g transform="translate(-176 -900.36)" fill="#bebebe"><path transform="translate(120 160)" d="m71 740.36-3 3h-11l3-3z"/><path transform="translate(120 572.36)" d="m63.5 337-1 1h2.5v-1zm-1 1-1.5 1.5-1.75-1.75-2.25 2.25h6.5l-1-1zm6.5-1v1h1l1-1zm-9 4-3 3h11l3-3h-1.5l-2.5 2.5-2.5-2.5z" opacity=".3"/><path transform="translate(120 160)" d="m62 744.36h2v2h-2v0.98833h2l-3 2.9883-3-2.9883h2v-0.98833c0-1 1-2 2-2z"/><path transform="translate(120 160)" d="m63 744.36h3c1 0 2 1 2 2v5h2l-3 2.9883-3-2.9883h2v-5h-3z"/></g></svg>
