<?xml version="1.0" encoding="UTF-8"?>
<svg width="16" height="16" fill="#bebebe" version="1.1" xmlns="http://www.w3.org/2000/svg"><path d="m7.34 1.03-0.4 2.09c-0.34 0.08-0.67 0.18-0.97 0.32l-1.53-1.47c-0.39 0.23-0.74 0.51-1.06 0.81l0.9 1.91c-0.22 0.25-0.42 0.51-0.59 0.81l-2.09-0.28c-0.18 0.41-0.31 0.84-0.41 1.28l1.84 1c-0.03 0.5-0.03 0.5 0 1l-1.84 1c0.09 0.44 0.23 0.87 0.4 1.28l2.1-0.28c0.17 0.29 0.37 0.56 0.59 0.81l-0.9 1.91c0.33 0.3 0.67 0.58 1.06 0.81l1.53-1.47c0.3 0.14 0.63 0.24 0.97 0.32l0.4 2.09h1.32l0.4-2.09c0.34-0.08 0.67-0.18 0.97-0.32l1.53 1.47c0.39-0.23 0.73-0.51 1.06-0.81l-0.9-1.91c0.22-0.25 0.42-0.52 0.59-0.81l2.09 0.28c0.18-0.4 0.31-0.84 0.4-1.28l-1.84-1c0.04-0.17 0.04-0.33 0.04-0.5s0-0.33-0.03-0.5l1.84-1c-0.1-0.44-0.23-0.87-0.41-1.28l-2.1 0.28c-0.16-0.3-0.36-0.56-0.58-0.8l0.9-1.91c-0.33-0.31-0.67-0.59-1.06-0.82l-1.53 1.47c-0.3-0.14-0.63-0.24-0.97-0.32l-0.4-2.09zm0.66 3.97c1.66 0 3 1.34 3 3s-1.34 3-3 3-3-1.34-3-3 1.34-3 3-3z"/></svg>
