<?xml version="1.0" encoding="UTF-8"?>
<svg width="16" height="16" version="1.1" xmlns="http://www.w3.org/2000/svg"><g transform="translate(-592 -748.36)"><g transform="translate(96 1.7383e-5)" fill="#bebebe"><path transform="translate(496 748.36)" d="m0 16 3-3h13l-3 3z"/><path transform="translate(496 748.36)" d="m4.5 3c-1.0987 0-2 0.9014-2 2 0 1.0987 0.90135 2 2 2 1.0987 0 2-0.9013 2-2 0-1.0986-0.90135-2-2-2zm0 1c0.55821 0 1 0.4418 1 1s-0.44179 1-1 1-1-0.4418-1-1 0.44179-1 1-1z" style="" line-height="normal"/><circle transform="translate(496 748.36)" cx="2" cy="9" r="1.5" opacity=".3"/><path transform="translate(496 748.36)" d="m2 7c-1.0987 0-2 0.9014-2 2 0 1.0987 0.90135 2 2 2 1.0987 0 2-0.9013 2-2 0-1.0986-0.90135-2-2-2zm0 1c0.55821 0 1 0.4418 1 1s-0.44179 1-1 1-1-0.4418-1-1 0.44179-1 1-1z" style="" line-height="normal"/><path transform="translate(496 748.36)" d="m7 7c-1.0987 0-2 0.9014-2 2 0 1.0987 0.90135 2 2 2 1.0987 0 2-0.9013 2-2 0-1.0986-0.90135-2-2-2z" style="" line-height="normal"/><path transform="translate(496 748.36)" d="m16 2-0.9996 2.5-3-0.5v-4c2.9996-2.2969e-5 2.4996 2 3.9996 2z"/><path transform="translate(496 748.36)" d="m10.544 6.2c-0.32646 0.5492-0.4204 1.1525-0.28309 1.725 0.142 0.592 0.7354 1.2834 0.1889 2.2527s-0.60067 1.0618-0.60067 1.1723c0 0.2209 0.18435 0.4 0.41176 0.4 1.1831-0.5738 2.6123-1.0552 3.5257-1.925 0.45951-0.449 0.83062-0.8906 1.0294-1.225 0.68224-1.1479 0.28092-2.6123-0.90074-3.275-0.44312-0.2486-0.94076-0.3576-1.5736-0.3143s-1.3712 0.4719-1.7976 1.1893z"/></g></g></svg>
