<?xml version="1.0" encoding="UTF-8"?>
<svg width="16" height="16" fill="#bebebe" version="1.1" xmlns="http://www.w3.org/2000/svg"><path d="m3.5 8.97c-1.9 0-3.48 1.58-3.48 3.52 0 1.93 1.58 3.51 3.48 3.51 1.91 0 3.5-1.58 3.5-3.51 0-1.94-1.59-3.52-3.5-3.52zm9 0c-1.9 0-3.48 1.58-3.48 3.52 0 1.93 1.58 3.51 3.48 3.51 1.91 0 3.5-1.58 3.5-3.51 0-1.94-1.59-3.52-3.5-3.52zm-9 2.03c0.86 0 1.52 0.66 1.52 1.49 0 0.81-0.66 1.48-1.52 1.48-0.85 0-1.5-0.67-1.5-1.48 0-0.83 0.65-1.49 1.5-1.49zm9 0c0.86 0 1.52 0.66 1.52 1.49 0 0.81-0.66 1.48-1.52 1.48-0.85 0-1.5-0.67-1.5-1.48 0-0.83 0.65-1.49 1.5-1.49z"/><path d="m3 0c-1 0.5-1.5 1.5-0.7 2.7l4.43 7.28-0.73 1.02 0.36 3.44 1.64-2.49 1.63 2.49 0.37-3.44-0.71-1.02 4.41-7.28c0.8-1.2 0.3-2.2-0.8-2.72l-4.9 8z"/></svg>
