<?xml version="1.0" encoding="UTF-8" standalone="no"?>
<!-- Created with Inkscape (http://www.inkscape.org/) -->

<svg
   xmlns:dc="http://purl.org/dc/elements/1.1/"
   xmlns:cc="http://creativecommons.org/ns#"
   xmlns:rdf="http://www.w3.org/1999/02/22-rdf-syntax-ns#"
   xmlns:svg="http://www.w3.org/2000/svg"
   xmlns="http://www.w3.org/2000/svg"
   version="1.1"
   width="48"
   height="48"
   id="svg2985">
  <defs
     id="defs2987">
    <linearGradient
       id="linearGradient5965">
      <stop
         id="stop5967"
         style="stop-color:#555753;stop-opacity:1"
         offset="0" />
    </linearGradient>
    <linearGradient
       id="linearGradient5965-1">
      <stop
         id="stop5967-2"
         style="stop-color:#555753;stop-opacity:1"
         offset="0" />
    </linearGradient>
    <linearGradient
       id="linearGradient5965-8">
      <stop
         id="stop5967-7"
         style="stop-color:#555753;stop-opacity:1"
         offset="0" />
    </linearGradient>
    <linearGradient
       id="linearGradient5965-4">
      <stop
         id="stop5967-8"
         style="stop-color:#555753;stop-opacity:1"
         offset="0" />
    </linearGradient>
    <linearGradient
       id="linearGradient5965-15">
      <stop
         id="stop5967-26"
         style="stop-color:#555753;stop-opacity:1"
         offset="0" />
    </linearGradient>
    <filter
       color-interpolation-filters="sRGB"
       id="filter3988">
      <feGaussianBlur
         id="feGaussianBlur3990"
         stdDeviation="0.32435349" />
    </filter>
    <filter
       color-interpolation-filters="sRGB"
       id="filter4000">
      <feGaussianBlur
         id="feGaussianBlur4002"
         stdDeviation="0.32435349" />
    </filter>
    <filter
       color-interpolation-filters="sRGB"
       id="filter4012">
      <feGaussianBlur
         id="feGaussianBlur4014"
         stdDeviation="0.32435349" />
    </filter>
    <filter
       color-interpolation-filters="sRGB"
       id="filter4024">
      <feGaussianBlur
         id="feGaussianBlur4026"
         stdDeviation="0.32435349" />
    </filter>
    <filter
       color-interpolation-filters="sRGB"
       id="filter4040">
      <feGaussianBlur
         id="feGaussianBlur4042"
         stdDeviation="0.32435349" />
    </filter>
  </defs>
  <metadata
     id="metadata2990">
    <rdf:RDF>
      <cc:Work
         rdf:about="">
        <dc:format>image/svg+xml</dc:format>
        <dc:type
           rdf:resource="http://purl.org/dc/dcmitype/StillImage" />
        <dc:title></dc:title>
        <dc:creator>
          <cc:Agent>
            <dc:title />
          </cc:Agent>
        </dc:creator>
        <cc:license
           rdf:resource="http://creativecommons.org/licenses/publicdomain/" />
      </cc:Work>
      <cc:License
         rdf:about="http://creativecommons.org/licenses/publicdomain/">
        <cc:permits
           rdf:resource="http://creativecommons.org/ns#Reproduction" />
        <cc:permits
           rdf:resource="http://creativecommons.org/ns#Distribution" />
        <cc:permits
           rdf:resource="http://creativecommons.org/ns#DerivativeWorks" />
      </cc:License>
    </rdf:RDF>
  </metadata>
  <g
     transform="translate(0,-4)"
     id="layer1"
     style="display:inline">
    <rect
       width="45"
       height="45"
       x="0.97637755"
       y="5.3622026"
       id="rect5647"
       style="fill:none;stroke:#ff00ff;stroke-width:3;stroke-linecap:butt;stroke-linejoin:round;stroke-miterlimit:4;stroke-opacity:0;stroke-dasharray:none;stroke-dashoffset:0" />
    <g
       transform="matrix(0.67073138,0,0,0.64309991,-147.76463,15.109145)"
       id="g3213"
       style="display:inline">
      <path
         d="m 120.25,16.84375 c -0.38616,-0.01019 -0.77034,0.01708 -1.125,0.0625 -3.92506,0.568438 -7.56081,2.510131 -10.375,5.25 a 0.37146772,0.37146772 0 0 0 -0.0312,0.0625 c -0.30675,0.379686 -0.39692,0.860931 -0.28125,1.3125 0.11046,0.431211 0.50459,0.826702 1.03125,0.875 l 0,0.03125 c 0.0217,0.003 0.041,-0.0023 0.0625,0 1.04964,0.112072 1.82976,-0.6357 2.40625,-1.21875 l 0.0312,0 0,0.03125 c 2.24752,-1.920723 4.7664,-3.680616 7.6875,-3.875 a 0.37146772,0.37146772 0 0 0 0.0312,0 c 0.0512,-0.0074 0.077,0.0074 0.125,0 -0.61516,0.739022 -1.52242,1.300685 -2.3125,2.0625 -1.25166,1.086365 -2.64414,2.267119 -3.25,4 a 0.37146772,0.37146772 0 0 0 0,0.03125 c -0.15507,0.555067 -0.0717,1.150815 0.21875,1.625 0.28544,0.466042 0.77402,0.826194 1.375,0.875 0.0105,8.53e-4 0.0207,-6.58e-4 0.0312,0 1.76988,0.237321 3.29869,-0.836764 4.59375,-1.59375 a 0.37146772,0.37146772 0 0 0 0.0312,0 c 0.57939,-0.378744 1.30806,-0.922952 1.9375,-1.3125 0.31472,-0.194774 0.58882,-0.36986 0.78125,-0.4375 0.065,-0.02285 0.0922,-0.02627 0.125,-0.03125 0.14498,0.247025 0.12667,0.46262 -0.0625,0.8125 -0.20586,0.380752 -0.62534,0.84489 -1.09375,1.3125 -0.46841,0.46761 -0.99788,0.939814 -1.4375,1.4375 -0.43962,0.497686 -0.80412,1.0141 -0.90625,1.59375 -0.26976,1.296876 0.63428,2.668348 1.96875,2.84375 0.01,0.0013 0.0213,-0.0012 0.0312,0 0.71566,0.105877 1.48096,-0.24207 2.21875,-0.65625 0.63545,-0.356731 1.14641,-0.776294 1.5625,-1.09375 -0.17886,0.364693 -0.39331,0.726335 -0.71875,1.0625 -0.46154,0.476755 -1.02375,0.93172 -1.40625,1.5625 -0.004,0.0073 0.004,0.02392 0,0.03125 -0.95074,1.375792 -1.08129,3.377665 0.125,4.6875 0.62312,0.716348 1.50559,1.021558 2.375,1.03125 0.85526,0.0095 1.70365,-0.249985 2.40625,-0.6875 0.0116,-0.0072 0.0197,-0.02391 0.0312,-0.03125 0.26272,-0.123808 0.51694,-0.295981 0.6875,-0.5625 0.16428,-0.256694 0.20299,-0.627956 0.0937,-0.96875 -0.002,-0.0087 0.002,-0.02268 0,-0.03125 -0.007,-0.02033 0.009,-0.0423 0,-0.0625 l -0.0312,0 c -0.12829,-0.346805 -0.46332,-0.569084 -0.78125,-0.5625 -0.35047,0.0073 -0.75185,0.260754 -0.8125,0.6875 a 0.37146772,0.37146772 0 0 0 0,0.03125 c -0.009,0.07483 -0.0167,0.05235 -0.0312,0.0625 -0.0146,0.01015 -0.0798,0.01744 -0.1875,0.03125 a 0.37146772,0.37146772 0 0 0 -0.0937,0.03125 c -0.40904,0.174703 -0.90946,0.265199 -1.34375,0.1875 -0.43429,-0.0777 -0.76758,-0.283566 -0.96875,-0.6875 a 0.37146772,0.37146772 0 0 0 0,-0.03125 c -0.17164,-0.327847 -0.17324,-0.671933 -0.0625,-1.0625 0.11074,-0.390567 0.3299,-0.782046 0.5625,-1.125 0.40891,-0.575416 1.00169,-1.091686 1.5625,-1.6875 0.56081,-0.595814 1.09404,-1.285201 1.21875,-2.21875 0.18701,-1.20359 -0.78141,-2.351962 -2,-2.34375 -0.0109,7.3e-5 -0.0204,-2.56e-4 -0.0312,0 -0.71965,-0.04704 -1.4169,0.389515 -2.09375,0.84375 -0.68628,0.460561 -1.33793,0.977961 -1.6875,1.15625 a 0.37146772,0.37146772 0 0 0 -0.0312,0.03125 c -0.0614,0.03537 -0.12611,0.0186 -0.15625,0 -0.0301,-0.0186 -0.0607,0.02867 -0.0312,-0.0625 A 0.37146772,0.37146772 0 0 0 122.25,30.125 c 0.075,-0.29987 0.51278,-0.773495 1.0625,-1.21875 0.53768,-0.435498 1.10945,-0.852158 1.46875,-1.3125 l 0.0312,0 c 0.004,-0.0049 -0.004,-0.02635 0,-0.03125 0.46693,-0.511924 0.8915,-1.138384 1.125,-1.84375 0.2362,-0.71352 0.28661,-1.506442 -0.0625,-2.25 a 0.37146772,0.37146772 0 0 0 -0.0312,-0.03125 c -0.60062,-0.971342 -1.52412,-1.313756 -2.4375,-1.21875 -0.91338,0.09501 -1.84461,0.529231 -2.71875,1.03125 -0.87414,0.502019 -1.70648,1.070305 -2.34375,1.40625 -0.31864,0.167972 -0.58122,0.285568 -0.75,0.3125 -0.14141,0.02257 -0.13134,-0.0016 -0.15625,-0.03125 0.0447,-0.07334 0.14227,-0.167969 0.28125,-0.3125 0.32297,-0.335863 0.84346,-0.7704 1.4375,-1.28125 1.18808,-1.021699 2.65821,-2.293907 3.34375,-3.625 0.46237,-1.012045 0.007,-2.305676 -1.09375,-2.65625 -0.38067,-0.153659 -0.77009,-0.208561 -1.15625,-0.21875 z"
         transform="matrix(3.1496117,0,0,3.1496117,-118.54906,-67.744158)"
         id="path3215"
         style="font-size:medium;font-style:normal;font-variant:normal;font-weight:normal;font-stretch:normal;text-indent:0;text-align:start;text-decoration:none;line-height:normal;letter-spacing:normal;word-spacing:normal;text-transform:none;direction:ltr;block-progression:tb;writing-mode:lr-tb;text-anchor:start;baseline-shift:baseline;color:#000000;fill:#babdb6;fill-opacity:1;stroke:none;stroke-width:1.5;marker:none;visibility:visible;display:inline;overflow:visible;filter:url(#filter3988);enable-background:accumulate;font-family:Sans;-inkscape-font-specification:Sans" />
      <path
         d="m 120.25,17.28125 c -0.34867,-0.0091 -0.71711,0.01826 -1.0625,0.0625 -3.8211,0.553381 -7.3731,2.477023 -10.125,5.15625 -0.18786,0.248067 -0.2658,0.63185 -0.1875,0.9375 0.0805,0.314107 0.28382,0.5535 0.65625,0.5625 0.85489,0.118249 1.55251,-0.513358 2.125,-1.09375 2.26935,-1.939384 4.88827,-3.76376 7.96875,-3.96875 0.30859,-0.04479 0.60353,-0.121917 0.9375,-0.0625 a 0.07221321,0.07221321 0 0 1 0.0312,0 0.07221321,0.07221321 0 0 1 0.0312,0.03125 0.07221321,0.07221321 0 0 1 0,0.03125 0.07221321,0.07221321 0 0 1 0,0.03125 c -0.61678,1.240147 -1.88421,1.917424 -2.8125,2.8125 -1.2535,1.087965 -2.60109,2.224652 -3.15625,3.8125 -0.11752,0.420686 -0.0411,0.876748 0.1875,1.25 0.22861,0.373252 0.60711,0.659151 1.0625,0.6875 1.56966,0.223947 3.02065,-0.757871 4.34375,-1.53125 0.55978,-0.365923 1.283,-0.907442 1.9375,-1.3125 0.32725,-0.202529 0.65425,-0.380169 0.90625,-0.46875 0.126,-0.04429 0.24246,-0.06485 0.34375,-0.0625 0.10129,0.0024 0.19005,0.04862 0.25,0.125 0.29493,0.420254 0.21786,0.883003 -0.0312,1.34375 -0.24911,0.460747 -0.67958,0.9304 -1.15625,1.40625 -0.47667,0.47585 -0.98843,0.964488 -1.40625,1.4375 -0.41782,0.473012 -0.73654,0.912644 -0.8125,1.34375 -0.21783,1.047245 0.52814,2.218542 1.59375,2.34375 0.49499,0.0824 1.25323,-0.223321 1.96875,-0.625 0.71552,-0.401679 1.41774,-0.906746 1.8125,-1.21875 0.0873,-0.05855 0.25426,-0.159732 0.40625,-0.1875 0.076,-0.01388 0.1609,-0.0018 0.21875,0.0625 0.0289,0.03213 0.0306,0.07935 0.0312,0.125 5.6e-4,0.03687 -0.0181,0.08062 -0.0312,0.125 -0.002,0.0096 0.002,0.02169 0,0.03125 -0.15088,0.697067 -0.58535,1.225868 -1.0625,1.71875 -0.4837,0.499645 -1.00998,0.972013 -1.34375,1.53125 -0.85733,1.222246 -0.95212,3.020606 0.0937,4.15625 0.5299,0.609184 1.25939,0.897646 2.03125,0.90625 0.77186,0.0086 1.58292,-0.252058 2.21875,-0.65625 0.20617,-0.09146 0.41219,-0.251467 0.53125,-0.4375 0.11906,-0.186033 0.16113,-0.392537 0.0625,-0.625 a 0.07221321,0.07221321 0 0 1 0,-0.03125 c -0.0412,-0.197709 -0.2288,-0.284925 -0.40625,-0.28125 -0.17745,0.0037 -0.34475,0.09963 -0.375,0.3125 -0.0208,0.173325 -0.0775,0.298453 -0.1875,0.375 -0.10232,0.07119 -0.24586,0.106417 -0.375,0.125 -0.01,0.0014 -0.0215,-0.0013 -0.0312,0 -0.48054,0.199312 -1.06676,0.313034 -1.59375,0.21875 -0.53706,-0.09609 -1.01261,-0.398087 -1.28125,-0.9375 -0.23547,-0.449768 -0.22479,-0.944098 -0.0937,-1.40625 0.13104,-0.462152 0.37711,-0.884508 0.625,-1.25 0.45439,-0.639427 1.08856,-1.180084 1.625,-1.75 0.53644,-0.569916 0.98644,-1.165491 1.09375,-1.96875 0.14501,-0.93332 -0.64874,-1.865954 -1.59375,-1.84375 -0.48305,-0.0408 -1.17815,0.334567 -1.84375,0.78125 -0.6656,0.446683 -1.30934,0.962752 -1.75,1.1875 -0.20516,0.118116 -0.4485,0.108872 -0.625,0 -0.1765,-0.108872 -0.26983,-0.339227 -0.1875,-0.59375 0.13057,-0.522335 0.65425,-0.980278 1.21875,-1.4375 0.5645,-0.457222 1.16475,-0.887817 1.4375,-1.25 a 0.07221321,0.07221321 0 0 1 0,-0.03125 c 0.43783,-0.476222 0.85211,-1.051933 1.0625,-1.6875 0.21039,-0.635567 0.23034,-1.313789 -0.0625,-1.9375 -0.52622,-0.85102 -1.23676,-1.08264 -2.03125,-1 -0.79449,0.08264 -1.67685,0.509319 -2.53125,1 -0.8544,0.490681 -1.6678,1.049914 -2.34375,1.40625 -0.33798,0.178168 -0.64716,0.302408 -0.90625,0.34375 -0.25099,0.04005 -0.4819,-0.01151 -0.625,-0.1875 0,0 0.0312,-0.03125 0.0312,-0.03125 l -0.0312,0 c -0.0374,-0.04582 -0.0613,-0.09812 -0.0625,-0.15625 -0.001,-0.06838 0.0271,-0.146475 0.0625,-0.21875 0.0709,-0.14455 0.19883,-0.316801 0.375,-0.5 0.35233,-0.366397 0.87634,-0.80305 1.46875,-1.3125 1.18483,-1.018899 2.6012,-2.269667 3.21875,-3.46875 0.35392,-0.774675 -0.0227,-1.80089 -0.84375,-2.0625 -0.31749,-0.128156 -0.65133,-0.178396 -1,-0.1875 z"
         transform="matrix(3.1496117,0,0,3.1496117,-118.54906,-67.744158)"
         id="path3217"
         style="font-size:medium;font-style:normal;font-variant:normal;font-weight:normal;font-stretch:normal;text-indent:0;text-align:start;text-decoration:none;line-height:normal;letter-spacing:normal;word-spacing:normal;text-transform:none;direction:ltr;block-progression:tb;writing-mode:lr-tb;text-anchor:start;baseline-shift:baseline;color:#000000;fill:#2e3436;fill-opacity:1;stroke:none;stroke-width:1.5;marker:none;visibility:visible;display:inline;overflow:visible;enable-background:accumulate;font-family:Sans;-inkscape-font-specification:Sans" />
    </g>
  </g>
</svg>
