<?xml version="1.0" encoding="UTF-8"?>
<svg width="16" height="16" fill="#bebebe" version="1.1" xmlns="http://www.w3.org/2000/svg"><path d="m9.5 0.5c-0.55 0-1 0.44-1 1v6c0 0.55 0.45 1 1 1s1-0.45 1-1v-6c0-0.56-0.45-1-1-1zm-1.67 4-2.47 0.97s-0.29 0.03-0.55-0.01c-2.96-0.38-3.67 1.32-3.65 2.37 0.02 1.04 0.99 1.51 1 2.67 0.46-0.55 0.26-0.9 0.33-1.62 0.06-0.73 0.32-1.41 0.68-1.72 4.66 7.34 0 0.01 4.79 7.75 0.38 0.57 1.06 0.77 1.52 0.44l4.98-3.61c0.46-0.34 0.51-1.05 0.12-1.62l-3.41-5.29v3c0 0.67-0.67 1.33-1.34 1.33h-0.66c-0.67 0-1.34-0.66-1.34-1.33zm-5 6c0.01 1.84-1.66 2-1.66 3 0 0.99 0.95 1.1 1.34 1s1.06-0.42 0.97-1.35c-0.08-0.93-0.34-1.59-0.65-2.65z"/></svg>
