<?xml version="1.0" encoding="UTF-8"?>
<svg width="16" height="16" version="1.1" xmlns="http://www.w3.org/2000/svg"><g transform="translate(-96 -972.36)"><g transform="translate(-400,224)" fill="#bebebe"><path transform="translate(0 -136)" d="m510 886.36-3 7-3-1 1-8c3 0 2.5 2 5 2z"/><path transform="translate(0 -136)" d="m504.9 893.52c-0.91889-0.28822-1.9492-0.11799-2.7591 0.52727-0.62007 0.49396-1.0021 1.1541-1.1087 1.881-0.11021 0.75177 0.24423 1.8197-1.7198 3.5212-0.0132 4e-3 -0.0277 0.0118-0.0405 0.0178-0.1175 0.0507-0.2207 0.13414-0.27118 0.26277-0.101 0.257 9e-3 0.52712 0.26597 0.62809 2.2149-0.17805 4.0888-0.25685 5.888-1.1539 0.32735-0.17953 0.51126-0.30346 0.71681-0.46722 1.2959-1.0324 1.5119-2.9142 0.47958-4.2101-0.38715-0.48595-0.89967-0.83388-1.451-1.0068z"/></g></g></svg>
