<?xml version="1.0" encoding="UTF-8" standalone="no"?>
<svg id="svg1" xmlns="http://www.w3.org/2000/svg" version="1.1" xmlns:dc="http://purl.org/dc/elements/1.1/" height="16" width="16" xmlns:rdf="http://www.w3.org/1999/02/22-rdf-syntax-ns#" xmlns:ns3="http://www.openswatchbook.org/uri/2009/osb" xmlns:ns5="http://creativecommons.org/ns#">
 <title id="title13694">MyPaint symbolic icons</title>
 <metadata id="metadata7">
  <rdf:RDF>
   <ns5:Work rdf:about="">
    <dc:format>image/svg+xml</dc:format>
    <dc:type rdf:resource="http://purl.org/dc/dcmitype/StillImage"/>
    <dc:title>MyPaint symbolic icons</dc:title>
    <ns5:license rdf:resource=""/>
    <dc:creator>
     <ns5:Agent>
      <dc:title>GNOME Project</dc:title>
     </ns5:Agent>
    </dc:creator>
    <dc:contributor>
     <ns5:Agent>
      <dc:title>Andrew Chadwick</dc:title>
     </ns5:Agent>
    </dc:contributor>
   </ns5:Work>
  </rdf:RDF>
 </metadata>
 <g id="layer1" transform="translate(-208 -524.36)">
  <g id="layer2" opacity=".5" transform="translate(229.28 556.07)" display="none" fill="#859f46">
   <rect id="48x48" style="color:#000000" height="48" width="48" display="inline" y="4.25" x="-2.25"/>
   <rect id="32x32" style="color:#000000" height="32" width="32" display="inline" y="20.25" x="53.75"/>
   <rect id="24x24" style="color:#000000" height="24" width="24" display="inline" y="28.25" x="93.75"/>
   <rect id="22x22" style="color:#000000" height="22" width="22" display="inline" y="30.25" x="125.75"/>
  </g>
  <rect id="rect4505-4-4" style="color:#000000" rx="0" ry=".35355" height="1" width="14" y="538.36" x="209" fill="#bebebe"/>
  <path id="path4760" style="color:#000000" d="m213.5 524.36 0.5 3h4l0.5-3z" fill="#bebebe"/>
  <path id="path5783" style="color:#000000" d="m219 531.36c0 0.48277-0.11403 1.1936-0.31664 1.9586-0.49272 1.8605-2.0093 4.0414-3.1834 4.0414 0-3-1.1429-3.3653-1.6903-3.95-0.5-0.53-0.81-1.26-0.81-2.05 0-1.6568 1.3432-3 3-3s3 1.3432 3 3z" fill="#bebebe"/>
 </g>
</svg>
