<?xml version="1.0" encoding="UTF-8"?>
<svg width="16" height="16" version="1.1" xmlns="http://www.w3.org/2000/svg"><g transform="translate(-16 -492.36)" fill="#bebebe"><path transform="translate(-16 -48)" d="m40 543.36c-4.4183 0-8 6-8 6s3.5817 6 8 6 8-6 8-6-3.5817-6-8-6zm0 2c3.866 0 6 4 6 4s-2.134 4-6 4-6-4-6-4 2.134-4 6-4z"/><path transform="translate(-16 -48)" d="m38.729 540.86a0.50005 0.50005 0 0 0-0.4668 0.61914l0.6875 3a0.50103 0.50103 0 1 0 0.97656-0.22461l-0.6875-3a0.50005 0.50005 0 0 0-0.50976-0.39453zm3.1211 0a0.50005 0.50005 0 0 0-0.46484 0.36914l-0.86524 3a0.50005 0.50005 0 1 0 0.96094 0.27539l0.86523-3a0.50005 0.50005 0 0 0-0.49609-0.64453zm-5.873 1.125a0.50005 0.50005 0 0 0-0.41016 0.75781l1.375 2.375a0.50099 0.50099 0 1 0 0.86719-0.50195l-1.375-2.375a0.50005 0.50005 0 0 0-0.45703-0.25586zm8.3906 0.22265a0.50005 0.50005 0 0 0-0.39844 0.24219l-1.332 2.1543a0.5003 0.5003 0 1 0 0.85156 0.52539l1.3301-2.1543a0.50005 0.50005 0 0 0-0.45117-0.76758zm-10.373 1.5918a0.50005 0.50005 0 0 0-0.34766 0.85742l2 2a0.50005 0.50005 0 1 0 0.70703-0.70703l-2-2a0.50005 0.50005 0 0 0-0.35938-0.15039zm11.984 0a0.50005 0.50005 0 0 0-0.37305 0.19727l-1.5625 2a0.50028 0.50028 0 1 0 0.78906 0.61523l1.5625-2a0.50005 0.50005 0 0 0-0.41602-0.8125zm-12.984 2a0.50005 0.50005 0 0 0-0.34766 0.85742l1 1a0.50005 0.50005 0 1 0 0.70703-0.70703l-1-1a0.50005 0.50005 0 0 0-0.35938-0.15039zm13.996 0a0.50005 0.50005 0 0 0-0.34375 0.15039l-1 1a0.50005 0.50005 0 1 0 0.70703 0.70703l1-1a0.50005 0.50005 0 0 0-0.36328-0.85742z"/><path transform="translate(0 412.36)" d="m24 86c-1.6569 0-3 1.3431-3 3s1.3431 3 3 3 3-1.3431 3-3-1.3431-3-3-3zm-0.5 0.75c0.41421 0 0.75 0.33579 0.75 0.75s-0.33579 0.75-0.75 0.75-0.75-0.33579-0.75-0.75 0.33579-0.75 0.75-0.75z"/></g></svg>
