<?xml version="1.0" encoding="UTF-8"?>
<svg width="16" height="16" version="1.1" xmlns="http://www.w3.org/2000/svg"><g transform="translate(-256 -876.36)"><g transform="translate(-185.96 700.43)"><g transform="translate(232.96,-819.04)" fill="#bebebe"><path d="m209.5 998.97c-0.25 0-0.5 0.25-0.5 0.5v9c0 1 0.5 1.5 1.5 1.5h10c0.25 0 0.5-0.25 0.5-0.5v-5c-2e-3 -0.25-0.25-0.5-0.5-0.5h-9.5v4.5c2e-3 0.25-0.223 0.5-0.5 0.5-0.25 0-0.5-0.25-0.5-0.5v-5c-2e-3 -0.25 0.25-0.5 0.5-0.5h8.5v-2h-5v-1.5c0-0.25-0.25-0.5-0.5-0.5z"/><path d="m220 994.97v3h-3v2h3v3h2v-3h3v-2h-3v-3z"/></g></g></g></svg>
