<?xml version="1.0" encoding="UTF-8" standalone="no"?>
<svg id="svg1" xmlns="http://www.w3.org/2000/svg" version="1.1" xmlns:dc="http://purl.org/dc/elements/1.1/" height="16" width="16" xmlns:rdf="http://www.w3.org/1999/02/22-rdf-syntax-ns#" xmlns:ns4="http://creativecommons.org/ns#">
 <title id="title13694">MyPaint symbolic icons</title>
 <metadata id="metadata7">
  <rdf:RDF>
   <ns4:Work rdf:about="">
    <dc:format>image/svg+xml</dc:format>
    <dc:type rdf:resource="http://purl.org/dc/dcmitype/StillImage"/>
    <dc:title>MyPaint symbolic icons</dc:title>
    <ns4:license rdf:resource=""/>
    <dc:creator>
     <ns4:Agent>
      <dc:title>GNOME Project</dc:title>
     </ns4:Agent>
    </dc:creator>
    <dc:contributor>
     <ns4:Agent>
      <dc:title>Andrew Chadwick</dc:title>
     </ns4:Agent>
    </dc:contributor>
   </ns4:Work>
  </rdf:RDF>
 </metadata>
 <g id="layer1" transform="translate(-256 -588.36)">
  <g id="layer2" opacity=".5" transform="translate(229.28 556.07)" display="none" fill="#859f46">
   <rect id="48x48" style="color:#000000" height="48" width="48" display="inline" y="4.25" x="-2.25"/>
   <rect id="32x32" style="color:#000000" height="32" width="32" display="inline" y="20.25" x="53.75"/>
   <rect id="24x24" style="color:#000000" height="24" width="24" display="inline" y="28.25" x="93.75"/>
   <rect id="22x22" style="color:#000000" height="22" width="22" display="inline" y="30.25" x="125.75"/>
   <rect id="16x16" style="color:#000000" height="16" width="16" display="inline" y="36.25" x="155.75"/>
  </g>
  <rect id="rect4505" style="color:#000000" rx="0" transform="translate(144 -176)" height="1" width="14" y="778.36" x="113" fill="#bebebe"/>
  <path id="path5566" style="color:#000000" d="m222 177c-6.6274 0-12 5.3726-12 12h1c0-6.0751 4.9249-11 11-11z" transform="translate(48 412.36)" fill="#bebebe"/>
  <path id="path5572" style="color:#000000" d="m222 179c-5.5228 0-10 4.4772-10 10h2c0-4.4183 3.5817-8 8-8z" transform="translate(48 412.36)" fill="#bebebe"/>
  <path id="path5577" style="color:#000000" d="m222 182c-3.866 0-7 3.134-7 7h1c0-3.3137 2.6863-6 6-6z" transform="translate(48 412.36)" fill="#bebebe"/>
 </g>
</svg>
