<?xml version="1.0" encoding="UTF-8" standalone="no"?>
<svg id="svg1" xmlns="http://www.w3.org/2000/svg" version="1.1" xmlns:dc="http://purl.org/dc/elements/1.1/" height="16" width="16" xmlns:rdf="http://www.w3.org/1999/02/22-rdf-syntax-ns#" xmlns:ns4="http://creativecommons.org/ns#">
 <defs id="defs3">
  <clipPath id="clipPath5634" clipPathUnits="userSpaceOnUse">
   <rect id="use5636" style="color:#000000" fill-opacity=".3125" height="16" width="16" y="548.36" x="176" fill="#606060"/>
  </clipPath>
  <clipPath id="clipPath5638" clipPathUnits="userSpaceOnUse">
   <rect id="use5640" style="color:#000000" fill-opacity=".3125" height="16" width="16" y="548.36" x="176" fill="#606060"/>
  </clipPath>
  <clipPath id="clipPath5642" clipPathUnits="userSpaceOnUse">
   <rect id="use5644" style="color:#000000" fill-opacity=".3125" height="16" width="16" y="548.36" x="176" fill="#606060"/>
  </clipPath>
 </defs>
 <metadata id="metadata7">
  <rdf:RDF>
   <ns4:Work rdf:about="">
    <dc:format>image/svg+xml</dc:format>
    <dc:type rdf:resource="http://purl.org/dc/dcmitype/StillImage"/>
    <dc:title/>
   </ns4:Work>
  </rdf:RDF>
 </metadata>
 <g id="layer1" transform="translate(-176 -548.36)">
  <g id="layer2" opacity=".5" transform="translate(229.28 556.07)" display="none" fill="#859f46">
   <rect id="48x48" style="color:#000000" height="48" width="48" display="inline" y="4.25" x="-2.25"/>
   <rect id="32x32" style="color:#000000" height="32" width="32" display="inline" y="20.25" x="53.75"/>
   <rect id="24x24" style="color:#000000" height="24" width="24" display="inline" y="28.25" x="93.75"/>
   <rect id="22x22" style="color:#000000" height="22" width="22" display="inline" y="30.25" x="125.75"/>
  </g>
  <path id="path9274-0" style="color:#000000" d="m179.6 548.71c-1.3614 2.356 1.345 3.5979 1.3992 5.1548 0.0629 1.8042-1.6344 2.3735-2.6131 2.1177-1.2349-0.3227-1.7897-1.3745-1.8401-2.3756-0.0967-1.9205 2.061-5.1727 3.054-4.8968z" fill-rule="evenodd" fill="#bebebe"/>
  <path id="path9264-6" style="color:#000000" d="m182.17 568.74c0.32722 0.65675 0.82152 0.44765 0.73608-0.34905-0.60074-5.6018-0.19702-6.1563-1.8815-12.294-0.6564 0.76004-1.7012 1.0274-2.7118 0.79181 0.96041 6.4386 2.6483 8.4282 3.8572 11.851z" fill-rule="evenodd" clip-path="url(#clipPath5642)" fill="#bebebe"/>
  <path id="path9274-0-8" style="color:#000000" d="m188.63 549.97c1.3614 2.356-1.345 3.5979-1.3992 5.1548-0.0629 1.8042 1.6344 2.3735 2.6131 2.1177 1.2349-0.3227 1.7897-1.3745 1.8401-2.3756 0.0967-1.9205-2.061-5.1727-3.054-4.8968z" fill-rule="evenodd" fill="#bebebe"/>
  <path id="path9264-6-8" style="color:#000000" d="m186.88 570.13c0.0607 0.73123 0.59732 0.72007 0.81302-0.0516 1.5167-5.426 2.097-5.7915 2.8054-12.116-0.89122 0.46289-1.9607 0.32432-2.8123-0.26885-1.4925 6.3365-0.66153 8.8097-0.80619 12.437z" fill-rule="evenodd" clip-path="url(#clipPath5638)" fill="#bebebe"/>
  <path id="path9274-0-4" style="color:#000000" d="m184.07 548.39c0.19134 1.1305-1.134 2.623-1.6009 3.5455-0.28391 0.56103-0.4301 1.0747-0.23235 1.6297 0.30011 0.84221 0.89009 1.2438 1.5083 1.362 0.63002 0.12043 1.2894-0.0535 1.7011-0.35544 0.52489-0.38493 0.79699-0.86647 0.86757-1.3852 0.26355-1.937-0.94767-4.3467-2.2437-4.7965z" fill-rule="evenodd" fill="#bebebe"/>
  <path id="path9264-6-0" style="color:#000000" d="m184.5 568.02c0.18987 0.70876 0.71591 0.60229 0.79086-0.19546 0.52689-5.6093 1.033-6.0722 0.60458-12.422-0.79462 0.61409-1.8717 0.66806-2.8152 0.23589-0.34112 6.5009 0.91668 8.7868 1.4198 12.382z" fill-rule="evenodd" clip-path="url(#clipPath5634)" fill="#bebebe"/>
 </g>
</svg>
