<?xml version="1.0" encoding="UTF-8" standalone="no"?>
<svg id="svg1" xmlns="http://www.w3.org/2000/svg" version="1.1" xmlns:dc="http://purl.org/dc/elements/1.1/" height="16" width="16" xmlns:rdf="http://www.w3.org/1999/02/22-rdf-syntax-ns#" xmlns:ns4="http://creativecommons.org/ns#">
 <title id="title13694">MyPaint symbolic icons</title>
 <metadata id="metadata7">
  <rdf:RDF>
   <ns4:Work rdf:about="">
    <dc:format>image/svg+xml</dc:format>
    <dc:type rdf:resource="http://purl.org/dc/dcmitype/StillImage"/>
    <dc:title>MyPaint symbolic icons</dc:title>
    <ns4:license rdf:resource=""/>
    <dc:creator>
     <ns4:Agent>
      <dc:title>GNOME Project</dc:title>
     </ns4:Agent>
    </dc:creator>
    <dc:contributor>
     <ns4:Agent>
      <dc:title>Andrew Chadwick</dc:title>
     </ns4:Agent>
    </dc:contributor>
   </ns4:Work>
  </rdf:RDF>
 </metadata>
 <g id="layer1" transform="translate(-96 -492.36)">
  <g id="g9272" style="color:#000000" fill-rule="evenodd" transform="matrix(.87462 0 0 .89178 121.93 482.9)" fill="#bebebe">
   <path id="path9274" style="color:#000000" d="m-28.5 27.571c3.1111 0.0011 2.7936-3.3234 4.3042-4.249 1.7505-1.0726 3.2845 0.25648 3.5908 1.3503 0.38644 1.3802-0.33783 2.5087-1.3003 3.1189-1.8464 1.1707-6.3 0.89871-6.5946-0.22026z" fill-rule="evenodd" fill="#bebebe"/>
  </g>
  <path id="path9264" style="color:#000000" d="m76.417 178.36c0.30836-0.6658-0.16372-0.92113-0.73242-0.35668-3.9987 3.9688-4.6839 4-8.4238 9.1497 1.0036 0.0377 1.8651 0.68644 2.3125 1.6228 4.4274-4.7725 4.9264-7.3334 6.8438-10.416z" fill-rule="evenodd" transform="translate(35 315.34)" fill="#bebebe"/>
  <g id="layer2" opacity=".5" transform="translate(229.28 556.07)" display="none" fill="#859f46">
   <rect id="48x48" style="color:#000000" height="48" width="48" display="inline" y="4.25" x="-2.25"/>
   <rect id="32x32" style="color:#000000" height="32" width="32" display="inline" y="20.25" x="53.75"/>
   <rect id="24x24" style="color:#000000" height="24" width="24" display="inline" y="28.25" x="93.75"/>
   <rect id="22x22" style="color:#000000" height="22" width="22" display="inline" y="30.25" x="125.75"/>
   <rect id="16x16" style="color:#000000" height="16" width="16" display="inline" y="36.25" x="155.75"/>
  </g>
 </g>
</svg>
