<?xml version="1.0" encoding="UTF-8"?>
<svg width="16" height="16" version="1.1" xmlns="http://www.w3.org/2000/svg"><g transform="translate(-96 -492.36)" fill="#bebebe"><g transform="matrix(.87462 0 0 .89178 121.93 482.9)"><path d="m-28.5 27.571c3.1111 0.0011 2.7936-3.3234 4.3042-4.249 1.7505-1.0726 3.2845 0.25648 3.5908 1.3503 0.38644 1.3802-0.33783 2.5087-1.3003 3.1189-1.8464 1.1707-6.3 0.89871-6.5946-0.22026z" fill="#bebebe"/></g><path transform="translate(35 315.34)" d="m76.417 178.36c0.30836-0.6658-0.16372-0.92113-0.73242-0.35668-3.9987 3.9688-4.6839 4-8.4238 9.1497 1.0036 0.0377 1.8651 0.68644 2.3125 1.6228 4.4274-4.7725 4.9264-7.3334 6.8438-10.416z"/></g></svg>
