<?xml version="1.0" encoding="UTF-8"?>
<svg width="16" height="16" fill="#bebebe" version="1.1" xmlns="http://www.w3.org/2000/svg"><path d="m2 1c-0.55 0-1 0.45-1 1v10c0 0.55 0.45 1 1 1h12c0.55 0 1-0.45 1-1v-9.97c-0.4 0.49-0.8 0.94-1.12 1.31-0.31 0.34-0.6 0.66-0.88 0.94h-0.03c-0.9 0.95-2.27 2.27-3.97 3.72 0.07 0.5 0.1 1.04-0.16 1.53-0.3 0.59-0.9 1.07-1.65 1.25-0.65 0.16-1.37 0.27-2.07 0.22-0.34-0.02-0.68-0.07-1.02-0.22-0.36-0.15-0.8-0.48-0.94-1.03-0.16-0.63 0.31-1.25 0.96-1.25 0.2 0 0.21-0.03 0.26-0.06 0.04-0.04 0.12-0.15 0.22-0.34 0.18-0.39 0.25-1.15 1.12-1.72 0.38-0.25 0.81-0.32 1.22-0.32 1-1.43 2.12-2.96 3.31-4.28 0.25-0.28 0.5-0.54 0.75-0.78zm0.38 13-0.28 0.56a1.0018 1.0018 0 0 0 1.8 0.88l0.72-1.44zm9 0 0.72 1.44a1.0018 1.0018 0 0 0 1.8-0.88l-0.28-0.56z"/><path d="m18.03-4c-1.8 1.3-4.18 3.31-6.09 5.34-0.4 0.36-0.7 0.72-1.04 1.1-1.3 1.44-2.58 3.12-3.65 4.68-0.31-0.15-0.68-0.17-1.09 0.1-0.76 0.5-0.61 2.28-2.16 2.28 0.15 0.6 1.74 0.58 2.81 0.31 1.02-0.25 1.32-1.13 1.13-1.87-0.03-0.11-0.1-0.21-0.16-0.32 1.98-1.62 3.42-3.01 4.38-4.02 0.24-0.25 0.52-0.59 0.84-0.94 1.2-1.34 2.91-3.43 5.03-6.66z"/></svg>
