<?xml version="1.0" encoding="UTF-8" standalone="no"?>
<svg id="svg1" xmlns="http://www.w3.org/2000/svg" version="1.1" xmlns:dc="http://purl.org/dc/elements/1.1/" height="16" width="16" xmlns:rdf="http://www.w3.org/1999/02/22-rdf-syntax-ns#" xmlns:ns4="http://creativecommons.org/ns#">
 <metadata id="metadata7">
  <rdf:RDF>
   <ns4:Work rdf:about="">
    <dc:format>image/svg+xml</dc:format>
    <dc:type rdf:resource="http://purl.org/dc/dcmitype/StillImage"/>
    <dc:title/>
   </ns4:Work>
  </rdf:RDF>
 </metadata>
 <g id="layer1" transform="translate(-56 -740.36)">
  <g id="layer2" opacity=".5" transform="translate(229.28 556.07)" display="none" fill="#859f46">
   <rect id="48x48" style="color:#000000" height="48" width="48" display="inline" y="4.25" x="-2.25"/>
   <rect id="32x32" style="color:#000000" height="32" width="32" display="inline" y="20.25" x="53.75"/>
   <rect id="24x24" style="color:#000000" height="24" width="24" display="inline" y="28.25" x="93.75"/>
   <rect id="22x22" style="color:#000000" height="22" width="22" display="inline" y="30.25" x="125.75"/>
  </g>
  <path id="path19708-8-0-0" fill="#bebebe" d="m71 740.36-3 3h-2.0312-0.59375-3.375-5l3-3z"/>
  <path id="path19708-8-2-1-3-1" opacity=".3" d="m63.5 749.36-1 1h2.5v-1h-1.5zm-1 1-1.5 1.5-1.75-1.75-2.25 2.25h6.5l-1-1v-1zm6.5-1v1h1l1-1h-2zm-9 4-3 3h11l3-3h-1.5l-2.5 2.5-2.5-2.5h-4.5z" fill="#bebebe"/>
  <path id="path19710-2-5" fill="#bebebe" d="m62 744.36h2v2h-2v0.98833h2l-3 2.9883-3-2.9883h2v-0.98833c0-1 1-2 2-2z"/>
  <path id="path19710-2-5-4" fill="#bebebe" d="m63 744.36h3c1 0 2 1 2 2v5h2l-3 2.9883-3-2.9883h2v-5h-3z"/>
 </g>
</svg>
