<?xml version="1.0" encoding="UTF-8"?>
<svg width="16" height="16" version="1.1" xmlns="http://www.w3.org/2000/svg"><g transform="translate(-256 -852.36)"><g transform="translate(48 -143.61)"><path d="m209.5 997.97c-0.25 0-0.5 0.25-0.5 0.5v11c0 1 0.5 1.5 1.5 1.5h12c0.25 0 0.5-0.25 0.5-0.5v-7c0-0.25-0.25-0.5-0.5-0.5h-11.5v6.5c0 0.25-0.223 0.5-0.5 0.5-0.25 0-0.5-0.25-0.5-0.5v-7c0-0.25 0.25-0.5 0.5-0.5h11.5v-1.5c0-0.25-0.25-0.5-0.5-0.5h-7.5v-1.5c0-0.25-0.25-0.5-0.5-0.5z" fill="#bebebe"/></g></g></svg>
