<?xml version="1.0" encoding="UTF-8"?>
<svg width="16" height="16" fill="#bebebe" version="1.1" xmlns="http://www.w3.org/2000/svg"><path d="m6.72 0.78c-1.22 0.07-2.47 0.62-3.32 1.25-2.9 2.19-2.95 6.83-0.34 10.13 2.62 3.3 7.07 4.18 9.91 1.9 1.43-1.14 2.01-2.86 1.91-4.68-0.11-1.82-0.89-3.74-2.19-5.38-1.71-2.15-3.83-3.33-5.97-3.22zm1.75 1.97c1.31 0.08 2.58 0.62 3.5 1.78 0.92 1.17 1.29 2.7 1.19 4.16-0.11 1.45-0.7 2.82-1.66 3.59-1.93 1.56-4.98 0.95-6.84-1.4-1.86-2.36-1.76-5.48 0.18-7.04 0.98-0.78 2.32-1.17 3.63-1.09z"/></svg>
