<?xml version="1.0" encoding="UTF-8" standalone="no"?>
<svg id="svg1" xmlns="http://www.w3.org/2000/svg" version="1.1" xmlns:dc="http://purl.org/dc/elements/1.1/" height="16" width="16" xmlns:rdf="http://www.w3.org/1999/02/22-rdf-syntax-ns#" xmlns:ns4="http://creativecommons.org/ns#">
 <title id="title13694">MyPaint symbolic icons</title>
 <metadata id="metadata7">
  <rdf:RDF>
   <ns4:Work rdf:about="">
    <dc:format>image/svg+xml</dc:format>
    <dc:type rdf:resource="http://purl.org/dc/dcmitype/StillImage"/>
    <dc:title>MyPaint symbolic icons</dc:title>
    <ns4:license rdf:resource=""/>
    <dc:creator>
     <ns4:Agent>
      <dc:title>GNOME Project</dc:title>
     </ns4:Agent>
    </dc:creator>
    <dc:contributor>
     <ns4:Agent>
      <dc:title>Andrew Chadwick</dc:title>
     </ns4:Agent>
    </dc:contributor>
   </ns4:Work>
  </rdf:RDF>
 </metadata>
 <g id="layer1" transform="translate(-256 -620.36)">
  <g id="layer2" opacity=".5" transform="translate(229.28 556.07)" display="none" fill="#859f46">
   <rect id="48x48" style="color:#000000" height="48" width="48" display="inline" y="4.25" x="-2.25"/>
   <rect id="32x32" style="color:#000000" height="32" width="32" display="inline" y="20.25" x="53.75"/>
   <rect id="24x24" style="color:#000000" height="24" width="24" display="inline" y="28.25" x="93.75"/>
   <rect id="22x22" style="color:#000000" height="22" width="22" display="inline" y="30.25" x="125.75"/>
   <rect id="16x16" style="color:#000000" height="16" width="16" display="inline" y="36.25" x="155.75"/>
  </g>
  <path id="path4066" style="color:#000000" d="m72.156 218c-0.07885 0.0161-0.1595 0.0696-0.21875 0.125l-4.2812 4 4.0312 4.3438 4.1562-3.875c0.23699-0.22144 0.17839-0.68283-0.125-1.0312l-2.78-3.22c-0.228-0.26-0.545-0.39-0.782-0.34z" fill-rule="evenodd" transform="translate(195 403.36)" fill="#bebebe"/>
  <path id="rect34152" style="color:#000000" d="m66.5 223.22-2.3438 2.1875c-0.23699 0.22144-0.20964 0.68283 0.09375 1.0312l2.8125 3.2188c0.30339 0.34842 0.73176 0.44019 0.96875 0.21875l2.4688-2.3125z" fill-rule="evenodd" transform="translate(195 403.36)" fill="#bebebe"/>
  <path id="rect34161" style="color:#000000" d="m69.7 231c-0.3878 0-0.7 0.223-0.7 0.5s0.3122 0.5 0.7 0.5h6.3v-1h-4.9z" fill-rule="evenodd" transform="translate(195 403.36)" fill="#bebebe"/>
  <path id="path34166" style="color:#000000" d="m64.3 231c0.3878 0 0.7 0.223 0.7 0.5s-0.3122 0.5-0.7 0.5h-2.3v-1h2.3z" fill-rule="evenodd" transform="translate(195 403.36)" fill="#bebebe"/>
 </g>
</svg>
