<?xml version="1.0" encoding="UTF-8" standalone="no"?>
<svg id="svg1" xmlns="http://www.w3.org/2000/svg" version="1.1" xmlns:dc="http://purl.org/dc/elements/1.1/" height="16" width="16" xmlns:rdf="http://www.w3.org/1999/02/22-rdf-syntax-ns#" xmlns:ns3="http://www.openswatchbook.org/uri/2009/osb" xmlns:ns5="http://creativecommons.org/ns#">
 <title id="title13694">MyPaint symbolic icons</title>
 <metadata id="metadata7">
  <rdf:RDF>
   <ns5:Work rdf:about="">
    <dc:format>image/svg+xml</dc:format>
    <dc:type rdf:resource="http://purl.org/dc/dcmitype/StillImage"/>
    <dc:title>MyPaint symbolic icons</dc:title>
    <ns5:license rdf:resource=""/>
    <dc:creator>
     <ns5:Agent>
      <dc:title>GNOME Project</dc:title>
     </ns5:Agent>
    </dc:creator>
    <dc:contributor>
     <ns5:Agent>
      <dc:title>Andrew Chadwick</dc:title>
     </ns5:Agent>
    </dc:contributor>
   </ns5:Work>
  </rdf:RDF>
 </metadata>
 <g id="layer1" transform="translate(-208 -620.36)">
  <g id="layer2" opacity=".5" transform="translate(229.28 556.07)" display="none" fill="#859f46">
   <rect id="48x48" style="color:#000000" height="48" width="48" display="inline" y="4.25" x="-2.25"/>
   <rect id="32x32" style="color:#000000" height="32" width="32" display="inline" y="20.25" x="53.75"/>
   <rect id="24x24" style="color:#000000" height="24" width="24" display="inline" y="28.25" x="93.75"/>
   <rect id="22x22" style="color:#000000" height="22" width="22" display="inline" y="30.25" x="125.75"/>
  </g>
  <path id="path4066" style="color:#000000" d="m219.16 621.36c-0.0788 0.0161-0.1595 0.0696-0.21875 0.125l-4.2812 4 4.0312 4.3438 4.1562-3.875c0.23699-0.22144 0.17839-0.68283-0.125-1.0312l-2.7812-3.2188c-0.22754-0.26132-0.54469-0.39209-0.78125-0.34375z" fill-rule="evenodd" fill="#bebebe"/>
  <path id="rect34152" style="color:#000000" d="m213.5 626.58-2.3438 2.1875c-0.23699 0.22144-0.20964 0.68283 0.0937 1.0312l2.8125 3.2188c0.30339 0.34842 0.73176 0.44019 0.96875 0.21875l2.4688-2.3125-4-4.3438z" fill-rule="evenodd" fill="#bebebe"/>
  <path id="rect34161" style="color:#000000" d="m216.7 634.36c-0.3878 0-0.7 0.223-0.7 0.5s0.3122 0.5 0.7 0.5h1.4 4.2 0.7v-0.5-0.5h-0.7-4.2-1.4z" fill-rule="evenodd" fill="#bebebe"/>
  <path id="path34166" style="color:#000000" d="m211.3 634.36c0.3878 0 0.7 0.223 0.7 0.5s-0.3122 0.5-0.7 0.5h-2.3v-0.5-0.5h2.3z" fill-rule="evenodd" fill="#bebebe"/>
 </g>
</svg>
