<?xml version="1.0" encoding="UTF-8"?>
<svg width="16" height="16" version="1.1" xmlns="http://www.w3.org/2000/svg"><g transform="translate(-96 -748.36)" fill="#bebebe"><path transform="translate(-85 571.36)" d="m191.61 182.4-4.2202 5.6634-1.694 1.4926-0.69772-0.56071 0.99632-2.0533 4.2202-5.6634z"/><path transform="matrix(.98727 0 0 .98727 -82.646 573.78)" d="m185 189.57s-1.4772 0.66848-1.4654 2.0797c0.0147 1.758 2.6601 1.8434 2.7433 0.28446 0.0475-0.89097-1.2779-2.3642-1.2779-2.3642z"/><path transform="translate(-85 571.36)" d="m187.65 181.43 4.6492 3.5274 0.70445-0.92575-1.3947-1.0582c2.8037-0.79322 4.7199-4.1748 2.8603-5.5858-1.8597-1.4109-4.7057 1.2652-4.7199 4.1749l-1.3948-1.0582z"/></g></svg>
