<?xml version="1.0" encoding="UTF-8" standalone="no"?>
<svg id="svg1" xmlns="http://www.w3.org/2000/svg" version="1.1" xmlns:dc="http://purl.org/dc/elements/1.1/" height="16" width="16" xmlns:rdf="http://www.w3.org/1999/02/22-rdf-syntax-ns#" xmlns:ns4="http://creativecommons.org/ns#">
 <title id="title13694">MyPaint symbolic icons</title>
 <metadata id="metadata7">
  <rdf:RDF>
   <ns4:Work rdf:about="">
    <dc:format>image/svg+xml</dc:format>
    <dc:type rdf:resource="http://purl.org/dc/dcmitype/StillImage"/>
    <dc:title>MyPaint symbolic icons</dc:title>
    <ns4:license rdf:resource=""/>
    <dc:creator>
     <ns4:Agent>
      <dc:title>GNOME Project</dc:title>
     </ns4:Agent>
    </dc:creator>
    <dc:contributor>
     <ns4:Agent>
      <dc:title>Andrew Chadwick</dc:title>
     </ns4:Agent>
    </dc:contributor>
   </ns4:Work>
  </rdf:RDF>
 </metadata>
 <g id="layer1" transform="translate(-496 -716.36)">
  <g id="layer2" opacity=".5" transform="translate(229.28 556.07)" display="none" fill="#859f46">
   <rect id="48x48" style="color:#000000" height="48" width="48" display="inline" y="4.25" x="-2.25"/>
   <rect id="32x32" style="color:#000000" height="32" width="32" display="inline" y="20.25" x="53.75"/>
   <rect id="24x24" style="color:#000000" height="24" width="24" display="inline" y="28.25" x="93.75"/>
   <rect id="22x22" style="color:#000000" height="22" width="22" display="inline" y="30.25" x="125.75"/>
   <rect id="16x16" style="color:#000000" height="16" width="16" display="inline" y="36.25" x="155.75"/>
  </g>
  <path id="path13311" style="color:#000000;text-indent:0;text-decoration-line:none;text-transform:none" font-family="Sans" d="m37.965 946.33-1.9655 0.0312v-11h4.555l3.4006 3.4062v1.5625h1.9967v-2c-0.002-0.26843-0.11737-0.53419-0.31198-0.71875l-3.9622-3.9375c-0.18426-0.19489-0.44958-0.31044-0.71756-0.31245h-5.9589c-0.52271 0.00005-0.9983 0.47642-0.99835 1v12.969c0.00005 0.52358 0.47563 0.99995 0.99835 1h4.9605z" transform="translate(464,-216)" line-height="normal" fill="#bebebe"/>
  <path id="path11654" d="m37.002 942.36 4-4v8z" transform="translate(464,-216)" fill="#bebebe"/>
  <path id="path11656" style="color-rendering:auto;text-decoration-color:#000000;color:#000000;font-variant-numeric:normal;text-orientation:mixed;shape-padding:0;shape-rendering:auto;solid-color:#000000;text-decoration-line:none;text-rendering:auto;font-variant-position:normal;mix-blend-mode:normal;font-feature-settings:normal;font-variant-alternates:normal;text-indent:0;font-variant-ligatures:normal;dominant-baseline:auto;font-variant-caps:normal;image-rendering:auto;white-space:normal;text-decoration-style:solid;isolation:auto;text-transform:none" font-family="sans-serif" d="m39.182 941.41v1.8789h5.6523c0.6084 0 1.2363 0.63119 1.2363 1.5977 0 0.96646-0.62793 1.5976-1.2363 1.5976h-0.43359v1.8789h0.43359c1.7935 0 3.1152-1.64 3.1152-3.4766s-1.3217-3.4766-3.1152-3.4766z" transform="translate(464,-216)" line-height="normal" fill="#bebebe"/>
 </g>
</svg>
