<?xml version="1.0" encoding="UTF-8"?>
<svg width="16" height="16" version="1.1" xmlns="http://www.w3.org/2000/svg"><g transform="translate(-416 -524.36)" fill="#bebebe"><path transform="translate(200 -456)" d="m219 992.86h10c1 0 2-1 2-2v3c0 1-1 2-2 2h-10c-1 0-1.5-0.5-1.5-1.5s0.5-1.5 1.5-1.5z" opacity=".3"/><path transform="translate(80 412.36)" d="m338.5 112c-0.5 0-1.5 0.5-1.5 1.5v13c0 1 1 1.5 1.5 1.5h10.5c1 0 2-1 2-2v-1c0 1-1 2-2 2h-10c-1 0-1-0.5-1-1s0-1 1-1h10c1 0 2-0.99998 2-2v-9c0-1-1-2-2-2zm2.5 2h2v4.5l4.5-4.5h0.5v9h-0.5l-4.5-4.5v4.5h-2z"/></g></svg>
