<?xml version="1.0" encoding="UTF-8" standalone="no"?>
<svg id="svg1" xmlns="http://www.w3.org/2000/svg" version="1.1" xmlns:dc="http://purl.org/dc/elements/1.1/" height="16" width="16" xmlns:rdf="http://www.w3.org/1999/02/22-rdf-syntax-ns#" xmlns:ns4="http://creativecommons.org/ns#">
 <metadata id="metadata7">
  <rdf:RDF>
   <ns4:Work rdf:about="">
    <dc:format>image/svg+xml</dc:format>
    <dc:type rdf:resource="http://purl.org/dc/dcmitype/StillImage"/>
    <dc:title/>
   </ns4:Work>
  </rdf:RDF>
 </metadata>
 <g id="layer1" transform="translate(-240 -556.36)">
  <g id="layer2" opacity=".5" transform="translate(229.28 556.07)" display="none" fill="#859f46">
   <rect id="48x48" style="color:#000000" height="48" width="48" display="inline" y="4.25" x="-2.25"/>
   <rect id="32x32" style="color:#000000" height="32" width="32" display="inline" y="20.25" x="53.75"/>
   <rect id="24x24" style="color:#000000" height="24" width="24" display="inline" y="28.25" x="93.75"/>
   <rect id="22x22" style="color:#000000" height="22" width="22" display="inline" y="30.25" x="125.75"/>
  </g>
  <path id="path3243" style="block-progression:tb;text-indent:0;color:#000000;text-transform:none" font-family="Sans" d="m240.76 557.35 2.7589 4.1139 3.2892 3.6082 3.2892 3.6082 3.7143 3.2147-2.4914-4.182-3.2892-3.6131-3.2892-3.6131z" line-height="normal" fill="#bebebe"/>
  <path id="path3247" style="block-progression:tb;text-indent:0;color:#000000;text-transform:none" font-family="Sans" d="m244.33 556.91c1.7266 1.1125 4.8936 2.3775 6.7166 5.1168 1.5273 2.295 2.0406 2.9967 3.7296 7.8771-0.38585-5.7188-0.86725-6.7856-2.3693-9.0309-1.588-2.3737-5.8126-3.6174-8.0768-3.963z" line-height="normal" fill="#bebebe"/>
 </g>
</svg>
