<?xml version="1.0" encoding="UTF-8" standalone="no"?>
<svg id="svg1" xmlns="http://www.w3.org/2000/svg" version="1.1" xmlns:dc="http://purl.org/dc/elements/1.1/" height="16" width="16" xmlns:rdf="http://www.w3.org/1999/02/22-rdf-syntax-ns#" xmlns:ns4="http://creativecommons.org/ns#">
 <title id="title13694">MyPaint symbolic icons</title>
 <metadata id="metadata7">
  <rdf:RDF>
   <ns4:Work rdf:about="">
    <dc:format>image/svg+xml</dc:format>
    <dc:type rdf:resource="http://purl.org/dc/dcmitype/StillImage"/>
    <dc:title>MyPaint symbolic icons</dc:title>
    <ns4:license rdf:resource=""/>
    <dc:creator>
     <ns4:Agent>
      <dc:title>GNOME Project</dc:title>
     </ns4:Agent>
    </dc:creator>
    <dc:contributor>
     <ns4:Agent>
      <dc:title>Andrew Chadwick</dc:title>
     </ns4:Agent>
    </dc:contributor>
   </ns4:Work>
  </rdf:RDF>
 </metadata>
 <g id="layer1" transform="translate(-496 -852.36)">
  <g id="layer2" opacity=".5" transform="translate(229.28 556.07)" display="none" fill="#859f46">
   <rect id="48x48" style="color:#000000" height="48" width="48" display="inline" y="4.25" x="-2.25"/>
   <rect id="32x32" style="color:#000000" height="32" width="32" display="inline" y="20.25" x="53.75"/>
   <rect id="24x24" style="color:#000000" height="24" width="24" display="inline" y="28.25" x="93.75"/>
   <rect id="22x22" style="color:#000000" height="22" width="22" display="inline" y="30.25" x="125.75"/>
   <rect id="16x16" style="color:#000000" height="16" width="16" display="inline" y="36.25" x="155.75"/>
  </g>
  <path id="path4351-8" style="color-rendering:auto;text-decoration-color:#000000;color:#000000;shape-rendering:auto;solid-color:#000000;text-decoration-line:none;text-rendering:auto;mix-blend-mode:normal;block-progression:tb;text-indent:0;image-rendering:auto;white-space:normal;text-decoration-style:solid;isolation:auto;text-transform:none" font-family="sans-serif" d="m501.5 853.36c-2.452 0-4.4512 2.0162-4.4512 4.4766s1.9992 4.4766 4.4512 4.4766 4.4512-2.0162 4.4512-4.4766-1.9992-4.4766-4.4512-4.4766zm0 1.5c1.6358 0 2.9512 1.3214 2.9512 2.9766s-1.3154 2.9766-2.9512 2.9766-2.9512-1.3214-2.9512-2.9766 1.3154-2.9766 2.9512-2.9766z" line-height="normal" fill="#bebebe"/>
  <circle id="path4362-9" style="text-rendering:auto;color-rendering:auto;color:#000000;isolation:auto;mix-blend-mode:normal;shape-rendering:auto;solid-color:#000000;image-rendering:auto" cy="857.86" cx="501.5" r="1.0745" fill="#bebebe"/>
  <path id="path5180-7" style="color-rendering:auto;text-decoration-color:#000000;color:#000000;shape-rendering:auto;solid-color:#000000;text-decoration-line:none;text-rendering:auto;mix-blend-mode:normal;block-progression:tb;text-indent:0;image-rendering:auto;white-space:normal;text-decoration-style:solid;isolation:auto;text-transform:none" font-family="sans-serif" d="m496.51 857.36a0.50005 0.50005 0 1 0 0 1h2.4922a0.50005 0.50005 0 1 0 0 -1h-2.4922z" line-height="normal" fill="#bebebe"/>
  <path id="path5180-1-2" style="color-rendering:auto;text-decoration-color:#000000;color:#000000;shape-rendering:auto;solid-color:#000000;text-decoration-line:none;text-rendering:auto;mix-blend-mode:normal;block-progression:tb;text-indent:0;image-rendering:auto;white-space:normal;text-decoration-style:solid;isolation:auto;text-transform:none" font-family="sans-serif" d="m504 857.36a0.50005 0.50005 0 1 0 0 1h2.5078a0.50005 0.50005 0 1 0 0 -1h-2.5078z" line-height="normal" fill="#bebebe"/>
  <path id="path5180-1-0-9" style="color-rendering:auto;text-decoration-color:#000000;color:#000000;shape-rendering:auto;solid-color:#000000;text-decoration-line:none;text-rendering:auto;mix-blend-mode:normal;block-progression:tb;text-indent:0;image-rendering:auto;white-space:normal;text-decoration-style:solid;isolation:auto;text-transform:none" font-family="sans-serif" d="m501.49 859.86a0.50005 0.50005 0 0 0 -0.49 0.5v2.5a0.50005 0.50005 0 1 0 1 0v-2.5a0.50005 0.50005 0 0 0 -0.50781 -0.50586z" line-height="normal" fill="#bebebe"/>
  <path id="path5180-1-6-7" style="color-rendering:auto;text-decoration-color:#000000;color:#000000;shape-rendering:auto;solid-color:#000000;text-decoration-line:none;text-rendering:auto;mix-blend-mode:normal;block-progression:tb;text-indent:0;image-rendering:auto;white-space:normal;text-decoration-style:solid;isolation:auto;text-transform:none" font-family="sans-serif" d="m501.49 852.36a0.50005 0.50005 0 0 0 -0.49 0.51v2.4922a0.50005 0.50005 0 1 0 1 0v-2.4922a0.50005 0.50005 0 0 0 -0.50781 -0.50781z" line-height="normal" fill="#bebebe"/>
  <path id="path4760-9-0-7" style="color:#000000" d="m512 857.36-2 4-3-1 1-8c2 0 4 1.5 4 5z" fill="#bebebe"/>
  <path id="path5783-32-1-2" style="color:#000000" d="m507.82 861.52c-0.91889-0.28822-1.9492-0.11799-2.7591 0.52727-0.62007 0.49396-1.0021 1.1541-1.1087 1.881-0.11021 0.75177 0.24423 1.8197-1.7198 3.5212-0.0132 0.004-0.0277 0.0118-0.0405 0.0178-0.1175 0.0507-0.2207 0.13414-0.27118 0.26277-0.101 0.257 0.009 0.52712 0.26597 0.62809 2.2149-0.17805 4.0888-0.25685 5.888-1.1539 0.32735-0.17953 0.51126-0.30346 0.71681-0.46722 1.2959-1.0324 1.5119-2.9142 0.47958-4.2101-0.38715-0.48595-0.89967-0.83388-1.451-1.0068z" fill="#bebebe"/>
 </g>
</svg>
