<?xml version="1.0" encoding="UTF-8"?>
<svg width="16" height="16" fill="#bebebe" version="1.1" xmlns="http://www.w3.org/2000/svg"><path d="m11.4 0.97c-0.18-0.03-0.34 0.03-0.46 0.15l-4.28 4 4.03 4.35 4.15-3.87c0.24-0.23 0.18-0.69-0.12-1.04l-2.78-3.22c-0.19-0.24-0.38-0.34-0.54-0.37zm-5.9 5.25-2.34 2.18c-0.24 0.23-0.21 0.69 0.09 1.04l2.81 3.22c0.31 0.34 0.74 0.44 0.97 0.22l2.47-2.32z"/><path d="m1 14v1h2.3c0.4 0 0.7-0.22 0.7-0.5s-0.3-0.5-0.7-0.5zm7.7 0c-0.39 0-0.7 0.2-0.7 0.5s0.3 0.5 0.7 0.5h6.3v-1z"/></svg>
