<?xml version="1.0" encoding="UTF-8" standalone="no"?>
<svg id="svg1" xmlns="http://www.w3.org/2000/svg" version="1.1" xmlns:dc="http://purl.org/dc/elements/1.1/" height="16.023" width="16" xmlns:rdf="http://www.w3.org/1999/02/22-rdf-syntax-ns#" xmlns:ns3="http://www.openswatchbook.org/uri/2009/osb" xmlns:ns5="http://creativecommons.org/ns#">
 <metadata id="metadata7">
  <rdf:RDF>
   <ns5:Work rdf:about="">
    <dc:format>image/svg+xml</dc:format>
    <dc:type rdf:resource="http://purl.org/dc/dcmitype/StillImage"/>
    <dc:title/>
   </ns5:Work>
  </rdf:RDF>
 </metadata>
 <g id="layer1" transform="translate(-144 -524.34)">
  <g id="layer2" opacity=".5" transform="translate(229.28 556.07)" display="none" fill="#859f46">
   <rect id="48x48" style="color:#000000" height="48" width="48" display="inline" y="4.25" x="-2.25"/>
   <rect id="32x32" style="color:#000000" height="32" width="32" display="inline" y="20.25" x="53.75"/>
   <rect id="24x24" style="color:#000000" height="24" width="24" display="inline" y="28.25" x="93.75"/>
   <rect id="22x22" style="color:#000000" height="22" width="22" display="inline" y="30.25" x="125.75"/>
  </g>
  <path id="rect10788-0" style="enable-background:new;block-progression:tb;text-indent:0;color:#000000;text-transform:none" font-family="Sans" d="m148 525.36c-1.0907 0-2 0.9093-2 2v11c0 1.0907 0.9093 2 2 2h9c1.0907 0 2-0.9093 2-2v-11c0-1.0907-0.9093-2-2-2v1.5c0.005 1.1525-1.6408 1.8931-2.5 1.125-0.54394 0.48643-1.4561 0.48643-2 0-0.54394 0.48643-1.4561 0.48643-2 0-0.85917 0.76814-2.5051 0.0275-2.5-1.125z" line-height="normal" fill="#bebebe"/>
  <path id="path3601-2-3-3-9-3-3-7-1" style="block-progression:tb;text-indent:0;color:#000000;text-transform:none" font-family="Sans" d="m149.44 524.34a0.50005 0.50005 0 0 0 -0.44 0.54v2a0.50005 0.50005 0 1 0 1 0v-2a0.50005 0.50005 0 0 0 -0.5625 -0.53125zm2 0a0.50005 0.50005 0 0 0 -0.44 0.54v2a0.50005 0.50005 0 1 0 1 0v-2a0.50005 0.50005 0 0 0 -0.5625 -0.53125zm2 0a0.50005 0.50005 0 0 0 -0.44 0.54v2a0.50005 0.50005 0 1 0 1 0v-2a0.50005 0.50005 0 0 0 -0.5625 -0.53125zm2 0a0.50005 0.50005 0 0 0 -0.44 0.54v2a0.50005 0.50005 0 1 0 1 0v-2a0.50005 0.50005 0 0 0 -0.5625 -0.53125z" line-height="normal" fill="#bebebe"/>
 </g>
</svg>
