<?xml version="1.0" encoding="UTF-8"?>
<svg width="16" height="16" version="1.1" xmlns="http://www.w3.org/2000/svg"><g transform="translate(-528 -780.36)"><g transform="translate(327.4 13.36)" fill="#bebebe"><path d="m211.88 767.06a1.0001 1.0001 0 0 0-0.6875 0.5l-3.3125 5.625a1.0078 1.0078 0 1 0 1.75 1l3.3125-5.625a1.0001 1.0001 0 0 0-1.0625-1.5z" style=""/><path d="m206.53 771.72 4.9474 3.0538c0.60355 0.31472 0.68739 0.89216 0.20883 1.5087l-0.625 0.8125-6.5938-3.875 0.55118-1.0614c0.28883-0.58524 0.75466-0.81586 1.5113-0.43864z" style=""/><path d="m204.56 774.58s-2.8547 3.0362-1.3326 4.6991c1.6875 1.8438 4.758 1.7674 5.8628 1.7232h4.0087c-1.875-0.375-3.8371-1.8156-2.9027-3.2446z" style=""/></g></g></svg>
