<?xml version="1.0" encoding="UTF-8"?>
<svg width="16" height="16.041" version="1.1" xmlns="http://www.w3.org/2000/svg"><g transform="translate(-464 -812.32)" fill="#bebebe"><path transform="matrix(1 0 0 .99692 146 71.29)" d="m320.63 755.4 7.5202-8.0345c1.3694-0.0509 2.7941 1.1634 2.8494 2.4288l-7.49 7.794-4.51 1.7757z"/><path transform="matrix(1 0 0 .99692 146 71.29)" d="m322.52 743.37c-0.96186-0.16011-1.9255 0.10348-2.5898 0.47656h-2e-3c-0.31766 0.1784-0.70291 0.46341-1.0234 0.86719-0.32053 0.40378-0.57749 0.95257-0.51758 1.584 0.0873 0.92083 0.72211 1.6819 1.3438 2.1777 0.25516 0.20352 0.5838 0.48311 0.74805 0.71484 0.0821 0.11587 0.11525 0.20981 0.11914 0.25 4e-3 0.0402 0.0149 0.0382-0.0469 0.10743-0.0855 0.0958-0.38565 0.23543-0.75586 0.3164-0.3702 0.081-0.77295 0.11826-1.1152 0.20703-0.17114 0.0444-0.35977 0.0552-0.55469 0.32617-0.0975 0.13549-0.13558 0.36744-0.0898 0.52735 0.0457 0.1599 0.12691 0.25532 0.20703 0.33789 0.32048 0.33028 0.81274 0.58011 1.791 1.043a0.50106 0.50106 0 1 0 0.42774-0.90625c-0.54801-0.25929-0.61667-0.33073-0.86524-0.48047 0.15454-0.0261 0.24253-0.0391 0.41211-0.0762 0.4422-0.0967 0.93019-0.2278 1.2891-0.62891 0.21931-0.24573 0.32506-0.57747 0.29687-0.86914-0.0282-0.29167-0.15273-0.531-0.29687-0.73437-0.28829-0.40675-0.68135-0.71054-0.94141-0.91797-0.4608-0.36753-0.92911-1.0308-0.97266-1.4902-0.0296-0.31194 0.0934-0.59662 0.30664-0.86523 0.21324-0.26862 0.51616-0.49683 0.73047-0.61719 0.45619-0.25618 1.2827-0.47 1.9356-0.36133 0.37523 0.0625 0.79377 0.2038 1.1387 0.36328 0.3449 0.15949 0.63274 0.36113 0.68945 0.41797a0.50133 0.50133 0 1 0 0.70899-0.70898c-0.23824-0.23877-0.56502-0.42599-0.97852-0.61719-0.41349-0.1912-0.89943-0.36093-1.3945-0.44336z"/><path transform="matrix(1 0 0 .99692 146 71.29)" d="m331.16 744.36-1.875 2c1.3287 0.0259 2.6651 1.2116 2.7188 2.4375l2-2c-0.0554-1.2653-1.4744-2.4884-2.8438-2.4375z"/></g></svg>
