<?xml version="1.0" encoding="UTF-8"?>
<svg width="16" height="16" version="1.1" xmlns="http://www.w3.org/2000/svg"><g transform="translate(-16 -524.36)" fill="#bebebe"><path transform="translate(-149,-456)" d="m165 986.36s3.5817 6 8 6 8-6 8-6h-2s-2.134 4-6 4-6-4-6-4z"/><path transform="translate(-149,-456)" d="m166.99 987.86a0.50005 0.50005 0 0 0-0.34375 0.15039l-1 1a0.50005 0.50005 0 1 0 0.70704 0.70703l1-1a0.50005 0.50005 0 0 0-0.36329-0.85742zm12.004 0a0.50005 0.50005 0 0 0-0.34766 0.85742l1 1a0.50005 0.50005 0 1 0 0.70704-0.70703l-1-1a0.50005 0.50005 0 0 0-0.35938-0.15039zm-1.5996 1a0.50005 0.50005 0 0 0-0.35156 0.8125l1.5625 2a0.50028 0.50028 0 1 0 0.78906-0.61523l-1.5625-2a0.50005 0.50005 0 0 0-0.4375-0.19727zm-8.9043 0.5a0.50005 0.50005 0 0 0-0.34375 0.15039l-1.5 1.5a0.50005 0.50005 0 1 0 0.70704 0.70703l1.5-1.5a0.50005 0.50005 0 0 0-0.36329-0.85742zm1.8926 0.93555a0.50005 0.50005 0 0 0-0.4414 0.25586l-1.375 2.375a0.50099 0.50099 0 1 0 0.86718 0.50195l1.375-2.375a0.50005 0.50005 0 0 0-0.42578-0.75781zm5.6914 0a0.50005 0.50005 0 0 0-0.4375 0.76953l1.332 2.1543a0.50005 0.50005 0 1 0 0.84961-0.52539l-1.3301-2.1543a0.50005 0.50005 0 0 0-0.41406-0.24414zm-3.6309 0.5a0.50005 0.50005 0 0 0-0.49414 0.39453l-0.6875 3a0.50103 0.50103 0 1 0 0.97656 0.22461l0.6875-3a0.50005 0.50005 0 0 0-0.48242-0.61914zm1.5566 0a0.50005 0.50005 0 0 0-0.48047 0.64453l0.86524 3a0.50005 0.50005 0 1 0 0.96093-0.27539l-0.86523-3a0.50005 0.50005 0 0 0-0.48047-0.36914z"/></g></svg>
