<?xml version="1.0" encoding="UTF-8"?>
<svg width="16" height="16" version="1.1" xmlns="http://www.w3.org/2000/svg"><g transform="translate(-336 -620.36)" fill="#bebebe"><path transform="translate(-80 -48)" d="m424 669.36v6h0.5l2.5-3-2.5-3z"/><path transform="rotate(90 -39.681 423.18)" d="m165.5 34.5a1.0001 1.0001 0 1 0 0 2c1.289 0 2.4255 0.81459 2.8398 2.0352 0.41433 1.2206 9e-3 2.561-1.0137 3.3457-1.0226 0.78468-2.4204 0.8294-3.4922 0.11328-1.0717-0.71612-1.566-2.0264-1.2324-3.2715a1.0001 1.0001 0 1 0-1.9316-0.51758c-0.55343 2.0654 0.27482 4.2652 2.0527 5.4531s4.1239 1.1103 5.8203-0.19141c1.6964-1.3017 2.3787-3.5494 1.6914-5.5742-0.68733-2.0248-2.5961-3.3926-4.7344-3.3926z"/></g></svg>
