<?xml version="1.0" encoding="UTF-8"?>
<svg width="16" height="16" version="1.1" xmlns="http://www.w3.org/2000/svg" xmlns:xlink="http://www.w3.org/1999/xlink"><defs><clipPath id="f"><rect transform="translate(160 224)" x="16" y="324.36" width="16" height="16" fill="#606060"/></clipPath></defs><g transform="translate(-176 -588.36)" fill="#bebebe"><g transform="translate(2.1408e-6 40)" clip-path="url(#f)"><use transform="rotate(21.664 180.9 581.79)" width="100%" height="100%" xlink:href="#d"/><path id="d" d="m182.17 568.74c0.32722 0.65675 0.82152 0.44765 0.73608-0.34905-0.60074-5.6018-0.19702-6.1563-1.8815-12.294-0.6564 0.76004-1.7012 1.0274-2.7118 0.79181 0.96041 6.4386 2.6483 8.4282 3.8572 11.851z" clip-path="none"/><use transform="rotate(11.445 186.93 580.07)" width="100%" height="100%" xlink:href="#d"/></g><path transform="translate(2.1408e-6 40)" d="m179.6 548.71c-1.3614 2.356 1.345 3.5979 1.3992 5.1548 0.0629 1.8042-1.6344 2.3735-2.6131 2.1177-1.2349-0.3227-1.7897-1.3745-1.8401-2.3756-0.0967-1.9205 2.061-5.1727 3.054-4.8968z"/><path id="e" transform="translate(2.1408e-6 40)" d="m188.63 549.97c1.3614 2.356-1.345 3.5979-1.3992 5.1548-0.0629 1.8042 1.6344 2.3735 2.6131 2.1177 1.2349-0.3227 1.7897-1.3745 1.8401-2.3756 0.0967-1.9205-2.061-5.1727-3.054-4.8968z" fill="#bebebe"/><use transform="matrix(-1 0 0 1 368.23 -1.2662)" width="100%" height="100%" xlink:href="#e"/><use transform="matrix(.92512 0 -.051745 .89074 39.945 62.928)" width="100%" height="100%" xlink:href="#e"/></g></svg>
