<?xml version="1.0" encoding="UTF-8"?>
<svg width="16.041" height="16.015" version="1.1" xmlns="http://www.w3.org/2000/svg"><g transform="translate(-496 -524.35)" fill="#bebebe"><path transform="translate(408,-360)" d="m98 884.36v6h6v-1c0-0.5-0.36128-0.99687-1.0002-1h-3v-3c0.0139-0.57543-0.4998-0.99995-0.9998-0.99995z"/><path transform="translate(408,-360)" d="m102.87 884.36c-0.22394 0.0242-0.43315 0.12331-0.59375 0.28125l-4 4 1.4375 1.4375 4-4c0.72454-0.67473 0.1332-1.8793-0.84375-1.7188z"/><path transform="translate(408,-360)" d="m88.906 890.36c-0.51536 0.0486-0.90848 0.48237-0.90625 1v8c5.5e-5 0.55226 0.44774 0.99994 1 1h8c0.55226-6e-5 0.99994-0.44774 1-1v-8c-5.5e-5 -0.55226-0.44774-0.99994-1-1h-8c-0.03123-1e-3 -0.06252-1e-3 -0.09375 0zm1.0938 4h6v4h-6z"/><rect transform="translate(408,-360)" x="97" y="899.36" width="1" height="1"/><rect transform="translate(408,-360)" x="88" y="899.36" width="1" height="1"/></g></svg>
