<?xml version="1.0" encoding="UTF-8"?>
<svg width="16" height="16" version="1.1" xmlns="http://www.w3.org/2000/svg"><g transform="translate(-416 -588.36)" fill="#bebebe"><path transform="translate(224 -336)" d="m203.37 924.61c-0.23994 0.43525-0.46762 1.0058-0.71875 1.4375-0.0939-7e-3 -0.18571-0.0313-0.28125-0.0313-0.33226 0-0.66009 0.0487-0.96875 0.125-0.30503-0.3828-0.63034-0.89813-0.9375-1.2812-0.2846 0.10504-0.55227 0.22648-0.8125 0.375 0.0959 0.48262 0.2769 1.071 0.375 1.5625-0.343 0.24882-0.62618 0.532-0.875 0.875-0.49145-0.0981-1.0799-0.27907-1.5625-0.375-0.14852 0.26023-0.26996 0.5279-0.375 0.8125 0.38312 0.30716 0.89845 0.63248 1.2812 0.9375-0.0763 0.30866-0.125 0.6365-0.125 0.96875 0 0.0955 0.0247 0.18738 0.0312 0.28125-0.43174 0.25113-1.0022 0.47881-1.4375 0.71875 0.0512 0.27476 0.1283 0.55374 0.21875 0.8125 0.4914-0.01 1.0995-0.0946 1.5938-0.0937 0.18712 0.39176 0.42053 0.75381 0.71875 1.0625-0.17204 0.46783-0.44812 1.0086-0.625 1.4688 0.2129 0.1757 0.4495 0.32623 0.6875 0.46875 0.36921-0.32011 0.77542-0.77147 1.1562-1.0938 0.37804 0.17256 0.78862 0.26529 1.2188 0.3125 0.16454 0.47676 0.30428 1.0881 0.46875 1.5625 0.30154-2e-3 0.5868-0.0141 0.875-0.0625 0.0806-0.49291 0.11037-1.1186 0.1875-1.625 0.41009-0.11684 0.81134-0.26698 1.1562-0.5 0.42433 0.26446 0.89887 0.62889 1.3125 0.875 0.22374-0.19067 0.43433-0.40126 0.625-0.625-0.24611-0.41363-0.61054-0.88817-0.875-1.3125 0.23302-0.34491 0.38316-0.74616 0.5-1.1562 0.50645-0.0771 1.1321-0.10695 1.625-0.1875 0.0483-0.2882 0.0608-0.57346 0.0625-0.875-0.47442-0.16447-1.0857-0.30421-1.5625-0.46875-0.0472-0.43013-0.13995-0.8407-0.3125-1.2188 0.32228-0.38083 0.77364-0.78704 1.0938-1.1562-0.14252-0.238-0.29305-0.4746-0.46875-0.6875-0.46015 0.17688-1.0009 0.45296-1.4688 0.625-0.30869-0.29822-0.67074-0.53162-1.0625-0.71875-8.9e-4 -0.49426 0.084-1.1024 0.0937-1.5938-0.25876-0.0904-0.53774-0.16751-0.8125-0.21875zm-1 3.4062c1.1046 0 2 0.89543 2 2s-0.89543 2-2 2-2-0.89543-2-2 0.89543-2 2-2z"/><path transform="translate(224 -336)" d="m195.69 932.11c-0.23014 0.0471-0.44391 0.13096-0.65625 0.21875-0.0167 0.62433 0.0869 1.4418-0.15625 1.6562-0.23897 0.21077-1.0384 0.0343-1.6562-0.0313-0.13139 0.23649-0.23526 0.48523-0.3125 0.75 0.47809 0.39586 1.1405 0.83901 1.1562 1.1562 0.0159 0.32119-0.62642 0.80489-1.0625 1.25 0.10339 0.25783 0.25014 0.49354 0.40625 0.71875 0.60832-0.12641 1.3664-0.37354 1.625-0.1875 0.26331 0.18942 0.26521 1.0054 0.34375 1.625 0.24955 0.075 0.51251 0.1045 0.78125 0.125 0.28135-0.55462 0.56741-1.3198 0.875-1.4062 0.31575-0.0887 0.96354 0.45813 1.5 0.78125 0.21871-0.1516 0.41293-0.33706 0.59375-0.53125-0.25384-0.57232-0.72108-1.2919-0.59375-1.5938 0.12745-0.30211 0.9754-0.46963 1.5625-0.6875 4e-3 -0.0735 0.0312-0.14414 0.0312-0.21875 0-0.19137-0.0344-0.37899-0.0625-0.5625-0.6061-0.16082-1.4672-0.2413-1.625-0.53125-0.15674-0.28801 0.24179-1.0614 0.4375-1.6562-0.20116-0.17858-0.41941-0.33716-0.65625-0.46875-0.50089 0.37513-1.0843 0.99436-1.4062 0.9375-0.31689-0.056-0.66289-0.81955-1-1.3438-0.0402 7e-3 -0.0853-8e-3 -0.125 0zm0.625 1.875c0.93198 0 1.6875 0.75552 1.6875 1.6875s-0.75552 1.6875-1.6875 1.6875-1.6875-0.75552-1.6875-1.6875 0.75552-1.6875 1.6875-1.6875z"/></g></svg>
