<?xml version="1.0" encoding="UTF-8"?>
<svg width="16" height="16.006" version="1.1" xmlns="http://www.w3.org/2000/svg"><g transform="translate(-152 -748.36)"><g transform="translate(40.002 152)"><path d="m122.61 601.77-4.2202 5.6634-1.694 1.4926-0.69772-0.56071 0.99632-2.0533 4.2202-5.6634 1.3954 1.1214z" fill="#bebebe"/><path transform="matrix(.98721 0 0 .98721 1.4819 7.7853)" d="m116 608.94s-1.4772 0.66848-1.4654 2.0797c0.0147 1.758 2.6601 1.8434 2.7433 0.28446 0.05-0.89-1.28-2.36-1.28-2.36z" fill="#bebebe"/><path d="m118.65 600.79 4.6492 3.5274 0.70445-0.92575-1.3947-1.0582c2.8037-0.79322 4.7199-4.1748 2.8603-5.5858-1.8597-1.4109-4.7057 1.2652-4.7199 4.1749l-1.3948-1.0582-0.70448 0.92571z" fill="#bebebe"/><g transform="translate(229.28,556.07)" display="none" fill="#859f46" opacity=".5"><rect x="-2.25" y="4.25" width="48" height="48" display="inline" style=""/><rect x="53.75" y="20.25" width="32" height="32" display="inline" style=""/><rect x="93.75" y="28.25" width="24" height="24" display="inline" style=""/><rect x="125.75" y="30.25" width="22" height="22" display="inline" style=""/></g></g><g transform="translate(152 748.31)" fill="#bebebe"><path d="m10.271 9.285h0.78439v2.3765h2.8502v-2.3765h0.7844v5.7975h-0.7844v-2.7609h-2.8502v2.7609h-0.78439z"/></g></g></svg>
