<?xml version="1.0" encoding="UTF-8" standalone="no"?>
<svg id="svg1" xmlns="http://www.w3.org/2000/svg" version="1.1" xmlns:dc="http://purl.org/dc/elements/1.1/" height="16" width="16" xmlns:rdf="http://www.w3.org/1999/02/22-rdf-syntax-ns#" xmlns:ns4="http://creativecommons.org/ns#">
 <metadata id="metadata7">
  <rdf:RDF>
   <ns4:Work rdf:about="">
    <dc:format>image/svg+xml</dc:format>
    <dc:type rdf:resource="http://purl.org/dc/dcmitype/StillImage"/>
    <dc:title/>
   </ns4:Work>
  </rdf:RDF>
 </metadata>
 <g id="layer1" transform="translate(-208 -556.36)">
  <g id="layer2" opacity=".5" transform="translate(229.28 556.07)" display="none" fill="#859f46">
   <rect id="48x48" style="color:#000000" height="48" width="48" display="inline" y="4.25" x="-2.25"/>
   <rect id="32x32" style="color:#000000" height="32" width="32" display="inline" y="20.25" x="53.75"/>
   <rect id="24x24" style="color:#000000" height="24" width="24" display="inline" y="28.25" x="93.75"/>
   <rect id="22x22" style="color:#000000" height="22" width="22" display="inline" y="30.25" x="125.75"/>
  </g>
  <path id="path3248" style="block-progression:tb;text-indent:0;color:#000000;text-transform:none" font-family="Sans" d="m208.65 557.05 1.1477 1.1027 4.771 1.5753 1.4628 0.4726c-1.2899 0.22859-2.1185 0.42319-3.2407 0.69764-2.3553 0.57603-2.1009 0.54997-2.4755 1.5303-1.1642 2.7996-0.26371 4.0767 1.3503 4.726 1.614 0.64927 3.9432-1.8403 4.9735-3.2182l4.4784 0.20255-2.1604 2.408c-0.0005 0.007-0.0005 0.015 0 0.0225-0.01 0.0138-0.0173 0.029-0.0225 0.045-0.002 0.0149-0.002 0.0301 0 0.045v0.63014c-0.0005 0.007-0.0005 0.015 0 0.0225 0.003 0.0238 0.0104 0.047 0.0225 0.0675l2.1154 2.8131c0.006 0.008 1.9804 1.6203 1.9804 1.6203 0.012 0.0177-1.1252-2.3405-1.1252-2.3405-0.007-0.00051-1.7329-2.363-1.7329-2.363l2.7231-3.0606c0.0005-0.007 0.0005-0.015 0-0.0225 0.01-0.0138 0.0173-0.029 0.0225-0.045 0.004-0.0222 0.004-0.0454 0-0.0675 0.002-0.0149 0.002-0.0301 0-0.045l-0.33757-0.83267c-0.0168-0.0401-0.0499-0.0732-0.09-0.09-0.0149-0.002-0.0301-0.002-0.045 0-0.007-0.0005-0.015-0.0005-0.0225 0l-6.1438-0.27006c-0.0222-0.004-0.0454-0.004-0.0675 0l-0.29256 0.13503c-0.008 0.006-0.0158 0.0143-0.0225 0.0225-0.007-0.0005-0.015-0.0005-0.0225 0 0 0-1.4933 3.0509-3.6683 2.8131-2.1749-0.23777-0.45009-3.3082-0.45009-3.3082l6.7739-1.5528c0.007 0.0005 0.015 0.0005 0.0225 0 0.0447-0.0217 0.0786-0.0642 0.09-0.11253 0.004-0.0222 0.004-0.0454 0-0.0675l-0.0901-0.92265c-0.005-0.0562-0.0399-0.10903-0.09-0.13503-0.007-0.0005-0.015-0.0005-0.0225 0l-3.6683-1.0577-4.6585-1.4403c-0.0352-0.0117-1.4853 0-1.4853 0z" line-height="normal" fill="#bebebe"/>
 </g>
</svg>
