<?xml version="1.0" encoding="UTF-8"?>
<svg width="16" height="16" version="1.1" xmlns="http://www.w3.org/2000/svg"><g transform="translate(-200 -900.36)" fill="#bebebe"><path transform="translate(139.5 112)" d="m64.5 800.36-3 3h11l3-3z"/><path transform="translate(139.5 112)" d="m66.5 789.36c-0.554 0-1 0.446-1 1v7c0 0.554 0.446 1 1 1h7c0.554 0 1-0.446 1-1v-7c0-0.554-0.446-1-1-1zm1.9062 0.71875 1.7812 2.1562 1.7812-2.1562 1.5312 1.2812-2.0312 2.4375 2.0312 2.4688-1.5312 1.2812-1.7812-2.1562-1.7812 2.1562-1.5312-1.2812 2.0312-2.4688-2.0312-2.4375z"/></g></svg>
