<?xml version="1.0" encoding="UTF-8"?>
<svg width="16" height="16" fill="#bebebe" version="1.1" xmlns="http://www.w3.org/2000/svg"><path d="m8 1-3 3h2v3h-3v-2l-3 3 3 3v-2h3v3h-2l3 3 3-3h-2v-3h3v2l3-3-3-3v2h-3v-3h2z"/><path d="m0 1v3.5a0.5 0.5 0 0 0 0.5 0.5 0.5 0.5 0 0 0 0.5-0.5v-2.5h3.5a0.5 0.5 0 0 0 0.5-0.5 0.5 0.5 0 0 0-0.5-0.5zm11.5 0a0.5 0.5 0 0 0-0.5 0.5 0.5 0.5 0 0 0 0.5 0.5h3.5v2.5a0.5 0.5 0 0 0 0.5 0.5 0.5 0.5 0 0 0 0.5-0.5v-3.5zm-11 10a0.5 0.5 0 0 0-0.5 0.5v3.5h4.5a0.5 0.5 0 0 0 0.5-0.5 0.5 0.5 0 0 0-0.5-0.5h-3.5v-2.5a0.5 0.5 0 0 0-0.5-0.5zm15 0a0.5 0.5 0 0 0-0.5 0.5v2.5h-3.5a0.5 0.5 0 0 0-0.5 0.5 0.5 0.5 0 0 0 0.5 0.5h4.5v-3.5a0.5 0.5 0 0 0-0.5-0.5z" opacity=".3"/></svg>
