<?xml version="1.0" encoding="UTF-8" standalone="no"?>
<svg id="svg2" xmlns="http://www.w3.org/2000/svg" version="1.1" xmlns:dc="http://purl.org/dc/elements/1.1/" height="16" width="16" xmlns:rdf="http://www.w3.org/1999/02/22-rdf-syntax-ns#" xmlns:ns4="http://creativecommons.org/ns#">
 <metadata id="metadata7">
  <rdf:RDF>
   <ns4:Work rdf:about="">
    <dc:format>image/svg+xml</dc:format>
    <dc:type rdf:resource="http://purl.org/dc/dcmitype/StillImage"/>
    <dc:title/>
   </ns4:Work>
  </rdf:RDF>
 </metadata>
 <g id="layer1" fill="#bebebe" transform="translate(-56 -524.36)">
  <path id="path31334" style="color:#000000" d="m56 530.36s3.5817 6 8 6 8-6 8-6h-2s-2.134 4-6 4-6-4-6-4z"/>
  <path id="path8543" style="block-progression:tb;text-indent:0;color:#000000;text-transform:none" font-family="Sans" d="m58 531.84a0.50005 0.50005 0 0 0 -0.344 0.16l-1 1a0.50005 0.50005 0 1 0 0.6875 0.71875l1-1a0.50005 0.50005 0 0 0 -0.344 -0.88z" line-height="normal"/>
  <path id="path8545" style="block-progression:tb;text-indent:0;color:#000000;text-transform:none" font-family="Sans" d="m70 531.84a0.50005 0.50005 0 0 0 -0.34375 0.875l1 1a0.50005 0.50005 0 1 0 0.688 -0.72l-1-1a0.50005 0.50005 0 0 0 -0.344 -0.16z" line-height="normal"/>
  <path id="path8547" style="block-progression:tb;text-indent:0;color:#000000;text-transform:none" font-family="Sans" d="m59.5 533.34a0.50005 0.50005 0 0 0 -0.344 0.16l-1.5 1.5a0.50005 0.50005 0 1 0 0.6875 0.71875l1.5-1.5a0.50005 0.50005 0 0 0 -0.344 -0.88z" line-height="normal"/>
  <path id="path8572" style="block-progression:tb;text-indent:0;color:#000000;text-transform:none" font-family="Sans" d="m61.344 534.28a0.50005 0.50005 0 0 0 -0.40625 0.28125l-1.375 2.375a0.50389 0.50389 0 1 0 0.875 0.5l1.375-2.375a0.50005 0.50005 0 0 0 -0.46875 -0.78125z" line-height="normal"/>
  <path id="path8574" style="block-progression:tb;text-indent:0;color:#000000;text-transform:none" font-family="Sans" d="m63.406 534.78a0.50005 0.50005 0 0 0 -0.46875 0.40625l-0.6875 3a0.51182 0.51182 0 1 0 1 0.21875l0.6875-3a0.50005 0.50005 0 0 0 -0.53125 -0.625z" line-height="normal"/>
  <path id="path8578" style="block-progression:tb;text-indent:0;color:#000000;text-transform:none" font-family="Sans" d="m68.406 532.84a0.50005 0.50005 0 0 0 -0.375 0.8125l1.5625 2a0.50316 0.50316 0 1 0 0.8125 -0.59375l-1.5625-2a0.50005 0.50005 0 0 0 -0.4375 -0.21875z" line-height="normal"/>
  <path id="path8580" style="block-progression:tb;text-indent:0;color:#000000;text-transform:none" font-family="Sans" d="m67.031 534.28a0.50005 0.50005 0 0 0 -0.406 0.78l1.3438 2.1562a0.50005 0.50005 0 1 0 0.843 -0.53l-1.312-2.16a0.50005 0.50005 0 0 0 -0.46875 -0.25z" line-height="normal"/>
  <path id="path8582" style="block-progression:tb;text-indent:0;color:#000000;text-transform:none" font-family="Sans" d="m64.938 534.78a0.50005 0.50005 0 0 0 -0.40625 0.65625l0.84375 3a0.50438 0.50438 0 1 0 0.96875 -0.28125l-0.875-3a0.50005 0.50005 0 0 0 -0.53125 -0.375z" line-height="normal"/>
 </g>
</svg>
