<?xml version="1.0" encoding="UTF-8"?>
<svg width="16" height="16" fill="#bebebe" version="1.1" xmlns="http://www.w3.org/2000/svg"><path d="m5.5 0a0.5 0.5 0 0 0-0.5 0.5v0.55c-2.06 0.24-3.68 1.88-3.9 3.95h-0.6a0.5 0.5 0 1 0 0 1h0.6c0.25 2.05 1.86 3.67 3.9 3.9v0.6a0.5 0.5 0 1 0 1 0v-0.6c2.04-0.23 3.66-1.85 3.9-3.9h0.6a0.5 0.5 0 1 0 0-1h-0.6c-0.22-2.07-1.84-3.71-3.9-3.95v-0.55a0.5 0.5 0 0 0-0.5-0.5zm-0.5 2.55v0.45a0.5 0.5 0 1 0 1 0v-0.45c1.24 0.21 2.2 1.19 2.4 2.45h-0.4a0.5 0.5 0 1 0 0 1h0.4c-0.22 1.24-1.17 2.2-2.4 2.4v-0.4a0.5 0.5 0 0 0-0.5-0.5 0.5 0.5 0 0 0-0.5 0.5v0.4c-1.22-0.2-2.18-1.16-2.4-2.4h0.4a0.5 0.5 0 1 0 0-1h-0.4c0.2-1.26 1.16-2.24 2.4-2.45zm0.5 1.88a1.07 1.07 0 0 0-1.07 1.07 1.07 1.07 0 0 0 1.07 1.08 1.07 1.07 0 0 0 1.08-1.08 1.07 1.07 0 0 0-1.08-1.07z"/><path d="m11.92 6c-0.209 0.59664-0.51098 0.92615-1.28 0.93-0.1 0.38-0.26 0.73-0.44 1.07h3.3l2-2zm-3.55 4c-0.45 0.28-0.93 0.51-1.45 0.66-0.05 0.36-0.16 0.74-0.42 0.96-0.28 0.26-0.63 0.38-0.96 0.38h7.96l2-2zm-0.87 4-2 2h8l2-2z"/></svg>
