<?xml version="1.0" encoding="UTF-8"?>
<svg width="16" height="16" version="1.1" xmlns="http://www.w3.org/2000/svg"><g transform="translate(-256 -588.36)" fill="#bebebe"><rect transform="translate(144,-176)" x="113" y="778.36" width="14" height="1" rx="0"/><path transform="translate(144,-176)" d="m126 765.36c-7 0-12 5.5-12 12h1c0-6 4.5-11 11-11z"/><path transform="translate(144,-176)" d="m126 767.36c-5.5 0-10 4.5-10 10h2c0-4.5 3.5-8 8-8z"/><path transform="translate(144,-176)" d="m126 770.36c-4 3e-5 -7 3-7 7h1c0-3.5 2.5-6 6-6z"/></g></svg>
