<?xml version="1.0" encoding="UTF-8" standalone="no"?>
<svg id="svg1" xmlns="http://www.w3.org/2000/svg" version="1.1" xmlns:dc="http://purl.org/dc/elements/1.1/" height="16" width="16" xmlns:rdf="http://www.w3.org/1999/02/22-rdf-syntax-ns#" xmlns:ns4="http://creativecommons.org/ns#">
 <metadata id="metadata7">
  <rdf:RDF>
   <ns4:Work rdf:about="">
    <dc:format>image/svg+xml</dc:format>
    <dc:type rdf:resource="http://purl.org/dc/dcmitype/StillImage"/>
    <dc:title/>
   </ns4:Work>
  </rdf:RDF>
 </metadata>
 <g id="layer1" transform="translate(-32 -812.36)">
  <path id="path39841" fill="#bebebe" d="m36 824.36-3 3h11l3-3z"/>
  <path id="path39843" fill="#bebebe" d="m38 813.36c-0.554 0-1 0.446-1 1v7c0 0.554 0.446 1 1 1h7c0.554 0 1-0.446 1-1v-7c0-0.554-0.446-1-1-1h-7zm1.9062 0.71875 1.7812 2.1562 1.7812-2.1562 1.5312 1.2812-2.0312 2.4375 2.0312 2.4688-1.5312 1.2812-1.7812-2.1562-1.7812 2.1562-1.5312-1.2812 2.0312-2.4688-2.0312-2.4375 1.5312-1.2812z"/>
  <g id="layer2" opacity=".5" transform="translate(229.28 556.07)" display="none" fill="#859f46">
   <rect id="48x48" style="color:#000000" height="48" width="48" display="inline" y="4.25" x="-2.25"/>
   <rect id="32x32" style="color:#000000" height="32" width="32" display="inline" y="20.25" x="53.75"/>
   <rect id="24x24" style="color:#000000" height="24" width="24" display="inline" y="28.25" x="93.75"/>
   <rect id="22x22" style="color:#000000" height="22" width="22" display="inline" y="30.25" x="125.75"/>
  </g>
 </g>
</svg>
