<?xml version="1.0" encoding="UTF-8" standalone="no"?>
<svg id="svg1" xmlns="http://www.w3.org/2000/svg" version="1.1" xmlns:dc="http://purl.org/dc/elements/1.1/" height="16.001" width="16" xmlns:rdf="http://www.w3.org/1999/02/22-rdf-syntax-ns#" xmlns:ns3="http://www.openswatchbook.org/uri/2009/osb" xmlns:ns5="http://creativecommons.org/ns#">
 <metadata id="metadata7">
  <rdf:RDF>
   <ns5:Work rdf:about="">
    <dc:format>image/svg+xml</dc:format>
    <dc:type rdf:resource="http://purl.org/dc/dcmitype/StillImage"/>
    <dc:title/>
   </ns5:Work>
  </rdf:RDF>
 </metadata>
 <g id="layer1" transform="translate(-56 -908.36)">
  <g id="layer2" opacity=".5" transform="translate(229.28 556.07)" display="none" fill="#859f46">
   <rect id="48x48" style="color:#000000" height="48" width="48" display="inline" y="4.25" x="-2.25"/>
   <rect id="32x32" style="color:#000000" height="32" width="32" display="inline" y="20.25" x="53.75"/>
   <rect id="24x24" style="color:#000000" height="24" width="24" display="inline" y="28.25" x="93.75"/>
   <rect id="22x22" style="color:#000000" height="22" width="22" display="inline" y="30.25" x="125.75"/>
  </g>
  <path id="path29073" style="block-progression:tb;text-indent:0;color:#000000;text-transform:none" font-family="Sans" d="m56.812 908.36c-0.4584 0.0875-0.82072 0.53338-0.8125 0.99996v0.99996 11 0.99996c0.000052 0.52356 0.47642 0.99991 1 0.99996h10c0.52358-0.00005 0.99995-0.4764 1-0.99996v-2.9999h-2v1.9999h-8v-11h5v2.9999h3v1.9999h2v-2.4374c0.0061-0.26405-0.09754-0.52895-0.28125-0.71873l-3.5625-3.5624c-0.18978-0.18369-0.45469-0.28736-0.71875-0.28124h-6.4375c-0.03123-0.001-0.06252-0.001-0.09375 0-0.03123-0.001-0.06252-0.001-0.09375 0z" line-height="normal" fill="#bebebe"/>
  <path id="path29075" d="m63 916.36h6v-1.9999l3 2.9999-3 2.9999v-1.9999h-6z" fill-rule="evenodd" fill="#bebebe"/>
 </g>
</svg>
