<?xml version="1.0" encoding="UTF-8"?>
<svg width="16" height="16" version="1.1" xmlns="http://www.w3.org/2000/svg"><g transform="translate(-16 -716.36)"><path d="m25.54 726.06-1.0563 3.0222c-0.27948 0.82084 0.86648 1.2596 1.1572 0.40846l1.1732-2.9991z" fill="#bebebe"/><path d="m24.87 722 0.52897 0.79172 3.9494 1.624 1.0407-0.34128 1.3261-3.688c-1.6666 0-0.33332-4.0216-4.6666-4.0216z" fill="#bebebe"/><path d="m25.333 723.74-0.46773 1.3405 3.3333 1.273 0.46772-1.273z" fill="#bebebe"/><path d="m16.279 717.35 0.85547 0.85742s0.96882 0.96939 1.9434 2.4297c0.97454 1.4603 1.9219 3.3937 1.9219 5.2266 0 0.62669-0.21652 1.1443-0.6543 1.5781-0.43778 0.43382-1.1149 0.78008-2.0332 0.95117l0.18164 0.98243c1.0685-0.19909 1.9409-0.61443 2.5547-1.2227 0.61378-0.60822 0.95117-1.4158 0.95117-2.2891 0-2.1672-1.0585-4.2377-2.0898-5.7832-0.68946-1.0331-0.99982-1.304-1.3828-1.7246l5.4727 0.00781v-1z" fill="#bebebe"/><path d="m17 728.37h2.9999v3.0018h-2.9999z" fill="#bebebe"/><path d="m22.549 731.11v2e-3" fill="#ef2929"/><path d="m17.961 729.36v1h5.0781v-1z" fill="#bebebe"/><rect x="16" y="716.37" width="2.9999" height="2.9958" fill="#bebebe"/></g></svg>
