<?xml version="1.0" encoding="UTF-8"?>
<svg width="16" height="16" fill="#bebebe" version="1.1" xmlns="http://www.w3.org/2000/svg"><path d="m15 10.5c0 1-1 2-2 2h-10c-1 0-1.5 0.5-1.5 1.5s0.5 1.5 1.5 1.5h10c1 0 2-1 2-2z" opacity=".3"/><path d="m2.5 0c-0.5 0-1.5 0.5-1.5 1.5v13c0 1 1 1.5 1.5 1.5h10.5c1 0 2-1 2-2v-1c0 1-1 2-2 2h-10c-1 0-1-0.5-1-1s0-1 1-1h10c1 0 2-1 2-2v-9c0-1-1-2-2-2h-3v6.56l1.28-1.28c0.19-0.18 0.45-0.28 0.72-0.28h1v1c0 0.27-0.1 0.53-0.28 0.72l-4.22 4.28-4.22-4.28c-0.18-0.19-0.28-0.45-0.28-0.72v-1h1c0.27 0 0.53 0.1 0.72 0.28l1.28 1.28v-6.56z"/></svg>
