<?xml version="1.0" encoding="UTF-8" standalone="no"?>
<!-- Created with Inkscape (http://www.inkscape.org/) -->

<svg
   xmlns:dc="http://purl.org/dc/elements/1.1/"
   xmlns:cc="http://creativecommons.org/ns#"
   xmlns:rdf="http://www.w3.org/1999/02/22-rdf-syntax-ns#"
   xmlns:svg="http://www.w3.org/2000/svg"
   xmlns="http://www.w3.org/2000/svg"
   version="1.1"
   width="16"
   height="16"
   id="svg1">
  <defs
     id="defs22" />
  <metadata
     id="metadata7">
    <rdf:RDF>
      <cc:Work
         rdf:about="">
        <dc:format>image/svg+xml</dc:format>
        <dc:type
           rdf:resource="http://purl.org/dc/dcmitype/StillImage" />
        <dc:title></dc:title>
      </cc:Work>
    </rdf:RDF>
  </metadata>
  <g
     transform="translate(-16,-492.36)"
     id="layer1"
     style="opacity:0.5">
    <path
       d="m 24,495.36 c -4.4183,0 -8,6 -8,6 0,0 3.5817,6 8,6 4.4183,0 8,-6 8,-6 0,0 -3.5817,-6 -8,-6 z m 0,2 c 3.866,0 6,4 6,4 0,0 -2.134,4 -6,4 -3.866,0 -6,-4 -6,-4 0,0 2.134,-4 6,-4 z"
       id="path11928"
       style="color:#000000;fill:#bebebe" />
    <path
       d="m 17,497.78 a 0.50005,0.50005 0 0 0 -0.34375,0.875 l 1,1 a 0.50005,0.50005 0 1 0 0.6875,-0.71875 l -1,-1 a 0.50005,0.50005 0 0 0 -0.344,-0.16 z"
       id="path8543-5"
       style="text-indent:0;line-height:normal;text-transform:none;block-progression:tb;color:#000000;fill:#bebebe;font-family:Sans" />
    <path
       d="m 31,497.78 a 0.50005,0.50005 0 0 0 -0.34375,0.15625 l -1,1 a 0.50005,0.50005 0 1 0 0.6875,0.71875 l 1,-1 a 0.50005,0.50005 0 0 0 -0.344,-0.88 z"
       id="path8545-3"
       style="text-indent:0;line-height:normal;text-transform:none;block-progression:tb;color:#000000;fill:#bebebe;font-family:Sans" />
    <path
       d="m 18,495.78 a 0.50005,0.50005 0 0 0 -0.34375,0.875 l 2,2 a 0.50005,0.50005 0 1 0 0.6875,-0.71875 l -2,-2 a 0.50005,0.50005 0 0 0 -0.344,-0.16 z"
       id="path8547-1"
       style="text-indent:0;line-height:normal;text-transform:none;block-progression:tb;color:#000000;fill:#bebebe;font-family:Sans" />
    <path
       d="m 19.969,493.97 a 0.50005,0.50005 0 0 0 -0.407,0.78 l 1.375,2.375 a 0.50389111,0.50389111 0 1 0 0.875,-0.5 l -1.375,-2.375 a 0.50005,0.50005 0 0 0 -0.46875,-0.28125 z"
       id="path8572-7"
       style="text-indent:0;line-height:normal;text-transform:none;block-progression:tb;color:#000000;fill:#bebebe;font-family:Sans" />
    <path
       d="m 22.719,492.84 a 0.50005,0.50005 0 0 0 -0.46875,0.625 l 0.6875,3 a 0.5118231,0.5118231 0 1 0 1,-0.21875 l -0.6875,-3 A 0.50005,0.50005 0 0 0 22.719,492.84 z"
       id="path8574-8"
       style="text-indent:0;line-height:normal;text-transform:none;block-progression:tb;color:#000000;fill:#bebebe;font-family:Sans" />
    <path
       d="M 29.969,495.78 A 0.50005,0.50005 0 0 0 29.594,496 l -1.5625,2 a 0.50316382,0.50316382 0 1 0 0.8125,0.59375 l 1.5625,-2 a 0.50005,0.50005 0 0 0 -0.4375,-0.8125 z"
       id="path8578-8"
       style="text-indent:0;line-height:normal;text-transform:none;block-progression:tb;color:#000000;fill:#bebebe;font-family:Sans" />
    <path
       d="m 28.375,494.19 a 0.50005,0.50005 0 0 0 -0.40625,0.25 l -1.344,2.15 a 0.51182,0.51182 0 1 0 0.875,0.53 l 1.3125,-2.1562 a 0.50005,0.50005 0 0 0 -0.437,-0.77 z"
       id="path8580-4"
       style="text-indent:0;line-height:normal;text-transform:none;block-progression:tb;color:#000000;fill:#bebebe;font-family:Sans" />
    <path
       d="m 25.844,492.84 a 0.50005,0.50005 0 0 0 -0.46875,0.375 l -0.84375,3 a 0.50005,0.50005 0 1 0 0.9375,0.28125 l 0.875,-3 a 0.50005,0.50005 0 0 0 -0.5,-0.65625 z"
       id="path8582-8"
       style="text-indent:0;line-height:normal;text-transform:none;block-progression:tb;color:#000000;fill:#bebebe;font-family:Sans" />
    <path
       d="m 24,498.36 c -1.6569,0 -3,1.3432 -3,3 0,1.6568 1.3431,3 3,3 1.6569,0 3,-1.3432 3,-3 0,-1.6568 -1.3431,-3 -3,-3 z m -0.5,0.75 c 0.41421,0 0.75,0.33579 0.75,0.75 0,0.41421 -0.33579,0.75 -0.75,0.75 -0.41421,0 -0.75,-0.33579 -0.75,-0.75 0,-0.41421 0.33579,-0.75 0.75,-0.75 z"
       id="path13510"
       style="color:#000000;fill:#bebebe" />
    <g
       transform="translate(229.28,556.07)"
       id="layer2"
       style="opacity:0.5;fill:#859f46;display:none">
      <rect
         width="48"
         height="48"
         x="-2.25"
         y="4.25"
         id="48x48"
         style="color:#000000;display:inline" />
      <rect
         width="32"
         height="32"
         x="53.75"
         y="20.25"
         id="32x32"
         style="color:#000000;display:inline" />
      <rect
         width="24"
         height="24"
         x="93.75"
         y="28.25"
         id="24x24"
         style="color:#000000;display:inline" />
      <rect
         width="22"
         height="22"
         x="125.75"
         y="30.25"
         id="22x22"
         style="color:#000000;display:inline" />
    </g>
  </g>
</svg>
