<?xml version="1.0" encoding="UTF-8" standalone="no"?>
<svg id="svg1" xmlns="http://www.w3.org/2000/svg" version="1.1" xmlns:dc="http://purl.org/dc/elements/1.1/" height="16" width="16" xmlns:rdf="http://www.w3.org/1999/02/22-rdf-syntax-ns#" xmlns:ns4="http://creativecommons.org/ns#">
 <title id="title13694">MyPaint symbolic icons</title>
 <metadata id="metadata7">
  <rdf:RDF>
   <ns4:Work rdf:about="">
    <dc:format>image/svg+xml</dc:format>
    <dc:type rdf:resource="http://purl.org/dc/dcmitype/StillImage"/>
    <dc:title>MyPaint symbolic icons</dc:title>
    <ns4:license rdf:resource=""/>
    <dc:creator>
     <ns4:Agent>
      <dc:title>GNOME Project</dc:title>
     </ns4:Agent>
    </dc:creator>
    <dc:contributor>
     <ns4:Agent>
      <dc:title>Andrew Chadwick</dc:title>
     </ns4:Agent>
    </dc:contributor>
   </ns4:Work>
  </rdf:RDF>
 </metadata>
 <g id="layer1" transform="translate(-16 -684.36)">
  <g id="layer2" opacity=".5" transform="translate(229.28 556.07)" display="none" fill="#859f46">
   <rect id="48x48" style="color:#000000" height="48" width="48" display="inline" y="4.25" x="-2.25"/>
   <rect id="32x32" style="color:#000000" height="32" width="32" display="inline" y="20.25" x="53.75"/>
   <rect id="24x24" style="color:#000000" height="24" width="24" display="inline" y="28.25" x="93.75"/>
   <rect id="22x22" style="color:#000000" height="22" width="22" display="inline" y="30.25" x="125.75"/>
   <rect id="16x16" style="color:#000000" height="16" width="16" display="inline" y="36.25" x="155.75"/>
  </g>
  <rect id="use5130-05-3" style="color:#000000" fill-opacity=".3" transform="matrix(1 0 0 -1 0 1024.7)" height="16" width="16" y="324.36" x="16" fill="#606060"/>
  <path id="path4760-9" style="color:#000000" d="m32 686.86-1.5 4-3.5-1v-5.5c4 0 3 2.5 5 2.5z" fill="#bebebe"/>
  <path id="path5783-32" style="color:#000000" d="m26.719 690.92c-0.96065 0.0679-1.8572 0.6032-2.375 1.5-0.39641 0.68653-0.51049 1.4407-0.34375 2.1562 0.17243 0.73997 0.89298 1.6042-0.3125 3.9062-0.01073 0.009-0.02132 0.0213-0.03125 0.0312-0.09048 0.0905-0.15625 0.20568-0.15625 0.34375 0 0.27614 0.22386 0.5 0.5 0.5 1.4366-0.7172 3.172-1.3189 4.2812-2.4062 0.55798-0.56123 1.0086-1.1132 1.25-1.5312 0.82843-1.4349 0.34112-3.2653-1.0938-4.0938-0.53808-0.31066-1.1424-0.44698-1.7188-0.40625z" fill="#bebebe"/>
  <path id="path23141" fill="#bebebe" d="m18 684.53v0.33373c3.661 1.4601 0 8.9994 0 11.999 0 6.1086 4.0508 0.99993 4.0508 0.99993v-0.99993s-1.8291 3.0745-2.3719-0.26283c-0.90938-5.5921 6.7872-12.07-1.679-12.07z"/>
 </g>
</svg>
