<?xml version="1.0" encoding="UTF-8"?>
<svg width="16" height="16" version="1.1" xmlns="http://www.w3.org/2000/svg"><g transform="translate(-416 -780.36)" fill="#bebebe"><path transform="translate(288,-96)" d="m136 876.36c-2.7496 0-5 2.2504-5 5 0 1.5882 0.8422 2.9015 2 3.8106v3.1894h6v-3.1894c1.1578-0.90904 2-2.2224 2-3.8106 0-2.7496-2.2504-5-5-5zm0 2c1.6687 0 3 1.3313 3 3 0 1.1158-0.59702 2.0476-1.502 2.5723l-0.49805 0.28907v2.1387h-2v-2.1387l-0.49805-0.28907c-0.90493-0.52462-1.502-1.4564-1.502-2.5723 0-1.6687 1.3313-3 3-3z"/><path transform="translate(288,-96)" d="m134 891.36v1h4v-1z"/><path transform="translate(288,-96)" d="m133 889.36v1h6v-1z"/><path transform="translate(288,-96)" d="m135 881.36v1h2v-1z" opacity=".35"/></g></svg>
