<?xml version="1.0" encoding="UTF-8"?>
<svg width="16" height="16" version="1.1" xmlns="http://www.w3.org/2000/svg"><path d="m0 6s3.5 6 8 6 8-6 8-6h-2s-2 4-6 4-6-4-6-4z" fill="#bebebe"/><g><path d="m9 11 0.5 3m1-3.5 1.5 2m0.5-3 1.5 1.5m-7 0-0.5 3m-1-3.5-1.5 2m-0.5-3-1.5 1.5m12-3 1 1m-13-1-1 1" fill="none"/><path d="m1.65 7.65-1 1c-0.2 0.2-0.2 0.51 0 0.7 0.2 0.2 0.51 0.2 0.7 0l1-1zm12 0.7 1 1c0.2 0.2 0.51 0.2 0.7 0 0.2-0.2 0.2-0.51 0-0.7l-1-1zm-10.5 0.8-1.5 1.5c-0.2 0.2-0.2 0.51 0 0.7 0.2 0.2 0.51 0.2 0.7 0l1.5-1.5zm9 0.7 1.5 1.5c0.2 0.2 0.51 0.2 0.7 0 0.2-0.2 0.2-0.51 0-0.7l-1.5-1.5zm-7.05 0.35-1.5 2c-0.17 0.22-0.12 0.54 0.1 0.7 0.22 0.17 0.54 0.12 0.7-0.1l1.5-2zm5 0.6 1.5 2c0.17 0.22 0.48 0.27 0.7 0.1s0.27-0.48 0.1-0.7l-1.5-2zm-3.6 0.12-0.5 3c-0.05 0.27 0.14 0.53 0.41 0.58s0.53-0.14 0.58-0.41l0.5-3zm2 0.16 0.5 3c0.04 0.27 0.3 0.46 0.58 0.41 0.27-0.04 0.46-0.3 0.41-0.58l-0.5-3z" fill="#bebebe"/></g></svg>
