<?xml version="1.0" encoding="UTF-8"?>
<svg width="16" height="16" fill="#bebebe" version="1.1" xmlns="http://www.w3.org/2000/svg"><path transform="translate(8e-5)" d="m7.81 1c-0.45 0.02-0.91 0.08-1.36 0.2-0.54 0.15-0.85 0.7-0.71 1.23s0.69 0.85 1.22 0.71c1.21-0.33 2.49-0.07 3.47 0.69 0.99 0.75 1.57 1.93 1.57 3.17l1 1 1-1c0-1.86-0.87-3.62-2.35-4.76-0.74-0.57-1.59-0.94-2.48-1.12-0.45-0.09-0.9-0.13-1.36-0.12zm-4.81 7.01-1 1c0 1.87 0.87 3.63 2.35 4.76 0.74 0.57 1.59 0.95 2.48 1.13s1.82 0.15 2.72-0.1c0.54-0.13 0.85-0.68 0.71-1.22-0.14-0.53-0.69-0.84-1.22-0.7-1.21 0.32-2.49 0.07-3.47-0.69-0.99-0.76-1.57-1.93-1.57-3.18z"/><path d="m10 7v1l3 3 3-3v-1z"/><path d="m3 5-3 3v1h6v-1z"/></svg>
