<?xml version="1.0" encoding="UTF-8"?>
<svg width="16" height="16" fill="#bebebe" version="1.1" xmlns="http://www.w3.org/2000/svg"><path d="m7.84 3c-0.38 0.01-0.76 0.07-1.14 0.17-0.53 0.14-0.85 0.69-0.7 1.23 0.14 0.53 0.69 0.84 1.22 0.7 0.9-0.24 1.87-0.05 2.61 0.52s1.17 1.45 1.17 2.38l1 1 1-1c0-1.55-0.72-3.02-1.96-3.97-0.61-0.47-1.32-0.78-2.07-0.93-0.37-0.08-0.75-0.1-1.13-0.1zm-3.84 4-1 1c0 1.55 0.72 3.02 1.96 3.97 0.61 0.47 1.32 0.78 2.07 0.93 0.74 0.15 1.51 0.13 2.27-0.07 0.53-0.14 0.85-0.69 0.7-1.23-0.14-0.53-0.69-0.84-1.22-0.7-0.9 0.24-1.87 0.05-2.61-0.52s-1.17-1.45-1.17-2.38z"/><path d="m4 5-3 2.5v0.5h6v-0.5z"/><path d="m0 1v3.5a0.5 0.5 0 0 0 0.5 0.5 0.5 0.5 0 0 0 0.5-0.5v-2.5h3.5a0.5 0.5 0 0 0 0.5-0.5 0.5 0.5 0 0 0-0.5-0.5zm11.5 0a0.5 0.5 0 0 0-0.5 0.5 0.5 0.5 0 0 0 0.5 0.5h3.5v2.5a0.5 0.5 0 0 0 0.5 0.5 0.5 0.5 0 0 0 0.5-0.5v-3.5zm-11 10a0.5 0.5 0 0 0-0.5 0.5v3.5h4.5a0.5 0.5 0 0 0 0.5-0.5 0.5 0.5 0 0 0-0.5-0.5h-3.5v-2.5a0.5 0.5 0 0 0-0.5-0.5zm15 0a0.5 0.5 0 0 0-0.5 0.5v2.5h-3.5a0.5 0.5 0 0 0-0.5 0.5 0.5 0.5 0 0 0 0.5 0.5h4.5v-3.5a0.5 0.5 0 0 0-0.5-0.5z" opacity=".3"/><path d="m9 8v0.5l3 2.5 3-2.5v-0.5z"/></svg>
