<?xml version="1.0" encoding="UTF-8"?>
<svg width="16" height="16" version="1.1" xmlns="http://www.w3.org/2000/svg"><g transform="translate(-96 -684.36)"><path transform="translate(-16 396.36)" d="m121.5 288.49c-0.554 0-1 0.446-1 1v6c0 0.554 0.446 1 1 1s1-0.446 1-1v-6c0-0.554-0.446-1-1-1zm-1.666 4-2.4785 0.98047s-0.28899 0.0211-0.54297-0.0117c-2.9589-0.38115-3.6713 1.3222-3.6523 2.3652s0.98499 1.5118 1 2.666c0.45668-0.54619 0.26069-0.89689 0.32617-1.6172 0.0655-0.7203 0.32635-1.407 0.68164-1.7148 4.6667 7.3333-6.6e-4 0.0104 4.791 7.75 0.38364 0.5682 1.0638 0.76981 1.5215 0.4375l4.9785-3.6055c0.45762-0.33234 0.50866-1.0568 0.125-1.625l-3.416-5.291v3c0 0.66667-0.66733 1.334-1.334 1.334h-0.66601c-0.66667 0-1.334-0.66732-1.334-1.334zm-5 6c7e-3 1.8428-1.6664 2.0049-1.666 3s0.95544 1.1136 1.3457 1.0137 1.058-0.42583 0.97071-1.3555c-0.0873-0.92964-0.34643-1.5862-0.6504-2.6582z" fill="#bebebe"/></g></svg>
