<?xml version="1.0" encoding="UTF-8"?>
<svg width="16" height="16" fill="#bebebe" version="1.1" xmlns="http://www.w3.org/2000/svg"><path d="m8 0c-4.5 0-8 3.5-8 8s3.5 8 8 8 8-3.5 8-8-3.5-8-8-8zm0 2c3.5 0 6 2.5 6 6s-2.5 6-6 6-6-2.5-6-6 2.5-6 6-6z"/><path d="m8.15 2.96-1.28 0.27-0.14 0.13 0.45 0.29v0.17l-0.18 0.18 0.22 0.46 0.16-0.08 0.19-0.31c0.3-0.1 0.56-0.21 0.85-0.34l0.22-0.57zm1.6 0.29-0.28 0.06-0.28 0.19v0.12l-0.38 0.28 0.07 0.35 0.24-0.15 0.16 0.15 0.16 0.09 0.09-0.28-0.06-0.16 0.06-0.09 0.25-0.21h0.1l-0.1 0.21v0.22l0.28-0.06-0.28 0.19v0.12l-0.31 0.25-0.31-0.06v-0.19l-0.16 0.1 0.06 0.15h-0.22l-0.15 0.22-0.16 0.19-0.28 0.06 0.19 0.16 0.03 0.15h-0.22l-0.25 0.16v0.41h0.12l0.13 0.12 0.25-0.12 0.1-0.26 0.18-0.12 0.06-0.1 0.32-0.06 0.15 0.19 0.16 0.09-0.09 0.22 0.18-0.06 0.06-0.22-0.18-0.22h0.06l0.22 0.16 0.06 0.25 0.16 0.22 0.06-0.31 0.1-0.06 0.28 0.37h0.31l0.21 0.75-0.28 0.25h-0.24l-0.38-0.09h-0.16l-0.15 0.18-0.38-0.4-0.25-0.06-0.9 0.24-0.44 0.56 0.03 0.35 0.09 0.09-0.18 0.28 0.18 0.5 0.54 0.6 0.28-0.22 0.12 0.12 0.25-0.18 0.09 0.12h0.28l0.2 0.16-0.13 0.34 0.22 0.22-0.03 0.38 0.15 0.28-0.09 0.25-0.03 0.53 0.21 0.68 0.1 0.41v0.16h0.12l0.26-0.13h0.24v-0.03l0.44-0.43-0.06-0.16 0.25-0.25-0.19-0.19 0.25-0.22 0.22-0.12 0.09-0.13-0.06-0.25v-0.66l0.22-0.4 0.19-0.28 0.28-0.6v-0.15l-0.37 0.03 0.24-0.25 0.35-0.25 0.19-0.22v-0.22l-0.13-0.22-0.15 0.19-0.13-0.15-0.19-0.13v-0.31l0.22 0.22h0.22l0.31 0.31 0.19-0.22c0-1.25-1-2.75-2.34-3.56l-0.16 0.15-0.28-0.28h0.22zm-4.72 0.65-0.09 0.22s-0.14 0.06-0.19 0.07c-1.25 0.81-1.75 2.31-1.81 3.56 0.06 0.09 0.5 0.47 0.5 0.47l0.44 0.12 0.12 0.19 0.28 0.19 0.28 0.06-0.16 0.44-0.12 0.18 0.03 0.07-0.06 0.31 0.31 0.66 0.34 0.31 0.16 0.19-0.03 0.46 0.09 0.29-0.09 0.43 0.72 0.41-0.03-0.13 0.22-0.3 0.25-0.07 0.21-0.5-0.09-0.13 0.13-0.18 0.28-0.06 0.18-0.35-0.06-0.43 0.26-0.32 0.02-0.31-0.9-0.5-0.19-0.31-0.25-0.06-0.18-0.41-0.38 0.03-0.32-0.25-0.34 0.31-0.34-0.03-0.06-0.25v-0.22l-0.22 0.04 0.06-0.48-0.12 0.04-0.28 0.18-0.2-0.09 0.04-0.5 0.28-0.19 0.22-0.03 0.06-0.13 0.28 0.07 0.19 0.28 0.03-0.44 0.38-0.28 0.15-0.34 0.28-0.09 0.13-0.26 0.34-0.06 0.19-0.25h-0.5l0.28-0.13h0.25l0.31-0.12 0.07-0.12-0.13-0.13-0.13-0.03 0.04-0.12-0.1-0.19-0.22 0.06 0.04-0.19-0.28-0.12-0.2 0.34v0.16l-0.21 0.09-0.13 0.28-0.03-0.28-0.41-0.15-0.02-0.19 0.46-0.25 0.22-0.22 0.03-0.25z"/></svg>
