<?xml version="1.0" encoding="UTF-8"?>
<svg width="16" height="16" fill="#bebebe" version="1.1" xmlns="http://www.w3.org/2000/svg"><path d="m12.35 0c-1.71-0.02-3.59 2.2-3.6 4.56l-1.39-1.06-0.71 0.92 1.57 1.2-3.22 4.33-1 2.05 0.7 0.56 1.7-1.49 3.25-4.37 1.65 1.25 0.7-0.92-1.39-1.06c2.81-0.79 4.72-4.17 2.86-5.59-0.35-0.26-0.73-0.38-1.12-0.38zm-8.35 12.57s-1.46 0.66-1.45 2.06c0.02 1.73 2.63 1.82 2.71 0.27 0.05-0.87-1.26-2.32-1.26-2.32z"/><g transform="translate(117.28 -40.295)" display="none" fill="#859f46" opacity=".5"><rect x="-2.25" y="4.25" width="48" height="48" display="inline"/><rect x="53.75" y="20.25" width="32" height="32" display="inline"/><rect x="93.75" y="28.25" width="24" height="24" display="inline"/><rect x="125.75" y="30.25" width="22" height="22" display="inline"/></g><g transform="translate(.00192 -.0483)"><path transform="translate(.57452)" d="m9.4236 9.0483h1l1.5 2 1.5-2h1l-2 3v3h-1v-3z"/></g><path d="m12.34 0c-1.7-0.01-3.58 2.2-3.59 4.56l-1.4-1.06-0.7 0.93 1.57 1.19-3.22 4.33-1 2.05 0.7 0.56 1.7-1.49 3.24-4.37 1.66 1.26 0.7-0.93-1.4-1.06c2.8-0.79 4.72-4.17 2.86-5.58-0.34-0.27-0.73-0.39-1.12-0.39zm-8.34 12.57s-1.46 0.66-1.45 2.06c0.02 1.73 2.63 1.82 2.71 0.27 0.04-0.87-1.26-2.33-1.26-2.33z"/></svg>
