<?xml version="1.0" encoding="UTF-8"?>
<svg width="16" height="16" version="1.1" xmlns="http://www.w3.org/2000/svg"><g transform="translate(-592 -780.36)"><g transform="translate(96 32)" fill="#bebebe"><path transform="translate(496 748.36)" d="m16 2.5-1.5 4-3.5-1v-5.5c4 0 3 2.5 5 2.5z"/><path transform="translate(496 748.36)" d="m10.719 6.56c-0.9606 0.0679-1.8572 0.6032-2.375 1.5-0.3964 0.6865-0.5105 1.4407-0.3438 2.156 0.17243 0.73997 0.86173 1.6354 0.21375 2.8316s-0.71375 1.3114-0.71375 1.4495c0 0.27614 0.22386 0.5 0.5 0.5 1.4366-0.7172 3.172-1.3189 4.2812-2.4062 0.55798-0.56123 1.0086-1.1132 1.25-1.5312 0.82843-1.4349 0.34112-3.2653-1.0938-4.0938-0.53808-0.31066-1.1424-0.44698-1.7188-0.40625z"/><path transform="translate(496 748.36)" d="m2 0.17v0.33373c3.661 1.4601 0 8.9994 0 11.999 0 6.1086 4.0508 0.99993 4.0508 0.99993v-0.99993s-1.8291 3.0745-2.3719-0.26283c-0.90938-5.5921 6.7872-12.07-1.679-12.07z"/></g></g></svg>
