<?xml version="1.0" encoding="UTF-8" standalone="no"?>
<svg id="svg1" xmlns="http://www.w3.org/2000/svg" version="1.1" xmlns:dc="http://purl.org/dc/elements/1.1/" height="16.024" width="16.085" xmlns:rdf="http://www.w3.org/1999/02/22-rdf-syntax-ns#" xmlns:ns4="http://creativecommons.org/ns#">
 <metadata id="metadata7">
  <rdf:RDF>
   <ns4:Work rdf:about="">
    <dc:format>image/svg+xml</dc:format>
    <dc:type rdf:resource="http://purl.org/dc/dcmitype/StillImage"/>
    <dc:title/>
   </ns4:Work>
  </rdf:RDF>
 </metadata>
 <g id="layer1" fill="#bebebe" transform="translate(-87.952 -884.34)">
  <path id="path12113-8" style="enable-background:new;block-progression:tb;text-indent:0;color:#000000;text-transform:none" font-family="Sans" d="m98.781 884.36a1.0001 1.0001 0 0 0 -0.78125 1v4a1.0001 1.0001 0 0 0 1 1h4a1.0001 1.0001 0 1 0 0 -2h-3v-3a1.0001 1.0001 0 0 0 -1.2187 -1z" line-height="normal"/>
  <path id="path12147-8" style="enable-background:new;block-progression:tb;text-indent:0;color:#000000;text-transform:none" font-family="Sans" d="m102.87 884.36a1.0001 1.0001 0 0 0 -0.59375 0.28125l-4 4a1.0165 1.0165 0 1 0 1.4375 1.4375l4-4a1.0001 1.0001 0 0 0 -0.84375 -1.7188z" line-height="normal"/>
  <rect id="rect12919-5" style="color:#000000;enable-background:new" height="1" width="1" y="889.36" x="98"/>
  <path id="rect13039" style="enable-background:new;block-progression:tb;text-indent:0;color:#000000;text-transform:none" font-family="Sans" d="m88.906 890.36a1.0001 1.0001 0 0 0 -0.90625 1v8a1.0001 1.0001 0 0 0 1 1h8a1.0001 1.0001 0 0 0 1 -1v-8a1.0001 1.0001 0 0 0 -1 -1h-8a1.0001 1.0001 0 0 0 -0.09375 0zm1.0938 2h6v6h-6v-6z" line-height="normal"/>
  <path id="path13041" style="enable-background:new;block-progression:tb;text-indent:0;color:#000000;text-transform:none" font-family="Sans" d="m88.906 892.36a1.0011 1.0011 0 0 0 0.09375 2h8a1.0001 1.0001 0 1 0 0 -2h-8a1.0001 1.0001 0 0 0 -0.09375 0z" fill-rule="evenodd" line-height="normal"/>
  <rect id="rect4479-2-9-9-0-8-6" style="color:#000000" height="1" width="1" y="889.36" x="103"/>
  <rect id="rect4479-2-9-9-0-8-6-6" style="color:#000000" height="1" width="1" y="884.36" x="98"/>
  <rect id="rect4479-2-9-9-0-8-6-9" style="color:#000000" height="1" width="1" y="899.36" x="97"/>
  <rect id="rect4479-2-9-9-0-8-6-4" style="color:#000000" height="1" width="1" y="899.36" x="88"/>
 </g>
</svg>
