<?xml version="1.0" encoding="UTF-8" standalone="no"?>
<svg id="svg7384" xmlns:rdf="http://www.w3.org/1999/02/22-rdf-syntax-ns#" xmlns="http://www.w3.org/2000/svg" height="16" width="16" version="1.1" xmlns:cc="http://creativecommons.org/ns#" xmlns:dc="http://purl.org/dc/elements/1.1/">
 <title id="title9167">mypaint-layer-group-symbolic</title>
 <g id="layer13" transform="translate(-442 -175.97)">
  <g id="g14154" transform="translate(234,-820)">
   <path id="rect3845" fill="#bebebe" d="m209.5 997.97c-0.25 0-0.5 0.25-0.5 0.5v11c0 1 0.5 1.5 1.5 1.5h12c0.25 0 0.5-0.25 0.5-0.5v-7c0-0.25-0.25-0.5-0.5-0.5h-11.5v6.5c0 0.25-0.223 0.5-0.5 0.5-0.25 0-0.5-0.25-0.5-0.5v-7c0-0.25 0.25-0.5 0.5-0.5h11.5v-1.5c0-0.25-0.25-0.5-0.5-0.5h-7.5v-1.5c0-0.25-0.25-0.5-0.5-0.5z"/>
  </g>
 </g>
</svg>
