<?xml version="1.0" encoding="UTF-8" standalone="no"?>
<svg id="svg1" xmlns="http://www.w3.org/2000/svg" version="1.1" xmlns:dc="http://purl.org/dc/elements/1.1/" height="16" width="16" xmlns:rdf="http://www.w3.org/1999/02/22-rdf-syntax-ns#" xmlns:ns4="http://creativecommons.org/ns#">
 <title id="title13694">MyPaint symbolic icons</title>
 <metadata id="metadata7">
  <rdf:RDF>
   <ns4:Work rdf:about="">
    <dc:format>image/svg+xml</dc:format>
    <dc:type rdf:resource="http://purl.org/dc/dcmitype/StillImage"/>
    <dc:title>MyPaint symbolic icons</dc:title>
    <ns4:license rdf:resource=""/>
    <dc:creator>
     <ns4:Agent>
      <dc:title>GNOME Project</dc:title>
     </ns4:Agent>
    </dc:creator>
    <dc:contributor>
     <ns4:Agent>
      <dc:title>Andrew Chadwick</dc:title>
     </ns4:Agent>
    </dc:contributor>
   </ns4:Work>
  </rdf:RDF>
 </metadata>
 <g id="layer1" transform="translate(-416 -812.36)">
  <g id="layer2" opacity=".5" transform="translate(229.28 556.07)" display="none" fill="#859f46">
   <rect id="48x48" style="color:#000000" height="48" width="48" display="inline" y="4.25" x="-2.25"/>
   <rect id="32x32" style="color:#000000" height="32" width="32" display="inline" y="20.25" x="53.75"/>
   <rect id="24x24" style="color:#000000" height="24" width="24" display="inline" y="28.25" x="93.75"/>
   <rect id="22x22" style="color:#000000" height="22" width="22" display="inline" y="30.25" x="125.75"/>
   <rect id="16x16" style="color:#000000" height="16" width="16" display="inline" y="36.25" x="155.75"/>
  </g>
  <path id="path5461" style="color-rendering:auto;text-decoration-color:#000000;color:#000000;font-variant-numeric:normal;text-orientation:mixed;shape-padding:0;shape-rendering:auto;solid-color:#000000;text-decoration-line:none;text-rendering:auto;font-variant-position:normal;mix-blend-mode:normal;font-feature-settings:normal;font-variant-alternates:normal;text-indent:0;font-variant-ligatures:normal;dominant-baseline:auto;font-variant-caps:normal;image-rendering:auto;white-space:normal;text-decoration-style:solid;isolation:auto;text-transform:none" font-family="sans-serif" d="m362.46 287.39c-1.1142-0.22162-2.2787-0.19028-3.4043 0.11133a1.2501 1.2501 0 1 0 0.64649 2.4141c1.5025-0.40259 3.1038-0.0836 4.3379 0.86328 1.234 0.94692 1.957 2.4113 1.957 3.9668a1.2501 1.2501 0 1 0 2.5 0c0-2.3306-1.0846-4.5304-2.9336-5.9492-0.92452-0.7094-1.9893-1.1846-3.1035-1.4062z" transform="matrix(0.8 0 0 0.8 135.2 583.56)" line-height="normal" fill="#bebebe"/>
  <path id="path5463" style="color:#000000;text-indent:0;text-decoration-line:none;text-transform:none" font-family="Sans" d="m399 676.36-0.00001-0.99999-3-3-3 3 0.00001 0.99999z" transform="rotate(180 412.5 747.86)" line-height="normal" fill="#bebebe"/>
  <path id="path5467" style="color-rendering:auto;text-decoration-color:#000000;color:#000000;font-variant-numeric:normal;text-orientation:mixed;shape-padding:0;shape-rendering:auto;solid-color:#000000;text-decoration-line:none;text-rendering:auto;font-variant-position:normal;mix-blend-mode:normal;font-feature-settings:normal;font-variant-alternates:normal;text-indent:0;font-variant-ligatures:normal;dominant-baseline:auto;font-variant-caps:normal;image-rendering:auto;white-space:normal;text-decoration-style:solid;isolation:auto;text-transform:none" font-family="sans-serif" d="m362.46 287.39c-1.1142-0.22162-2.2787-0.19027-3.4043 0.11133a1.2501 1.2501 0 1 0 0.64649 2.4141c1.5024-0.40258 3.1039-0.0836 4.3379 0.86328 1.234 0.9469 1.957 2.4114 1.957 3.9668a1.2501 1.2501 0 1 0 2.5 0c0-2.3306-1.0846-4.5304-2.9336-5.9492-0.9245-0.70939-1.9894-1.1846-3.1035-1.4062z" transform="matrix(-0.8 0 0 -0.8 712.8 1057.2)" line-height="normal" fill="#bebebe"/>
  <path id="path5469" style="color:#000000;text-indent:0;text-decoration-line:none;text-transform:none" font-family="Sans" d="m401 676.36v1.0142l3 3 3-3v-1.0142z" transform="rotate(180 411.5 748.87)" line-height="normal" fill="#bebebe"/>
 </g>
</svg>
