<?xml version="1.0" encoding="UTF-8" standalone="no"?>
<svg id="svg1" xmlns="http://www.w3.org/2000/svg" version="1.1" xmlns:dc="http://purl.org/dc/elements/1.1/" height="16" width="16" xmlns:rdf="http://www.w3.org/1999/02/22-rdf-syntax-ns#" xmlns:ns4="http://creativecommons.org/ns#">
 <title id="title13694">MyPaint symbolic icons</title>
 <metadata id="metadata7">
  <rdf:RDF>
   <ns4:Work rdf:about="">
    <dc:format>image/svg+xml</dc:format>
    <dc:type rdf:resource="http://purl.org/dc/dcmitype/StillImage"/>
    <dc:title>MyPaint symbolic icons</dc:title>
    <ns4:license rdf:resource=""/>
    <dc:creator>
     <ns4:Agent>
      <dc:title>GNOME Project</dc:title>
     </ns4:Agent>
    </dc:creator>
    <dc:contributor>
     <ns4:Agent>
      <dc:title>Andrew Chadwick</dc:title>
     </ns4:Agent>
    </dc:contributor>
   </ns4:Work>
  </rdf:RDF>
 </metadata>
 <g id="layer1" transform="translate(-96 -684.36)">
  <g id="layer2" opacity=".5" transform="translate(229.28 556.07)" display="none" fill="#859f46">
   <rect id="48x48" style="color:#000000" height="48" width="48" display="inline" y="4.25" x="-2.25"/>
   <rect id="32x32" style="color:#000000" height="32" width="32" display="inline" y="20.25" x="53.75"/>
   <rect id="24x24" style="color:#000000" height="24" width="24" display="inline" y="28.25" x="93.75"/>
   <rect id="22x22" style="color:#000000" height="22" width="22" display="inline" y="30.25" x="125.75"/>
   <rect id="16x16" style="color:#000000" height="16" width="16" display="inline" y="36.25" x="155.75"/>
  </g>
  <path id="rect5117-0" fill="#bebebe" d="m105.5 684.85c-0.554 0-1 0.446-1 1v6c0 0.554 0.446 1 1 1s1-0.446 1-1v-6c0-0.554-0.446-1-1-1zm-1.666 4-2.4785 0.98047s-0.28899 0.0211-0.54297-0.0117c-2.9589-0.38115-3.6713 1.3222-3.6523 2.3652s0.98499 1.5118 1 2.666c0.45668-0.54619 0.26069-0.89689 0.32617-1.6172 0.0655-0.7203 0.32635-1.407 0.68164-1.7148 4.6667 7.3333-0.00066 0.0104 4.791 7.75 0.38364 0.5682 1.0638 0.76981 1.5215 0.4375l4.9785-3.6055c0.45762-0.33234 0.50866-1.0568 0.125-1.625l-3.416-5.291v3c0 0.66667-0.66733 1.334-1.334 1.334h-0.66601c-0.66667 0-1.334-0.66732-1.334-1.334v-3.334zm-5 6c0.007 1.8428-1.6664 2.0049-1.666 3 0.00035 0.99514 0.95544 1.1136 1.3457 1.0137s1.058-0.42583 0.97071-1.3555c-0.0873-0.92964-0.34643-1.5862-0.6504-2.6582z"/>
 </g>
</svg>
