<?xml version="1.0" encoding="UTF-8" standalone="no"?>
<svg id="svg1" xmlns="http://www.w3.org/2000/svg" version="1.1" xmlns:dc="http://purl.org/dc/elements/1.1/" height="16" width="16" xmlns:rdf="http://www.w3.org/1999/02/22-rdf-syntax-ns#" xmlns:ns4="http://creativecommons.org/ns#">
 <title id="title13694">MyPaint symbolic icons</title>
 <metadata id="metadata7">
  <rdf:RDF>
   <ns4:Work rdf:about="">
    <dc:format>image/svg+xml</dc:format>
    <dc:type rdf:resource="http://purl.org/dc/dcmitype/StillImage"/>
    <dc:title>MyPaint symbolic icons</dc:title>
    <ns4:license rdf:resource=""/>
    <dc:creator>
     <ns4:Agent>
      <dc:title>GNOME Project</dc:title>
     </ns4:Agent>
    </dc:creator>
    <dc:contributor>
     <ns4:Agent>
      <dc:title>Andrew Chadwick</dc:title>
     </ns4:Agent>
    </dc:contributor>
   </ns4:Work>
  </rdf:RDF>
 </metadata>
 <g id="layer1" transform="translate(-336 -588.36)">
  <g id="layer2" opacity=".5" transform="translate(229.28 556.07)" display="none" fill="#859f46">
   <rect id="48x48" style="color:#000000" height="48" width="48" display="inline" y="4.25" x="-2.25"/>
   <rect id="32x32" style="color:#000000" height="32" width="32" display="inline" y="20.25" x="53.75"/>
   <rect id="24x24" style="color:#000000" height="24" width="24" display="inline" y="28.25" x="93.75"/>
   <rect id="22x22" style="color:#000000" height="22" width="22" display="inline" y="30.25" x="125.75"/>
   <rect id="16x16" style="color:#000000" height="16" width="16" display="inline" y="36.25" x="155.75"/>
  </g>
  <path id="path3684" style="color-rendering:auto;text-decoration-color:#000000;color:#000000;font-variant-numeric:normal;text-orientation:mixed;shape-padding:0;shape-rendering:auto;solid-color:#000000;text-decoration-line:none;text-rendering:auto;font-variant-position:normal;mix-blend-mode:normal;font-feature-settings:normal;font-variant-alternates:normal;text-indent:0;font-variant-ligatures:normal;dominant-baseline:auto;font-variant-caps:normal;image-rendering:auto;white-space:normal;text-decoration-style:solid;isolation:auto;text-transform:none" font-family="sans-serif" d="m215.25 32.572c-2.2968 0-4.1777 1.881-4.1777 4.1777 0 2.2968 1.881 4.1777 4.1777 4.1777 2.2968 0 4.1777-1.881 4.1777-4.1777 0-2.2968-1.881-4.1777-4.1777-4.1777zm0 1.8555c1.2931 0 2.3223 1.0292 2.3223 2.3223s-1.0292 2.3223-2.3223 2.3223-2.3223-1.0292-2.3223-2.3223 1.0292-2.3223 2.3223-2.3223z" transform="matrix(1.0769 0 0 1.0769 111.69 555.29)" line-height="normal" fill="#bebebe"/>
  <path id="path4454" style="color-rendering:auto;text-decoration-color:#000000;color:#000000;font-variant-numeric:normal;text-orientation:mixed;shape-padding:0;shape-rendering:auto;solid-color:#000000;text-decoration-line:none;text-rendering:auto;font-variant-position:normal;mix-blend-mode:normal;font-feature-settings:normal;font-variant-alternates:normal;text-indent:0;font-variant-ligatures:normal;dominant-baseline:auto;font-variant-caps:normal;image-rendering:auto;white-space:normal;text-decoration-style:solid;isolation:auto;text-transform:none" font-family="sans-serif" d="m426.71 676.65-1.4141 1.4141 3.5 3.5 1.4141-1.4141z" transform="translate(-80 -80)" line-height="normal" fill="#bebebe"/>
 </g>
</svg>
