<?xml version="1.0" encoding="UTF-8" standalone="no"?>
<svg id="svg1" xmlns="http://www.w3.org/2000/svg" version="1.1" xmlns:dc="http://purl.org/dc/elements/1.1/" height="16" width="16" xmlns:rdf="http://www.w3.org/1999/02/22-rdf-syntax-ns#" xmlns:ns3="http://www.openswatchbook.org/uri/2009/osb" xmlns:ns5="http://creativecommons.org/ns#">
 <title id="title13694">MyPaint symbolic icons</title>
 <metadata id="metadata7">
  <rdf:RDF>
   <ns5:Work rdf:about="">
    <dc:format>image/svg+xml</dc:format>
    <dc:type rdf:resource="http://purl.org/dc/dcmitype/StillImage"/>
    <dc:title>MyPaint symbolic icons</dc:title>
    <ns5:license rdf:resource=""/>
    <dc:creator>
     <ns5:Agent>
      <dc:title>GNOME Project</dc:title>
     </ns5:Agent>
    </dc:creator>
    <dc:contributor>
     <ns5:Agent>
      <dc:title>Andrew Chadwick</dc:title>
     </ns5:Agent>
    </dc:contributor>
   </ns5:Work>
  </rdf:RDF>
 </metadata>
 <g id="layer1" transform="translate(-208 -556.36)">
  <g id="layer2" opacity=".5" transform="translate(229.28 556.07)" display="none" fill="#859f46">
   <rect id="48x48" style="color:#000000" height="48" width="48" display="inline" y="4.25" x="-2.25"/>
   <rect id="32x32" style="color:#000000" height="32" width="32" display="inline" y="20.25" x="53.75"/>
   <rect id="24x24" style="color:#000000" height="24" width="24" display="inline" y="28.25" x="93.75"/>
   <rect id="22x22" style="color:#000000" height="22" width="22" display="inline" y="30.25" x="125.75"/>
  </g>
  <path id="rect34161-2" style="color:#000000" d="m216.7 570.36c-0.3878 0-0.7 0.223-0.7 0.5s0.3122 0.5 0.7 0.5h1.4 4.2 0.7v-0.5-0.5h-0.7-4.2-1.4z" fill-rule="evenodd" fill="#bebebe"/>
  <path id="path34166-7" style="color:#000000" d="m211.3 570.36c0.3878 0 0.7 0.223 0.7 0.5s-0.3122 0.5-0.7 0.5h-2.3v-0.5-0.5h2.3z" fill-rule="evenodd" fill="#bebebe"/>
  <path id="path31387-7-9" style="color:#000000" d="m211 562.36v7h10v-7z" fill="#bebebe"/>
  <path id="rect31389-8-5" style="color:#000000" d="m212 560.36v3h2v-3c0-1.108 0.892-2 2-2s2 0.892 2 2v3h2v-3c0-2.3808-1.6025-4-4-4s-3.9303 1.6907-4 4z" fill="#bebebe"/>
 </g>
</svg>
