<?xml version="1.0" encoding="UTF-8" standalone="no"?>
<svg id="svg1" xmlns="http://www.w3.org/2000/svg" version="1.1" xmlns:dc="http://purl.org/dc/elements/1.1/" height="16" width="16.026" xmlns:rdf="http://www.w3.org/1999/02/22-rdf-syntax-ns#" xmlns:ns4="http://creativecommons.org/ns#">
 <title id="title13694">MyPaint symbolic icons</title>
 <metadata id="metadata7">
  <rdf:RDF>
   <ns4:Work rdf:about="">
    <dc:format>image/svg+xml</dc:format>
    <dc:type rdf:resource="http://purl.org/dc/dcmitype/StillImage"/>
    <dc:title>MyPaint symbolic icons</dc:title>
    <ns4:license rdf:resource=""/>
    <dc:creator>
     <ns4:Agent>
      <dc:title>GNOME Project</dc:title>
     </ns4:Agent>
    </dc:creator>
    <dc:contributor>
     <ns4:Agent>
      <dc:title>Andrew Chadwick</dc:title>
     </ns4:Agent>
    </dc:contributor>
   </ns4:Work>
  </rdf:RDF>
 </metadata>
 <g id="layer1" transform="translate(-415.97 -652.36)">
  <g id="layer2" opacity=".5" transform="translate(229.28 556.07)" display="none" fill="#859f46">
   <rect id="48x48" style="color:#000000" height="48" width="48" display="inline" y="4.25" x="-2.25"/>
   <rect id="32x32" style="color:#000000" height="32" width="32" display="inline" y="20.25" x="53.75"/>
   <rect id="24x24" style="color:#000000" height="24" width="24" display="inline" y="28.25" x="93.75"/>
   <rect id="22x22" style="color:#000000" height="22" width="22" display="inline" y="30.25" x="125.75"/>
   <rect id="16x16" style="color:#000000" height="16" width="16" display="inline" y="36.25" x="155.75"/>
  </g>
  <path id="path4640" style="color:#000000;text-indent:0;text-decoration-line:none;text-transform:none" font-family="Sans" d="m167.49 488.06c-3.5788 0-6.5012 2.9142-6.5012 6.4829s2.9224 6.4829 6.5012 6.4829 6.5012-2.9142 6.5012-6.4829-2.9224-6.4829-6.5012-6.4829zm0 1.997c2.4964 0 4.4986 1.9966 4.4986 4.4859 0 2.4894-2.0022 4.4859-4.4986 4.4859s-4.4986-1.9966-4.4986-4.4859c0-2.4894 2.0022-4.4859 4.4986-4.4859z" transform="matrix(.99835 0 0 1 256.26 165.36)" line-height="normal" fill="#bebebe"/>
  <path id="path4644" style="enable-background:new;color:#000000;text-indent:0;text-decoration-line:none;text-transform:none" font-family="Sans" d="m170.43 493.98a0.50389 0.50389 0 1 0 0.125 1h3.9375a0.50005 0.50005 0 1 0 0 -1h-3.9375a0.50005 0.50005 0 0 0 -0.125 0z" transform="matrix(.99835 0 0 1 256.26 165.36)" line-height="normal" fill="#bebebe"/>
  <path id="path5416" style="enable-background:new;color:#000000;text-indent:0;text-decoration-line:none;text-transform:none" font-family="Sans" d="m160.43 494.01a0.50219 0.50219 0 1 0 0.0937 1h3.9688a0.50005 0.50005 0 1 0 0 -1h-3.9688a0.50005 0.50005 0 0 0 -0.0937 0z" transform="matrix(.99835 0 0 1 256.26 165.36)" line-height="normal" fill="#bebebe"/>
  <path id="path5420" style="enable-background:new;color:#000000;text-indent:0;text-decoration-line:none;text-transform:none" font-family="Sans" d="m167.4 487.01a0.50005 0.50005 0 0 0 -0.40625 0.5v4.0312a0.50005 0.50005 0 1 0 1 0v-4.0312a0.50005 0.50005 0 0 0 -0.59375 -0.5z" transform="matrix(.99835 0 0 1 256.26 165.36)" line-height="normal" fill="#bebebe"/>
  <path id="path5422" style="enable-background:new;color:#000000;text-indent:0;text-decoration-line:none;text-transform:none" font-family="Sans" d="m167.43 497.04a0.50005 0.50005 0 0 0 -0.4375 0.53125v3.9375a0.50005 0.50005 0 1 0 1 0v-3.9375a0.50005 0.50005 0 0 0 -0.5625 -0.53125z" transform="matrix(.99835 0 0 1 256.26 165.36)" line-height="normal" fill="#bebebe"/>
  <circle id="path5428" style="color:#000000;enable-background:new" cx="-92" transform="matrix(1.4975 0 0 1.5 561.25 -57.129)" cy="478" r="1" fill="#bebebe"/>
 </g>
</svg>
