<?xml version="1.0" encoding="UTF-8" standalone="no"?>
<svg
   xmlns:dc="http://purl.org/dc/elements/1.1/"
   xmlns:cc="http://creativecommons.org/ns#"
   xmlns:rdf="http://www.w3.org/1999/02/22-rdf-syntax-ns#"
   xmlns:svg="http://www.w3.org/2000/svg"
   xmlns="http://www.w3.org/2000/svg"
   width="16"
   height="16"
   version="1.1"
   id="svg1">
  <defs
     id="defs23" />
  <title
     id="title13694">MyPaint symbolic icons</title>
  <metadata
     id="metadata7">
    <rdf:RDF>
      <cc:Work
         rdf:about="">
        <dc:format>image/svg+xml</dc:format>
        <dc:type
           rdf:resource="http://purl.org/dc/dcmitype/StillImage" />
        <dc:title>MyPaint symbolic icons</dc:title>
        <cc:license
           rdf:resource="" />
        <dc:creator>
          <cc:Agent>
            <dc:title>GNOME Project</dc:title>
          </cc:Agent>
        </dc:creator>
        <dc:contributor>
          <cc:Agent>
            <dc:title>Andrew Chadwick</dc:title>
          </cc:Agent>
        </dc:contributor>
      </cc:Work>
    </rdf:RDF>
  </metadata>
  <g
     id="layer2"
     transform="translate(213.28,-456.33002)"
     display="none"
     style="display:none;opacity:0.5;fill:#859f46">
    <rect
       id="48x48"
       style="color:#000000;display:inline"
       height="48"
       width="48"
       display="inline"
       y="4.25"
       x="-2.25" />
    <rect
       id="32x32"
       style="color:#000000;display:inline"
       height="32"
       width="32"
       display="inline"
       y="20.25"
       x="53.75" />
    <rect
       id="24x24"
       style="color:#000000;display:inline"
       height="24"
       width="24"
       display="inline"
       y="28.25"
       x="93.75" />
    <rect
       id="22x22"
       style="color:#000000;display:inline"
       height="22"
       width="22"
       display="inline"
       y="30.25"
       x="125.75" />
    <rect
       id="16x16"
       style="color:#000000;display:inline"
       height="16"
       width="16"
       display="inline"
       y="36.25"
       x="155.75" />
  </g>
  <path
     id="path5256-7-6"
     d="m 0,15.999976 3,-3 13,0 -3,3 z"
     style="fill:#bebebe" />
  <path
     id="path24341-7-7"
     style="color:#000000;line-height:normal;font-family:sans-serif;text-indent:0;text-decoration:none;text-decoration-line:none;text-decoration-style:solid;text-decoration-color:#000000;text-transform:none;block-progression:tb;white-space:normal;isolation:auto;mix-blend-mode:normal;solid-color:#000000;fill:#bebebe;color-rendering:auto;image-rendering:auto;shape-rendering:auto;text-rendering:auto"
     d="m 4.5,2.9999756 c -1.0987,0 -2,0.9014 -2,2 0,1.0987 0.90135,2 2,2 1.0987,0 2,-0.9013 2,-2 0,-1.0986 -0.90135,-2 -2,-2 z m 0,1 c 0.55821,0 1,0.4418 1,1 0,0.5582 -0.44179,1 -1,1 -0.55821,0 -1,-0.4418 -1,-1 0,-0.5582 0.44179,-1 1,-1 z"
     line-height="normal" />
  <circle
     id="use24347-3-3-41-8"
     cy="9"
     cx="2"
     r="1.5"
     style="opacity:0.3;fill:#bebebe" />
  <path
     id="path24341-7-7-7"
     style="color:#000000;line-height:normal;font-family:sans-serif;text-indent:0;text-decoration:none;text-decoration-line:none;text-decoration-style:solid;text-decoration-color:#000000;text-transform:none;block-progression:tb;white-space:normal;isolation:auto;mix-blend-mode:normal;solid-color:#000000;fill:#bebebe;color-rendering:auto;image-rendering:auto;shape-rendering:auto;text-rendering:auto"
     d="m 2,6.9999756 c -1.0987,0 -2,0.9014 -2,2 0,1.0987004 0.90135,2.0000004 2,2.0000004 1.0987,0 2,-0.9013 2,-2.0000004 0,-1.0986 -0.90135,-2 -2,-2 z m 0,1 c 0.55821,0 1,0.4418 1,1 0,0.5582 -0.44179,1 -1,1 -0.55821,0 -1,-0.4418 -1,-1 0,-0.5582 0.44179,-1 1,-1 z"
     line-height="normal" />
  <circle
     id="use24347-3-3-41-7"
     cy="9"
     cx="7"
     r="1.5"
     style="fill:#bebebe" />
  <path
     id="path24341-7-7-4"
     style="color:#000000;line-height:normal;font-family:sans-serif;text-indent:0;text-decoration:none;text-decoration-line:none;text-decoration-style:solid;text-decoration-color:#000000;text-transform:none;block-progression:tb;white-space:normal;isolation:auto;mix-blend-mode:normal;solid-color:#000000;fill:#bebebe;color-rendering:auto;image-rendering:auto;shape-rendering:auto;text-rendering:auto"
     d="m 7,6.9999756 c -1.0987,0 -2,0.9014 -2,2 0,1.0987004 0.90135,2.0000004 2,2.0000004 1.0987,0 2,-0.9013 2,-2.0000004 0,-1.0986 -0.90135,-2 -2,-2 z m 0,1 c 0.55821,0 1,0.4418 1,1 0,0.5582 -0.44179,1 -1,1 -0.55821,0 -1,-0.4418 -1,-1 0,-0.5582 0.44179,-1 1,-1 z"
     line-height="normal" />
  <path
     id="path4760-9-0-4"
     style="color:#000000;fill:#bebebe"
     d="m 16.118,1.9999756 -1.1176,2.5 -3,-0.5 0,-4.000000014063 c 3.2941,0 2.4706,2.000000014063 4.1176,2.000000014063 z" />
  <path
     id="path5783-32-6-6"
     style="color:#000000;fill:#bebebe"
     d="m 12.5,4.9999756 c -0.79113,0.054 -1.5295,0.4826 -1.9559,1.2 -0.32646,0.5492 -0.4204,1.1525 -0.28309,1.725 0.142,0.592 0.7354,1.2834 -0.25735,3.1250004 -0.0088,0.01 -0.01756,0.017 -0.02574,0.025 -0.07451,0.072 -0.12868,0.1645 -0.12868,0.275 0,0.2209 0.18435,0.4 0.41176,0.4 1.1831,-0.5738 2.6123,-1.0552 3.5257,-1.9250004 0.45951,-0.449 0.83062,-0.8906 1.0294,-1.225 0.68224,-1.1479 0.28092,-2.6123 -0.90074,-3.275 -0.44312,-0.2486 -0.94076,-0.3576 -1.4154,-0.325 z" />
</svg>
