<?xml version="1.0" encoding="UTF-8"?>
<svg width="16" height="16" version="1.1" xmlns="http://www.w3.org/2000/svg"><g transform="translate(-592 -812.36)"><g transform="translate(176 -63.998)"><g transform="translate(229.28,556.07)" display="none" fill="#859f46" opacity=".5"><rect x="-2.25" y="4.25" width="48" height="48" display="inline" style=""/><rect x="53.75" y="20.25" width="32" height="32" display="inline" style=""/><rect x="93.75" y="28.25" width="24" height="24" display="inline" style=""/><rect x="125.75" y="30.25" width="22" height="22" display="inline" style=""/></g><path d="m421.5 877.36c5.6472 0.52208 6.3383 4.2007 1 8-1.1522 0.82002-2.5 2-2.5 4 0 3 4 3 6 3l0.5-1c-1.5 0-5.5881-0.47523-2.5-4 1.8936-2.1613 4-4.0721 4-6 0-2.5-1-5-7-5z" fill="#bebebe"/></g></g></svg>
