<?xml version="1.0" encoding="UTF-8"?>
<svg width="16" height="16" fill="#bebebe" version="1.1" xmlns="http://www.w3.org/2000/svg"><path d="m3 13-3 3h13l3-3z"/><path d="m4.5 3c-1.1 0-2 0.9-2 2s0.9 2 2 2 2-0.9 2-2-0.9-2-2-2zm0 1c0.56 0 1 0.44 1 1s-0.44 1-1 1-1-0.44-1-1 0.44-1 1-1zm-2.5 3c-1.1 0-2 0.9-2 2s0.9 2 2 2 2-0.9 2-2-0.9-2-2-2zm5 0c-1.1 0-2 0.9-2 2s0.9 2 2 2 2-0.9 2-2-0.9-2-2-2zm-5 1c0.56 0 1 0.44 1 1s-0.44 1-1 1-1-0.44-1-1 0.44-1 1-1z"/><path d="m3.5 8h-3v2h3z" opacity=".3"/><path d="m12 0v4l3 0.5 1-2.5c-1.5 0-1-2-4-2z"/><path d="m12.8 5h-0.46c-0.64 0-1.37 0.47-1.8 1.19-0.32 0.55-0.42 1.15-0.28 1.73 0.14 0.59 0.74 1.27 0.19 2.25-0.55 0.97-0.6 1.06-0.6 1.17 0 0.22 0.18 0.4 0.41 0.4 1.18-0.57 2.61-1.05 3.53-1.93 0.46-0.43 0.83-0.88 1.03-1.21 0.68-1.15 0.28-2.61-0.9-3.28-0.34-0.18-0.7-0.29-1.12-0.32z"/></svg>
