<?xml version="1.0" encoding="UTF-8"?>
<svg width="16" height="16" version="1.1" xmlns="http://www.w3.org/2000/svg"><g transform="translate(-416 -492.36)" fill="#bebebe"><path transform="translate(144 -488)" d="m275 992.86h10c1 0 2-1 2-2v3c0 1-1 2-2 2h-10c-1 0-1.5-0.5-1.5-1.5s0.5-1.5 1.5-1.5z" opacity=".3"/><path transform="translate(144 -488)" d="m274.5 980.36c-0.5 0-1.5 0.5-1.5 1.5v13c0 1 1 1.5 1.5 1.5h10.5c1 0 2-1 2-2v-1c0 1-1 2-2 2h-10c-1 0-1-0.5-1-1s0-1 1-1h10c1 0 2-1 2-2v-9c0-1-1-2-2-2h-3v6.5625l1.2812-1.2812c0.18816-0.1882 0.45345-0.28129 0.71875-0.2813h1v1c-1e-5 0.2653-0.0931 0.53058-0.28125 0.71875l-4.2188 4.2812-4.2188-4.2812c-0.18815-0.18817-0.28124-0.45345-0.28125-0.71875v-1h1c0.2653 3e-5 0.53059 0.0931 0.71875 0.28125l1.2812 1.2812v-6.5625z"/></g></svg>
