<?xml version="1.0" encoding="UTF-8"?>
<svg width="16" height="16" version="1.1" xmlns="http://www.w3.org/2000/svg"><path d="m11 0-2.13 5.63 0.53 0.8 3.95 1.62 1.04-0.35 1.61-3.7c-2 0-1-4-5-4zm-1.67 7.38-0.46 1.34 3.33 1.28 0.47-1.28zm0.21 2.32-1.06 3.02c-0.28 0.82 0.87 1.26 1.16 0.4l1.17-3z" fill="#bebebe"/><path transform="translate(-16 -716.36)" d="m22.549 731.11v2e-3" fill="#ef2929"/><rect width="3" height="3" fill="#bebebe"/><g><path d="m2 13.5h5m-4.5-1c2-0.5 3-1.5 3-3 0-4-4-8-4-8h6.5" fill="none"/><path d="m0.3 1 0.85 0.85s0.97 0.97 1.94 2.42c0.97 1.46 1.91 3.4 1.91 5.23 0 0.64-0.2 1.1-0.6 1.52-0.42 0.41-1.08 0.76-2.02 1l0.24 0.97c1.06-0.27 1.9-0.67 2.48-1.26 0.6-0.59 0.9-1.37 0.9-2.23 0-2.17-1.06-4.23-2.08-5.78-0.69-1.02-1-1.3-1.38-1.72h5.46v-1zm1.7 12v1h5v-1z" fill="#bebebe"/></g><rect x="1" y="12" width="3" height="3" fill="#bebebe"/></svg>
