<?xml version="1.0" encoding="UTF-8" standalone="no"?>
<svg id="svg1" xmlns="http://www.w3.org/2000/svg" version="1.1" xmlns:dc="http://purl.org/dc/elements/1.1/" height="16" width="16" xmlns:rdf="http://www.w3.org/1999/02/22-rdf-syntax-ns#" xmlns:ns4="http://creativecommons.org/ns#">
 <title id="title13694">MyPaint symbolic icons</title>
 <metadata id="metadata7">
  <rdf:RDF>
   <ns4:Work rdf:about="">
    <dc:format>image/svg+xml</dc:format>
    <dc:type rdf:resource="http://purl.org/dc/dcmitype/StillImage"/>
    <dc:title>MyPaint symbolic icons</dc:title>
    <ns4:license rdf:resource=""/>
    <dc:creator>
     <ns4:Agent>
      <dc:title>GNOME Project</dc:title>
     </ns4:Agent>
    </dc:creator>
    <dc:contributor>
     <ns4:Agent>
      <dc:title>Andrew Chadwick</dc:title>
     </ns4:Agent>
    </dc:contributor>
   </ns4:Work>
  </rdf:RDF>
 </metadata>
 <g id="layer1" transform="translate(-336 -684.36)">
  <g id="layer2" opacity=".5" transform="translate(229.28 556.07)" display="none" fill="#859f46">
   <rect id="48x48" style="color:#000000" height="48" width="48" display="inline" y="4.25" x="-2.25"/>
   <rect id="32x32" style="color:#000000" height="32" width="32" display="inline" y="20.25" x="53.75"/>
   <rect id="24x24" style="color:#000000" height="24" width="24" display="inline" y="28.25" x="93.75"/>
   <rect id="22x22" style="color:#000000" height="22" width="22" display="inline" y="30.25" x="125.75"/>
   <rect id="16x16" style="color:#000000" height="16" width="16" display="inline" y="36.25" x="155.75"/>
  </g>
  <path id="path5046-1" style="color-rendering:auto;text-decoration-color:#000000;color:#000000;font-variant-numeric:normal;text-orientation:mixed;shape-padding:0;shape-rendering:auto;solid-color:#000000;text-decoration-line:none;text-rendering:auto;font-variant-position:normal;mix-blend-mode:normal;font-feature-settings:normal;font-variant-alternates:normal;text-indent:0;font-variant-ligatures:normal;dominant-baseline:auto;font-variant-caps:normal;image-rendering:auto;white-space:normal;text-decoration-style:solid;isolation:auto;text-transform:none" font-family="sans-serif" d="m362.22 288.62c-0.92852-0.18469-1.898-0.15952-2.8359 0.0918a1.2501 1.2501 0 1 0 0.64649 2.4141c1.1271-0.30201 2.3282-0.0619 3.2539 0.64844 0.92574 0.71035 1.4668 1.8077 1.4668 2.9746a1.2501 1.2501 0 1 0 2.5 0c0-1.942-0.9046-3.7768-2.4453-4.959-0.77036-0.59112-1.6574-0.98523-2.5859-1.1699z" transform="matrix(-0.8 0 0 -0.8 632.8 928.16)" line-height="normal" fill="#bebebe"/>
  <path id="path3228-1-7" style="color:#000000;text-indent:0;text-decoration-line:none;text-transform:none" font-family="Sans" d="m399 676.36-0.00001-0.49996-3-2.5-3 2.5 0.00001 0.49996z" transform="translate(-56 16)" line-height="normal" fill="#bebebe"/>
  <path id="path5046" style="color-rendering:auto;text-decoration-color:#000000;color:#000000;font-variant-numeric:normal;text-orientation:mixed;shape-padding:0;shape-rendering:auto;solid-color:#000000;text-decoration-line:none;text-rendering:auto;font-variant-position:normal;mix-blend-mode:normal;font-feature-settings:normal;font-variant-alternates:normal;text-indent:0;font-variant-ligatures:normal;dominant-baseline:auto;font-variant-caps:normal;image-rendering:auto;white-space:normal;text-decoration-style:solid;isolation:auto;text-transform:none" font-family="sans-serif" d="m362.22 288.62c-0.92852-0.18469-1.898-0.15952-2.8359 0.0918a1.2501 1.2501 0 1 0 0.64649 2.4141c1.1271-0.30201 2.3282-0.0619 3.2539 0.64844 0.92574 0.71035 1.4668 1.8077 1.4668 2.9746a1.2501 1.2501 0 1 0 2.5 0c0-1.942-0.9046-3.7768-2.4453-4.959-0.77036-0.59112-1.6574-0.98523-2.5859-1.1699z" transform="matrix(0.8 0 0 0.8 55.2 456.56)" line-height="normal" fill="#bebebe"/>
  <path id="path3228-1" style="color:#000000;text-indent:0;text-decoration-line:none;text-transform:none" font-family="Sans" d="m401 676.36v0.5l3 2.5 3-2.5v-0.5z" transform="translate(-56 16)" line-height="normal" fill="#bebebe"/>
 </g>
</svg>
