<?xml version="1.0" encoding="UTF-8"?>
<svg width="16" height="16" version="1.1" xmlns="http://www.w3.org/2000/svg"><g transform="translate(-336 -684.36)" fill="#bebebe"><path transform="matrix(-.8 0 0 -.8 632.8 928.16)" d="m362.22 288.62c-0.92852-0.18469-1.898-0.15952-2.8359 0.0918a1.2501 1.2501 0 1 0 0.64649 2.4141c1.1271-0.30201 2.3282-0.0619 3.2539 0.64844 0.92574 0.71035 1.4668 1.8077 1.4668 2.9746a1.2501 1.2501 0 1 0 2.5 0c0-1.942-0.9046-3.7768-2.4453-4.959-0.77036-0.59112-1.6574-0.98523-2.5859-1.1699z"/><path transform="translate(-56 16)" d="m399 676.36-1e-5 -0.49996-3-2.5-3 2.5 1e-5 0.49996z"/><path transform="matrix(.8 0 0 .8 55.2 456.56)" d="m362.22 288.62c-0.92852-0.18469-1.898-0.15952-2.8359 0.0918a1.2501 1.2501 0 1 0 0.64649 2.4141c1.1271-0.30201 2.3282-0.0619 3.2539 0.64844 0.92574 0.71035 1.4668 1.8077 1.4668 2.9746a1.2501 1.2501 0 1 0 2.5 0c0-1.942-0.9046-3.7768-2.4453-4.959-0.77036-0.59112-1.6574-0.98523-2.5859-1.1699z"/><path transform="translate(-56 16)" d="m401 676.36v0.5l3 2.5 3-2.5v-0.5z"/></g></svg>
