<?xml version="1.0" encoding="UTF-8"?>
<svg width="16" height="16.006" version="1.1" xmlns="http://www.w3.org/2000/svg"><defs><clipPath id="a"><rect x="312" y="876.36" width="16" height="16" rx="0" ry="0" fill="#bebebe"/></clipPath></defs><g transform="translate(-416 -716.36)" fill="#bebebe"><path transform="translate(104 252.36)" d="m314 465c-0.554 0-1 0.446-1 1v10c0 0.554 0.446 1 1 1h12c0.554 0 1-0.446 1-1v-9.9688c-0.40643 0.49032-0.79061 0.94173-1.125 1.3125-0.30207 0.33494-0.59509 0.64953-0.875 0.9375h-0.0312c-0.89538 0.949-2.2626 2.2734-3.9688 3.7188 0.0719 0.50544 0.0996 1.0384-0.15625 1.5312-0.30802 0.59343-0.90636 1.0625-1.6562 1.25-0.64451 0.16115-1.3707 0.26455-2.0625 0.21875-0.34592-0.0229-0.68055-0.0713-1.0312-0.21875-0.3507-0.1474-0.8009-0.47182-0.9375-1.0312-0.15573-0.63157 0.31829-1.2432 0.96875-1.25 0.1948 1e-4 0.2045-0.0256 0.25-0.0625s0.12405-0.15195 0.21875-0.34375c0.18937-0.3836 0.26039-1.1475 1.125-1.7188 0.37715-0.2491 0.80763-0.3165 1.2188-0.3125 1.0056-1.4324 2.1187-2.9584 3.3125-4.2812 0.24992-0.28117 0.49624-0.54241 0.74985-0.7811z"/><path transform="translate(104 252.36)" d="m314.38 478-0.28125 0.5625a1.0063 1.0063 0 0 0 1.8125 0.875l0.71875-1.4375zm9 0 0.71875 1.4375a1.0063 1.0063 0 0 0 1.8125-0.875l-0.28125-0.5625z"/><path transform="translate(104 -160)" d="m330.03 872.36c-1.7996 1.2988-4.1852 3.3121-6.0938 5.3438-0.39896 0.35134-0.69919 0.72019-1.0312 1.0938-1.3047 1.442-2.5877 3.1264-3.6562 4.6875-0.30993-0.15117-0.6844-0.17668-1.0938 0.0937-0.75359 0.49786-0.60416 2.2818-2.1562 2.2812 0.14696 0.60185 1.7391 0.58086 2.8125 0.3125 1.0131-0.25331 1.3178-1.1327 1.125-1.875-0.0273-0.10506-0.0928-0.20745-0.15625-0.3125 1.9784-1.6394 3.4153-3.0129 4.375-4.0312 0.2404-0.24587 0.52201-0.58075 0.84375-0.9375 1.2036-1.3346 2.9132-3.4268 5.0312-6.6562z" clip-path="url(#a)"/></g></svg>
