<?xml version="1.0" encoding="UTF-8"?>
<svg width="16" height="16" version="1.1" xmlns="http://www.w3.org/2000/svg"><g transform="translate(-176 -556.36)" fill="#bebebe"><path transform="translate(140,576)" d="m40-11.641c-2.2032 0-4 1.7968-4 4s1.7968 4 4 4 4-1.7968 4-4-1.7968-4-4-4zm0 1c1.6628 0 3 1.3372 3 3s-1.3372 3-3 3-3-1.3372-3-3 1.3372-3 3-3z"/><path transform="translate(140,576)" d="m44-18.639c-2.2032 0-4 1.7968-4 4s1.7968 4 4 4 4-1.7968 4-4-1.7968-4-4-4zm0 1c1.6628 0 3 1.3372 3 3s-1.3372 3-3 3-3-1.3372-3-3 1.3372-3 3-3z"/><circle transform="translate(140,576)" cx="48" cy="-7.6378" r="2"/><path transform="translate(140,576)" d="m48-11.641c-2.2032 0-4 1.7968-4 4s1.7968 4 4 4 4-1.7968 4-4-1.7968-4-4-4zm0 1c1.6628 0 3 1.3372 3 3s-1.3372 3-3 3-3-1.3372-3-3 1.3372-3 3-3z"/><circle transform="translate(140,576)" cx="40" cy="-7.6378" r="2" opacity=".3"/></g></svg>
