<?xml version="1.0" encoding="UTF-8"?>
<!-- Created with Inkscape (http://www.inkscape.org/) -->
<svg id="svg7384" width="16" height="16" version="1.1" xmlns="http://www.w3.org/2000/svg" xmlns:cc="http://creativecommons.org/ns#" xmlns:dc="http://purl.org/dc/elements/1.1/" xmlns:rdf="http://www.w3.org/1999/02/22-rdf-syntax-ns#">
 <metadata id="metadata9">
  <rdf:RDF>
   <cc:Work rdf:about="">
    <dc:format>image/svg+xml</dc:format>
    <dc:type rdf:resource="http://purl.org/dc/dcmitype/StillImage"/>
    <dc:title/>
   </cc:Work>
  </rdf:RDF>
 </metadata>
 <path id="rect5238" d="m6 2c-0.54996 0-1 0.45004-1 1v1h-3c-0.55201 0-1 0.45004-1 1v8c0 0.54996 0.44799 1 1 1h12c0.55201 0 1-0.45004 1-1v-8c0-0.54996-0.44799-1-1-1h-3v-1c0-0.54996-0.45004-1-1-1h-4zm2 2.5a4.5 4.5 0 0 1 4.5 4.5 4.5 4.5 0 0 1-4.5 4.5 4.5 4.5 0 0 1-4.5-4.5 4.5 4.5 0 0 1 4.5-4.5zm0 1.5c-1.6569 0-3 1.3431-3 3s1.3431 3 3 3 3-1.3431 3-3-1.3431-3-3-3zm-0.5 0.75c0.41421 0 0.75 0.33579 0.75 0.75s-0.33579 0.75-0.75 0.75-0.75-0.33579-0.75-0.75 0.33579-0.75 0.75-0.75z" fill="#bebebe"/>
</svg>
