<?xml version="1.0" encoding="UTF-8" standalone="no"?>
<svg id="svg1" xmlns="http://www.w3.org/2000/svg" version="1.1" xmlns:dc="http://purl.org/dc/elements/1.1/" height="16" width="16.002" xmlns:rdf="http://www.w3.org/1999/02/22-rdf-syntax-ns#" xmlns:ns3="http://www.openswatchbook.org/uri/2009/osb" xmlns:ns5="http://creativecommons.org/ns#">
 <title id="title13694">MyPaint symbolic icons</title>
 <metadata id="metadata7">
  <rdf:RDF>
   <ns5:Work rdf:about="">
    <dc:format>image/svg+xml</dc:format>
    <dc:type rdf:resource="http://purl.org/dc/dcmitype/StillImage"/>
    <dc:title>MyPaint symbolic icons</dc:title>
    <ns5:license rdf:resource=""/>
    <dc:creator>
     <ns5:Agent>
      <dc:title>GNOME Project</dc:title>
     </ns5:Agent>
    </dc:creator>
    <dc:contributor>
     <ns5:Agent>
      <dc:title>Andrew Chadwick</dc:title>
     </ns5:Agent>
    </dc:contributor>
   </ns5:Work>
  </rdf:RDF>
 </metadata>
 <g id="layer1" transform="translate(-336 -684.36)">
  <g id="layer2" opacity=".5" transform="translate(229.28 556.07)" display="none" fill="#859f46">
   <rect id="48x48" style="color:#000000" height="48" width="48" display="inline" y="4.25" x="-2.25"/>
   <rect id="32x32" style="color:#000000" height="32" width="32" display="inline" y="20.25" x="53.75"/>
   <rect id="24x24" style="color:#000000" height="24" width="24" display="inline" y="28.25" x="93.75"/>
   <rect id="22x22" style="color:#000000" height="22" width="22" display="inline" y="30.25" x="125.75"/>
  </g>
  <path id="path5046-1" style="block-progression:tb;text-indent:0;color:#000000;text-transform:none" font-family="Sans" d="m343.33 697.31c0.643 0.0906 1.311 0.0529 1.975-0.125a1.0001 1.0001 0 1 0 -0.525 -1.925c-1.6118 0.43189-3.2431-0.51316-3.675-2.125-0.0679-0.25324-0.1-0.51282-0.1-0.775a1.0001 1.0001 0 1 0 -2 0c0 0.43695 0.0619 0.87794 0.175 1.3 0.53374 1.9919 2.221 3.3782 4.15 3.65z" line-height="normal" fill="#bebebe"/>
  <path id="path3228-1-7" style="block-progression:tb;text-indent:0;color:#000000;text-transform:none" font-family="Sans" d="m343 692.36-0.00001-0.49996-3-2.5-3 2.5 0.00001 0.49996z" line-height="normal" fill="#bebebe"/>
  <path id="use4649-0" opacity=".3" style="block-progression:tb;text-indent:0;color:#000000;text-transform:none" font-family="Sans" d="m336 685.38v0.5 3a0.50005 0.50005 0 1 0 1 0v-2.5h3.5a0.50005 0.50005 0 1 0 0 -1h-4-0.5zm11.344 0a0.50607 0.50607 0 1 0 0.15625 1h3.5v2.5a0.50005 0.50005 0 1 0 1 0v-3-0.5h-0.5-4a0.50005 0.50005 0 0 0 -0.15625 0zm-10.906 9.9688a0.50005 0.50005 0 0 0 -0.43 0.53v3 0.5h0.5 4a0.50005 0.50005 0 1 0 0 -1h-3.5v-2.5a0.50005 0.50005 0 0 0 -0.5625 -0.53125zm15 0a0.50005 0.50005 0 0 0 -0.43 0.53v2.5h-3.5a0.50005 0.50005 0 1 0 0 1h4 0.5v-0.5-3a0.50005 0.50005 0 0 0 -0.5625 -0.53125z" line-height="normal" fill="#bebebe"/>
  <path id="path5046" style="block-progression:tb;text-indent:0;color:#000000;text-transform:none" font-family="Sans" d="m344.68 687.41c-0.643-0.0906-1.311-0.0529-1.975 0.125a1.0001 1.0001 0 1 0 0.525 1.925c1.6118-0.43189 3.2431 0.51316 3.675 2.125 0.0679 0.25324 0.1 0.51282 0.1 0.775a1.0001 1.0001 0 1 0 2 0c0-0.43695-0.0619-0.87794-0.175-1.3-0.53374-1.9919-2.221-3.3782-4.15-3.65z" line-height="normal" fill="#bebebe"/>
  <path id="path3228-1" style="block-progression:tb;text-indent:0;color:#000000;text-transform:none" font-family="Sans" d="m345 692.36v0.5l3 2.5 3-2.5v-0.5z" line-height="normal" fill="#bebebe"/>
 </g>
</svg>
