<?xml version="1.0" encoding="UTF-8" standalone="no"?>
<svg id="svg6184" xmlns:rdf="http://www.w3.org/1999/02/22-rdf-syntax-ns#" xmlns="http://www.w3.org/2000/svg" height="16" width="16" version="1.1" xmlns:cc="http://creativecommons.org/ns#" xmlns:dc="http://purl.org/dc/elements/1.1/">
 <g id="layer1" transform="translate(-423.43 -478.51)" fill="#bebebe">
  <path id="path10153" style="color:#000000" d="m439.17 482.38-0.74487 0.91872-3.3438-3.5795 1.125-1.2139m-1.7812 1.9298 1.3438 1.4318 0.65624 0.7159 1.3438 1.4318-0.68749 0.7159c-0.66658 0.71503-0.64594 0.71765-1.3125 2.8636-2.6664 2.8601-5.3438 2.8636-5.3438 2.8636l-0.65626 0.7159s-0.67717 0.71503-1.3438 0l4-4.2954 0.0625-0.0933c0.52752 0.27598 1.1555 0.1894 1.5938-0.28014 0.55233-0.5925 0.55193-1.5561 0-2.1477-0.55194-0.59162-1.4477-0.5925-2 0-0.43813 0.46969-0.50755 1.1774-0.25 1.7431l-0.0625 0.0623-4 4.2954c-0.66657-0.71502 0-1.4318 0-1.4318l0.65624-0.7159s-0.0102-2.8671 2.6562-5.7272c2.0001-0.71591 2.0209-0.71678 2.6875-1.4318z"/>
  <path id="path23141" style="color:#000000" d="m423.43 479.17v0.33373c3.661 1.4601 0 8.9994 0 11.999 0 6.1086 4.0508 0.99993 4.0508 0.99993v-0.99993s-1.8291 3.0745-2.3719-0.26283c-0.90938-5.5921 6.7872-12.07-1.679-12.07z"/>
 </g>
</svg>
