<?xml version="1.0" encoding="UTF-8"?>
<svg width="16" height="16" version="1.1" xmlns="http://www.w3.org/2000/svg"><g transform="translate(-256 -620.36)" fill="#bebebe"><path transform="translate(195 403.36)" d="m72.156 218c-0.07885 0.0161-0.1595 0.0696-0.21875 0.125l-4.2812 4 4.0312 4.3438 4.1562-3.875c0.23699-0.22144 0.17839-0.68283-0.125-1.0312l-2.7812-3.2188c-0.22754-0.26132-0.54469-0.39209-0.78125-0.34375z"/><path transform="translate(195 403.36)" d="m66.5 223.22-2.3438 2.1875c-0.23699 0.22144-0.20964 0.68283 0.09375 1.0312l2.8125 3.2188c0.30339 0.34842 0.73176 0.44019 0.96875 0.21875l2.4688-2.3125z"/><path transform="translate(195 403.36)" d="m69.7 231c-0.3878 0-0.7 0.223-0.7 0.5s0.3122 0.5 0.7 0.5h6.3v-1z"/><path transform="translate(195 403.36)" d="m64.3 231c0.3878 0 0.7 0.223 0.7 0.5s-0.3122 0.5-0.7 0.5h-2.3v-1z"/></g></svg>
