<?xml version="1.0" encoding="UTF-8" standalone="no"?>
<svg id="svg1" xmlns="http://www.w3.org/2000/svg" version="1.1" xmlns:dc="http://purl.org/dc/elements/1.1/" height="16" width="16" xmlns:rdf="http://www.w3.org/1999/02/22-rdf-syntax-ns#" xmlns:ns4="http://creativecommons.org/ns#">
 <title id="title13694">MyPaint symbolic icons</title>
 <metadata id="metadata7">
  <rdf:RDF>
   <ns4:Work rdf:about="">
    <dc:format>image/svg+xml</dc:format>
    <dc:type rdf:resource="http://purl.org/dc/dcmitype/StillImage"/>
    <dc:title>MyPaint symbolic icons</dc:title>
    <ns4:license rdf:resource=""/>
    <dc:creator>
     <ns4:Agent>
      <dc:title>GNOME Project</dc:title>
     </ns4:Agent>
    </dc:creator>
    <dc:contributor>
     <ns4:Agent>
      <dc:title>Andrew Chadwick</dc:title>
     </ns4:Agent>
    </dc:contributor>
   </ns4:Work>
  </rdf:RDF>
 </metadata>
 <g id="layer1" transform="translate(-16 -524.36)">
  <path id="path31334" style="color:#000000" d="m165 986.36s3.5817 6 8 6 8-6 8-6h-2s-2.134 4-6 4-6-4-6-4z" transform="translate(-149,-456)" fill="#bebebe"/>
  <path id="path8543" style="color-rendering:auto;text-decoration-color:#000000;color:#000000;font-variant-numeric:normal;text-orientation:mixed;shape-padding:0;shape-rendering:auto;solid-color:#000000;text-decoration-line:none;text-rendering:auto;font-variant-position:normal;mix-blend-mode:normal;font-feature-settings:normal;font-variant-alternates:normal;text-indent:0;font-variant-ligatures:normal;dominant-baseline:auto;font-variant-caps:normal;image-rendering:auto;white-space:normal;text-decoration-style:solid;isolation:auto;text-transform:none" font-family="sans-serif" d="m166.99 475.5a0.50005 0.50005 0 0 0 -0.34375 0.15039l-1 1a0.50005 0.50005 0 1 0 0.70704 0.70704l1-1a0.50005 0.50005 0 0 0 -0.36329 -0.85743z" transform="translate(-149 56.362)" line-height="normal" fill="#bebebe"/>
  <path id="path8545" style="color-rendering:auto;text-decoration-color:#000000;color:#000000;font-variant-numeric:normal;text-orientation:mixed;shape-padding:0;shape-rendering:auto;solid-color:#000000;text-decoration-line:none;text-rendering:auto;font-variant-position:normal;mix-blend-mode:normal;font-feature-settings:normal;font-variant-alternates:normal;text-indent:0;font-variant-ligatures:normal;dominant-baseline:auto;font-variant-caps:normal;image-rendering:auto;white-space:normal;text-decoration-style:solid;isolation:auto;text-transform:none" font-family="sans-serif" d="m178.99 987.86a0.50005 0.50005 0 0 0 -0.34766 0.85742l1 1a0.50005 0.50005 0 1 0 0.70704 -0.70703l-1-1a0.50005 0.50005 0 0 0 -0.35938 -0.15039z" transform="translate(-149,-456)" line-height="normal" fill="#bebebe"/>
  <path id="path8547" style="color-rendering:auto;text-decoration-color:#000000;color:#000000;font-variant-numeric:normal;text-orientation:mixed;shape-padding:0;shape-rendering:auto;solid-color:#000000;text-decoration-line:none;text-rendering:auto;font-variant-position:normal;mix-blend-mode:normal;font-feature-settings:normal;font-variant-alternates:normal;text-indent:0;font-variant-ligatures:normal;dominant-baseline:auto;font-variant-caps:normal;image-rendering:auto;white-space:normal;text-decoration-style:solid;isolation:auto;text-transform:none" font-family="sans-serif" d="m168.49 477a0.50005 0.50005 0 0 0 -0.34375 0.15039l-1.5 1.5a0.50005 0.50005 0 1 0 0.70704 0.70704l1.5-1.5a0.50005 0.50005 0 0 0 -0.36329 -0.85743z" transform="translate(-149 56.362)" line-height="normal" fill="#bebebe"/>
  <path id="path8572" style="color-rendering:auto;text-decoration-color:#000000;color:#000000;font-variant-numeric:normal;text-orientation:mixed;shape-padding:0;shape-rendering:auto;solid-color:#000000;text-decoration-line:none;text-rendering:auto;font-variant-position:normal;mix-blend-mode:normal;font-feature-settings:normal;font-variant-alternates:normal;text-indent:0;font-variant-ligatures:normal;dominant-baseline:auto;font-variant-caps:normal;image-rendering:auto;white-space:normal;text-decoration-style:solid;isolation:auto;text-transform:none" font-family="sans-serif" d="m170.38 990.29a0.50005 0.50005 0 0 0 -0.4414 0.25586l-1.375 2.375a0.50099 0.50099 0 1 0 0.86718 0.50195l1.375-2.375a0.50005 0.50005 0 0 0 -0.42578 -0.75781z" transform="translate(-149,-456)" line-height="normal" fill="#bebebe"/>
  <path id="path8574" style="color-rendering:auto;text-decoration-color:#000000;color:#000000;font-variant-numeric:normal;text-orientation:mixed;shape-padding:0;shape-rendering:auto;solid-color:#000000;text-decoration-line:none;text-rendering:auto;font-variant-position:normal;mix-blend-mode:normal;font-feature-settings:normal;font-variant-alternates:normal;text-indent:0;font-variant-ligatures:normal;dominant-baseline:auto;font-variant-caps:normal;image-rendering:auto;white-space:normal;text-decoration-style:solid;isolation:auto;text-transform:none" font-family="sans-serif" d="m172.44 990.79a0.50005 0.50005 0 0 0 -0.49414 0.39453l-0.6875 3a0.50103 0.50103 0 1 0 0.97656 0.22461l0.6875-3a0.50005 0.50005 0 0 0 -0.48242 -0.61914z" transform="translate(-149,-456)" line-height="normal" fill="#bebebe"/>
  <path id="path8578" style="color-rendering:auto;text-decoration-color:#000000;color:#000000;font-variant-numeric:normal;text-orientation:mixed;shape-padding:0;shape-rendering:auto;solid-color:#000000;text-decoration-line:none;text-rendering:auto;font-variant-position:normal;mix-blend-mode:normal;font-feature-settings:normal;font-variant-alternates:normal;text-indent:0;font-variant-ligatures:normal;dominant-baseline:auto;font-variant-caps:normal;image-rendering:auto;white-space:normal;text-decoration-style:solid;isolation:auto;text-transform:none" font-family="sans-serif" d="m177.39 988.86a0.50005 0.50005 0 0 0 -0.35156 0.8125l1.5625 2a0.50028 0.50028 0 1 0 0.78906 -0.61523l-1.5625-2a0.50005 0.50005 0 0 0 -0.4375 -0.19727z" transform="translate(-149,-456)" line-height="normal" fill="#bebebe"/>
  <path id="path8580" style="color-rendering:auto;text-decoration-color:#000000;color:#000000;font-variant-numeric:normal;text-orientation:mixed;shape-padding:0;shape-rendering:auto;solid-color:#000000;text-decoration-line:none;text-rendering:auto;font-variant-position:normal;mix-blend-mode:normal;font-feature-settings:normal;font-variant-alternates:normal;text-indent:0;font-variant-ligatures:normal;dominant-baseline:auto;font-variant-caps:normal;image-rendering:auto;white-space:normal;text-decoration-style:solid;isolation:auto;text-transform:none" font-family="sans-serif" d="m176.07 990.29a0.50005 0.50005 0 0 0 -0.4375 0.76953l1.332 2.1543a0.50005 0.50005 0 1 0 0.84961 -0.52539l-1.3301-2.1543a0.50005 0.50005 0 0 0 -0.41406 -0.24414z" transform="translate(-149,-456)" line-height="normal" fill="#bebebe"/>
  <path id="path8582" style="color-rendering:auto;text-decoration-color:#000000;color:#000000;font-variant-numeric:normal;text-orientation:mixed;shape-padding:0;shape-rendering:auto;solid-color:#000000;text-decoration-line:none;text-rendering:auto;font-variant-position:normal;mix-blend-mode:normal;font-feature-settings:normal;font-variant-alternates:normal;text-indent:0;font-variant-ligatures:normal;dominant-baseline:auto;font-variant-caps:normal;image-rendering:auto;white-space:normal;text-decoration-style:solid;isolation:auto;text-transform:none" font-family="sans-serif" d="m174 990.79a0.50005 0.50005 0 0 0 -0.48047 0.64453l0.86524 3a0.50005 0.50005 0 1 0 0.96093 -0.27539l-0.86523-3a0.50005 0.50005 0 0 0 -0.48 -0.36z" transform="translate(-149,-456)" line-height="normal" fill="#bebebe"/>
  <g id="layer2" opacity=".5" transform="translate(229.28 556.07)" display="none" fill="#859f46">
   <rect id="48x48" style="color:#000000" height="48" width="48" display="inline" y="4.25" x="-2.25"/>
   <rect id="32x32" style="color:#000000" height="32" width="32" display="inline" y="20.25" x="53.75"/>
   <rect id="24x24" style="color:#000000" height="24" width="24" display="inline" y="28.25" x="93.75"/>
   <rect id="22x22" style="color:#000000" height="22" width="22" display="inline" y="30.25" x="125.75"/>
   <rect id="16x16" style="color:#000000" height="16" width="16" display="inline" y="36.25" x="155.75"/>
  </g>
 </g>
</svg>
