<?xml version="1.0" encoding="UTF-8" standalone="no"?>
<svg id="svg1" xmlns="http://www.w3.org/2000/svg" version="1.1" xmlns:dc="http://purl.org/dc/elements/1.1/" height="16" width="16" xmlns:rdf="http://www.w3.org/1999/02/22-rdf-syntax-ns#" xmlns:ns4="http://creativecommons.org/ns#">
 <metadata id="metadata7">
  <rdf:RDF>
   <ns4:Work rdf:about="">
    <dc:format>image/svg+xml</dc:format>
    <dc:type rdf:resource="http://purl.org/dc/dcmitype/StillImage"/>
    <dc:title/>
   </ns4:Work>
  </rdf:RDF>
 </metadata>
 <g id="layer1" fill="#bebebe" transform="translate(-73 -907.36)">
  <path id="path12113" style="enable-background:new;block-progression:tb;text-indent:0;color:#000000;text-transform:none" font-family="Sans" d="m74.781 916.36a1.0001 1.0001 0 0 0 -0.78125 1v4a1.0001 1.0001 0 0 0 1 1h4a1.0001 1.0001 0 1 0 0 -2h-3v-3a1.0001 1.0001 0 0 0 -1.2188 -1z" line-height="normal"/>
  <path id="path12147" style="enable-background:new;block-progression:tb;text-indent:0;color:#000000;text-transform:none" font-family="Sans" d="m79.375 915.86a1.0001 1.0001 0 0 0 -0.59375 0.28125l-4.5 4.5a1.0165 1.0165 0 1 0 1.4375 1.4375l4.5-4.5a1.0001 1.0001 0 0 0 -0.84375 -1.7188z" line-height="normal"/>
  <rect id="rect12919" style="color:#000000;enable-background:new" height="1" width="1" y="921.36" x="74"/>
  <path id="path12111" style="enable-background:new;block-progression:tb;text-indent:0;color:#000000;text-transform:none" font-family="Sans" d="m82.906 908.36a1.0011 1.0011 0 1 0 0.09375 2h3v3a1.0001 1.0001 0 1 0 2 0v-4a1.0001 1.0001 0 0 0 -1 -1h-4a1.0001 1.0001 0 0 0 -0.09375 0z" line-height="normal"/>
  <rect id="rect12923" style="color:#000000;enable-background:new" height="1" width="1" y="908.36" x="87"/>
  <path id="path12925" style="enable-background:new;block-progression:tb;text-indent:0;color:#000000;text-transform:none" font-family="Sans" d="m86.781 908.36a1.0001 1.0001 0 0 0 -0.5 0.28125l-4.5 4.4688a1.0165 1.0165 0 1 0 1.4375 1.4375l4.5-4.4688a1.0001 1.0001 0 0 0 -0.9375 -1.7188z" line-height="normal"/>
  <rect id="rect4479-2" style="color:#000000" height="1" width="1" y="916.36" x="74"/>
  <rect id="rect4479-2-9" style="color:#000000" height="1" width="1" y="921.36" x="79"/>
  <rect id="rect4479-2-9-9-0-8" style="color:#000000" height="1" width="1" y="913.36" x="87"/>
  <rect id="rect4479-2-9-9-0-8-1" style="color:#000000" height="1" width="1" y="908.36" x="82"/>
 </g>
</svg>
