<?xml version="1.0" encoding="UTF-8" standalone="no"?>
<svg id="svg1" xmlns="http://www.w3.org/2000/svg" version="1.1" xmlns:dc="http://purl.org/dc/elements/1.1/" height="16" width="16" xmlns:rdf="http://www.w3.org/1999/02/22-rdf-syntax-ns#" xmlns:ns4="http://creativecommons.org/ns#">
 <title id="title13694">MyPaint symbolic icons</title>
 <metadata id="metadata7">
  <rdf:RDF>
   <ns4:Work rdf:about="">
    <dc:format>image/svg+xml</dc:format>
    <dc:type rdf:resource="http://purl.org/dc/dcmitype/StillImage"/>
    <dc:title>MyPaint symbolic icons</dc:title>
    <ns4:license rdf:resource=""/>
    <dc:creator>
     <ns4:Agent>
      <dc:title>GNOME Project</dc:title>
     </ns4:Agent>
    </dc:creator>
    <dc:contributor>
     <ns4:Agent>
      <dc:title>Andrew Chadwick</dc:title>
     </ns4:Agent>
    </dc:contributor>
   </ns4:Work>
  </rdf:RDF>
 </metadata>
 <g id="layer1" transform="translate(-496 -748.36)">
  <g id="layer2" opacity=".5" transform="translate(229.28 556.07)" display="none" fill="#859f46">
   <rect id="48x48" style="color:#000000" height="48" width="48" display="inline" y="4.25" x="-2.25"/>
   <rect id="32x32" style="color:#000000" height="32" width="32" display="inline" y="20.25" x="53.75"/>
   <rect id="24x24" style="color:#000000" height="24" width="24" display="inline" y="28.25" x="93.75"/>
   <rect id="22x22" style="color:#000000" height="22" width="22" display="inline" y="30.25" x="125.75"/>
  </g>
  <path id="path5109" d="m503.5 764.26h-5.5c-0.5 0-1-0.5-1-1v-12.9c0-0.5 0.5-1 1-1h4c0.5 0 1 0 1.5 1l0.5 1v-1c0-1 0.5-0.99999 1-1h1.5c0.5 0 1 0 1.5 1l0.5 1h1.5c0.5 0 1 0.5 1 1v3.5h-2v-2.5h-6l-1-2h-3v10.9h2.5z" fill="#bebebe"/>
  <path id="path42972-0" style="color:#000000" d="m506.04 756.26c-0.25505 0.0516-0.49195 0.14384-0.72728 0.24027-0.0185 0.68573 0.0963 1.5835-0.17317 1.8191-0.26483 0.23149-1.1507 0.0377-1.8355-0.0343-0.14561 0.25976-0.26073 0.53293-0.34632 0.82376 0.52984 0.43478 1.264 0.9215 1.2814 1.27 0.0176 0.35278-0.69421 0.88404-1.1775 1.3729 0.11457 0.28318 0.2772 0.54208 0.45022 0.78943 0.67416-0.13885 1.5143-0.41027 1.8009-0.20595 0.29182 0.20807 0.29392 1.1042 0.38096 1.7848 0.27656 0.0823 0.568 0.11478 0.86581 0.13729 0.31181-0.60916 0.62883-1.4496 0.96971-1.5445 0.34992-0.0974 1.0678 0.50318 1.6624 0.85808 0.24239-0.16651 0.45763-0.3702 0.65802-0.5835-0.28131-0.62859-0.79913-1.419-0.65802-1.7505 0.14124-0.33181 1.081-0.51581 1.7316-0.75511 0.004-0.0807 0.0345-0.15832 0.0345-0.24027 0-0.21019-0.0382-0.41625-0.0693-0.61781-0.6717-0.17663-1.626-0.26503-1.8009-0.5835-0.17369-0.31633 0.26796-1.1658 0.48487-1.8191-0.22294-0.19614-0.46482-0.3703-0.72729-0.51485-0.5551 0.41203-1.2017 1.0922-1.5584 1.0297-0.35121-0.0615-0.73464-0.90014-1.1082-1.4759-0.0445 0.008-0.0945-0.009-0.13853 0zm0.69266 2.0594c1.0328 0 1.8701 0.82981 1.8701 1.8534s-0.83729 1.8535-1.8701 1.8535c-1.0329 0-1.8702-0.82983-1.8702-1.8535 0-1.0236 0.83729-1.8534 1.8702-1.8534z" fill="#bebebe"/>
 </g>
</svg>
