<?xml version="1.0" encoding="UTF-8"?>
<svg width="16" height="16.006" version="1.1" xmlns="http://www.w3.org/2000/svg"><g transform="translate(-176 -748.36)"><g transform="translate(64.002 152)"><path d="m122.61 601.77-4.2202 5.6634-1.694 1.4926-0.69772-0.56071 0.99632-2.0533 4.2202-5.6634 1.3954 1.1214z" fill="#bebebe"/><path transform="matrix(.98721 0 0 .98721 1.4819 7.7853)" d="m116 608.94s-1.4772 0.66848-1.4654 2.0797c0.0147 1.758 2.6601 1.8434 2.7433 0.28446 0.05-0.89-1.28-2.36-1.28-2.36z" fill="#bebebe"/><path d="m118.65 600.79 4.6492 3.5274 0.70445-0.92575-1.3947-1.0582c2.8037-0.79322 4.7199-4.1748 2.8603-5.5858-1.8597-1.4109-4.7057 1.2652-4.7199 4.1749l-1.3948-1.0582-0.70448 0.92571z" fill="#bebebe"/><g transform="translate(229.28,556.07)" display="none" fill="#859f46" opacity=".5"><rect x="-2.25" y="4.25" width="48" height="48" display="inline" style=""/><rect x="53.75" y="20.25" width="32" height="32" display="inline" style=""/><rect x="93.75" y="28.25" width="24" height="24" display="inline" style=""/><rect x="125.75" y="30.25" width="22" height="22" display="inline" style=""/></g></g><g transform="translate(176 748.31)" fill="#bebebe"><path d="m14.613 9.7316v0.82711q-0.39608-0.3689-0.84652-0.55141-0.44656-0.18251-0.95137-0.18251-0.99408 0-1.5222 0.60965-0.52811 0.60577-0.52811 1.7552 0 1.1455 0.52811 1.7552 0.52811 0.60577 1.5222 0.60577 0.50481 0 0.95137-0.18251 0.45044-0.18251 0.84652-0.55141v0.81934q-0.41161 0.27959-0.87371 0.41938-0.45821 0.13979-0.97078 0.13979-1.3164 0-2.0736-0.80381-0.75721-0.80769-0.75721-2.2017 0-1.3979 0.75721-2.2017 0.75721-0.80769 2.0736-0.80769 0.52034 0 0.97855 0.13979 0.46209 0.13591 0.86594 0.41161z"/></g></g></svg>
