<?xml version="1.0" encoding="UTF-8"?>
<svg width="16" height="16" version="1.1" xmlns="http://www.w3.org/2000/svg"><g transform="translate(-496 -812.36)"><g transform="translate(416 -95.998)"><path d="m92 912.36h-1.3333l-6.667 6.67v1.3333h1.3333l6.667-6.66z" fill="#bebebe"/><path d="m84 912.36h1.3333l6.6667 6.6667v1.3333h-1.3333l-6.667-6.66z" fill="#bebebe"/><path d="m82 909.36c-0.55349 0-1 0.44651-1 1v12c0 0.55349 0.44651 1 1 1h12c0.55349 0 1-0.44651 1-1v-12c0-0.55349-0.44651-1-1-1zm1 1h10c0.55349 0 1 0.44651 1 1v10c0 0.55349-0.44651 1-1 1h-10c-0.55349 0-1-0.44651-1-1v-10c0-0.55349 0.44651-1 1-1z" fill="#bebebe"/><g transform="translate(229.28,556.07)" display="none" fill="#859f46" opacity=".5"><rect x="-2.25" y="4.25" width="48" height="48" display="inline" style=""/><rect x="53.75" y="20.25" width="32" height="32" display="inline" style=""/><rect x="93.75" y="28.25" width="24" height="24" display="inline" style=""/><rect x="125.75" y="30.25" width="22" height="22" display="inline" style=""/></g></g></g></svg>
