<?xml version="1.0" encoding="UTF-8" standalone="no"?>
<svg id="svg1" xmlns="http://www.w3.org/2000/svg" version="1.1" xmlns:dc="http://purl.org/dc/elements/1.1/" height="16" width="16" xmlns:rdf="http://www.w3.org/1999/02/22-rdf-syntax-ns#" xmlns:ns4="http://creativecommons.org/ns#">
 <title id="title13694">MyPaint symbolic icons</title>
 <metadata id="metadata7">
  <rdf:RDF>
   <ns4:Work rdf:about="">
    <dc:format>image/svg+xml</dc:format>
    <dc:type rdf:resource="http://purl.org/dc/dcmitype/StillImage"/>
    <dc:title>MyPaint symbolic icons</dc:title>
    <ns4:license rdf:resource=""/>
    <dc:creator>
     <ns4:Agent>
      <dc:title>GNOME Project</dc:title>
     </ns4:Agent>
    </dc:creator>
    <dc:contributor>
     <ns4:Agent>
      <dc:title>Andrew Chadwick</dc:title>
     </ns4:Agent>
    </dc:contributor>
   </ns4:Work>
  </rdf:RDF>
 </metadata>
 <g id="layer1" transform="translate(-16 -716.36)">
  <g id="layer2" opacity=".5" transform="translate(229.28 556.07)" display="none" fill="#859f46">
   <rect id="48x48" style="color:#000000" height="48" width="48" display="inline" y="4.25" x="-2.25"/>
   <rect id="32x32" style="color:#000000" height="32" width="32" display="inline" y="20.25" x="53.75"/>
   <rect id="24x24" style="color:#000000" height="24" width="24" display="inline" y="28.25" x="93.75"/>
   <rect id="22x22" style="color:#000000" height="22" width="22" display="inline" y="30.25" x="125.75"/>
   <rect id="16x16" style="color:#000000" height="16" width="16" display="inline" y="36.25" x="155.75"/>
  </g>
  <rect id="use4809-74-6" style="color:#000000" fill-opacity=".3" transform="translate(0 392)" height="16" width="16" y="324.36" x="16" fill="#606060"/>
  <path id="path18655" d="m25.54 726.06-1.0563 3.0222c-0.27948 0.82084 0.86648 1.2596 1.1572 0.40846l1.1732-2.9991z" fill-rule="evenodd" fill="#bebebe"/>
  <path id="path18657" d="m24.87 722 0.52897 0.79172 3.9494 1.624 1.0407-0.34128 1.3261-3.688c-1.6666 0-0.33332-4.0216-4.6666-4.0216z" fill-rule="evenodd" fill="#bebebe"/>
  <path id="path18659" d="m25.333 723.74-0.46773 1.3405 3.3333 1.273 0.46772-1.273z" fill-rule="evenodd" fill="#bebebe"/>
  <path id="path18695" style="color-rendering:auto;text-decoration-color:#000000;color:#000000;font-variant-numeric:normal;text-orientation:mixed;shape-padding:0;shape-rendering:auto;solid-color:#000000;text-decoration-line:none;text-rendering:auto;font-variant-position:normal;mix-blend-mode:normal;font-feature-settings:normal;font-variant-alternates:normal;text-indent:0;font-variant-ligatures:normal;dominant-baseline:auto;font-variant-caps:normal;image-rendering:auto;white-space:normal;text-decoration-style:solid;isolation:auto;text-transform:none" font-family="sans-serif" d="m16.309 717.36 0.83398 0.83398s0.9701 0.97033 1.9453 2.4316c0.97522 1.4613 1.9238 3.3975 1.9238 5.2344 0 0.62964-0.21832 1.152-0.6582 1.5879s-1.119 0.78169-2.0391 0.95312l0.17774 0.95899c1.0667-0.19875 1.9371-0.61261 2.5488-1.2188 0.61168-0.60614 0.94726-1.4109 0.94726-2.2812 0-2.1632-1.0572-4.2309-2.0879-5.7754-0.69753-1.0452-1.0188-1.3303-1.3984-1.7461l5.497 0.01v-0.97z" line-height="normal" fill="#bebebe"/>
  <path id="path18687" style="color:#000000" d="m17 728.37h2.9999v3.0018h-2.9999z" fill-rule="evenodd" fill="#bebebe"/>
  <path id="path18685" style="color:#000000" d="m22.549 731.11v0.002" fill-rule="evenodd" fill="#ef2929"/>
  <path id="path18667" style="color-rendering:auto;text-decoration-color:#000000;color:#000000;font-variant-numeric:normal;text-orientation:mixed;shape-padding:0;shape-rendering:auto;solid-color:#000000;text-decoration-line:none;text-rendering:auto;font-variant-position:normal;mix-blend-mode:normal;font-feature-settings:normal;font-variant-alternates:normal;text-indent:0;font-variant-ligatures:normal;dominant-baseline:auto;font-variant-caps:normal;image-rendering:auto;white-space:normal;text-decoration-style:solid;isolation:auto;text-transform:none" font-family="sans-serif" d="m17.961 729.39v0.93945h5.0781v-0.93945z" line-height="normal" fill="#bebebe"/>
  <rect id="rect18669" height="2.9958" width="2.9999" y="716.37" x="16" fill="#bebebe"/>
 </g>
</svg>
