<?xml version="1.0" encoding="UTF-8" standalone="no"?>
<svg id="svg1" xmlns="http://www.w3.org/2000/svg" version="1.1" xmlns:dc="http://purl.org/dc/elements/1.1/" height="16" width="16" xmlns:rdf="http://www.w3.org/1999/02/22-rdf-syntax-ns#" xmlns:ns3="http://www.openswatchbook.org/uri/2009/osb" xmlns:ns5="http://creativecommons.org/ns#">
 <metadata id="metadata7">
  <rdf:RDF>
   <ns5:Work rdf:about="">
    <dc:format>image/svg+xml</dc:format>
    <dc:type rdf:resource="http://purl.org/dc/dcmitype/StillImage"/>
    <dc:title/>
   </ns5:Work>
  </rdf:RDF>
 </metadata>
 <g id="layer1" transform="translate(-56 -1004.4)">
  <g id="layer2" opacity=".5" transform="translate(229.28 556.07)" display="none" fill="#859f46">
   <rect id="48x48" style="color:#000000" height="48" width="48" display="inline" y="4.25" x="-2.25"/>
   <rect id="32x32" style="color:#000000" height="32" width="32" display="inline" y="20.25" x="53.75"/>
   <rect id="24x24" style="color:#000000" height="24" width="24" display="inline" y="28.25" x="93.75"/>
   <rect id="22x22" style="color:#000000" height="22" width="22" display="inline" y="30.25" x="125.75"/>
  </g>
  <path id="path22768" opacity=".3" d="m64 1004.4c-4.4183 0-8 3.5817-8 8s3.5817 8 8 8 8-3.5817 8-8-3.5817-8-8-8zm0 3c2.7614 0 5 2.2386 5 5s-2.2386 5-5 5-5-2.2386-5-5 2.2386-5 5-5z" fill="#bebebe"/>
  <path id="path22763" fill="#bebebe" d="m60.969 1005c-1.9898 0.813-3.5357 2.4157-4.3438 4.4062l2.9062 0.7813c0.48984-0.9532 1.2886-1.735 2.25-2.2188l-0.8125-2.9687zm6.0625 0-0.8125 2.9687c0.9614 0.4838 1.7602 1.2656 2.25 2.2188l2.9062-0.7813c-0.80802-1.9905-2.3539-3.5932-4.3438-4.4062zm-7.5 9.625-2.9062 0.7812c0.80802 1.9905 2.3539 3.5932 4.3438 4.4063l0.8125-2.9688c-0.9614-0.4838-1.7602-1.2656-2.25-2.2187zm8.9062 0c-0.48381 0.9613-1.2656 1.7601-2.2188 2.25l0.781 2.9c1.9905-0.808 3.5932-2.3539 4.4062-4.3437l-2.9688-0.8125z"/>
 </g>
</svg>
