<?xml version="1.0" encoding="UTF-8"?>
<svg width="16" height="16" version="1.1" xmlns="http://www.w3.org/2000/svg"><g transform="translate(-496 -748.36)"><path d="m509 748.36-7.5 8.5c-1.5-1.5-5.5002-0.50003-5.5 4.5l1.5-1.5c1-1 1.5-0.49997 2 0.0156l1 0.99221c0.5 0.49216 1 0.99216 0 1.9922l-1.5 1.5c5-3e-5 5.5-3.5 4.5-5.5l8.5-7.5c0-2-1-3-3-3zm0.51518 1.0152c0.8199 3.7e-4 1.4845 0.66492 1.4848 1.4848-3.6e-4 0.8199-0.66492 1.4844-1.4848 1.4848-0.81989-3.7e-4 -1.4844-0.66492-1.4848-1.4848 3.7e-4 -0.8199 0.66493-1.4844 1.4848-1.4848z" fill="#bebebe"/></g></svg>
