<?xml version="1.0" encoding="UTF-8"?>
<svg width="16" height="16" version="1.1" xmlns="http://www.w3.org/2000/svg"><g transform="translate(-256 -556.36)" fill="#bebebe"><path transform="translate(144 -144)" d="m120.7 714.36c-0.3878 0-0.7 0.223-0.7 0.5s0.3122 0.5 0.7 0.5h6.3v-1h-4.9z"/><path transform="translate(144 -144)" d="m115.3 714.36c0.3878 0 0.7 0.223 0.7 0.5s-0.3122 0.5-0.7 0.5h-2.3v-1h2.3z"/><path transform="translate(144 -144)" d="m115 706.36v7h10v-7z"/><path transform="translate(144 -144)" d="m116 704.36v3h2v-3c0-1.108 0.892-2 2-2s2 0.892 2 2v3h2v-3c0-2.3808-1.6025-4-4-4s-3.9303 1.6907-4 4z"/></g></svg>
