<?xml version="1.0" encoding="UTF-8"?>
<svg width="16" height="16" version="1.1" xmlns="http://www.w3.org/2000/svg"><g transform="translate(-592 -844.36)"><g transform="translate(176 8.0022)"><g transform="translate(229.28,556.07)" display="none" fill="#859f46" opacity=".5"><rect x="-2.25" y="4.25" width="48" height="48" display="inline" style=""/><rect x="53.75" y="20.25" width="32" height="32" display="inline" style=""/><rect x="93.75" y="28.25" width="24" height="24" display="inline" style=""/><rect x="125.75" y="30.25" width="22" height="22" display="inline" style=""/></g><path d="m421.49 836.36a0.50005 0.50005 0 0 0-0.49 0.51v0.54297c-2.0572 0.23681-3.6816 1.8802-3.9043 3.9492h-0.58789a0.50005 0.50005 0 1 0 0 1h0.59375c0.24263 2.0467 1.857 3.6674 3.8984 3.9023v0.59766a0.50005 0.50005 0 1 0 1 0v-0.59766c2.0414-0.23493 3.6558-1.8557 3.8984-3.9023h0.60937a0.50005 0.50005 0 1 0 0-1h-0.60351c-0.22268-2.069-1.8471-3.7124-3.9043-3.9492v-0.54297a0.50005 0.50005 0 0 0-0.50781-0.50781zm-0.49 2.55v0.45117a0.50005 0.50005 0 1 0 1 0v-0.45117c1.2405 0.21214 2.2052 1.1931 2.4043 2.4512h-0.4043a0.50005 0.50005 0 1 0 0 1h0.39844c-0.21574 1.2352-1.1737 2.1929-2.3984 2.4023v-0.40234a0.50005 0.50005 0 0 0-0.51-0.5 0.50005 0.50005 0 0 0-0.49 0.5v0.40234c-1.2248-0.20947-2.1827-1.1671-2.3984-2.4023h0.39844a0.50005 0.50005 0 1 0 0-1h-0.4043c0.19905-1.2581 1.1638-2.239 2.4043-2.4512zm0.5 1.877a1.0745 1.0745 0 0 0-1.0742 1.0742 1.0745 1.0745 0 0 0 1.0742 1.0742 1.0745 1.0745 0 0 0 1.0742-1.0742 1.0745 1.0745 0 0 0-1.0742-1.0742z" fill="#bebebe" line-height="normal"/><path d="m427.92 842.36c-0.0614 0.18142-0.15484 0.35757-0.29688 0.51562-0.23383 0.2602-0.61683 0.37817-0.98242 0.41797-0.10688 0.37724-0.25948 0.72985-0.4375 1.0664l3.2949-3e-5 2-2zm-3.5566 4c-0.44169 0.28224-0.92387 0.51126-1.4473 0.6582-0.0435 0.35957-0.15421 0.73678-0.41016 0.9668-0.28867 0.25942-0.63509 0.36576-0.9707 0.375l7.9629-3e-5 2-2zm-0.86523 4-2 2h8l2-2z" fill="#bebebe"/></g></g></svg>
