<?xml version="1.0" encoding="UTF-8" standalone="no"?>
<!-- Created with Inkscape (http://www.inkscape.org/) -->

<svg
   xmlns:dc="http://purl.org/dc/elements/1.1/"
   xmlns:cc="http://creativecommons.org/ns#"
   xmlns:rdf="http://www.w3.org/1999/02/22-rdf-syntax-ns#"
   xmlns:svg="http://www.w3.org/2000/svg"
   xmlns="http://www.w3.org/2000/svg"
   version="1.1"
   width="16"
   height="16"
   id="svg2">
  <defs
     id="defs16" />
  <metadata
     id="metadata7">
    <rdf:RDF>
      <cc:Work
         rdf:about="">
        <dc:format>image/svg+xml</dc:format>
        <dc:type
           rdf:resource="http://purl.org/dc/dcmitype/StillImage" />
        <dc:title></dc:title>
      </cc:Work>
    </rdf:RDF>
  </metadata>
  <g
     transform="translate(-56,-524.36)"
     id="layer1"
     style="opacity:0.5;fill:#bebebe">
    <path
       d="m 56,530.36 c 0,0 3.5817,6 8,6 4.4183,0 8,-6 8,-6 h -2 c 0,0 -2.134,4 -6,4 -3.866,0 -6,-4 -6,-4 z"
       id="path31334"
       style="color:#000000" />
    <path
       d="M 58,531.84 A 0.50005,0.50005 0 0 0 57.656,532 l -1,1 a 0.50005,0.50005 0 1 0 0.6875,0.71875 l 1,-1 a 0.50005,0.50005 0 0 0 -0.344,-0.88 z"
       id="path8543"
       style="text-indent:0;line-height:normal;text-transform:none;block-progression:tb;color:#000000;font-family:Sans" />
    <path
       d="m 70,531.84 a 0.50005,0.50005 0 0 0 -0.34375,0.875 l 1,1 a 0.50005,0.50005 0 1 0 0.688,-0.72 l -1,-1 a 0.50005,0.50005 0 0 0 -0.344,-0.16 z"
       id="path8545"
       style="text-indent:0;line-height:normal;text-transform:none;block-progression:tb;color:#000000;font-family:Sans" />
    <path
       d="m 59.5,533.34 a 0.50005,0.50005 0 0 0 -0.344,0.16 l -1.5,1.5 a 0.50005,0.50005 0 1 0 0.6875,0.71875 l 1.5,-1.5 a 0.50005,0.50005 0 0 0 -0.344,-0.88 z"
       id="path8547"
       style="text-indent:0;line-height:normal;text-transform:none;block-progression:tb;color:#000000;font-family:Sans" />
    <path
       d="m 61.344,534.28 a 0.50005,0.50005 0 0 0 -0.40625,0.28125 l -1.375,2.375 a 0.50389111,0.50389111 0 1 0 0.875,0.5 l 1.375,-2.375 A 0.50005,0.50005 0 0 0 61.344,534.28 z"
       id="path8572"
       style="text-indent:0;line-height:normal;text-transform:none;block-progression:tb;color:#000000;font-family:Sans" />
    <path
       d="m 63.406,534.78 a 0.50005,0.50005 0 0 0 -0.46875,0.40625 l -0.6875,3 a 0.5118231,0.5118231 0 1 0 1,0.21875 l 0.6875,-3 A 0.50005,0.50005 0 0 0 63.406,534.78 z"
       id="path8574"
       style="text-indent:0;line-height:normal;text-transform:none;block-progression:tb;color:#000000;font-family:Sans" />
    <path
       d="m 68.406,532.84 a 0.50005,0.50005 0 0 0 -0.375,0.8125 l 1.5625,2 a 0.50316382,0.50316382 0 1 0 0.8125,-0.59375 l -1.5625,-2 A 0.50005,0.50005 0 0 0 68.406,532.84 z"
       id="path8578"
       style="text-indent:0;line-height:normal;text-transform:none;block-progression:tb;color:#000000;font-family:Sans" />
    <path
       d="m 67.031,534.28 a 0.50005,0.50005 0 0 0 -0.406,0.78 l 1.3438,2.1562 a 0.50005,0.50005 0 1 0 0.843,-0.53 l -1.312,-2.16 a 0.50005,0.50005 0 0 0 -0.46875,-0.25 z"
       id="path8580"
       style="text-indent:0;line-height:normal;text-transform:none;block-progression:tb;color:#000000;font-family:Sans" />
    <path
       d="m 64.938,534.78 a 0.50005,0.50005 0 0 0 -0.40625,0.65625 l 0.84375,3 a 0.50438,0.50438 0 1 0 0.96875,-0.28125 l -0.875,-3 A 0.50005,0.50005 0 0 0 64.938,534.78 z"
       id="path8582"
       style="text-indent:0;line-height:normal;text-transform:none;block-progression:tb;color:#000000;font-family:Sans" />
  </g>
</svg>
