<?xml version="1.0" encoding="UTF-8" standalone="no"?>
<!-- Created with Inkscape (http://www.inkscape.org/) -->
<svg id="svg7384" xmlns:rdf="http://www.w3.org/1999/02/22-rdf-syntax-ns#" xmlns="http://www.w3.org/2000/svg" height="16" width="16" version="1.1" xmlns:cc="http://creativecommons.org/ns#" xmlns:dc="http://purl.org/dc/elements/1.1/">
 <metadata id="metadata90">
  <rdf:RDF>
   <cc:Work rdf:about="">
    <dc:format>image/svg+xml</dc:format>
    <dc:type rdf:resource="http://purl.org/dc/dcmitype/StillImage"/>
    <dc:title>Gnome Symbolic Icon Theme</dc:title>
   </cc:Work>
  </rdf:RDF>
 </metadata>
 <title id="title9167">Gnome Symbolic Icon Theme</title>
 <g id="layer12" transform="translate(-40,-688)" fill="#bebebe">
  <path id="path3869" style="block-progression:tb;text-indent:0;color:#000000;text-transform:none" d="m47.5 688.01c-4.1303 0-7.4866 3.3563-7.4866 7.4866s3.3563 7.4866 7.4866 7.4866 7.4866-3.3563 7.4866-7.4866-3.3563-7.4866-7.4866-7.4866zm0 1.9732c3.0494 0 5.5134 2.464 5.5134 5.5134s-2.464 5.5134-5.5134 5.5134-5.5134-2.464-5.5134-5.5134 2.464-5.5134 5.5134-5.5134z"/>
  <path id="path4639" style="block-progression:tb;text-indent:0;color:#000000;text-transform:none" d="m50.406 692a0.50005 0.50005 0 0 0 -0.25 0.15625l-2.656 2.65-1.656-1.65a0.50005 0.50005 0 1 0 -0.6875 0.6875l2 2a0.50005 0.50005 0 0 0 0.6875 0l3-3a0.50005 0.50005 0 0 0 -0.438 -0.85z"/>
 </g>
</svg>
