<?xml version="1.0" encoding="UTF-8"?>
<svg width="16" height="16" version="1.1" xmlns="http://www.w3.org/2000/svg"><g transform="translate(-224 -900.36)"><g transform="translate(224.62 899.36)" fill="#bebebe"><path d="m7.6445 4c-1.2656 0-2.2656 0.46012-3.2656 1l0.8125 1.8125c1.1875-0.8125 1.8076-0.8125 2.4085-0.8125s1.201 0.15791 1.4353 0.375 0.36217 0.50864 0.34375 1c-0.013382 0.35699-0.26452 0.75431-0.71875 1.0938s-1.1009 0.53125-1.2812 0.53125c-0.5 0-1 0.5-1 1l1e-7 1.4593c-1e-7 0.54074-1e-7 0.54074 0.46882 0.54074h1.0312c0.5 0 0.5 0 0.5-0.5v-0.875c0-0.625 1.0098-0.21951 1.4688-0.5625 0.77065-0.57589 1.4875-1.4569 1.5312-2.625 0.03686-0.98322-0.33331-1.9136-1-2.5312-0.66669-0.61766-1.7594-0.90625-2.7344-0.90625z"/><rect x="6.3789" y="13" width="2" height="2" ry=".54701"/></g></g></svg>
