<?xml version="1.0" encoding="UTF-8" standalone="no"?>
<svg id="svg1" xmlns="http://www.w3.org/2000/svg" version="1.1" xmlns:dc="http://purl.org/dc/elements/1.1/" height="16" width="16" xmlns:rdf="http://www.w3.org/1999/02/22-rdf-syntax-ns#" xmlns:ns4="http://creativecommons.org/ns#">
 <title id="title13694">MyPaint symbolic icons</title>
 <metadata id="metadata7">
  <rdf:RDF>
   <ns4:Work rdf:about="">
    <dc:format>image/svg+xml</dc:format>
    <dc:type rdf:resource="http://purl.org/dc/dcmitype/StillImage"/>
    <dc:title>MyPaint symbolic icons</dc:title>
    <ns4:license rdf:resource=""/>
    <dc:creator>
     <ns4:Agent>
      <dc:title>GNOME Project</dc:title>
     </ns4:Agent>
    </dc:creator>
    <dc:contributor>
     <ns4:Agent>
      <dc:title>Andrew Chadwick</dc:title>
     </ns4:Agent>
    </dc:contributor>
   </ns4:Work>
  </rdf:RDF>
 </metadata>
 <g id="layer1" transform="translate(-496 -748.36)">
  <g id="layer2" opacity=".5" transform="translate(229.28 556.07)" display="none" fill="#859f46">
   <rect id="48x48" style="color:#000000" height="48" width="48" display="inline" y="4.25" x="-2.25"/>
   <rect id="32x32" style="color:#000000" height="32" width="32" display="inline" y="20.25" x="53.75"/>
   <rect id="24x24" style="color:#000000" height="24" width="24" display="inline" y="28.25" x="93.75"/>
   <rect id="22x22" style="color:#000000" height="22" width="22" display="inline" y="30.25" x="125.75"/>
  </g>
  <path id="path2273-6-2-3-4-9" d="m509 748.36-7.5 8.5c-1.5-1.5-5.5002-0.50003-5.5 4.5l1.5-1.5c1-1 1.5-0.50003 2 0.0156l0.5 0.4844 0.5 0.50781c0.5 0.49216 1 0.99216 0 1.9922l-1.5 1.5c5-0.00003 5.5-3.5 4.5-5.5l8.5-7.5c0-2-1-3-3-3zm0.51518 1.0664c0.79161 0.00036 1.4332 0.64198 1.4336 1.4336-0.00035 0.79161-0.64198 1.4332-1.4336 1.4336-0.7916-0.00036-1.4332-0.64198-1.4336-1.4336 0.00036-0.79161 0.64199-1.4332 1.4336-1.4336z" fill-rule="evenodd" fill="#bebebe"/>
 </g>
</svg>
