<?xml version="1.0" encoding="UTF-8" standalone="no"?>
<!-- Created with Inkscape (http://www.inkscape.org/) -->
<svg id="svg7384" xmlns:rdf="http://www.w3.org/1999/02/22-rdf-syntax-ns#" xmlns="http://www.w3.org/2000/svg" height="16" width="16" version="1.1" xmlns:cc="http://creativecommons.org/ns#" xmlns:dc="http://purl.org/dc/elements/1.1/">
 <title id="title9167">mypaint-layer-group-symbolic</title>
 <g id="layer13" transform="translate(-441.96 -175.93)">
  <g id="g14154" fill="#bebebe" transform="translate(232.96 -819.04)">
   <path id="rect3845" d="m209.5 998.97c-0.25 0-0.5 0.25-0.5 0.5v9c0 1 0.5 1.5 1.5 1.5h10c0.25 0 0.5-0.25 0.5-0.5v-5c-0.002-0.25-0.25-0.5-0.5-0.5h-9.5v4.5c0.002 0.25-0.223 0.5-0.5 0.5-0.25 0-0.5-0.25-0.5-0.5v-5c-0.002-0.25 0.25-0.5 0.5-0.5h8.5v-2h-5v-1.5c0-0.25-0.25-0.5-0.5-0.5z"/>
   <path id="rect11686" d="m220 994.97v3h-3v2h3v3h2v-3h3v-2h-3v-3h-2z"/>
  </g>
 </g>
</svg>
