<?xml version="1.0" encoding="UTF-8"?>
<svg width="16" height="16" version="1.1" xmlns="http://www.w3.org/2000/svg"><g transform="translate(-176 -524.36)" fill="#bebebe"><path transform="translate(-321 115)" d="m501 410.36c-1.0907 0-2 0.9093-2 2v11c0 1.0907 0.9093 2 2 2h9c1.0907 0 2-0.9093 2-2v-11c0-1.0907-0.9093-2-2-2v1.5c5e-3 1.1525-1.6408 1.8931-2.5 1.125-0.54394 0.48643-1.4561 0.48643-2 0-0.54394 0.48643-1.4561 0.48643-2 0-0.85917 0.76814-2.5051 0.0275-2.5-1.125z"/><path transform="translate(-321 115)" d="m502.49 409.52a0.33353 0.33353 0 0 0-0.32812 0.33789v2a0.33398 0.33398 0 1 0 0.66796 0v-2a0.33353 0.33353 0 0 0-0.33984-0.33789zm2 0a0.33353 0.33353 0 0 0-0.32812 0.33789v2a0.33398 0.33398 0 1 0 0.66796 0v-2a0.33353 0.33353 0 0 0-0.33984-0.33789zm2 0a0.33353 0.33353 0 0 0-0.32812 0.33789v2a0.33398 0.33398 0 1 0 0.66796 0v-2a0.33353 0.33353 0 0 0-0.33984-0.33789zm2 0a0.33353 0.33353 0 0 0-0.32812 0.33789v2a0.33398 0.33398 0 1 0 0.66796 0v-2a0.33353 0.33353 0 0 0-0.33984-0.33789z"/></g></svg>
