<?xml version="1.0" encoding="UTF-8"?>
<svg width="16" height="16" fill="#bebebe" version="1.1" xmlns="http://www.w3.org/2000/svg"><path d="m5 11.5 3 2.5 3-2.5v-0.5h-2v-6h2v-0.5l-3-2.5-3 2.5v0.5h2v6h-2z"/><path transform="translate(0,2e-5)" d="m0 1v3.5a0.5 0.5 0 0 0 0.5 0.5 0.5 0.5 0 0 0 0.5-0.5v-2.5h3.5a0.5 0.5 0 0 0 0.5-0.5 0.5 0.5 0 0 0-0.5-0.5zm11.5 0a0.5 0.5 0 0 0-0.5 0.5 0.5 0.5 0 0 0 0.5 0.5h3.5v2.5a0.5 0.5 0 0 0 0.5 0.5 0.5 0.5 0 0 0 0.5-0.5v-3.5zm-11 10a0.5 0.5 0 0 0-0.5 0.5v3.5h4.5a0.5 0.5 0 0 0 0.5-0.5 0.5 0.5 0 0 0-0.5-0.5h-3.5v-2.5a0.5 0.5 0 0 0-0.5-0.5zm15 0a0.5 0.5 0 0 0-0.5 0.5v2.5h-3.5a0.5 0.5 0 0 0-0.5 0.5 0.5 0.5 0 0 0 0.5 0.5h4.5v-3.5a0.5 0.5 0 0 0-0.5-0.5z" opacity=".3"/></svg>
