<?xml version="1.0" encoding="UTF-8"?>
<svg width="16" height="16" version="1.1" xmlns="http://www.w3.org/2000/svg"><g transform="translate(-96 -716.36)"><path transform="matrix(.66667 0 0 .66667 5.3333 508.36)" d="m150.25 313c-0.831 0-1.5 0.669-1.5 1.5v8.7415c0 0.831 0.669 1.5 1.5 1.5s1.5-0.669 1.5-1.5v-8.7415c0-0.831-0.669-1.5-1.5-1.5zm-2.5 5.7415-2.0139 0.7961c-0.0103-0.0172-0.6745-0.51205-3.816-0.30858s-4.9153 2.5242-5.1018 3.5281c-0.3755 1.8772 0.75723 2.4443 1.2171 4.4704 0.45988 2.0261-1.2722 3.0972-1.2716 4.9163 7.1e-4 1.9894 1.9671 3.1677 3.1905 3.0298s2.6806-0.53039 2.8243-2.8968-1.963-3.5244-1.8829-5.5323c0.0695-1.0984 0.22728-1.4399 0.60425-1.9094 1.481 4.9244 2.2848 7.1113 6.3438 9.5938 0.57944 0.30489 1.7941 0.45017 2.6562 0.23392 2.8465-0.71399 5.7795-2.7235 7.3673-4.8201 0.59824-0.78993 1.01-1.584 0.80093-2.8902-0.73066-4.5639-4.1911-9.9274-5.9183-9.4789v6.2678c0 1-1 2-2 2h-1c-1 0-2-1-2-2z" fill="#bebebe"/></g></svg>
