<?xml version="1.0" encoding="UTF-8" standalone="no"?>
<svg id="svg1" xmlns="http://www.w3.org/2000/svg" version="1.1" xmlns:dc="http://purl.org/dc/elements/1.1/" height="16" width="16" xmlns:rdf="http://www.w3.org/1999/02/22-rdf-syntax-ns#" xmlns:ns4="http://creativecommons.org/ns#">
 <title id="title13694">MyPaint symbolic icons</title>
 <metadata id="metadata7">
  <rdf:RDF>
   <ns4:Work rdf:about="">
    <dc:format>image/svg+xml</dc:format>
    <dc:type rdf:resource="http://purl.org/dc/dcmitype/StillImage"/>
    <dc:title>MyPaint symbolic icons</dc:title>
    <ns4:license rdf:resource=""/>
    <dc:creator>
     <ns4:Agent>
      <dc:title>GNOME Project</dc:title>
     </ns4:Agent>
    </dc:creator>
    <dc:contributor>
     <ns4:Agent>
      <dc:title>Andrew Chadwick</dc:title>
     </ns4:Agent>
    </dc:contributor>
   </ns4:Work>
  </rdf:RDF>
 </metadata>
 <g id="layer1" transform="translate(-96 -908.36)">
  <g id="layer2" opacity=".5" transform="translate(229.28 556.07)" display="none" fill="#859f46">
   <rect id="48x48" style="color:#000000" height="48" width="48" display="inline" y="4.25" x="-2.25"/>
   <rect id="32x32" style="color:#000000" height="32" width="32" display="inline" y="20.25" x="53.75"/>
   <rect id="24x24" style="color:#000000" height="24" width="24" display="inline" y="28.25" x="93.75"/>
   <rect id="22x22" style="color:#000000" height="22" width="22" display="inline" y="30.25" x="125.75"/>
   <rect id="16x16" style="color:#000000" height="16" width="16" display="inline" y="36.25" x="155.75"/>
  </g>
  <rect id="use4809-74-6-7-4-8-4-6-4-5-0" style="color:#000000" fill-opacity=".3" transform="translate(80 584)" height="16" width="16" y="324.36" x="16" fill="#606060"/>
  <path id="path2273-6-2-3" d="m118 964.36-1 1 2 2 1-1c0-1-1-2-2-2zm-2.3978 2.3977-6.6022 6.6023v2h2l6.6022-6.6023z" fill-rule="evenodd" transform="translate(-8 -56)" fill="#bebebe"/>
  <rect id="rect30216" transform="translate(-8 -56)" height="2" width="8" y="965.36" x="104" fill="#bebebe"/>
  <rect id="rect30218" transform="translate(-8 -56)" height="2" width="4" y="969.36" x="104" fill="#bebebe"/>
  <rect id="rect30220" transform="translate(-8 -56)" height="2" width="3" y="973.36" x="104" fill="#bebebe"/>
  <rect id="rect30222" transform="translate(-8 -56)" height="2" width="12" y="977.36" x="104" fill="#bebebe"/>
 </g>
</svg>
