<?xml version="1.0" encoding="UTF-8" standalone="no"?>
<svg id="svg1" xmlns="http://www.w3.org/2000/svg" version="1.1" xmlns:dc="http://purl.org/dc/elements/1.1/" height="16" width="16" xmlns:rdf="http://www.w3.org/1999/02/22-rdf-syntax-ns#" xmlns:ns3="http://www.openswatchbook.org/uri/2009/osb" xmlns:ns5="http://creativecommons.org/ns#">
 <title id="title13694">MyPaint symbolic icons</title>
 <metadata id="metadata7">
  <rdf:RDF>
   <ns5:Work rdf:about="">
    <dc:format>image/svg+xml</dc:format>
    <dc:type rdf:resource="http://purl.org/dc/dcmitype/StillImage"/>
    <dc:title>MyPaint symbolic icons</dc:title>
    <ns5:license rdf:resource=""/>
    <dc:creator>
     <ns5:Agent>
      <dc:title>GNOME Project</dc:title>
     </ns5:Agent>
    </dc:creator>
    <dc:contributor>
     <ns5:Agent>
      <dc:title>Andrew Chadwick</dc:title>
     </ns5:Agent>
    </dc:contributor>
   </ns5:Work>
  </rdf:RDF>
 </metadata>
 <g id="layer1" transform="translate(-96 -748.36)">
  <g id="layer2" opacity=".5" transform="translate(229.28 556.07)" display="none" fill="#859f46">
   <rect id="48x48" style="color:#000000" height="48" width="48" display="inline" y="4.25" x="-2.25"/>
   <rect id="32x32" style="color:#000000" height="32" width="32" display="inline" y="20.25" x="53.75"/>
   <rect id="24x24" style="color:#000000" height="24" width="24" display="inline" y="28.25" x="93.75"/>
   <rect id="22x22" style="color:#000000" height="22" width="22" display="inline" y="30.25" x="125.75"/>
  </g>
  <path id="path4593-9" style="color:#000000" d="m97.094 748.36c-0.15624-0.0107-0.54915 0.1681-0.59375 0.25-0.48296 1.9551-0.42349 5.1064 0.34375 6.5312 0.65625 1.2188 2.6562 0.71875 3.7188 1.2188-1.2745 0.0897-2.5625 0-3.0625 0.5-1 1-0.29826 3.4713 0.5 4.7812 0.51044 0.83763 1.5502 1.9885 2.5 1.7188 1.0502-0.73023 0-3 3-5.5v0.0937c-0.0711 0.041-0.12923 0.0987-0.1875 0.15625-0.0704 0.0695-0.1396 0.13193-0.1875 0.21875-0.0931 0.1589-0.129 0.34697-0.125 0.53125v1.5c-0.007 0.52831 0.47163 1 1 1s1.0075-0.47169 1-1v-1.5c0.008-0.36857-0.20556-0.73352-0.53125-0.90625 0.007-0.0494 0.0231-0.0346 0.0312-0.0937 3 2.5 1.9499 4.7698 3 5.5 0.94981 0.26977 1.9895-0.88112 2.5-1.7188 0.79826-1.3099 1.5-4.2812 0.5-4.7812-0.63246-0.31622-1.788-0.4103-3.0625-0.5 1.0626-0.5 3.0626 0 3.7188-1.2188 0.7672-1.4249 0.82671-4.5761 0.34375-6.5312-0.0446-0.0819-0.43751-0.2607-0.59375-0.25-0.64696 0.0442-1.2411 0.0634-1.9062 0.25-1.9695 0.5527-3.1411 3.6415-4.0312 5.6875-0.0219-0.30513-0.17169-0.55048-0.40625-0.71875 0.0786-0.28781 0.17118-0.59094 0.25-0.90625 0.0922-0.36866 0.1769-0.74577 0.3125-1.0312 0.0608-0.12808 0.14247-0.22363 0.21875-0.3125 0.0517 0.0181 0.0984 0.0312 0.15625 0.0312 0.27614 0 0.5-0.22386 0.5-0.5s-0.22386-0.5-0.5-0.5-0.5 0.22386-0.5 0.5c0 0.0336-0.006 0.062 0 0.0937-0.12417 0.14799-0.22515 0.31609-0.3125 0.5-0.16127 0.33952-0.27966 0.71241-0.375 1.0938-0.0755 0.30195-0.12439 0.5821-0.1875 0.84375-0.0443-0.006-0.0789-0.0312-0.12495-0.0312-0.046 0-0.0806 0.0254-0.125 0.0312-0.0631-0.26165-0.112-0.5418-0.1875-0.84375-0.0953-0.38134-0.21373-0.75423-0.375-1.0938-0.0873-0.18391-0.18833-0.35201-0.3125-0.5 0.006-0.0317 0-0.0602 0-0.0937 0-0.27614-0.22386-0.5-0.5-0.5s-0.5 0.22386-0.5 0.5 0.22386 0.5 0.5 0.5c0.0579 0 0.10455-0.0131 0.15625-0.0312 0.0763 0.0889 0.15795 0.18442 0.21875 0.3125 0.1356 0.28548 0.2203 0.66259 0.3125 1.0312 0.0763 0.30521 0.17308 0.59547 0.25 0.875 0.003 0.009-0.003 0.022 0 0.0312-0.11884 0.0852-0.20927 0.18438-0.28125 0.3125-0.0292 0.052-0.0741 0.099-0.0937 0.15625-0.009 0.0279 0.007 0.0645 0 0.0937-0.0104 0.0428-0.0266 0.0802-0.0312 0.125-0.88884-2.044-2.0697-5.1058-4.0312-5.6562-0.66512-0.1866-1.2593-0.2058-1.9062-0.25zm6.3125 6.7812c0.0311 0.0233 0.0602 0.0425 0.0937 0.0625v0.15625c-0.0292-0.0599-0.0641-0.15515-0.0937-0.21875zm1.1875 0c-0.0298 0.0636-0.0645 0.15888-0.0937 0.21875-0.0221-0.0422-0.018-0.0832-0.0312-0.125 0.0448-0.0243 0.0847-0.0632 0.125-0.0937z" fill="#bebebe"/>
 </g>
</svg>
