<?xml version="1.0" encoding="UTF-8"?>
<svg width="16" height="16" version="1.1" xmlns="http://www.w3.org/2000/svg"><g transform="translate(-96 -524.36)"><path transform="translate(-48 -64)" d="m150.72 589.14c-1.2118 0.0709-2.4687 0.62426-3.3125 1.25-2.9107 2.1926-2.961 6.8247-0.34375 10.125 2.6173 3.3004 7.0724 4.1853 9.9062 1.9062 1.4228-1.1443 2.0082-2.8693 1.9062-4.6875s-0.88565-3.7334-2.1875-5.375c-1.7056-2.1508-3.8253-3.3261-5.9688-3.2188zm1.75 1.9688c1.3092 0.0809 2.58 0.62113 3.5 1.7812 0.92063 1.1609 1.293 2.7004 1.1875 4.1562s-0.69854 2.8235-1.6562 3.5938c-1.9337 1.5552-4.9796 0.94442-6.8438-1.4062-1.8636-2.35-1.7469-5.4755 0.1875-7.0312 0.97505-0.78417 2.3172-1.1745 3.625-1.0938z" fill="#bebebe"/></g></svg>
