<?xml version="1.0" encoding="UTF-8" standalone="no"?>
<svg id="svg1" xmlns="http://www.w3.org/2000/svg" version="1.1" xmlns:dc="http://purl.org/dc/elements/1.1/" height="16" width="16" xmlns:rdf="http://www.w3.org/1999/02/22-rdf-syntax-ns#" xmlns:ns3="http://www.openswatchbook.org/uri/2009/osb" xmlns:ns5="http://creativecommons.org/ns#">
 <metadata id="metadata7">
  <rdf:RDF>
   <ns5:Work rdf:about="">
    <dc:format>image/svg+xml</dc:format>
    <dc:type rdf:resource="http://purl.org/dc/dcmitype/StillImage"/>
    <dc:title/>
   </ns5:Work>
  </rdf:RDF>
 </metadata>
 <g id="layer1" transform="translate(-304 -819.36)">
  <g id="layer2" opacity=".5" transform="translate(229.28 556.07)" display="none" fill="#859f46">
   <rect id="48x48" style="color:#000000" height="48" width="48" display="inline" y="4.25" x="-2.25"/>
   <rect id="32x32" style="color:#000000" height="32" width="32" display="inline" y="20.25" x="53.75"/>
   <rect id="24x24" style="color:#000000" height="24" width="24" display="inline" y="28.25" x="93.75"/>
   <rect id="22x22" style="color:#000000" height="22" width="22" display="inline" y="30.25" x="125.75"/>
  </g>
  <path id="path9278" style="enable-background:new;block-progression:tb;text-indent:0;color:#bebebe;text-transform:none" font-family="Sans" d="m312 819.36c-4.4047 0-8 3.5953-8 8s3.5953 8 8 8 8-3.5953 8-8-3.5953-8-8-8zm0 2.1875c3.2218 0 5.8125 2.5908 5.8125 5.8125 0 3.2218-2.5908 5.8125-5.8125 5.8125-3.2218 0-5.8125-2.5907-5.8125-5.8125s2.5908-5.8125 5.8125-5.8125z" line-height="normal" fill="#bebebe"/>
  <path id="path11004" d="m312.15 822.32 0.48646 0.19901-0.22111 0.57489c-0.28103 0.12998-0.54457 0.24026-0.84024 0.33167l-0.199 0.30956-0.15477 0.0885-0.22112-0.46434 0.17689-0.17688v-0.17689l-0.44222-0.28745 0.13266-0.13267 0.70756-0.199 0.57489-0.0663z" fill="#bebebe"/>
  <path id="path11002" d="m309.03 823.27-0.0937 0.21875s-0.1463 0.0525-0.1875 0.0625c-0.26454 0.24021-0.69407 0.62255-1.0625 1.1875-0.0921 0.14124-0.16475 0.27221-0.25 0.4375-0.0363 0.0752-0.0924 0.14159-0.125 0.21875-0.0462 0.10074-0.0832 0.20329-0.125 0.3125-0.0174 0.0502-0.0154 0.10531-0.0313 0.15625-0.12516 0.4024-0.19776 0.81161-0.21875 1.25 0.0563 0.0907 0.125 0.21875 0.125 0.21875l0.375 0.25 0.4375 0.125 0.125 0.1875 0.28125 0.1875 0.15625-0.0313 0.125 0.0625v0.0313l-0.15625 0.4375-0.125 0.1875 0.0313 0.0625-0.0625 0.3125 0.3125 0.65625 0.34375 0.3125 0.15625 0.1875-0.0313 0.46875 0.0937 0.28125-0.0937 0.4375c0.22103 0.15942 0.47306 0.28346 0.71875 0.40625l-0.0313-0.125 0.15625-0.15625 0.0625-0.15625 0.25-0.0625 0.21875-0.5-0.0937-0.125 0.125-0.1875 0.28125-0.0625 0.1875-0.34375-0.0625-0.4375 0.25-0.3125 0.0313-0.3125c-0.31304-0.1581-0.59558-0.3373-0.90625-0.5l-0.1875-0.3125-0.25-0.0625-0.1875-0.40625-0.375 0.0313-0.3125-0.25-0.34375 0.3125v0.0313c-0.10403-0.0309-0.25135-0.005-0.34375-0.0625l-0.0625-0.25v-0.21875l-0.21875 0.0313c0.0202-0.15156 0.0422-0.31723 0.0625-0.46875l-0.125 0.0313-0.15625 0.15625-0.125 0.0313-0.1875-0.0937v-0.21875l0.0313-0.28125 0.28125-0.1875 0.21875-0.0313 0.0625-0.125 0.28125 0.0625 0.1875 0.28125 0.0313-0.4375 0.375-0.28125 0.15625-0.34375 0.28125-0.0937 0.125-0.25 0.34375-0.0625 0.1875-0.25h-0.5l0.28125-0.125h0.25l0.3125-0.125 0.0625-0.125-0.125-0.125-0.125-0.0313 0.0313-0.125-0.0937-0.1875-0.21875 0.0625 0.0313-0.1875-0.28125-0.125-0.1875 0.34375v0.15625l-0.21875 0.0937-0.125 0.28125-0.0313-0.28125-0.40625-0.15625-0.0313-0.1875 0.46875-0.25 0.21875-0.21875 0.0313-0.25-0.125-0.0625h-0.15625z" fill="#bebebe"/>
  <path id="path8991" d="m313.75 822.61-0.28125 0.0625-0.28125 0.1875v0.125l-0.375 0.28125 0.0625 0.34375 0.25-0.15625 0.15625 0.15625 0.15625 0.0937 0.0937-0.28125-0.0625-0.15625 0.0625-0.0937 0.25-0.21875h0.0937l-0.0937 0.21875v0.21875c0.0954-0.026 0.18365-0.0504 0.28125-0.0625l-0.28125 0.1875v0.125l-0.3125 0.25-0.3125-0.0625v-0.1875l-0.15625 0.0937 0.0625 0.15625h-0.21875l-0.15625 0.21875-0.15625 0.1875-0.2812 0.0625 0.1875 0.15625 0.0313 0.15625h-0.21875l-0.25 0.15625v0.40625h0.125l0.125 0.125 0.25-0.125 0.0937-0.25 0.1875-0.125 0.0625-0.0937 0.3125-0.0625 0.15625 0.1875 0.15625 0.0937-0.0937 0.21875 0.1875-0.0625 0.0625-0.21875-0.1875-0.21875h0.0625l0.21875 0.15625 0.0625 0.25 0.15625 0.21875 0.0625-0.3125 0.0937-0.0625c0.10263 0.10657 0.19475 0.25508 0.28125 0.375h0.3125l0.21875 0.75c-0.096 0.088-0.18315 0.1644-0.28125 0.25h-0.25l-0.375-0.0937h-0.15625l-0.15625 0.1875-0.375-0.40625-0.25-0.0625-0.40625 0.0625-0.5 0.1875c-0.19803 0.2245-0.25007 0.32933-0.4375 0.5625l0.0313 0.34375 0.0937 0.0937-0.1875 0.28125 0.1875 0.5c0.17652 0.19969 0.35499 0.39391 0.53125 0.59375l0.28125-0.2187 0.125 0.125 0.25-0.1875 0.0937 0.125h0.28125l0.1875 0.15625-0.125 0.34375 0.21875 0.21875-0.0313 0.375 0.15625 0.28125-0.0937 0.25c-0.0102 0.1729-0.0313 0.35833-0.0313 0.53125 0.0851 0.23428 0.13835 0.45153 0.21875 0.6875l0.0937 0.40625v0.15625h0.125l0.25-0.125h0.25c0.004-0.003-0.004-0.0287 0-0.0313l0.4375-0.4375-0.0625-0.15625 0.25-0.25-0.1875-0.1875 0.25-0.21875 0.21875-0.125 0.0937-0.125-0.0625-0.25v-0.65625l0.21875-0.40625 0.1875-0.28125 0.28125-0.59375v-0.15625c-0.11737 0.014-0.26027 0.0223-0.375 0.0313l0.25-0.25 0.34375-0.25 0.1875-0.21875v-0.21875c-0.0415-0.0784-0.0832-0.14045-0.125-0.21875l-0.15625 0.1875-0.125-0.15625-0.1875-0.125v-0.3125l0.21875 0.21875h0.21875c0.10875 0.0987 0.2172 0.20003 0.3125 0.3125l0.1877-0.21875c-0.35553-1.3262-0.82728-2.1357-1.4062-2.8438-0.0104-0.0104-0.0208-0.021-0.0313-0.0313-0.2705-0.26589-0.58192-0.48708-0.90625-0.6875l-0.15625 0.15625-0.28125-0.28125h0.21875c-0.21959-0.12123-0.4496-0.22433-0.6875-0.3125z" fill="#bebebe"/>
 </g>
</svg>
