<?xml version="1.0" encoding="UTF-8"?>
<svg width="16" height="16" version="1.1" xmlns="http://www.w3.org/2000/svg"><g transform="translate(-496 -716.36)" fill="#bebebe"><path transform="translate(464,-216)" d="m37.965 946.33-1.9655 0.0312v-11h4.555l3.4006 3.4062v1.5625h1.9967v-2c-2e-3 -0.26843-0.11737-0.53419-0.31198-0.71875l-3.9622-3.9375c-0.18426-0.19489-0.44958-0.31044-0.71756-0.31245h-5.9589c-0.52271 5e-5 -0.9983 0.47642-0.99835 1v12.969c5e-5 0.52358 0.47563 0.99995 0.99835 1h4.9605z"/><path transform="translate(464,-216)" d="m37.002 942.36 4-4v8z"/><path transform="translate(464,-216)" d="m39.346 941.41v1.9004h5.6543c0.30486 0 0.50298 0.10833 0.70312 0.36719 0.20014 0.25885 0.35547 0.6869 0.35547 1.2051 0 0.51817-0.15272 0.92796-0.34766 1.1738-0.19494 0.24586-0.39414 0.35352-0.71094 0.35352h-0.43555v1.9004h0.43555c0.88415 0 1.6898-0.42983 2.1992-1.0723 0.50938-0.64243 0.75976-1.4721 0.75976-2.3555 0-0.88337-0.24778-1.7151-0.75195-2.3672-0.50417-0.65208-1.3109-1.1055-2.207-1.1055z"/></g></svg>
