<?xml version="1.0" encoding="UTF-8"?>
<svg width="16" height="16.002" version="1.1" xmlns="http://www.w3.org/2000/svg" xmlns:xlink="http://www.w3.org/1999/xlink"><g transform="translate(-416 -652.36)"><rect id="a" transform="translate(256,166)" x="167.01" y="496.36" width="1" height="5" ry=".49998" fill="#bebebe"/><use transform="translate(1e-5 -10)" width="100%" height="100%" xlink:href="#a"/><use transform="matrix(0 -.99835 1.0017 0 -247.46 1082.7)" width="100%" height="100%" xlink:href="#a"/><use transform="matrix(0 -.99835 1.0017 0 -237.44 1082.7)" width="100%" height="100%" xlink:href="#a"/><path transform="translate(256,166)" d="m167.5 487.36c-3.5788 0-6.5 2.9313-6.5 6.5s2.9129 6.5194 6.4917 6.5194 6.5083-2.9507 6.5083-6.5194-2.9212-6.5-6.5-6.5zm0 2c2.4964 0 4.5 2.0106 4.5 4.5s-2.0036 4.5-4.5 4.5-4.5-2.0106-4.5-4.5 2.0036-4.5 4.5-4.5z" fill="#bebebe"/></g></svg>
