<?xml version="1.0" encoding="UTF-8"?>
<svg width="16" height="16" version="1.1" xmlns="http://www.w3.org/2000/svg"><g transform="translate(-96 -588.36)"><path transform="translate(-16 -7.4516e-6)" d="m112.65 589.05 1.1477 1.1027 6.2338 2.0479-3.2407 0.69764c-2.3704 0.5103-2.1009 0.54997-2.4755 1.5303-1.1642 2.7996-0.26371 4.0767 1.3503 4.726 1.614 0.64927 3.9432-1.8403 4.9735-3.2182l4.4784 0.20255-2.1604 2.408v0.83264l2.1154 2.8131 1.9804 1.6203-1.1252-2.3405-1.7329-2.363 2.7231-3.0606-0.47257-1.1027-6.1438-0.27006-0.40506 0.15753s-1.4933 3.0509-3.6683 2.8131c-2.1749-0.23777-0.45009-3.3082-0.45009-3.3082l6.7739-1.5528-0.0901-1.2377-8.3267-2.498h-1.4853z" fill="#bebebe"/></g></svg>
