<?xml version="1.0" encoding="UTF-8"?>
<svg width="16" height="16" version="1.1" xmlns="http://www.w3.org/2000/svg" xmlns:xlink="http://www.w3.org/1999/xlink"><g transform="translate(-176 -940.36)"><path transform="translate(80 -1.7383e-5)" d="m99 953.36-3 3h12l3-3h-4l-2.3262 1.861c-0.39029 0.32535-0.95731 0.32535-1.3476 0l-2.3262-1.861z" fill="#bebebe"/><path id="a" transform="translate(80 -1.7383e-5)" d="m101 942.86 3-2.5 3 2.5v0.5h-6z" fill="#bebebe"/><rect transform="translate(80 -1.7383e-5)" x="103" y="942.36" width="2" height="10" fill="#bebebe"/><rect transform="translate(80 -1.7383e-5)" x="99" y="946.36" width="10" height="2" fill="#bebebe"/><use transform="matrix(1 0 0 -1 0 1894.7)" width="100%" height="100%" xlink:href="#a"/><use id="b" transform="matrix(0 -1 -1 0 1131.4 1131.4)" width="100%" height="100%" xlink:href="#a"/><use transform="matrix(-1 0 0 1 368 -2.6e-5)" width="100%" height="100%" xlink:href="#b"/></g></svg>
