<?xml version="1.0" encoding="UTF-8"?>
<svg width="16" height="16.001" version="1.1" xmlns="http://www.w3.org/2000/svg"><g transform="translate(-528 -716.36)"><g transform="translate(467.97 48.363)" fill="#bebebe"><path d="m64.031 673.03v6.9687h5l1.9908-1.987-0.0221-4.9817h-6.9688l3e-6 -1e-5z"/><rect x="65" y="668" width="5.0625" height="4" rx=".53033" ry=".53033"/><path d="m62.5 669c-0.29309 0-0.64673 0.036-1 0.3125-0.35327 0.27647-0.53125 0.76875-0.53125 1.125v12.031c0 0.384 0.12769 0.81517 0.4375 1.125 0.28542 0.28544 0.70914 0.38602 1.0938 0.375v0.0313h9.9688c0.36285 0 0.75992-0.12788 1.0625-0.40625 0.302-0.27 0.468-0.71 0.468-1.12v-12.09c0-0.33333-0.11893-0.72959-0.40625-1-0.288-0.28-0.669-0.38-0.969-0.38h-1.6562v2h1.0312v11h-9.0312v-11h0.96875v-2h-1.4375z" style=""/></g></g></svg>
