<?xml version="1.0" encoding="UTF-8"?>
<svg width="16" height="16" version="1.1" xmlns="http://www.w3.org/2000/svg"><g transform="translate(-416 -812.36)" fill="#bebebe"><path transform="matrix(.8 0 0 .8 135.2 583.56)" d="m362.46 287.39c-1.1142-0.22162-2.2787-0.19028-3.4043 0.11133a1.2501 1.2501 0 1 0 0.64649 2.4141c1.5025-0.40259 3.1038-0.0836 4.3379 0.86328 1.234 0.94692 1.957 2.4113 1.957 3.9668a1.2501 1.2501 0 1 0 2.5 0c0-2.3306-1.0846-4.5304-2.9336-5.9492-0.92452-0.7094-1.9893-1.1846-3.1035-1.4062z"/><path transform="rotate(180 412.5 747.86)" d="m399 676.36-1e-5 -0.99999-3-3-3 3 1e-5 0.99999z"/><path transform="matrix(-.8 0 0 -.8 712.8 1057.2)" d="m362.46 287.39c-1.1142-0.22162-2.2787-0.19027-3.4043 0.11133a1.2501 1.2501 0 1 0 0.64649 2.4141c1.5024-0.40258 3.1039-0.0836 4.3379 0.86328 1.234 0.9469 1.957 2.4114 1.957 3.9668a1.2501 1.2501 0 1 0 2.5 0c0-2.3306-1.0846-4.5304-2.9336-5.9492-0.9245-0.70939-1.9894-1.1846-3.1035-1.4062z"/><path transform="rotate(180 411.5 748.87)" d="m401 676.36v1.0142l3 3 3-3v-1.0142z"/></g></svg>
