<?xml version="1.0" encoding="UTF-8"?>
<svg width="16" height="16" version="1.1" xmlns="http://www.w3.org/2000/svg"><g transform="translate(-416 -748.36)" fill="#bebebe"><path transform="translate(360,-256)" d="m64 1004.4c-4.4183 0-8 3.5817-8 8s3.5817 8 8 8 8-3.5817 8-8-3.5817-8-8-8zm0 3c2.7614 0 5 2.2386 5 5s-2.2386 5-5 5-5-2.2386-5-5 2.2386-5 5-5z" opacity=".3"/><path transform="translate(360,-256)" d="m60.969 1005c-1.9898 0.813-3.5357 2.4157-4.3438 4.4062l2.9062 0.7813c0.48984-0.9532 1.2886-1.735 2.25-2.2188zm6.0625 0-0.8125 2.9687c0.9614 0.4838 1.7602 1.2656 2.25 2.2188l2.9062-0.7813c-0.80802-1.9905-2.3539-3.5932-4.3438-4.4062zm-7.5 9.625-2.9062 0.7812c0.80802 1.9905 2.3539 3.5932 4.3438 4.4063l0.8125-2.9688c-0.9614-0.4838-1.7602-1.2656-2.25-2.2187zm8.9062 0c-0.48381 0.9613-1.2656 1.7601-2.2188 2.25l0.78125 2.9062c1.9905-0.808 3.5932-2.3539 4.4062-4.3437z"/></g></svg>
