<?xml version="1.0" encoding="UTF-8" standalone="no"?>
<svg id="svg1" xmlns="http://www.w3.org/2000/svg" version="1.1" xmlns:dc="http://purl.org/dc/elements/1.1/" height="16.013" width="16" xmlns:rdf="http://www.w3.org/1999/02/22-rdf-syntax-ns#" xmlns:ns3="http://www.openswatchbook.org/uri/2009/osb" xmlns:ns5="http://creativecommons.org/ns#">
 <metadata id="metadata7">
  <rdf:RDF>
   <ns5:Work rdf:about="">
    <dc:format>image/svg+xml</dc:format>
    <dc:type rdf:resource="http://purl.org/dc/dcmitype/StillImage"/>
    <dc:title/>
   </ns5:Work>
  </rdf:RDF>
 </metadata>
 <g id="layer1" transform="translate(-128 -876.36)">
  <g id="layer2" opacity=".5" transform="translate(229.28 556.07)" display="none" fill="#859f46">
   <rect id="48x48" style="color:#000000" height="48" width="48" display="inline" y="4.25" x="-2.25"/>
   <rect id="32x32" style="color:#000000" height="32" width="32" display="inline" y="20.25" x="53.75"/>
   <rect id="24x24" style="color:#000000" height="24" width="24" display="inline" y="28.25" x="93.75"/>
   <rect id="22x22" style="color:#000000" height="22" width="22" display="inline" y="30.25" x="125.75"/>
  </g>
  <path id="path4561" style="block-progression:tb;text-indent:0;color:#000000;text-transform:none" font-family="Sans" d="m136 876.38c-2.7496 0-5 2.2504-5 5 0 1.5862 0.84459 2.8721 2 3.7812v2.2188 1h1 4 1v-1-2.2188c1.1554-0.90914 2-2.195 2-3.7812 0-2.7496-2.2504-5-5-5zm0 2c1.6687 0 3 1.3313 3 3 0 1.1158-0.59507 2.0379-1.5 2.5625l-0.5 0.28125v0.59375 1.5625h-2v-1.5625-0.59375l-0.5-0.28125c-0.90493-0.52462-1.5-1.4466-1.5-2.5625 0-1.6687 1.3313-3 3-3z" line-height="normal" fill="#bebebe"/>
  <path id="path4488-4" style="block-progression:tb;text-indent:0;color:#000000;text-transform:none" font-family="Sans" d="m134 891.38v1h4v-1h-4z" line-height="normal" fill="#bebebe"/>
  <path id="path4488-4-7" style="block-progression:tb;text-indent:0;color:#000000;text-transform:none" font-family="Sans" d="m133 889.38v1h6v-1h-6z" line-height="normal" fill="#bebebe"/>
  <path id="path4488-4-4" opacity=".35" style="block-progression:tb;text-indent:0;color:#000000;text-transform:none" font-family="Sans" d="m135 881.38v1h2v-1h-2z" line-height="normal" fill="#bebebe"/>
 </g>
</svg>
