<?xml version="1.0" encoding="UTF-8"?>
<svg width="16" height="16" version="1.1" xmlns="http://www.w3.org/2000/svg" xmlns:xlink="http://www.w3.org/1999/xlink"><g transform="translate(-96 -620.36)"><path id="a" transform="translate(-16 80)" d="m113.5 541.36c-1 0-1.5 0.5-1.5 1.5v1c0 1 1 1 1 2s-1 1-1 1.5v1.5h3v-4.5h5.5v-3l-1.5-3e-5c-1 0-1 1-2 1h-0.5c-1 0-1-1-2-1z" fill="#bebebe"/><use transform="matrix(-1,0,0,1,208,-2.7e-5)" width="800" height="600" style="" xlink:href="#a"/><use transform="rotate(180 104 628.36)" width="800" height="600" style="" xlink:href="#a"/><use transform="matrix(1 0 0 -1 0 1256.7)" width="800" height="600" style="" xlink:href="#a"/></g></svg>
