<?xml version="1.0" encoding="UTF-8" standalone="no"?>
<svg id="svg1" xmlns="http://www.w3.org/2000/svg" version="1.1" xmlns:dc="http://purl.org/dc/elements/1.1/" height="16" width="16" xmlns:rdf="http://www.w3.org/1999/02/22-rdf-syntax-ns#" xmlns:ns3="http://www.openswatchbook.org/uri/2009/osb" xmlns:ns5="http://creativecommons.org/ns#">
 <title id="title13694">MyPaint symbolic icons</title>
 <metadata id="metadata7">
  <rdf:RDF>
   <ns5:Work rdf:about="">
    <dc:format>image/svg+xml</dc:format>
    <dc:type rdf:resource="http://purl.org/dc/dcmitype/StillImage"/>
    <dc:title>MyPaint symbolic icons</dc:title>
    <ns5:license rdf:resource=""/>
    <dc:creator>
     <ns5:Agent>
      <dc:title>GNOME Project</dc:title>
     </ns5:Agent>
    </dc:creator>
    <dc:contributor>
     <ns5:Agent>
      <dc:title>Andrew Chadwick</dc:title>
     </ns5:Agent>
    </dc:contributor>
   </ns5:Work>
  </rdf:RDF>
 </metadata>
 <g id="layer1" transform="translate(-16 -716.36)">
  <g id="layer2" opacity=".5" transform="translate(229.28 556.07)" display="none" fill="#859f46">
   <rect id="48x48" style="color:#000000" height="48" width="48" display="inline" y="4.25" x="-2.25"/>
   <rect id="32x32" style="color:#000000" height="32" width="32" display="inline" y="20.25" x="53.75"/>
   <rect id="24x24" style="color:#000000" height="24" width="24" display="inline" y="28.25" x="93.75"/>
   <rect id="22x22" style="color:#000000" height="22" width="22" display="inline" y="30.25" x="125.75"/>
  </g>
  <path id="path18655" d="m25.54 726.06-1.0563 3.0222c-0.27948 0.82084 0.86648 1.2596 1.1572 0.40846l1.1732-2.9991z" fill-rule="evenodd" fill="#bebebe"/>
  <path id="path18657" d="m24.87 722 0.52897 0.79172 3.9494 1.624 1.0407-0.34128 1.3261-3.688c-1.6666 0-0.33332-4.0216-4.6666-4.0216l-2.1786 5.6352z" fill-rule="evenodd" fill="#bebebe"/>
  <path id="path18659" d="m25.333 723.74-0.46773 1.3405 3.3333 1.273 0.46772-1.273z" fill-rule="evenodd" fill="#bebebe"/>
  <path id="path18695" style="block-progression:tb;text-indent:0;color:#000000;text-transform:none" font-family="Sans" d="m16.312 717.38 0.84375 0.8125s0.96228 0.97619 1.9375 2.4375 1.9062 3.4132 1.9062 5.25c0 0.62964-0.21637 1.1266-0.65625 1.5625s-1.1112 0.79732-2.0312 0.96875l0.188 0.97c1.0667-0.19875 1.9196-0.61261 2.5312-1.2188 0.612-0.61 0.969-1.41 0.969-2.28 0-2.1632-1.063-4.2368-2.0938-5.7812-0.69826-1.0463-1.0269-1.3346-1.4062-1.75h5.5v-0.96875h-6.5-1.1875z" line-height="normal" fill="#bebebe"/>
  <path id="path18687" style="color:#000000" d="m17 728.37h2.9999v3.0018h-2.9999z" fill-rule="evenodd" fill="#bebebe"/>
  <path id="path18685" style="color:#000000" d="m22.549 731.11v0.002" fill-rule="evenodd" fill="#ef2929"/>
  <path id="path18667" style="block-progression:tb;text-indent:0;color:#000000;text-transform:none" font-family="Sans" d="m17.969 729.41v0.9375h5.0625v-0.9375h-5.0625z" line-height="normal" fill="#bebebe"/>
  <rect id="rect18669" height="2.9958" width="2.9999" y="716.37" x="16" fill="#bebebe"/>
 </g>
</svg>
