<?xml version="1.0" encoding="UTF-8"?>
<svg width="16" height="16" version="1.1" xmlns="http://www.w3.org/2000/svg" xmlns:xlink="http://www.w3.org/1999/xlink"><g transform="translate(-96 -780.36)"><path id="a" transform="translate(-64 500.36)" d="m168 293c0.52837 0 1.0075-0.47169 1-1v-1.5c8e-3 -0.36857-0.20556-0.73352-0.53125-0.90625l0.0312-0.0937c3 2.5 1.9499 4.7698 3 5.5 0.94981 0.26977 1.9895-0.88112 2.5-1.7188 0.79826-1.3099 1.5-4.2812 0.50005-4.7812s-1.5-0.5-3-0.5c1-0.5 2.8949-0.0628 3.6562-1.2188 0.8438-1.2812 0.8438-4.7812 0.34375-6.5312-0.0446-0.0819 5e-5 -0.24994-0.49995-0.24994-0.64696 0.0442-1 0-2 0.24994-1.9695 0.5527-3.1411 3.6415-4.0312 5.6875-0.0219-0.30513-0.17169-0.55048-0.40625-0.71875 0.32314-1.2081 0.42604-1.8388 0.78125-2.25 0.0517 0.0181 0.0984 0.0312 0.15625 0.0312 0.27614 0 0.5-0.22386 0.5-0.5s-0.22386-0.5-0.5-0.5-0.5 0.22386-0.5 0.5c0 0.0336-6e-3 0.062 0 0.0937-0.53511 0.7262-0.69338 1.61-0.875 2.4375-0.04435-0.0059-0.07895-0.03115-0.12495-0.03115l-0.5 3.0001z" fill="#bebebe"/><use transform="matrix(-1,0,0,1,208,6.2e-5)" width="100%" height="100%" xlink:href="#a"/></g></svg>
