<?xml version="1.0" encoding="UTF-8" standalone="no"?>
<svg id="svg1" xmlns="http://www.w3.org/2000/svg" version="1.1" xmlns:dc="http://purl.org/dc/elements/1.1/" height="16" width="16" xmlns:rdf="http://www.w3.org/1999/02/22-rdf-syntax-ns#" xmlns:ns3="http://www.openswatchbook.org/uri/2009/osb" xmlns:ns5="http://creativecommons.org/ns#">
 <title id="title13694">MyPaint symbolic icons</title>
 <metadata id="metadata7">
  <rdf:RDF>
   <ns5:Work rdf:about="">
    <dc:format>image/svg+xml</dc:format>
    <dc:type rdf:resource="http://purl.org/dc/dcmitype/StillImage"/>
    <dc:title>MyPaint symbolic icons</dc:title>
    <ns5:license rdf:resource=""/>
    <dc:creator>
     <ns5:Agent>
      <dc:title>GNOME Project</dc:title>
     </ns5:Agent>
    </dc:creator>
    <dc:contributor>
     <ns5:Agent>
      <dc:title>Andrew Chadwick</dc:title>
     </ns5:Agent>
    </dc:contributor>
   </ns5:Work>
  </rdf:RDF>
 </metadata>
 <g id="layer1" transform="translate(-336 -556.36)">
  <g id="layer2" opacity=".5" transform="translate(229.28 556.07)" display="none" fill="#859f46">
   <rect id="48x48" style="color:#000000" height="48" width="48" display="inline" y="4.25" x="-2.25"/>
   <rect id="32x32" style="color:#000000" height="32" width="32" display="inline" y="20.25" x="53.75"/>
   <rect id="24x24" style="color:#000000" height="24" width="24" display="inline" y="28.25" x="93.75"/>
   <rect id="22x22" style="color:#000000" height="22" width="22" display="inline" y="30.25" x="125.75"/>
  </g>
  <path id="rect3861-4-2" opacity=".3" style="color:#000000" d="m339 568.86h10c1 0 2-1 2-2v3c0 1-1 2-2 2h-10c-1 0-1.5-0.5-1.5-1.5s0.5-1.5 1.5-1.5z" fill="#bebebe"/>
  <path id="rect24024-5-7-1-7-8-2-5-87-5-9" style="color:#000000" d="m338.5 556.36c-0.5 0-1.5 0.5-1.5 1.5v13c0 1 1 1.5 1.5 1.5h10.5c1 0 2-1 2-2v-1c0 1-1 2-2 2h-10c-0.5 0-1-0.5-1-1s0.49998-1 1-1h10c1 0 2-0.99998 2-2v-9c0-1-1-2-2-2h-10.5zm2.5 2h0.5l4.5 4.5v-4.5h2v9h-2v-4.5l-4.5 4.5h-0.5v-9z" fill="#bebebe"/>
 </g>
</svg>
