<?xml version="1.0" encoding="UTF-8"?>
<svg width="16" height="16" version="1.1" xmlns="http://www.w3.org/2000/svg"><g transform="translate(-16 -684.36)" fill="#bebebe"><path d="m32 686.86-1.5 4-3.5-1v-5.5c4 0 3 2.5 5 2.5z"/><path d="m26.719 690.92c-0.96065 0.0679-1.8572 0.6032-2.375 1.5-0.39641 0.68653-0.51049 1.4407-0.34375 2.1562 0.17243 0.73997 0.89298 1.6042-0.3125 3.9062-0.01073 9e-3 -0.02132 0.0213-0.03125 0.0312-0.09048 0.0905-0.15625 0.20568-0.15625 0.34375 0 0.27614 0.22386 0.5 0.5 0.5 1.4366-0.7172 3.172-1.3189 4.2812-2.4062 0.55798-0.56123 1.0086-1.1132 1.25-1.5312 0.82843-1.4349 0.34112-3.2653-1.0938-4.0938-0.53808-0.31066-1.1424-0.44698-1.7188-0.40625z"/><path d="m18 684.53v0.33373c3.661 1.4601 0 8.9994 0 11.999 0 6.1086 4.0508 0.99993 4.0508 0.99993v-0.99993s-1.8291 3.0745-2.3719-0.26283c-0.90938-5.5921 6.7872-12.07-1.679-12.07z"/></g></svg>
