<?xml version="1.0" encoding="UTF-8"?>
<svg width="16" height="16" version="1.1" xmlns="http://www.w3.org/2000/svg"><g transform="translate(-464 -716.36)"><g transform="translate(363 69.362)" fill="#bebebe"><path d="m105 653c1e-5 0.2653 0.0931 0.53058 0.28125 0.71875l3.2812 3.2812h0.875l3.2812-3.2812c0.18819-0.18817 0.28124-0.45345 0.28125-0.71875v-1h-1c-0.2653 1e-5 -0.53059 0.0931-0.71875 0.28125l-2.2812 2.2812-2.2812-2.2812c-0.19-0.19-0.45-0.28-0.72-0.28l-0.99943-6.2e-4z" style=""/><path d="m108 650v5h2v-5z" style=""/><path d="m104 658v4h10v-4zm3.3438 1.4375c0.0208-1e-3 0.0417-1e-3 0.0625 0 0.29096-0.0556 0.59898 0.20383 0.59375 0.5v0.0625h2v-0.0625c-4e-3 -0.26416 0.23582-0.50712 0.5-0.50712s0.50373 0.24296 0.5 0.50712v0.0625c0 0.54535-0.45465 1-1 1h-2c-0.54535 0-1-0.45465-1-1v-0.0625c-0.0108-0.21706 0.13723-0.43234 0.34375-0.5z" style=""/><path d="m104 647c-0.54535 0-1 0.45465-1 1v2c0 0.54535 0.45465 1 1 1h10c0.54535 0 1-0.45465 1-1v-2c0-0.54535-0.45465-1-1-1zm0 1h10v2h-10z" style=""/><path d="m105.41 656a0.50005 0.50005 0 0 0-0.3125 0.21875l-1 1.5a0.50005 0.50005 0 1 0 0.8125 0.5625l1-1.5a0.50005 0.50005 0 0 0-0.5-0.78125zm7 0a0.50005 0.50005 0 0 0-0.3125 0.78125l1 1.5a0.50005 0.50005 0 1 0 0.8125-0.5625l-1-1.5a0.50005 0.50005 0 0 0-0.5-0.21875z" style=""/></g></g></svg>
