<?xml version="1.0" encoding="UTF-8" standalone="no"?>
<svg id="svg1" xmlns="http://www.w3.org/2000/svg" version="1.1" xmlns:dc="http://purl.org/dc/elements/1.1/" height="16" width="16" xmlns:rdf="http://www.w3.org/1999/02/22-rdf-syntax-ns#" xmlns:ns4="http://creativecommons.org/ns#">
 <title id="title13694">MyPaint symbolic icons</title>
 <metadata id="metadata7">
  <rdf:RDF>
   <ns4:Work rdf:about="">
    <dc:format>image/svg+xml</dc:format>
    <dc:type rdf:resource="http://purl.org/dc/dcmitype/StillImage"/>
    <dc:title>MyPaint symbolic icons</dc:title>
    <ns4:license rdf:resource=""/>
    <dc:creator>
     <ns4:Agent>
      <dc:title>GNOME Project</dc:title>
     </ns4:Agent>
    </dc:creator>
    <dc:contributor>
     <ns4:Agent>
      <dc:title>Andrew Chadwick</dc:title>
     </ns4:Agent>
    </dc:contributor>
   </ns4:Work>
  </rdf:RDF>
 </metadata>
 <g id="layer1" transform="translate(-16 -492.36)">
  <path id="path11928" style="color:#000000" d="m40 543.36c-4.4183 0-8 6-8 6s3.5817 6 8 6 8-6 8-6-3.5817-6-8-6zm0 2c3.866 0 6 4 6 4s-2.134 4-6 4-6-4-6-4 2.134-4 6-4z" transform="translate(-16 -48)" fill="#bebebe"/>
  <path id="path8543-5" style="color-rendering:auto;text-decoration-color:#000000;color:#000000;font-variant-numeric:normal;text-orientation:mixed;shape-padding:0;shape-rendering:auto;solid-color:#000000;text-decoration-line:none;text-rendering:auto;font-variant-position:normal;mix-blend-mode:normal;font-feature-settings:normal;font-variant-alternates:normal;text-indent:0;font-variant-ligatures:normal;dominant-baseline:auto;font-variant-caps:normal;image-rendering:auto;white-space:normal;text-decoration-style:solid;isolation:auto;text-transform:none" font-family="sans-serif" d="m32.994 545.79a0.50005 0.50005 0 0 0 -0.34766 0.85742l1 1a0.50005 0.50005 0 1 0 0.70703 -0.70703l-1-1a0.50005 0.50005 0 0 0 -0.35938 -0.15039z" transform="translate(-16 -48)" line-height="normal" fill="#bebebe"/>
  <path id="path8545-3" style="color-rendering:auto;text-decoration-color:#000000;color:#000000;font-variant-numeric:normal;text-orientation:mixed;shape-padding:0;shape-rendering:auto;solid-color:#000000;text-decoration-line:none;text-rendering:auto;font-variant-position:normal;mix-blend-mode:normal;font-feature-settings:normal;font-variant-alternates:normal;text-indent:0;font-variant-ligatures:normal;dominant-baseline:auto;font-variant-caps:normal;image-rendering:auto;white-space:normal;text-decoration-style:solid;isolation:auto;text-transform:none" font-family="sans-serif" d="m46.99 545.79a0.50005 0.50005 0 0 0 -0.34375 0.15039l-1 1a0.50005 0.50005 0 1 0 0.70703 0.70703l1-1a0.50005 0.50005 0 0 0 -0.36328 -0.85742z" transform="translate(-16 -48)" line-height="normal" fill="#bebebe"/>
  <path id="path8547-1" style="color-rendering:auto;text-decoration-color:#000000;color:#000000;font-variant-numeric:normal;text-orientation:mixed;shape-padding:0;shape-rendering:auto;solid-color:#000000;text-decoration-line:none;text-rendering:auto;font-variant-position:normal;mix-blend-mode:normal;font-feature-settings:normal;font-variant-alternates:normal;text-indent:0;font-variant-ligatures:normal;dominant-baseline:auto;font-variant-caps:normal;image-rendering:auto;white-space:normal;text-decoration-style:solid;isolation:auto;text-transform:none" font-family="sans-serif" d="m33.994 543.79a0.50005 0.50005 0 0 0 -0.34766 0.85742l2 2a0.50005 0.50005 0 1 0 0.70703 -0.70703l-2-2a0.50005 0.50005 0 0 0 -0.35938 -0.15039z" transform="translate(-16 -48)" line-height="normal" fill="#bebebe"/>
  <path id="path8572-7" style="color-rendering:auto;text-decoration-color:#000000;color:#000000;font-variant-numeric:normal;text-orientation:mixed;shape-padding:0;shape-rendering:auto;solid-color:#000000;text-decoration-line:none;text-rendering:auto;font-variant-position:normal;mix-blend-mode:normal;font-feature-settings:normal;font-variant-alternates:normal;text-indent:0;font-variant-ligatures:normal;dominant-baseline:auto;font-variant-caps:normal;image-rendering:auto;white-space:normal;text-decoration-style:solid;isolation:auto;text-transform:none" font-family="sans-serif" d="m35.977 541.98a0.50005 0.50005 0 0 0 -0.41016 0.75781l1.375 2.375a0.50099 0.50099 0 1 0 0.86719 -0.50195l-1.375-2.375a0.50005 0.50005 0 0 0 -0.45703 -0.25586z" transform="translate(-16 -48)" line-height="normal" fill="#bebebe"/>
  <path id="path8574-8" style="color-rendering:auto;text-decoration-color:#000000;color:#000000;font-variant-numeric:normal;text-orientation:mixed;shape-padding:0;shape-rendering:auto;solid-color:#000000;text-decoration-line:none;text-rendering:auto;font-variant-position:normal;mix-blend-mode:normal;font-feature-settings:normal;font-variant-alternates:normal;text-indent:0;font-variant-ligatures:normal;dominant-baseline:auto;font-variant-caps:normal;image-rendering:auto;white-space:normal;text-decoration-style:solid;isolation:auto;text-transform:none" font-family="sans-serif" d="m38.729 540.86a0.50005 0.50005 0 0 0 -0.4668 0.61914l0.6875 3a0.50103 0.50103 0 1 0 0.976 -0.23l-0.6875-3a0.50005 0.50005 0 0 0 -0.50976 -0.39453z" transform="translate(-16 -48)" line-height="normal" fill="#bebebe"/>
  <path id="path8578-8" style="color-rendering:auto;text-decoration-color:#000000;color:#000000;font-variant-numeric:normal;text-orientation:mixed;shape-padding:0;shape-rendering:auto;solid-color:#000000;text-decoration-line:none;text-rendering:auto;font-variant-position:normal;mix-blend-mode:normal;font-feature-settings:normal;font-variant-alternates:normal;text-indent:0;font-variant-ligatures:normal;dominant-baseline:auto;font-variant-caps:normal;image-rendering:auto;white-space:normal;text-decoration-style:solid;isolation:auto;text-transform:none" font-family="sans-serif" d="m45.979 543.79a0.50005 0.50005 0 0 0 -0.37305 0.19727l-1.5625 2a0.50028 0.50028 0 1 0 0.78906 0.61523l1.5625-2a0.50005 0.50005 0 0 0 -0.41602 -0.8125z" transform="translate(-16 -48)" line-height="normal" fill="#bebebe"/>
  <path id="path8580-4" style="color-rendering:auto;text-decoration-color:#000000;color:#000000;font-variant-numeric:normal;text-orientation:mixed;shape-padding:0;shape-rendering:auto;solid-color:#000000;text-decoration-line:none;text-rendering:auto;font-variant-position:normal;mix-blend-mode:normal;font-feature-settings:normal;font-variant-alternates:normal;text-indent:0;font-variant-ligatures:normal;dominant-baseline:auto;font-variant-caps:normal;image-rendering:auto;white-space:normal;text-decoration-style:solid;isolation:auto;text-transform:none" font-family="sans-serif" d="m44.367 542.2a0.50005 0.50005 0 0 0 -0.39844 0.24219l-1.332 2.1543a0.5003 0.5003 0 1 0 0.85156 0.52539l1.3301-2.1543a0.50005 0.50005 0 0 0 -0.45117 -0.76758z" transform="translate(-16 -48)" line-height="normal" fill="#bebebe"/>
  <path id="path8582-8" style="color-rendering:auto;text-decoration-color:#000000;color:#000000;font-variant-numeric:normal;text-orientation:mixed;shape-padding:0;shape-rendering:auto;solid-color:#000000;text-decoration-line:none;text-rendering:auto;font-variant-position:normal;mix-blend-mode:normal;font-feature-settings:normal;font-variant-alternates:normal;text-indent:0;font-variant-ligatures:normal;dominant-baseline:auto;font-variant-caps:normal;image-rendering:auto;white-space:normal;text-decoration-style:solid;isolation:auto;text-transform:none" font-family="sans-serif" d="m41.85 540.86a0.50005 0.50005 0 0 0 -0.46484 0.36914l-0.86524 3a0.50005 0.50005 0 1 0 0.96 0.27l0.86523-3a0.50005 0.50005 0 0 0 -0.49609 -0.64453z" transform="translate(-16 -48)" line-height="normal" fill="#bebebe"/>
  <path id="path13510" style="color:#000000" d="m24 86c-1.6569 0-3 1.3431-3 3s1.3431 3 3 3 3-1.3431 3-3-1.3431-3-3-3zm-0.5 0.75c0.41421 0 0.75 0.33579 0.75 0.75s-0.33579 0.75-0.75 0.75-0.75-0.33579-0.75-0.75 0.33579-0.75 0.75-0.75z" transform="translate(0 412.36)" fill="#bebebe"/>
  <g id="layer2" opacity=".5" transform="translate(229.28 556.07)" display="none" fill="#859f46">
   <rect id="48x48" style="color:#000000" height="48" width="48" display="inline" y="4.25" x="-2.25"/>
   <rect id="32x32" style="color:#000000" height="32" width="32" display="inline" y="20.25" x="53.75"/>
   <rect id="24x24" style="color:#000000" height="24" width="24" display="inline" y="28.25" x="93.75"/>
   <rect id="22x22" style="color:#000000" height="22" width="22" display="inline" y="30.25" x="125.75"/>
   <rect id="16x16" style="color:#000000" height="16" width="16" display="inline" y="36.25" x="155.75"/>
  </g>
 </g>
</svg>
