<?xml version="1.0" encoding="UTF-8"?>
<svg width="16" height="16" fill="#bebebe" version="1.1" xmlns="http://www.w3.org/2000/svg"><path d="m12.5 0-0.85 1.21 3.35 3.59 0.74-0.92zm-12.5 0v1c3.5 1.5 0 9 0 12 0 6 4 1 4 1v-1s-1.5 3-2.32-0.26c-1.18-5.74 6.82-12.74-1.68-12.74zm11 1.93-0.66 0.72c-0.67 0.71-0.84 0.85-2.69 1.43-2.65 2.92-2.65 5.72-2.65 5.72l-0.66 0.72s-0.67 0.72 0 1.44l4.06-4.36c-0.26-0.57-0.19-1.28 0.25-1.75 0.55-0.59 1.45-0.59 2 0 0.55 0.6 0.55 1.55 0 2.15-0.44 0.47-1.05 0.56-1.59 0.28l-4.06 4.39c0.66 0.71 1.34 0 1.34 0l0.66-0.71s2.67 0 5.34-2.87c0.66-2.15 0.66-2.15 1.31-2.86l0.69-0.73z"/></svg>
