<?xml version="1.0" encoding="UTF-8"?>
<svg width="16" height="16" fill="#bebebe" version="1.1" xmlns="http://www.w3.org/2000/svg"><path d="m4.81 1c-0.46 0.09-0.81 0.53-0.81 1v7h2v-6h4v3h3v3h2v-3.44c0-0.26-0.1-0.53-0.28-0.72l-3.56-3.56c-0.19-0.18-0.46-0.28-0.72-0.28h-5.44-0.1-0.09zm-4.28 4c-0.29 0-0.53 0.24-0.53 0.53v9.94c0 0.3 0.23 0.53 0.53 0.53h13.81c0.3 0 0.54-0.23 0.54-0.53l1.12-4.92c0-0.29-0.24-0.53-0.53-0.53h-11.59l-0.88 3.48c0 0.28-0.22 0.5-0.5 0.5s-0.5-0.22-0.5-0.5v-5c0-0.27 0.22-0.5 0.5-0.5h0.47v-3z"/></svg>
