<?xml version="1.0" encoding="UTF-8" standalone="no"?>
<!-- Created with Inkscape (http://www.inkscape.org/) -->

<svg
   xmlns:dc="http://purl.org/dc/elements/1.1/"
   xmlns:cc="http://creativecommons.org/ns#"
   xmlns:rdf="http://www.w3.org/1999/02/22-rdf-syntax-ns#"
   xmlns:svg="http://www.w3.org/2000/svg"
   xmlns="http://www.w3.org/2000/svg"
   xmlns:xlink="http://www.w3.org/1999/xlink"
   xmlns:sodipodi="http://sodipodi.sourceforge.net/DTD/sodipodi-0.dtd"
   xmlns:inkscape="http://www.inkscape.org/namespaces/inkscape"
   width="48"
   height="48"
   id="svg2985"
   version="1.1"
   inkscape:version="0.48.3.1 r9886"
   sodipodi:docname="mypaint-color-rgb.svg"
   inkscape:export-xdpi="90"
   inkscape:export-ydpi="90">
  <title
     id="title3811">Icon for &quot;colour&quot; or &quot;RGB colour&quot;</title>
  <defs
     id="defs2987">
    <linearGradient
       inkscape:collect="always"
       id="linearGradient5834">
      <stop
         style="stop-color:#000000;stop-opacity:1;"
         offset="0"
         id="stop5836" />
      <stop
         style="stop-color:#000000;stop-opacity:0;"
         offset="1"
         id="stop5838" />
    </linearGradient>
    <linearGradient
       id="linearGradient4582">
      <stop
         id="stop4584"
         style="stop-color:#ffc1c4;stop-opacity:1"
         offset="0" />
      <stop
         id="stop4586"
         style="stop-color:#dc0000;stop-opacity:1"
         offset="1" />
    </linearGradient>
    <linearGradient
       id="linearGradient3215-8">
      <stop
         offset="0"
         style="stop-color:#cdffd0;stop-opacity:1"
         id="stop3217-4" />
      <stop
         offset="1"
         style="stop-color:#00cc00;stop-opacity:1"
         id="stop3219-1" />
    </linearGradient>
    <linearGradient
       id="linearGradient3275-9">
      <stop
         offset="0"
         style="stop-color:#cbcfff;stop-opacity:1"
         id="stop3277-8" />
      <stop
         offset="1"
         style="stop-color:#0000dc;stop-opacity:1"
         id="stop3279-2" />
    </linearGradient>
    <linearGradient
       id="linearGradient3224-1">
      <stop
         offset="0"
         style="stop-color:#ffc6ff;stop-opacity:1"
         id="stop3226-7" />
      <stop
         offset="1"
         style="stop-color:#cb00ff;stop-opacity:1"
         id="stop3228-5" />
    </linearGradient>
    <linearGradient
       id="linearGradient3283-6">
      <stop
         offset="0"
         style="stop-color:#ffffcb;stop-opacity:1"
         id="stop3285-3" />
      <stop
         offset="1"
         style="stop-color:#ffcf00;stop-opacity:1"
         id="stop3287-8" />
    </linearGradient>
    <linearGradient
       id="linearGradient3443-2-4">
      <stop
         offset="0"
         style="stop-color:#ffffff;stop-opacity:1"
         id="stop3445-6-6" />
      <stop
         offset="1"
         style="stop-color:#d2d4d9;stop-opacity:1"
         id="stop3447-7-4" />
    </linearGradient>
    <linearGradient
       id="linearGradient3218-6">
      <stop
         offset="0"
         style="stop-color:#e4ffff;stop-opacity:1"
         id="stop3220-4" />
      <stop
         offset="1"
         style="stop-color:#00b3fe;stop-opacity:1"
         id="stop3222-8" />
    </linearGradient>
    <radialGradient
       inkscape:collect="always"
       xlink:href="#linearGradient5834"
       id="radialGradient7281"
       gradientUnits="userSpaceOnUse"
       gradientTransform="matrix(1,0,0,0.37902439,0,34.850364)"
       cx="40"
       cy="56.121952"
       fx="40"
       fy="56.121952"
       r="20" />
    <linearGradient
       inkscape:collect="always"
       xlink:href="#linearGradient3443-2-4"
       id="linearGradient7298"
       gradientUnits="userSpaceOnUse"
       gradientTransform="translate(-16.000001,-12)"
       x1="34"
       y1="35.5"
       x2="45.5"
       y2="47" />
    <linearGradient
       inkscape:collect="always"
       xlink:href="#linearGradient3224-1"
       id="linearGradient7302"
       gradientUnits="userSpaceOnUse"
       gradientTransform="translate(-16.000001,-12)"
       x1="26.5"
       y1="33"
       x2="45.5"
       y2="46.5" />
    <linearGradient
       inkscape:collect="always"
       xlink:href="#linearGradient3218-6"
       id="linearGradient7305"
       gradientUnits="userSpaceOnUse"
       x1="18"
       y1="34"
       x2="30"
       y2="45.5" />
    <linearGradient
       inkscape:collect="always"
       xlink:href="#linearGradient3283-6"
       id="linearGradient7308"
       gradientUnits="userSpaceOnUse"
       gradientTransform="translate(-16.000001,-12)"
       x1="40"
       y1="33"
       x2="53.5"
       y2="47" />
    <linearGradient
       inkscape:collect="always"
       xlink:href="#linearGradient3275-9"
       id="linearGradient7314"
       gradientUnits="userSpaceOnUse"
       gradientTransform="matrix(3.7142857,0,0,3.2499999,-29.928573,21.5)"
       x1="8.8653851"
       y1="-0.15384616"
       x2="14.384616"
       y2="7.8461542" />
    <linearGradient
       inkscape:collect="always"
       xlink:href="#linearGradient3215-8"
       id="linearGradient7317"
       gradientUnits="userSpaceOnUse"
       gradientTransform="matrix(3.7142857,0,0,3.2500001,-14.928571,21.5)"
       x1="12.5"
       y1="4"
       x2="15.14168"
       y2="6.2963643" />
    <linearGradient
       inkscape:collect="always"
       xlink:href="#linearGradient4582"
       id="linearGradient7320"
       gradientUnits="userSpaceOnUse"
       x1="11"
       y1="8.5"
       x2="36.5"
       y2="21" />
  </defs>
  <sodipodi:namedview
     id="base"
     pagecolor="#ffffff"
     bordercolor="#666666"
     borderopacity="1.0"
     inkscape:pageopacity="0.0"
     inkscape:pageshadow="2"
     inkscape:zoom="9.7127269"
     inkscape:cx="21.419548"
     inkscape:cy="23.329137"
     inkscape:document-units="px"
     inkscape:current-layer="layer1"
     showgrid="true"
     fit-margin-top="0"
     fit-margin-left="0"
     fit-margin-right="0"
     fit-margin-bottom="0"
     inkscape:window-width="1920"
     inkscape:window-height="1022"
     inkscape:window-x="0"
     inkscape:window-y="0"
     inkscape:window-maximized="1"
     showguides="true"
     inkscape:snap-global="true"
     inkscape:guide-bbox="true"
     borderlayer="true"
     inkscape:showpageshadow="true"
     objecttolerance="20"
     gridtolerance="10">
    <inkscape:grid
       type="xygrid"
       id="grid2994"
       empspacing="5"
       visible="true"
       enabled="true"
       snapvisiblegridlinesonly="true"
       originx="-16px"
       originy="-16px"
       dotted="false"
       color="#0000ff"
       opacity="0.0627451"
       empcolor="#0000ff"
       empopacity="0.0627451" />
    <inkscape:grid
       type="xygrid"
       id="grid3915"
       empspacing="800"
       visible="true"
       enabled="true"
       snapvisiblegridlinesonly="true"
       dotted="true"
       originx="-16.5px"
       color="#fc01ff"
       opacity="0.0745098"
       empcolor="#fc01ff"
       empopacity="0.31764706"
       originy="-15.5px" />
  </sodipodi:namedview>
  <metadata
     id="metadata2990">
    <rdf:RDF>
      <cc:Work
         rdf:about="">
        <dc:format>image/svg+xml</dc:format>
        <dc:type
           rdf:resource="http://purl.org/dc/dcmitype/StillImage" />
        <dc:title>Icon for &quot;colour&quot; or &quot;RGB colour&quot;</dc:title>
        <dc:creator>
          <cc:Agent>
            <dc:title>Andrew Chadwick</dc:title>
          </cc:Agent>
        </dc:creator>
        <cc:license
           rdf:resource="http://creativecommons.org/licenses/publicdomain/" />
        <dc:contributor>
          <cc:Agent>
            <dc:title>maxim2 (inspiration for original icon)</dc:title>
          </cc:Agent>
        </dc:contributor>
        <dc:date>2012-06-03</dc:date>
      </cc:Work>
      <cc:License
         rdf:about="http://creativecommons.org/licenses/publicdomain/">
        <cc:permits
           rdf:resource="http://creativecommons.org/ns#Reproduction" />
        <cc:permits
           rdf:resource="http://creativecommons.org/ns#Distribution" />
        <cc:permits
           rdf:resource="http://creativecommons.org/ns#DerivativeWorks" />
      </cc:License>
    </rdf:RDF>
  </metadata>
  <g
     id="layer1"
     inkscape:label="Layer 1"
     inkscape:groupmode="layer"
     transform="translate(0,-4)"
     style="display:inline">
    <g
       id="g7342">
      <path
         transform="matrix(1,0,0,0.98938224,-16,-11.026062)"
         d="m 60,56.121952 c 0,4.186588 -8.954305,7.580488 -20,7.580488 -11.045695,0 -20,-3.3939 -20,-7.580488 0,-4.186588 8.954305,-7.580488 20,-7.580488 11.045695,0 20,3.3939 20,7.580488 z"
         sodipodi:ry="7.5804877"
         sodipodi:rx="20"
         sodipodi:cy="56.121952"
         sodipodi:cx="40"
         id="path5832"
         style="opacity:0.5;color:#000000;fill:url(#radialGradient7281);fill-opacity:1;fill-rule:nonzero;stroke:none;stroke-width:1;marker:none;visibility:visible;display:inline;overflow:visible;enable-background:accumulate"
         sodipodi:type="arc" />
      <g
         id="g7326">
        <path
           sodipodi:type="arc"
           style="color:#000000;fill:#0000a0;fill-opacity:1;fill-rule:nonzero;stroke:none;stroke-width:0;marker:none;visibility:visible;display:inline;overflow:visible;enable-background:accumulate"
           id="path4101-0"
           sodipodi:cx="40"
           sodipodi:cy="33.5"
           sodipodi:rx="14"
           sodipodi:ry="14"
           d="m 54,33.5 c 0,7.731986 -6.268014,14 -14,14 -7.731986,0 -14,-6.268014 -14,-14 0,-7.731986 6.268014,-14 14,-14 7.731986,0 14,6.268014 14,14 z"
           transform="matrix(1.0357143,0,0,1.0357142,-24.928575,-0.1964271)" />
        <path
           sodipodi:type="arc"
           style="color:#000000;fill:#008100;fill-opacity:1;fill-rule:nonzero;stroke:none;stroke-width:0;marker:none;visibility:visible;display:inline;overflow:visible;enable-background:accumulate"
           id="path4101-4"
           sodipodi:cx="40"
           sodipodi:cy="33.5"
           sodipodi:rx="14"
           sodipodi:ry="14"
           d="m 54,33.5 c 0,7.731986 -6.268014,14 -14,14 -7.731986,0 -14,-6.268014 -14,-14 0,-7.731986 6.268014,-14 14,-14 7.731986,0 14,6.268014 14,14 z"
           transform="matrix(1.0357143,0,0,1.0357143,-9.9285746,-0.1964299)" />
        <path
           sodipodi:type="arc"
           style="color:#000000;fill:#a00000;fill-opacity:1;fill-rule:nonzero;stroke:none;stroke-width:0;marker:none;visibility:visible;display:inline;overflow:visible;enable-background:accumulate"
           id="path4101"
           sodipodi:cx="40"
           sodipodi:cy="33.5"
           sodipodi:rx="14"
           sodipodi:ry="14"
           d="m 54,33.5 c 0,7.731986 -6.268014,14 -14,14 -7.731986,0 -14,-6.268014 -14,-14 0,-7.731986 6.268014,-14 14,-14 7.731986,0 14,6.268014 14,14 z"
           transform="matrix(1.0357143,0,0,1.0357143,-17.428572,-13.196429)" />
        <path
           style="fill:url(#linearGradient7320);fill-opacity:1;fill-rule:nonzero;stroke:#ff8282;stroke-opacity:1;display:inline"
           id="path3215-6"
           d="m 36.999999,21.494351 a 13,12.994561 0 0 1 -26,0 13,12.994561 0 1 1 26,0 z"
           inkscape:connector-curvature="0" />
        <path
           style="fill:url(#linearGradient7317);fill-opacity:1;fill-rule:nonzero;stroke:#82ff82;stroke-opacity:1;display:inline"
           id="path3223-4"
           d="m 44.499999,34.5 a 13,13 0 0 1 -26,0 13,13 0 1 1 26,0 z"
           inkscape:connector-curvature="0" />
        <path
           style="fill:url(#linearGradient7314);fill-opacity:1;fill-rule:nonzero;stroke:#8282ff;stroke-opacity:1;display:inline"
           id="path3219-5"
           d="m 29.499998,34.5 a 13,13 0 0 1 -25.999999,0 13,13 0 1 1 26,0 z"
           inkscape:connector-curvature="0" />
        <path
           style="color:#000000;fill:#9f00a0;fill-opacity:1;fill-rule:nonzero;stroke:none;stroke-width:0;marker:none;visibility:visible;display:inline;overflow:visible;enable-background:accumulate"
           d="m 16.499999,20 c -2.543129,0 -4.922052,0.662446 -7,1.8125 0.169191,7.861247 6.59817,14.1875 14.5,14.1875 2.543129,0 4.922052,-0.662446 7,-1.8125 C 30.830808,26.326253 24.401829,20 16.499999,20 z"
           id="path4101-03"
           inkscape:connector-curvature="0" />
        <path
           style="color:#000000;fill:#a0a000;fill-opacity:1;fill-rule:nonzero;stroke:none;stroke-width:0;marker:none;visibility:visible;display:inline;overflow:visible;enable-background:accumulate"
           d="m 31.499999,20 c -7.90183,0 -14.330809,6.326253 -14.5,14.1875 2.077948,1.150054 4.456871,1.8125 7,1.8125 7.90183,0 14.330809,-6.326253 14.5,-14.1875 C 36.422051,20.662446 34.043128,20 31.499999,20 z"
           id="path4101-3"
           inkscape:connector-curvature="0" />
        <path
           style="color:#000000;fill:#008383;fill-opacity:1;fill-rule:nonzero;stroke:none;stroke-width:0;marker:none;visibility:visible;display:inline;overflow:visible;enable-background:accumulate"
           d="m 23.999999,22.125 c -4.181541,2.543988 -7,7.122583 -7,12.375 0,5.252417 2.818459,9.831012 7,12.375 4.181541,-2.543987 7,-7.122583 7,-12.375 0,-5.252417 -2.818459,-9.831013 -7,-12.375 z"
           id="path4101-4-7"
           inkscape:connector-curvature="0" />
        <path
           style="color:#000000;fill:url(#linearGradient7308);fill-opacity:1;fill-rule:nonzero;stroke:#ffffa0;stroke-opacity:1;marker:none;visibility:visible;display:inline;overflow:visible;enable-background:accumulate"
           d="m 31.874999,21.5 a 13,13 0 0 0 -13.3125,11.78125 13,12.994561 0 0 0 18.375,-10.5625 13,13 0 0 0 -5.0625,-1.21875 z"
           id="path3215-6-88"
           inkscape:connector-curvature="0" />
        <path
           style="color:#000000;fill:url(#linearGradient7305);fill-opacity:1;fill-rule:nonzero;stroke:#a1ffff;stroke-opacity:1;marker:none;visibility:visible;display:inline;overflow:visible;enable-background:accumulate"
           d="m 23.999999,23.90625 a 13,13 0 0 0 -5.5,10.59375 13,13 0 0 0 5.5,10.59375 13,13 0 0 0 5.5,-10.59375 13,13 0 0 0 -5.5,-10.59375 z"
           id="path3223-4-1"
           inkscape:connector-curvature="0" />
        <path
           style="color:#000000;fill:url(#linearGradient7302);fill-opacity:1;fill-rule:nonzero;stroke:#ff82ff;stroke-opacity:1;marker:none;visibility:visible;display:inline;overflow:visible;enable-background:accumulate"
           d="m 16.874999,21.5 a 13,13 0 0 0 -5.8125,1.1875 13,12.994561 0 0 0 18.375,10.59375 A 13,13 0 0 0 16.874999,21.5 z"
           id="path3215-6-89"
           inkscape:connector-curvature="0" />
        <path
           style="color:#000000;fill:#a0a0a0;fill-opacity:1;fill-rule:nonzero;stroke:none;stroke-width:0;marker:none;visibility:visible;display:inline;overflow:visible;enable-background:accumulate"
           d="m 23.999999,22.125 c -4.096915,2.492502 -6.889813,6.942812 -7,12.0625 2.077948,1.150054 4.456871,1.8125 7,1.8125 2.543129,0 4.922052,-0.662446 7,-1.8125 -0.110187,-5.119688 -2.903085,-9.569998 -7,-12.0625 z"
           id="path4101-0-6"
           inkscape:connector-curvature="0" />
        <path
           style="color:#000000;fill:url(#linearGradient7298);fill-opacity:1;fill-rule:nonzero;stroke:#ffffff;stroke-width:1;stroke-opacity:1;marker:none;visibility:visible;display:inline;overflow:visible;enable-background:accumulate"
           d="m 23.999999,23.90625 a 13,13 0 0 0 -5.4375,9.375 13,12.994561 0 0 0 10.875,0 13,13 0 0 0 -5.4375,-9.375 z"
           id="path3215-6-2"
           inkscape:connector-curvature="0" />
      </g>
    </g>
  </g>
</svg>
