<?xml version="1.0" encoding="UTF-8"?>
<svg width="16" height="16" version="1.1" xmlns="http://www.w3.org/2000/svg"><g transform="translate(-496 -652.36)"><path transform="translate(416,-280)" d="m94 937.93c0.0061-0.26405-0.09754-0.52895-0.28125-0.71873l-3.5625-3.5624c-0.18978-0.18369-0.45469-0.28736-0.71875-0.28124h-6.4375c-0.03123-1e-3 -0.06252-1e-3 -0.09375 0-0.03123-1e-3 -0.06252-1e-3 -0.09375 0-0.4584 0.0875-0.82072 0.53338-0.8125 0.99996v12.999c5.2e-5 0.52356 0.47642 0.99991 1 0.99996h10c0.52358-5e-5 0.99995-0.4764 1-0.99996zm-2 8.4372h-8v-11h5v2.9999h3z" fill="#bebebe"/></g></svg>
