<?xml version="1.0" encoding="UTF-8" standalone="no"?>
<svg id="svg1" xmlns="http://www.w3.org/2000/svg" version="1.1" xmlns:dc="http://purl.org/dc/elements/1.1/" height="24" width="24.027" xmlns:rdf="http://www.w3.org/1999/02/22-rdf-syntax-ns#" xmlns:ns4="http://creativecommons.org/ns#">
 <title id="title13694">MyPaint symbolic icons</title>
 <metadata id="metadata7">
  <rdf:RDF>
   <ns4:Work rdf:about="">
    <dc:format>image/svg+xml</dc:format>
    <dc:type rdf:resource="http://purl.org/dc/dcmitype/StillImage"/>
    <dc:title>MyPaint symbolic icons</dc:title>
    <ns4:license rdf:resource=""/>
    <dc:creator>
     <ns4:Agent>
      <dc:title>GNOME Project</dc:title>
     </ns4:Agent>
    </dc:creator>
    <dc:contributor>
     <ns4:Agent>
      <dc:title>Andrew Chadwick</dc:title>
     </ns4:Agent>
    </dc:contributor>
   </ns4:Work>
  </rdf:RDF>
 </metadata>
 <g id="layer1" transform="translate(-527.97 -852.36)">
  <g id="layer2" opacity=".5" transform="translate(229.28 556.07)" display="none" fill="#859f46">
   <rect id="48x48" style="color:#000000" height="48" width="48" display="inline" y="4.25" x="-2.25"/>
   <rect id="32x32" style="color:#000000" height="32" width="32" display="inline" y="20.25" x="53.75"/>
   <rect id="24x24" style="color:#000000" height="24" width="24" display="inline" y="28.25" x="93.75"/>
   <rect id="22x22" style="color:#000000" height="22" width="22" display="inline" y="30.25" x="125.75"/>
   <rect id="16x16" style="color:#000000" height="16" width="16" display="inline" y="36.25" x="155.75"/>
  </g>
  <path id="path4640-8-7" style="color:#000000;text-indent:0;block-progression:tb;text-decoration-line:none;text-transform:none" font-family="Sans" d="m535.48 853.42c-3.5729 0-6.4904 2.9142-6.4904 6.4829s2.9176 6.4829 6.4904 6.4829c3.5729 0 6.4904-2.9142 6.4904-6.4829s-2.9176-6.4829-6.4904-6.4829zm0 1.997c2.4922 0 4.4912 1.9966 4.4912 4.4859 0 2.4894-1.9989 4.4859-4.4912 4.4859-2.4922 0-4.4911-1.9966-4.4911-4.4859 0-2.4894 1.9989-4.4859 4.4911-4.4859z" line-height="normal" fill="#bebebe"/>
  <path id="path4644-5-3" style="enable-background:new;color:#000000;text-indent:0;block-progression:tb;text-decoration-line:none;text-transform:none" font-family="Sans" d="m538.41 859.34a0.50306 0.50389 0 1 0 0.12479 1h3.931a0.49923 0.50005 0 1 0 0 -1h-3.931a0.49923 0.50005 0 0 0 -0.12479 0z" line-height="normal" fill="#bebebe"/>
  <path id="path5416-3-7" style="enable-background:new;color:#000000;text-indent:0;block-progression:tb;text-decoration-line:none;text-transform:none" font-family="Sans" d="m528.43 859.37a0.50136 0.50219 0 1 0 0.0935 1h3.9622a0.49923 0.50005 0 1 0 0 -1h-3.9622a0.49923 0.50005 0 0 0 -0.0935 0z" line-height="normal" fill="#bebebe"/>
  <path id="path5420-4-7" style="enable-background:new;color:#000000;text-indent:0;block-progression:tb;text-decoration-line:none;text-transform:none" font-family="Sans" d="m535.39 852.37a0.49923 0.50005 0 0 0 -0.40558 0.5v4.0312a0.49923 0.50005 0 1 0 0.99835 0v-4.0312a0.49923 0.50005 0 0 0 -0.59277 -0.5z" line-height="normal" fill="#bebebe"/>
  <path id="path5422-4-7" style="enable-background:new;color:#000000;text-indent:0;block-progression:tb;text-decoration-line:none;text-transform:none" font-family="Sans" d="m535.42 862.4a0.49923 0.50005 0 0 0 -0.43678 0.53125v3.9375a0.49923 0.50005 0 1 0 0.99835 0v-3.9375a0.49923 0.50005 0 0 0 -0.56157 -0.53125z" line-height="normal" fill="#bebebe"/>
  <ellipse id="path5428-8-0" style="color:#000000;enable-background:new" rx="1.4975" ry="1.5" cy="859.87" cx="535.48" fill="#bebebe"/>
  <path id="path4760-2-9-1-9" style="color:#000000" d="m545 852.36v9.5l4.5 1 2.5-7.5c-3 0-2-3-7-3z" fill="#bebebe"/>
  <path id="path5783-3-4-1-6" style="color:#000000" d="m545.38 863.39c-1.441 0.10183-2.8171 0.90481-3.5938 2.25-0.59457 1.0298-0.71887 2.1766-0.46875 3.25 0.26335 1.1302 1.3274 2.9602-0.625 6.5938-0.0107 0.009-0.0213 0.0213-0.0312 0.0312-0.0905 0.0905-0.15625 0.20568-0.15625 0.34375 0 0.27614 0.22386 0.5 0.5 0.5 2.272-1.0891 4.9318-2.186 6.6875-3.9062 0.83697-0.84185 1.5442-1.6854 1.9062-2.3125 1.2426-2.1523 0.49607-4.9136-1.6562-6.1562-0.80712-0.46599-1.6979-0.65485-2.5625-0.59375z" fill="#bebebe"/>
 </g>
</svg>
