<?xml version="1.0" encoding="UTF-8"?>
<svg width="24" height="24" version="1.1" xmlns="http://www.w3.org/2000/svg"><g transform="translate(-280 -516.36)" fill="#bebebe"><rect transform="matrix(1.5 0 0 1.5 76 -486.18)" x="136.67" y="682.36" width="14.667" height="1.3333" rx="0" ry=".4714"/><path transform="matrix(1.5 0 0 1.5 76 -486.18)" d="m141.83 668.36 0.83334 3.3333h3.3333l0.66667-3.3333z"/><path transform="matrix(1.5 0 0 1.5 76 -486.18)" d="m147.33 675.36c0 0.48277-0.11403 1.1936-0.31664 1.9586-0.49272 1.8605-2.0167 4.3747-3.0167 4.3747 0-3-1.3096-3.6987-1.857-4.2833-0.5022-0.53635-0.80969-1.2573-0.80969-2.05 0-1.6568 1.3432-3 3-3s3 1.3432 3 3z"/></g></svg>
