<?xml version="1.0" encoding="UTF-8"?>
<svg width="24" height="24" fill="#bebebe" version="1.1" xmlns="http://www.w3.org/2000/svg"><path d="m3 0v0.5c6.75 2.19-0.98 11.46 0.9 19 2.1 8.5 6.28 2 6.28 2s-0.18-2.5-0.42-1.5c0 0-2.76 4-3.76-1-1.68-8.38 12.6-19-3-19zm14 0v7.5l4.5 1 2.5-5.5c-3 0-2-3-7-3zm0.38 9.03c-1.45 0.1-2.82 0.91-3.6 2.25-0.59 1.03-0.72 2.18-0.47 3.25 0.27 1.13 1.33 2.97-0.62 6.59-0.01 0.01-0.02 0.03-0.03 0.04-0.09 0.09-0.16 0.2-0.16 0.34 0 0.28 0.22 0.5 0.5 0.5 2.27-1.09 4.93-2.19 6.69-3.9 0.83-0.85 1.54-1.7 1.91-2.32 1.24-2.15 0.49-4.91-1.66-6.16-0.81-0.46-1.7-0.65-2.56-0.59z"/></svg>
