<?xml version="1.0" encoding="UTF-8"?>
<svg width="24" height="24" version="1.1" xmlns="http://www.w3.org/2000/svg"><g transform="translate(-280 -580.36)" fill="#bebebe"><path transform="translate(112,-184)" d="m190 765.36c-10.493 0-19 8.5066-19 19h2c0-9.3888 7.6112-17 17-17z"/><path transform="translate(112,-184)" d="m190 773.36c-6.0678 0-11 4.9322-11 11h2c0-4.9631 4.0369-9 9-9z"/><rect transform="translate(112,-184)" x="169" y="785.36" width="22" height="2" rx="0"/><path transform="translate(112,-184)" d="m190 768.36c-8.8366 0-16 7.1634-16 16h4c0-6.6274 5.3726-12 12-12z"/></g></svg>
