<?xml version="1.0" encoding="UTF-8" standalone="no"?>
<svg id="svg1" xmlns:rdf="http://www.w3.org/1999/02/22-rdf-syntax-ns#" xmlns="http://www.w3.org/2000/svg" height="24" width="24" version="1.1" xmlns:cc="http://creativecommons.org/ns#" xmlns:dc="http://purl.org/dc/elements/1.1/">
 <title id="title13694">MyPaint symbolic icons</title>
 <metadata id="metadata7">
  <rdf:RDF>
   <cc:Work rdf:about="">
    <dc:format>image/svg+xml</dc:format>
    <dc:type rdf:resource="http://purl.org/dc/dcmitype/StillImage"/>
    <dc:title>MyPaint symbolic icons</dc:title>
    <cc:license rdf:resource=""/>
    <dc:creator>
     <cc:Agent>
      <dc:title>GNOME Project</dc:title>
     </cc:Agent>
    </dc:creator>
    <dc:contributor>
     <cc:Agent>
      <dc:title>Andrew Chadwick</dc:title>
     </cc:Agent>
    </dc:contributor>
   </cc:Work>
  </rdf:RDF>
 </metadata>
 <g id="layer2" opacity=".5" transform="translate(189.28,-120.29)" display="none" fill="#859f46">
  <rect id="48x48" style="color:#000000" height="48" width="48" y="4.25" x="-2.25" display="inline"/>
  <rect id="32x32" style="color:#000000" height="32" width="32" y="20.25" x="53.75" display="inline"/>
  <rect id="24x24" style="color:#000000" height="24" width="24" y="28.25" x="93.75" display="inline"/>
  <rect id="22x22" style="color:#000000" height="22" width="22" y="30.25" x="125.75" display="inline"/>
  <rect id="16x16" style="color:#000000" height="16" width="16" y="36.25" x="155.75" display="inline"/>
 </g>
 <path id="path4760-2-9" style="color:#000000" fill="#bebebe" d="m17 0 0.000015 7.5 4.5 1 2.5-5.5c-3 0-2-3-7-3z"/>
 <path id="path5783-3-4" style="color:#000000" fill="#bebebe" d="m17.375 9.03c-1.441 0.10183-2.8171 0.90481-3.5938 2.25-0.59458 1.0298-0.71888 2.1766-0.46875 3.25 0.26334 1.1302 1.3275 2.9602-0.625 6.5938-0.01073 0.009-0.02132 0.0213-0.03125 0.0312-0.09048 0.0905-0.15625 0.20568-0.15625 0.34375 0 0.27614 0.22386 0.5 0.5 0.5 2.2719-1.0891 4.9318-2.186 6.6875-3.9062 0.83697-0.84185 1.5442-1.6854 1.9062-2.3125 1.2426-2.1523 0.49606-4.9136-1.6562-6.1562-0.808-0.4662-1.698-0.6551-2.563-0.594z"/>
 <path id="path12296" fill="#bebebe" d="m3 0v0.5c6.7457 2.1875-0.97743 11.462 0.89195 19 2.108 8.5 6.286 2 6.286 2s-0.1779-2.5-0.42161-1.5c0 0-2.7563 4-3.7563-1-1.6756-8.3781 12.6-19-3-19z"/>
</svg>
