<?xml version="1.0" encoding="UTF-8" standalone="no"?>
<svg id="svg1" xmlns="http://www.w3.org/2000/svg" version="1.1" xmlns:xlink="http://www.w3.org/1999/xlink" xmlns:dc="http://purl.org/dc/elements/1.1/" height="24" width="24" xmlns:rdf="http://www.w3.org/1999/02/22-rdf-syntax-ns#" xmlns:ns4="http://creativecommons.org/ns#">
 <title id="title13694">MyPaint symbolic icons</title>
 <metadata id="metadata7">
  <rdf:RDF>
   <ns4:Work rdf:about="">
    <dc:format>image/svg+xml</dc:format>
    <dc:type rdf:resource="http://purl.org/dc/dcmitype/StillImage"/>
    <dc:title>MyPaint symbolic icons</dc:title>
    <ns4:license rdf:resource=""/>
    <dc:creator>
     <ns4:Agent>
      <dc:title>GNOME Project</dc:title>
     </ns4:Agent>
    </dc:creator>
    <dc:contributor>
     <ns4:Agent>
      <dc:title>Andrew Chadwick</dc:title>
     </ns4:Agent>
    </dc:contributor>
   </ns4:Work>
  </rdf:RDF>
 </metadata>
 <g id="layer1" transform="translate(-120 -612.36)">
  <g id="layer2" opacity=".5" transform="translate(229.28 556.07)" display="none" fill="#859f46">
   <rect id="48x48" style="color:#000000" height="48" width="48" display="inline" y="4.25" x="-2.25"/>
   <rect id="32x32" style="color:#000000" height="32" width="32" display="inline" y="20.25" x="53.75"/>
   <rect id="24x24" style="color:#000000" height="24" width="24" display="inline" y="28.25" x="93.75"/>
   <rect id="22x22" style="color:#000000" height="22" width="22" display="inline" y="30.25" x="125.75"/>
   <rect id="16x16" style="color:#000000" height="16" width="16" display="inline" y="36.25" x="155.75"/>
  </g>
  <rect id="use4931-99-3" style="color:#000000" fill-opacity=".3" transform="translate(80 296)" height="24" width="24" y="316.36" x="40" fill="#606060"/>
  <use id="use3928" transform="matrix(1 0 0 -1 0 1248.7)" height="600" width="800" xlink:href="#path3924" y="0" x="0"/>
  <path id="path3924" fill="#bebebe" d="m132.5 614.36h-3.5c-1 0-1 1-2 1h-2c-1 0-1-1-2-1h-1c-1 0-2 1-2 2v1c0 1 1 1 1 2v1c0 1-1 1-1 2v2.5h4v-6.5h8.5z"/>
  <use id="use3926" transform="matrix(-1,0,0,1,264,4e-6)" height="600" width="800" xlink:href="#path3924" y="0" x="0"/>
  <use id="use3930" transform="rotate(180 132 624.36)" height="600" width="800" xlink:href="#path3924" y="0" x="0"/>
 </g>
</svg>
