<?xml version="1.0" encoding="UTF-8"?>
<svg width="24" height="24" version="1.1" xmlns="http://www.w3.org/2000/svg"><g transform="translate(-624 -772.36)" fill="#bebebe"><path transform="translate(584 96)" d="m57 676.36 1.5e-5 7.5 4.5 1 2.5-5.5c-3 0-2-3-7-3z"/><path transform="translate(584 96)" d="m57.375 685.39c-1.441 0.10183-2.8171 0.90481-3.5938 2.25-0.59458 1.0298-0.71888 2.1766-0.46875 3.25 0.26334 1.1302 1.3275 2.9602-0.625 6.5938-0.01073 9e-3 -0.02132 0.0213-0.03125 0.0312-0.09048 0.0905-0.15625 0.20568-0.15625 0.34375 0 0.27614 0.22386 0.5 0.5 0.5 2.2719-1.0891 4.9318-2.186 6.6875-3.9062 0.83697-0.84185 1.5442-1.6854 1.9062-2.3125 1.2426-2.1523 0.49606-4.9136-1.6562-6.1562-0.80712-0.46599-1.6979-0.65485-2.5625-0.59375z"/><path transform="translate(584 96)" d="m43 676.36v0.5c6.7457 2.1875-0.97743 11.462 0.89195 19 2.108 8.5 6.286 2 6.286 2s-0.1779-2.5-0.42161-1.5c0 0-2.7563 4-3.7563-1-1.6756-8.3781 12.6-19-3-19z"/></g></svg>
