<?xml version="1.0" encoding="UTF-8"?>
<svg width="24" height="24" version="1.1" xmlns="http://www.w3.org/2000/svg" xmlns:xlink="http://www.w3.org/1999/xlink"><g transform="translate(-120 -612.36)"><use transform="matrix(1 0 0 -1 1e-6 1248.7)" width="800" height="600" style="" xlink:href="#a"/><path id="a" transform="translate(-15.984 71.982)" d="m148.48 542.38h-3.5c-1 0-1 1-2 1h-2c-1 0-1-1-2-1h-1c-1 0-2 1-2 2v1c0 1 1 1 1 2v1c0 1-1 1-1 2v2.5h4v-6.5h8.5z" fill="#bebebe"/><use transform="matrix(-1,0,0,1,264,0)" width="800" height="600" style="" xlink:href="#a"/><use transform="rotate(180 132 624.36)" width="800" height="600" style="" xlink:href="#a"/></g></svg>
