<?xml version="1.0" encoding="UTF-8" standalone="no"?>
<svg
   xmlns:dc="http://purl.org/dc/elements/1.1/"
   xmlns:cc="http://creativecommons.org/ns#"
   xmlns:rdf="http://www.w3.org/1999/02/22-rdf-syntax-ns#"
   xmlns:svg="http://www.w3.org/2000/svg"
   xmlns="http://www.w3.org/2000/svg"
   xmlns:sodipodi="http://sodipodi.sourceforge.net/DTD/sodipodi-0.dtd"
   xmlns:inkscape="http://www.inkscape.org/namespaces/inkscape"
   id="svg1"
   version="1.1"
   height="24"
   width="24"
   inkscape:version="0.91 r13725">
  <g
     style="display:none;opacity:0.5;fill:#859f46"
     display="none"
     transform="translate(109.28,-376.29)"
     id="layer2">
    <rect
       x="-2.25"
       y="4.25"
       display="inline"
       width="48"
       height="48"
       style="color:#000000;display:inline"
       id="48x48" />
    <rect
       x="53.75"
       y="20.25"
       display="inline"
       width="32"
       height="32"
       style="color:#000000;display:inline"
       id="32x32" />
    <rect
       x="93.75"
       y="28.25"
       display="inline"
       width="24"
       height="24"
       style="color:#000000;display:inline"
       id="24x24" />
    <rect
       x="125.75"
       y="30.25"
       display="inline"
       width="22"
       height="22"
       style="color:#000000;display:inline"
       id="22x22" />
    <rect
       x="155.75"
       y="36.25"
       display="inline"
       width="16"
       height="16"
       style="color:#000000;display:inline"
       id="16x16" />
  </g>
  <rect
     x="3"
     y="2"
     width="4"
     height="9"
     style="color:#000000;opacity:0.33300003;isolation:auto;mix-blend-mode:normal;solid-color:#000000;fill:#bebebe;fill-rule:evenodd;color-rendering:auto;image-rendering:auto;shape-rendering:auto;text-rendering:auto"
     id="rect5174-2" />
  <rect
     x="17"
     y="13"
     width="4"
     height="9"
     style="color:#000000;opacity:0.33300003;isolation:auto;mix-blend-mode:normal;solid-color:#000000;fill:#bebebe;fill-rule:evenodd;color-rendering:auto;image-rendering:auto;shape-rendering:auto;text-rendering:auto"
     id="rect5176-9" />
  <path
     inkscape:connector-curvature="0"
     d="m 13.99,6.58 -4.4855,-4.5755 -1.5,0 0,1.5 3,3 -3,3 0,1.5 1.5,0 z"
     style="color:#000000;fill:#bebebe;fill-rule:evenodd"
     id="path3955-75-5-3-1" />
  <path
     inkscape:connector-curvature="0"
     d="m 10.01,17.58 4.4855,-4.5755 1.5,0 0,1.5 -3,3 3,3 0,1.5 -1.5,0 z"
     style="color:#000000;fill:#bebebe;fill-rule:evenodd"
     id="path3955-75-5-3-1-2" />
</svg>
