<?xml version="1.0" encoding="UTF-8"?>
<svg width="24" height="24" fill="#bebebe" version="1.1" xmlns="http://www.w3.org/2000/svg"><path d="m0 0v0.5c6.5 2-1 11.5 1 19 2 8.5 6 2 6 2s0-2-0.5-1.5c0 0-2.5 4-3.5-1-1.5-8.5 12.6-19-3-19zm20.5 0-1.54 1.98 5.04 5.52v-3.5zm-2.54 3.08-1 1.09c-1.01 1.09-1.04 1.09-4.08 2.18-4.06 4.37-4.04 8.75-4.04 8.75l-1 1.09s-1.34 1.31 0 2.18l6.18-6.65c-0.4-0.86-0.29-1.94 0.38-2.66 0.83-0.9 2.2-0.9 3.04 0 0.83 0.9 0.84 2.37 0 3.28-0.67 0.71-1.94 0.66-2.43 0.43l-6.17 6.7c1.16 1.04 2.04 0 2.04 0l1-1.09s4.07 0 8.12-4.37c1.01-3.27 0.98-3.28 2-4.37l1.04-1.09z"/></svg>
