<?xml version="1.0" encoding="UTF-8"?>
<svg width="24" height="24" version="1.1" xmlns="http://www.w3.org/2000/svg"><g transform="translate(-624 -740.36)"><g transform="translate(584 64)" fill="#bebebe" style=""><path transform="translate(40 676.36)" d="m1 22 4-4h18l-4 4z"/><path transform="translate(40 676.36)" d="M 7.5,2 C 5.5729,2 4,3.573 4,5.5 4,7.4271 5.5729,9 7.5,9 9.4271,9 11,7.4271 11,5.5 11,3.573 9.4271,2 7.5,2 Z m 0,1 C 8.8866,3 10,4.1134 10,5.5 10,6.8867 8.8866,8 7.5,8 6.1134,8 5,6.8867 5,5.5 5,4.1134 6.1134,3 7.5,3 Z" line-height="normal"/><circle transform="translate(40 676.36)" cx="11.5" cy="12.5" r="2"/><circle transform="translate(40 676.36)" cx="3.5" cy="12.5" r="2" opacity=".3"/><path transform="translate(40 676.36)" d="m3.5 9c-1.9271 0-3.4961 1.573-3.4961 3.5 0 1.9271 1.569 3.5 3.4961 3.5s3.5-1.5729 3.5-3.5c0-1.927-1.5729-3.5-3.5-3.5zm0 1c1.3866 0 2.5 1.1134 2.5 2.5 0 1.3867-1.1134 2.5-2.5 2.5s-2.5-1.1133-2.5-2.5c0-1.3866 1.1134-2.5 2.5-2.5z"/><path transform="translate(40 676.36)" d="m11.5 9c-1.9271 0-3.5 1.573-3.5 3.5 0 1.9271 1.5729 3.5 3.5 3.5s3.5-1.5729 3.5-3.5c0-1.927-1.5729-3.5-3.5-3.5zm0 1c1.3866 0 2.5 1.1134 2.5 2.5 0 1.3867-1.1134 2.5-2.5 2.5s-2.5-1.1133-2.5-2.5c0-1.3866 1.1134-2.5 2.5-2.5z" line-height="normal"/><path transform="translate(40 676.36)" d="M 23.5,1 22,7 18,6 V -1e-4 C 21.5,0 20,1 23.5,1 Z"/><path transform="translate(40 676.36)" d="m16.344 9c-0.39641 0.6865-0.51049 1.4407-0.34375 2.1563 0.17243 0.7399 0.89298 1.6042 0.22938 2.8162s-0.72938 1.3267-0.72938 1.4648c0 0.2761 0.22386 0.5 0.5 0.5 1.4366-0.7173 3.172-1.319 4.2812-2.4063 0.55798-0.5612 1.0086-1.1132 1.25-1.5312 0.82843-1.4349 0.34112-3.2654-1.0938-4.0938-0.53808-0.3107-1.1424-0.447-1.9108-0.3925s-1.665 0.5897-2.1828 1.4865z"/></g></g></svg>
