<?xml version="1.0" encoding="UTF-8"?>
<svg width="24" height="24" version="1.1" xmlns="http://www.w3.org/2000/svg"><g transform="translate(-120 -868.36)" fill="#bebebe"><path d="m131 890.36h-6v-19h8l6 6v10.5l2 3v-14.047c-3e-3 -0.40264-0.22323-0.80128-0.51565-1.0781l-5.9531-5.9062c-0.27684-0.29241-0.67548-0.46574-1.0781-0.46875h-8.9531c-0.78537 7e-5 -1.4999 0.71463-1.5 1.5v20c8e-5 0.78538 0.71463 1.4999 1.5 1.5h7.5234z"/><path d="m133.55 880.22c-0.48729-0.0885-1.0004-0.0682-1.4911-5e-3l1.4638 2.5931c0.30132 0.53261-0.0356 1.1442-0.67533 1.5136l-1.1549 0.66676c-0.64578 0.35898-1.3652 0.31167-1.666-0.2212l-1.4635-2.5933c-0.31027 0.38426-0.59402 0.81063-0.77122 1.2715-0.84807 2.2059 0.35514 4.3376 2.6874 4.7612 0.48727 0.0886 1.0003 0.0682 1.491 5e-3 0.0395-6e-3 2.5276 4.1476 2.5276 4.1476h5l-3.9936-6.1015c0.31021-0.38426 0.55609-0.81567 0.7333-1.2766 0.84802-2.2058-0.35518-4.3375-2.6874-4.7612z"/></g></svg>
