<?xml version="1.0" encoding="UTF-8" standalone="no"?>
<svg id="svg1" xmlns="http://www.w3.org/2000/svg" version="1.1" xmlns:dc="http://purl.org/dc/elements/1.1/" height="24" width="24" xmlns:rdf="http://www.w3.org/1999/02/22-rdf-syntax-ns#" xmlns:ns3="http://www.openswatchbook.org/uri/2009/osb" xmlns:ns5="http://creativecommons.org/ns#">
 <metadata id="metadata7">
  <rdf:RDF>
   <ns5:Work rdf:about="">
    <dc:format>image/svg+xml</dc:format>
    <dc:type rdf:resource="http://purl.org/dc/dcmitype/StillImage"/>
    <dc:title/>
   </ns5:Work>
  </rdf:RDF>
 </metadata>
 <g id="layer1" transform="translate(-136 -596.36)">
  <g id="layer2" opacity=".5" transform="translate(229.28 556.07)" display="none" fill="#859f46">
   <rect id="48x48" style="color:#000000" height="48" width="48" display="inline" y="4.25" x="-2.25"/>
   <rect id="32x32" style="color:#000000" height="32" width="32" display="inline" y="20.25" x="53.75"/>
   <rect id="22x22" style="color:#000000" height="22" width="22" display="inline" y="30.25" x="125.75"/>
   <rect id="16x16" style="color:#000000" height="16" width="16" display="inline" y="36.25" x="155.75"/>
  </g>
  <path id="path22405" d="m151.92 604.45-6.3303 8.4716-2.5411 2.2328l-1.05-0.84 1.4945-3.0715 6.3303-8.4716 2.0931 1.6775z" fill-rule="evenodd" fill="#bebebe"/>
  <path id="path22407" d="m142 615.17s-2.2158 0.99996-2.1981 3.111c0.022 2.6298 3.9901 2.7576 4.115 0.42551 0.07-1.33-1.92-3.54-1.92-3.54z" fill-rule="evenodd" fill="#bebebe"/>
  <path id="path22409" d="m145.97 602.99 6.9738 5.2765 1.0567-1.3848-2.0921-1.5829c4.2056-1.1866 7.0799-6.245 4.2904-8.3556s-7.0586 1.8926-7.0799 6.2451l-2.0922-1.583-1.0567 1.3847z" fill-rule="evenodd" fill="#bebebe"/>
 </g>
</svg>
