<?xml version="1.0" encoding="UTF-8" standalone="no"?>
<svg id="svg1" xmlns="http://www.w3.org/2000/svg" version="1.1" xmlns:xlink="http://www.w3.org/1999/xlink" xmlns:dc="http://purl.org/dc/elements/1.1/" height="24" width="24" xmlns:rdf="http://www.w3.org/1999/02/22-rdf-syntax-ns#" xmlns:ns4="http://creativecommons.org/ns#">
 <title id="title13694">MyPaint symbolic icons</title>
 <metadata id="metadata7">
  <rdf:RDF>
   <ns4:Work rdf:about="">
    <dc:format>image/svg+xml</dc:format>
    <dc:type rdf:resource="http://purl.org/dc/dcmitype/StillImage"/>
    <dc:title>MyPaint symbolic icons</dc:title>
    <ns4:license rdf:resource=""/>
    <dc:creator>
     <ns4:Agent>
      <dc:title>GNOME Project</dc:title>
     </ns4:Agent>
    </dc:creator>
    <dc:contributor>
     <ns4:Agent>
      <dc:title>Andrew Chadwick</dc:title>
     </ns4:Agent>
    </dc:contributor>
   </ns4:Work>
  </rdf:RDF>
 </metadata>
 <g id="layer1" transform="translate(-360 -708.36)">
  <g id="layer2" opacity=".5" transform="translate(229.28 556.07)" display="none" fill="#859f46">
   <rect id="48x48" style="color:#000000" height="48" width="48" display="inline" y="4.25" x="-2.25"/>
   <rect id="32x32" style="color:#000000" height="32" width="32" display="inline" y="20.25" x="53.75"/>
   <rect id="24x24" style="color:#000000" height="24" width="24" display="inline" y="28.25" x="93.75"/>
   <rect id="22x22" style="color:#000000" height="22" width="22" display="inline" y="30.25" x="125.75"/>
   <rect id="16x16" style="color:#000000" height="16" width="16" display="inline" y="36.25" x="155.75"/>
  </g>
  <path id="path3955-5-1-5" style="color-rendering:auto;text-decoration-color:#000000;color:#000000;font-variant-numeric:normal;text-orientation:mixed;shape-padding:0;shape-rendering:auto;solid-color:#000000;text-decoration-line:none;text-rendering:auto;font-variant-position:normal;mix-blend-mode:normal;font-feature-settings:normal;font-variant-alternates:normal;text-indent:0;font-variant-ligatures:normal;dominant-baseline:auto;font-variant-caps:normal;image-rendering:auto;white-space:normal;text-decoration-style:solid;isolation:auto;text-transform:none" font-family="sans-serif" d="m139.98 337.35a1.0001 1.0001 0 0 0 -0.98 1.01v12a1.0001 1.0001 0 1 0 2 0v-12a1.0001 1.0001 0 0 0 -1.0156 -1.0137z" transform="translate(232,376)" line-height="normal" fill="#bebebe"/>
  <path id="path3955-5-1-0-8" style="color-rendering:auto;text-decoration-color:#000000;color:#000000;font-variant-numeric:normal;text-orientation:mixed;shape-padding:0;shape-rendering:auto;solid-color:#000000;text-decoration-line:none;text-rendering:auto;font-variant-position:normal;mix-blend-mode:normal;font-feature-settings:normal;font-variant-alternates:normal;text-indent:0;font-variant-ligatures:normal;dominant-baseline:auto;font-variant-caps:normal;image-rendering:auto;white-space:normal;text-decoration-style:solid;isolation:auto;text-transform:none" font-family="sans-serif" d="m134 343.36a1.0001 1.0001 0 1 0 0 2h12a1.0001 1.0001 0 1 0 0 -2z" transform="translate(232,376)" line-height="normal" fill="#bebebe"/>
  <path id="path3896-6-4-5-3-2" d="m130 344.36 4 4v-8z" fill="#bebebe" transform="translate(232,376)"/>
  <use id="use4724" transform="rotate(90 372 720.36)" height="600" width="800" xlink:href="#path3896-6-4-5-3-2" y="0" x="0"/>
  <use id="use4726" transform="matrix(-1,0,0,1,744,-1e-5)" height="600" width="800" xlink:href="#path3896-6-4-5-3-2" y="0" x="0"/>
  <use id="use4728" transform="rotate(-90 372 720.36)" height="600" width="800" xlink:href="#path3896-6-4-5-3-2" y="0" x="0"/>
 </g>
</svg>
