<?xml version="1.0" encoding="UTF-8"?>
<svg width="24" height="24" fill="#bebebe" version="1.1" xmlns="http://www.w3.org/2000/svg"><path d="m7.48 1.06c-3.58 0-6.48 2.91-6.48 6.48s2.9 6.49 6.48 6.49c3.57 0 6.49-2.92 6.49-6.49s-2.92-6.48-6.49-6.48zm0 2c2.49 0 4.49 1.99 4.49 4.48s-2 4.49-4.49 4.49-4.49-2-4.49-4.49 2-4.48 4.49-4.48z"/><path d="m7.4 0a0.5 0.5 0 0 0-0.42 0.5v4.04a0.5 0.5 0 1 0 1 0v-4.04a0.5 0.5 0 0 0-0.58-0.5zm3.01 6.98a0.50421 0.50421 0 1 0 0.13 1h3.92a0.5 0.5 0 1 0 0-1h-3.92a0.5 0.5 0 0 0-0.13 0zm-9.98 0.02a0.50202 0.50202 0 1 0 0.09 1h3.97a0.5 0.5 0 1 0 0-1h-3.97a0.5 0.5 0 0 0-0.09 0zm6.99 3.04a0.5 0.5 0 0 0-0.44 0.53v3.93a0.5 0.5 0 1 0 1 0v-3.93a0.5 0.5 0 0 0-0.56-0.53z"/><path d="m17 0v9.5l4.5 1 2.5-7.5c-3 0-2-3-7-3zm0.38 11.03c-1.44 0.1-2.82 0.9-3.59 2.25-0.59 1.02-0.72 2.18-0.47 3.25 0.26 1.13 1.33 2.96-0.62 6.59-0.02 0.01-0.03 0.02-0.04 0.03-0.09 0.09-0.16 0.21-0.16 0.35 0 0.27 0.23 0.5 0.5 0.5 2.28-1.1 4.94-2.19 6.7-3.9 0.83-0.85 1.54-1.7 1.9-2.32 1.24-2.15 0.5-4.91-1.66-6.16-0.8-0.46-1.69-0.65-2.56-0.59z"/><circle cx="7.5" cy="7.5" r="1.5" fill="#bebebe"/></svg>
