<?xml version="1.0" encoding="UTF-8"?>
<svg width="24" height="24" version="1.1" xmlns="http://www.w3.org/2000/svg" xmlns:xlink="http://www.w3.org/1999/xlink"><g transform="translate(-200 -932.36)"><path transform="translate(80 -1.7383e-5)" d="m125 951.36-4 4h17l4-4h-7l-2.3 1.86c-0.39029 0.3254-1.0097 0.3254-1.4 0l-2.3-1.8597z" fill="#bebebe"/><path id="a" transform="translate(80 -1.7383e-5)" d="m128 937.86 4-3.5 4 3.5v0.5h-8z" fill="#bebebe"/><rect transform="translate(80 -1.7383e-5)" x="131" y="937.36" width="2" height="12" fill="#bebebe"/><rect transform="translate(80 -1.7383e-5)" x="126" y="942.36" width="12" height="2" fill="#bebebe"/><use id="b" transform="rotate(90 212 943.36)" width="100%" height="100%" xlink:href="#a"/><use transform="matrix(-1 0 0 1 424 0)" width="100%" height="100%" xlink:href="#b"/><use transform="matrix(1 0 0 -1 0 1886.7)" width="100%" height="100%" xlink:href="#a"/></g></svg>
