<?xml version="1.0" encoding="UTF-8"?>
<svg width="24" height="24" version="1.1" xmlns="http://www.w3.org/2000/svg"><g transform="translate(-200 -548.36)"><path transform="translate(0,-32)" d="m205.5 592.36c-3.0316 0-5.5 2.4684-5.5 5.5s2.4684 5.5 5.5 5.5 5.5-2.4684 5.5-5.5-2.4684-5.5-5.5-5.5zm0 1c2.4912 0 4.5 2.0088 4.5 4.5s-2.0088 4.5-4.5 4.5-4.5-2.0088-4.5-4.5 2.0088-4.5 4.5-4.5z" fill="#bebebe"/><path transform="translate(0,-32)" d="m211.5 582.36c-3.0316 0-5.5 2.4684-5.5 5.5s2.4684 5.5 5.5 5.5 5.5-2.4684 5.5-5.5-2.4684-5.5-5.5-5.5zm0 1c2.4912 0 4.5 2.0088 4.5 4.5s-2.0088 4.5-4.5 4.5-4.5-2.0088-4.5-4.5 2.0088-4.5 4.5-4.5z" fill="#bebebe"/><path transform="translate(0,-32)" d="m217.5 592.36c-3.0316 0-5.5 2.4684-5.5 5.5s2.4684 5.5 5.5 5.5 5.5-2.4684 5.5-5.5-2.4684-5.5-5.5-5.5zm0 1c2.4912 0 4.5 2.0088 4.5 4.5s-2.0088 4.5-4.5 4.5-4.5-2.0088-4.5-4.5 2.0088-4.5 4.5-4.5z" fill="#bebebe"/><circle transform="translate(0,-32)" cx="217.5" cy="597.86" r="3.5" fill="#bebebe"/><path transform="translate(0,-32)" d="m205.5 593.86c-2.2032 0-4 1.7968-4 4s1.7968 4 4 4 4-1.7968 4-4-1.7968-4-4-4zm0 1c1.6628 0 3 1.3372 3 3s-1.3372 3-3 3-3-1.3372-3-3 1.3372-3 3-3z" opacity=".3"/></g></svg>
