<?xml version="1.0" encoding="UTF-8"?>
<svg width="24" height="24" version="1.1" xmlns="http://www.w3.org/2000/svg" xmlns:xlink="http://www.w3.org/1999/xlink"><g transform="translate(-120 -772.36)"><path id="a" transform="translate(-88 72)" d="m220 719.36c1 7e-5 1-1.4999 0.99999-2v-0.74993c1e-5 -0.74999-3e-3 -1.3406-0.29999-1.95 4.7969 4.1095 2.8 7.7 4.6437 8.7 1.1563 0.50006 2.8906-1.3217 3.6562-2.5781 1.1974-1.9649 2.2501-6.1719 0.75007-7.6719-0.75-0.75-2.8383-1.1154-4.75-1.25 1.5 2e-5 1.5 2e-5 2.4062 0 1.5938 3e-5 2.7995-0.5426 3.2938-1.5 0.50522-2.3743 1.3-7 0.6-9.625-0.0669-0.12285-0.3-0.37498-0.9-0.37504-1.4 6e-5 -1.8582 0.0951-2.8559 0.375-2.5441 0.62506-4.7089 5.5561-6.0441 8.625-0.26353 0.57895-0.53128 0.94223-0.8 1.2-0.21789-0.38728-0.7-1.2001-0.7-1.2001l-0.5 5.0001z" fill="#bebebe"/><circle transform="translate(-88 484.36)" cx="220" cy="297" r="1" fill="#bebebe"/><path transform="translate(-88 72)" d="m218.85 705.51-0.70704 0.70703c0.44108 0.44112 0.64296 0.84685 0.81641 1.3672s0.30196 1.1559 0.5625 1.9375l0.47461 1.4238 0.47461-1.4238c0.26054-0.78159 0.38905-1.4172 0.5625-1.9375s0.37533-0.92607 0.81641-1.3672l-0.70704-0.70703c-0.55892 0.55896-0.85704 1.1551-1.0586 1.7598-0.0315 0.0946-0.0595 0.20733-0.0879 0.30273-0.0284-0.0954-0.0564-0.20817-0.0879-0.30273-0.20155-0.60466-0.49967-1.2008-1.0586-1.7598z" fill="#bebebe"/><circle transform="matrix(3 0 0 3 -528.75 -97.388)" cx="219.75" cy="291.75" r=".25" fill="#bebebe"/><circle transform="matrix(3 0 0 3 -525.75 -97.388)" cx="219.75" cy="291.75" r=".25" fill="#bebebe"/><use transform="matrix(-1,0,0,1,264,7.5e-5)" width="100%" height="100%" xlink:href="#a"/></g></svg>
