<?xml version="1.0" encoding="UTF-8" standalone="no"?>
<svg id="svg1" xmlns="http://www.w3.org/2000/svg" version="1.1" xmlns:dc="http://purl.org/dc/elements/1.1/" height="24" width="24.027" xmlns:rdf="http://www.w3.org/1999/02/22-rdf-syntax-ns#" xmlns:ns4="http://creativecommons.org/ns#">
 <title id="title13694">MyPaint symbolic icons</title>
 <metadata id="metadata7">
  <rdf:RDF>
   <ns4:Work rdf:about="">
    <dc:format>image/svg+xml</dc:format>
    <dc:type rdf:resource="http://purl.org/dc/dcmitype/StillImage"/>
    <dc:title>MyPaint symbolic icons</dc:title>
    <ns4:license rdf:resource=""/>
    <dc:creator>
     <ns4:Agent>
      <dc:title>GNOME Project</dc:title>
     </ns4:Agent>
    </dc:creator>
    <dc:contributor>
     <ns4:Agent>
      <dc:title>Andrew Chadwick</dc:title>
     </ns4:Agent>
    </dc:contributor>
   </ns4:Work>
  </rdf:RDF>
 </metadata>
 <g id="layer1" transform="translate(-447.97 -812.36)">
  <g id="layer2" opacity=".5" transform="translate(229.28 556.07)" display="none" fill="#859f46">
   <rect id="48x48" style="color:#000000" height="48" width="48" display="inline" y="4.25" x="-2.25"/>
   <rect id="32x32" style="color:#000000" height="32" width="32" display="inline" y="20.25" x="53.75"/>
   <rect id="24x24" style="color:#000000" height="24" width="24" display="inline" y="28.25" x="93.75"/>
   <rect id="22x22" style="color:#000000" height="22" width="22" display="inline" y="30.25" x="125.75"/>
   <rect id="16x16" style="color:#000000" height="16" width="16" display="inline" y="36.25" x="155.75"/>
  </g>
  <path id="path4640-8" style="color:#000000;text-indent:0;block-progression:tb;text-decoration-line:none;text-transform:none" font-family="Sans" d="m455.48 813.42c-3.5729 0-6.4904 2.9142-6.4904 6.4829s2.9176 6.4829 6.4904 6.4829c3.5729 0 6.4904-2.9142 6.4904-6.4829s-2.9176-6.4829-6.4904-6.4829zm0 1.997c2.4922 0 4.4912 1.9966 4.4912 4.4859 0 2.4894-1.9989 4.4859-4.4912 4.4859-2.4922 0-4.4911-1.9966-4.4911-4.4859 0-2.4894 1.9989-4.4859 4.4911-4.4859z" line-height="normal" fill="#bebebe"/>
  <path id="path4644-5" style="enable-background:new;color:#000000;text-indent:0;block-progression:tb;text-decoration-line:none;text-transform:none" font-family="Sans" d="m458.41 819.34a0.50306 0.50389 0 1 0 0.12479 1h3.931a0.49923 0.50005 0 1 0 0 -1h-3.931a0.49923 0.50005 0 0 0 -0.12479 0z" line-height="normal" fill="#bebebe"/>
  <path id="path5416-3" style="enable-background:new;color:#000000;text-indent:0;block-progression:tb;text-decoration-line:none;text-transform:none" font-family="Sans" d="m448.43 819.37a0.50136 0.50219 0 1 0 0.0935 1h3.9622a0.49923 0.50005 0 1 0 0 -1h-3.9622a0.49923 0.50005 0 0 0 -0.0935 0z" line-height="normal" fill="#bebebe"/>
  <path id="path5420-4" style="enable-background:new;color:#000000;text-indent:0;block-progression:tb;text-decoration-line:none;text-transform:none" font-family="Sans" d="m455.39 812.37a0.49923 0.50005 0 0 0 -0.40558 0.5v4.0312a0.49923 0.50005 0 1 0 0.99835 0v-4.0312a0.49923 0.50005 0 0 0 -0.59277 -0.5z" line-height="normal" fill="#bebebe"/>
  <path id="path5422-4" style="enable-background:new;color:#000000;text-indent:0;block-progression:tb;text-decoration-line:none;text-transform:none" font-family="Sans" d="m455.42 822.4a0.49923 0.50005 0 0 0 -0.43678 0.53125v3.9375a0.49923 0.50005 0 1 0 0.99835 0v-3.9375a0.49923 0.50005 0 0 0 -0.56157 -0.53125z" line-height="normal" fill="#bebebe"/>
  <ellipse id="path5428-8" style="color:#000000;enable-background:new" rx="1.4975" ry="1.5" cy="819.87" cx="455.48" fill="#bebebe"/>
  <path id="path23141-4-2" fill="#bebebe" d="m462.5 814.36c4.5 0 7.1737 6.2431 0.39529 11.334-1.5854 1.1907-3.8953 2.6659-3.8953 5.6659 0 3.3055 4.6459 4.2082 10 4l1-1c-1.5 0.00001-9.4891 0.0816-5.5-5.5 2.446-3.4226 6.5-5.663 6.5-9.5 0-4-3-7-9-6z"/>
 </g>
</svg>
