<?xml version="1.0" encoding="UTF-8" standalone="no"?>
<svg id="svg6184" xmlns:rdf="http://www.w3.org/1999/02/22-rdf-syntax-ns#" xmlns="http://www.w3.org/2000/svg" height="24" width="24" version="1.1" xmlns:cc="http://creativecommons.org/ns#" xmlns:dc="http://purl.org/dc/elements/1.1/">
 <g id="layer1" transform="translate(-417.43 -470.51)" fill="#bebebe">
  <path id="path12296" style="color:#000000" d="m417.43 470.51v0.5c6.7457 2.1875-0.97743 11.462 0.89195 19 2.108 8.5 6.286 2 6.286 2s-0.1779-2.5-0.42161-1.5c0 0-2.7563 4-3.7563-1-1.6756-8.3781 12.6-19-3-19z"/>
  <path id="path23137" style="color:#000000" d="m441.43 474.51 0.0374 3.4451-5.0824-5.4624 1.71-1.8525m-2.7074 2.945 2.0425 2.185 0.99749 1.0925 2.0425 2.185-1.045 1.0925c-1.0132 1.0911-0.9818 1.0951-1.995 4.3699-4.0529 4.3646-8.1224 4.3699-8.1224 4.3699l-0.99749 1.0925s-1.0293 1.0911-2.0425 0l6.0799-6.5549 0.095-0.14242c0.8018 0.42116 1.7563 0.28903 2.4225-0.42749 0.83954-0.90417 0.83892-2.3746 0-3.2774-0.83892-0.90282-2.2004-0.90417-3.04 0-0.66595 0.71675-0.77147 1.7967-0.38 2.66l-0.095 0.095-6.0799 6.5549c-1.0132-1.0911 0-2.185 0-2.185l0.99749-1.0925s-0.0155-4.3753 4.0374-8.7399c3.0401-1.0925 3.0718-1.0938 4.0849-2.185z"/>
 </g>
</svg>
