<?xml version="1.0" encoding="UTF-8"?>
<svg width="24" height="24" version="1.1" xmlns="http://www.w3.org/2000/svg"><g transform="translate(-120 -964.36)"><g transform="translate(-408 79.998)" fill="#bebebe"><path d="m541 884.36v10.5l4.5 1 3-8.5c-3 0-2.5-3-7.5-3z"/><path d="m542.62 896.49c-1.3996-0.35769-2.9587-0.0295-4.1199 1.0022-0.88893 0.78984-1.3685 1.8389-1.4695 2.9364-0.10641 1.1555 0.32641 3.2278-2.6721 6.0604-0.013 5e-3 -0.0269 0.0135-0.0394 0.0198-0.11442 0.0573-0.21313 0.14592-0.25667 0.27695-0.0871 0.26206 0.0548 0.54508 0.31686 0.63214 2.4995-0.31726 5.3695-0.51957 7.578-1.5985 1.0597-0.53503 1.9968-1.1125 2.5381-1.5935 1.8578-1.6508 2.02-4.5066 0.36923-6.3645-0.61903-0.6967-1.4048-1.1568-2.2446-1.3714z"/></g></g></svg>
