<?xml version="1.0" encoding="UTF-8" standalone="no"?>
<svg id="svg1" xmlns="http://www.w3.org/2000/svg" version="1.1" xmlns:dc="http://purl.org/dc/elements/1.1/" height="24" width="24" xmlns:rdf="http://www.w3.org/1999/02/22-rdf-syntax-ns#" xmlns:ns3="http://www.openswatchbook.org/uri/2009/osb" xmlns:ns5="http://creativecommons.org/ns#">
 <title id="title13694">MyPaint symbolic icons</title>
 <metadata id="metadata7">
  <rdf:RDF>
   <ns5:Work rdf:about="">
    <dc:format>image/svg+xml</dc:format>
    <dc:type rdf:resource="http://purl.org/dc/dcmitype/StillImage"/>
    <dc:title>MyPaint symbolic icons</dc:title>
    <ns5:license rdf:resource=""/>
    <dc:creator>
     <ns5:Agent>
      <dc:title>GNOME Project</dc:title>
     </ns5:Agent>
    </dc:creator>
    <dc:contributor>
     <ns5:Agent>
      <dc:title>Andrew Chadwick</dc:title>
     </ns5:Agent>
    </dc:contributor>
   </ns5:Work>
  </rdf:RDF>
 </metadata>
 <g id="layer1" transform="translate(-360 -484.36)">
  <g id="layer2" opacity=".5" transform="translate(229.28 556.07)" display="none" fill="#859f46">
   <rect id="48x48" style="color:#000000" height="48" width="48" display="inline" y="4.25" x="-2.25"/>
   <rect id="32x32" style="color:#000000" height="32" width="32" display="inline" y="20.25" x="53.75"/>
   <rect id="22x22" style="color:#000000" height="22" width="22" display="inline" y="30.25" x="125.75"/>
   <rect id="16x16" style="color:#000000" height="16" width="16" display="inline" y="36.25" x="155.75"/>
  </g>
  <path id="path5186" opacity=".3" style="color:#000000" d="m364 507.86c-1 0-1.5-1-1.5-2s0.5-2 1.5-2h15.5c1 0 2.5-1 2.5-2v4c0 1-1 2-2 2z" fill="#bebebe"/>
  <path id="path5188" style="color:#000000" d="m363.5 485.36c-0.5 0-1.5 0.5-1.5 1.5v20c0 1 1 1.5 1.5 1.5h16.5c1 0 2-1 2-2v-1c0 1-1 2-2 2h-15.5c-1 0-1.5-0.50001-1.5-1.5 0-1 0.5-1.5 1.5-1.5h15.5c1 0 2-0.99999 2-2v-15c0-0.99999-1-2-2-2h-5v9l1.5-1.5c0.28224-0.28223 0.60205-0.5 1-0.5h1.5v1.5c0 0.39795-0.21775 0.71776-0.5 1l-6 6-6-6c-0.28222-0.28226-0.49999-0.60205-0.5-1v-1.5h1.5c0.39795 0.00002 0.71776 0.21777 1 0.5l1.5 1.5v-9z" fill="#bebebe"/>
 </g>
</svg>
