<?xml version="1.0" encoding="UTF-8"?>
<svg width="24" height="24" fill="#bebebe" version="1.1" xmlns="http://www.w3.org/2000/svg"><path transform="translate(0,1)" d="m1 1v5a1 1 0 0 0 1 1 1 1 0 0 0 1-1v-3h4a1 1 0 0 0 1-1 1 1 0 0 0-1-1zm16 0a1 1 0 0 0-1 1 1 1 0 0 0 1 1h4v3a1 1 0 0 0 1 1 1 1 0 0 0 1-1v-5zm-15 14a1 1 0 0 0-1 1v5h6a1 1 0 0 0 1-1 1 1 0 0 0-1-1h-4v-3a1 1 0 0 0-1-1zm20 0a1 1 0 0 0-1 1v3h-4a1 1 0 0 0-1 1 1 1 0 0 0 1 1h6v-5a1 1 0 0 0-1-1z" opacity=".3"/><path d="m11.8 5c-0.6 0-1.1 0-1.6 0.2s-0.9 0.8-0.7 1.3c0.1 0.5 0.7 0.8 1.2 0.7 1.5-0.4 3.1-0.2 4.3 0.8 1.3 1 2 2.4 2 4l1 1 1-1c0-2.2-1-4.2-2.7-5.5-0.9-0.7-1.9-1.2-2.9-1.4-0.6-0.1-1.1-0.1-1.6-0.1zm-5.8 6-1 1c0 2.2 1 4.2 2.7 5.5 0.9 0.7 1.9 1.1 2.9 1.3s2.1 0.2 3.2-0.1c0.5-0.1 0.8-0.7 0.7-1.2s-0.7-0.8-1.2-0.7c-1.5 0.4-3.1 0.2-4.3-0.8-1.3-1-2-2.4-2-4z"/><path d="m6 8-4 3.5v0.5h8v-0.5zm8 4v0.5l4 3.5 4-3.5v-0.5z"/></svg>
