<?xml version="1.0" encoding="UTF-8"?>
<svg width="24" height="24" version="1.1" xmlns="http://www.w3.org/2000/svg"><g transform="translate(-624 -804.36)"><g transform="translate(176 -71.998)"><g transform="translate(229.28,556.07)" display="none" fill="#859f46" opacity=".5"><rect x="-2.25" y="4.25" width="48" height="48" display="inline" style=""/><rect x="53.75" y="20.25" width="32" height="32" display="inline" style=""/><rect x="125.75" y="30.25" width="22" height="22" display="inline" style=""/><rect x="155.75" y="36.25" width="16" height="16" display="inline" style=""/></g><path d="m457.5 878.36c4.5 0 7.2784 5.909 0.49999 11-1.5854 1.1907-4 3-4 6 0 3.3055 4.6459 4.2082 10 4l1-1c-1.5 1e-5 -9.4891 0.0816-5.5-5.5 2.446-3.4226 6.5-5.663 6.5-9.5 0-4-3-7-9-6z" fill="#bebebe"/></g></g></svg>
