<?xml version="1.0" encoding="UTF-8" standalone="no"?>
<svg id="svg1" xmlns="http://www.w3.org/2000/svg" version="1.1" xmlns:dc="http://purl.org/dc/elements/1.1/" height="24" width="24" xmlns:rdf="http://www.w3.org/1999/02/22-rdf-syntax-ns#" xmlns:ns4="http://creativecommons.org/ns#">
 <title id="title13694">MyPaint symbolic icons</title>
 <metadata id="metadata7">
  <rdf:RDF>
   <ns4:Work rdf:about="">
    <dc:format>image/svg+xml</dc:format>
    <dc:type rdf:resource="http://purl.org/dc/dcmitype/StillImage"/>
    <dc:title>MyPaint symbolic icons</dc:title>
    <ns4:license rdf:resource=""/>
    <dc:creator>
     <ns4:Agent>
      <dc:title>GNOME Project</dc:title>
     </ns4:Agent>
    </dc:creator>
    <dc:contributor>
     <ns4:Agent>
      <dc:title>Andrew Chadwick</dc:title>
     </ns4:Agent>
    </dc:contributor>
   </ns4:Work>
  </rdf:RDF>
 </metadata>
 <g id="layer1" transform="translate(-280 -580.36)">
  <path id="path12660" style="color:#000000" d="m190 765.36c-10.493 0-19 8.5066-19 19h2c0-9.3888 7.6112-17 17-17z" transform="translate(112 -184)" fill="#bebebe"/>
  <path id="path12061-8-45-2-6-5" style="color:#000000" d="m190 773.36c-6.0678 0-11 4.9322-11 11h2c0-4.9631 4.0369-9 9-9z" transform="translate(112 -184)" fill="#bebebe"/>
  <rect id="rect4505-6-1-1" style="color:#000000" rx="0" transform="translate(112 -184)" height="2" width="22" y="785.36" x="169" fill="#bebebe"/>
  <path id="path5485" style="color:#000000" d="m190 768.36c-8.8366 0-16 7.1634-16 16h4c0-6.6274 5.3726-12 12-12z" transform="translate(112 -184)" fill="#bebebe"/>
  <g id="layer2" opacity=".5" transform="translate(229.28 556.07)" display="none" fill="#859f46">
   <rect id="48x48" style="color:#000000" height="48" width="48" display="inline" y="4.25" x="-2.25"/>
   <rect id="32x32" style="color:#000000" height="32" width="32" display="inline" y="20.25" x="53.75"/>
   <rect id="24x24" style="color:#000000" height="24" width="24" display="inline" y="28.25" x="93.75"/>
   <rect id="22x22" style="color:#000000" height="22" width="22" display="inline" y="30.25" x="125.75"/>
   <rect id="16x16" style="color:#000000" height="16" width="16" display="inline" y="36.25" x="155.75"/>
  </g>
 </g>
</svg>
