<?xml version="1.0" encoding="UTF-8"?>
<svg width="24" height="24" version="1.1" xmlns="http://www.w3.org/2000/svg"><g transform="translate(-440 -548.36)" fill="#bebebe"><path transform="translate(80 -4.357e-5)" d="m364 571.86c-1 0-1.5-1-1.5-2s0.5-2 1.5-2h15.5c1 0 2.5-1 2.5-2v4c0 1-1 2-2 2z" opacity=".3"/><path transform="translate(80 412.36)" d="m363.5 137c-0.5 0-1.5 0.5-1.5 1.5v20c0 1 1 1.5 1.5 1.5h16.5c1 0 2-1 2-2v-1c0 1-1 2-2 2h-15.5c-1 0-1.5-0.50001-1.5-1.5 0-1 0.5-1.5 1.5-1.5h15.5c1 0 2-0.99999 2-2v-15c0-0.99999-1-2-2-2zm3.5 3h1.5l6.5 6.5v-6.5h3v13h-3v-6.5l-6.5 6.5h-1.5z"/></g></svg>
