<?xml version="1.0" encoding="UTF-8"?>
<svg width="24.026" height="24" version="1.1" xmlns="http://www.w3.org/2000/svg"><g transform="translate(-623.97 -900.36)"><g transform="translate(96 48.002)"><g transform="translate(229.28,556.07)" display="none" fill="#859f46" opacity=".5"><rect x="-2.25" y="4.25" width="48" height="48" display="inline" style=""/><rect x="53.75" y="20.25" width="32" height="32" display="inline" style=""/><rect x="125.75" y="30.25" width="22" height="22" display="inline" style=""/><rect x="155.75" y="36.25" width="16" height="16" display="inline" style=""/></g><path d="m535.48 853.42c-3.5729 0-6.4904 2.9142-6.4904 6.4829s2.9176 6.4829 6.4904 6.4829c3.5729 0 6.4904-2.9142 6.4904-6.4829s-2.9176-6.4829-6.4904-6.4829zm0 1.997c2.4922 0 4.4912 1.9966 4.4912 4.4859 0 2.4894-1.9989 4.4859-4.4912 4.4859-2.4922 0-4.4911-1.9966-4.4911-4.4859 0-2.4894 1.9989-4.4859 4.4911-4.4859z" fill="#bebebe" line-height="normal"/><path d="m538.41 859.34a0.50306 0.50389 0 1 0 0.12479 1h3.931a0.49923 0.50005 0 1 0 0-1h-3.931a0.49923 0.50005 0 0 0-0.12479 0z" fill="#bebebe" line-height="normal"/><path d="m528.43 859.37a0.50136 0.50219 0 1 0 0.0935 1h3.9622a0.49923 0.50005 0 1 0 0-1h-3.9622a0.49923 0.50005 0 0 0-0.0935 0z" fill="#bebebe" line-height="normal"/><path d="m535.39 852.37a0.49923 0.50005 0 0 0-0.40558 0.5v4.0312a0.49923 0.50005 0 1 0 0.99835 0v-4.0312a0.49923 0.50005 0 0 0-0.59277-0.5z" fill="#bebebe" line-height="normal"/><path d="m535.42 862.4a0.49923 0.50005 0 0 0-0.43678 0.53125v3.9375a0.49923 0.50005 0 1 0 0.99835 0v-3.9375a0.49923 0.50005 0 0 0-0.56157-0.53125z" fill="#bebebe" line-height="normal"/><ellipse cx="535.48" cy="859.87" rx="1.4975" ry="1.5" fill="#bebebe"/><path d="m545 852.36v9.5l4.5 1 2.5-7.5c-3 0-2-3-7-3z" fill="#bebebe"/><path d="m545.38 863.39c-1.441 0.10183-2.8171 0.90481-3.5938 2.25-0.59457 1.0298-0.71887 2.1766-0.46875 3.25 0.26335 1.1302 1.3274 2.9602-0.625 6.5938-0.0107 9e-3 -0.0213 0.0213-0.0312 0.0312-0.0905 0.0905-0.15625 0.20568-0.15625 0.34375 0 0.27614 0.22386 0.5 0.5 0.5 2.272-1.0891 4.9318-2.186 6.6875-3.9062 0.83697-0.84185 1.5442-1.6854 1.9062-2.3125 1.2426-2.1523 0.49607-4.9136-1.6562-6.1562-0.80712-0.46599-1.6979-0.65485-2.5625-0.59375z" fill="#bebebe"/></g></g></svg>
