<?xml version="1.0" encoding="UTF-8" standalone="no"?>
<svg id="svg1" xmlns="http://www.w3.org/2000/svg" version="1.1" xmlns:dc="http://purl.org/dc/elements/1.1/" height="24.007" width="24" xmlns:rdf="http://www.w3.org/1999/02/22-rdf-syntax-ns#" xmlns:ns4="http://creativecommons.org/ns#">
 <title id="title13694">MyPaint symbolic icons</title>
 <metadata id="metadata7">
  <rdf:RDF>
   <ns4:Work rdf:about="">
    <dc:format>image/svg+xml</dc:format>
    <dc:type rdf:resource="http://purl.org/dc/dcmitype/StillImage"/>
    <dc:title>MyPaint symbolic icons</dc:title>
    <ns4:license rdf:resource=""/>
    <dc:creator>
     <ns4:Agent>
      <dc:title>GNOME Project</dc:title>
     </ns4:Agent>
    </dc:creator>
    <dc:contributor>
     <ns4:Agent>
      <dc:title>Andrew Chadwick</dc:title>
     </ns4:Agent>
    </dc:contributor>
   </ns4:Work>
  </rdf:RDF>
 </metadata>
 <g id="layer1" transform="translate(-200 -516.36)">
  <g id="layer2" opacity=".5" transform="translate(229.28 556.07)" display="none" fill="#859f46">
   <rect id="48x48" style="color:#000000" height="48" width="48" display="inline" y="4.25" x="-2.25"/>
   <rect id="32x32" style="color:#000000" height="32" width="32" display="inline" y="20.25" x="53.75"/>
   <rect id="24x24" style="color:#000000" height="24" width="24" display="inline" y="28.25" x="93.75"/>
   <rect id="22x22" style="color:#000000" height="22" width="22" display="inline" y="30.25" x="125.75"/>
   <rect id="16x16" style="color:#000000" height="16" width="16" display="inline" y="36.25" x="155.75"/>
  </g>
  <path id="rect10788-3-0" style="enable-background:new;color:#000000;text-indent:0;text-decoration-line:none;text-transform:none" font-family="Sans" d="m381 169c-1.636 0-3 1.364-3 3v17c0 1.636 1.364 3 3 3h13c1.636 0 3-1.364 3-3v-17c0-1.636-1.364-3-3-3v2.375c0.014 0.5881-0.35288 1.1677-0.89045 1.4066-0.53757 0.23892-1.2137 0.12287-1.6408-0.28163-0.54016 0.46971-1.4286 0.46971-1.9688 0-0.54394 0.48642-1.4561 0.48642-2 0-0.54739 0.50355-1.4838 0.50355-2.0312 0-0.54016 0.46971-1.4286 0.46971-1.9688 0-0.85917 0.76814-2.5051 0.0275-2.5-1.125z" transform="translate(-176 348.36)" line-height="normal" fill="#bebebe"/>
  <path id="path3601-2-3-3-9-36-8-5-2-0" style="color-rendering:auto;text-decoration-color:#000000;color:#000000;font-variant-numeric:normal;text-orientation:mixed;shape-padding:0;shape-rendering:auto;solid-color:#000000;text-decoration-line:none;text-rendering:auto;font-variant-position:normal;mix-blend-mode:normal;font-feature-settings:normal;font-variant-alternates:normal;text-indent:0;font-variant-ligatures:normal;dominant-baseline:auto;font-variant-caps:normal;image-rendering:auto;white-space:normal;text-decoration-style:solid;isolation:auto;text-transform:none" font-family="sans-serif" d="m372.33 524.36a0.33337 0.33337 0 0 0 -0.33 0.34v2a0.33337 0.33337 0 1 0 0.66602 0v-2a0.33337 0.33337 0 0 0 -0.3379 -0.33789zm1.334 0a0.33337 0.33337 0 0 0 -0.32813 0.33789v2a0.33337 0.33337 0 1 0 0.66602 0v-2a0.33337 0.33337 0 0 0 -0.33789 -0.33789zm1.332 0a0.33337 0.33337 0 0 0 -0.32812 0.33789v2a0.33398 0.33398 0 1 0 0.66796 0v-2a0.33337 0.33337 0 0 0 -0.33984 -0.33789zm1.334 0a0.33337 0.33337 0 0 0 -0.32 0.34v2a0.33337 0.33337 0 1 0 0.66602 0v-2a0.33337 0.33337 0 0 0 -0.3379 -0.33789zm1.334 0a0.33337 0.33337 0 0 0 -0.32813 0.33789v2a0.33337 0.33337 0 1 0 0.66602 0v-2a0.33337 0.33337 0 0 0 -0.33789 -0.33789zm1.332 0a0.33337 0.33337 0 0 0 -0.32812 0.33789v2a0.33398 0.33398 0 1 0 0.66796 0v-2a0.33337 0.33337 0 0 0 -0.33984 -0.33789z" transform="matrix(1.5 0 0 1.5 -352 -270.18)" line-height="normal" fill="#bebebe"/>
  <path id="path3601-2-3-3-9-36-8-5-2-6" transform="matrix(1.5 0 0 1.5 -352 -270.18)" fill="none" d="m380.33 524.7-0.66667 2.6667m-0.66665-2.6667-0.66667 2.6667m-0.65-2.67-0.67 2.66m-0.66666-2.6667-0.66667 2.6667m-0.66-2.66l-0.66667 2.6667m-0.66-2.67-0.67 2.66m-0.66667-2.6667-0.66667 2.6667"/>
 </g>
</svg>
