<?xml version="1.0" encoding="UTF-8" standalone="no"?>
<svg id="svg1" xmlns="http://www.w3.org/2000/svg" version="1.1" xmlns:dc="http://purl.org/dc/elements/1.1/" height="24" width="24" xmlns:rdf="http://www.w3.org/1999/02/22-rdf-syntax-ns#" xmlns:ns3="http://www.openswatchbook.org/uri/2009/osb" xmlns:ns5="http://creativecommons.org/ns#">
 <metadata id="metadata7">
  <rdf:RDF>
   <ns5:Work rdf:about="">
    <dc:format>image/svg+xml</dc:format>
    <dc:type rdf:resource="http://purl.org/dc/dcmitype/StillImage"/>
    <dc:title/>
   </ns5:Work>
  </rdf:RDF>
 </metadata>
 <g id="layer1" transform="translate(-408 -524.36)">
  <g id="layer2" opacity=".5" transform="translate(229.28 556.07)" display="none" fill="#859f46">
   <rect id="48x48" style="color:#000000" height="48" width="48" display="inline" y="4.25" x="-2.25"/>
   <rect id="32x32" style="color:#000000" height="32" width="32" display="inline" y="20.25" x="53.75"/>
   <rect id="22x22" style="color:#000000" height="22" width="22" display="inline" y="30.25" x="125.75"/>
   <rect id="16x16" style="color:#000000" height="16" width="16" display="inline" y="36.25" x="155.75"/>
  </g>
  <path id="use24343-3" style="block-progression:tb;text-indent:0;color:#000000;text-transform:none" font-family="Sans" d="m413.5 536.37c-3.0316 0-5.4972 2.4655-5.4972 5.4972 0 3.0316 2.4655 5.4972 5.4972 5.4972 3.0316 0 5.4972-2.4655 5.4972-5.4972 0-3.0316-2.4655-5.4972-5.4972-5.4972zm0 0.98011c2.4912 0 4.517 2.0258 4.517 4.517s-2.0258 4.517-4.517 4.517-4.517-2.0258-4.517-4.517 2.0258-4.517 4.517-4.517z" line-height="normal" fill="#bebebe"/>
  <path id="path24341-5" style="block-progression:tb;text-indent:0;color:#000000;text-transform:none" font-family="Sans" d="m419.5 526.37c-3.0316 0-5.4972 2.4655-5.4972 5.4972 0 3.0316 2.4655 5.4972 5.4972 5.4972 3.0316 0 5.4972-2.4655 5.4972-5.4972 0-3.0316-2.4655-5.4972-5.4972-5.4972zm0 0.98011c2.4912 0 4.517 2.0258 4.517 4.517s-2.0258 4.517-4.517 4.517-4.517-2.0258-4.517-4.517 2.0258-4.517 4.517-4.517z" line-height="normal" fill="#bebebe"/>
  <path id="use24345-5" style="block-progression:tb;text-indent:0;color:#000000;text-transform:none" font-family="Sans" d="m425.5 536.37c-3.0316 0-5.4972 2.4655-5.4972 5.4972 0 3.0316 2.4655 5.4972 5.4972 5.4972 3.0316 0 5.4972-2.4655 5.4972-5.4972 0-3.0316-2.4655-5.4972-5.4972-5.4972zm0 0.98011c2.4912 0 4.517 2.0258 4.517 4.517s-2.0258 4.517-4.517 4.517-4.517-2.0258-4.517-4.517 2.0258-4.517 4.517-4.517z" line-height="normal" fill="#bebebe"/>
  <path id="path24387" style="color:#000000" d="m365.09 153a3.0882 3.0882 0 1 1 -6.1764 0 3.0882 3.0882 0 1 1 6.1764 0z" transform="matrix(1.1333 0 0 1.1333 15.232 368.46)" fill="#bebebe"/>
  <path id="use24397" opacity=".3" style="color:#000000" d="m365.09 153a3.0882 3.0882 0 1 1 -6.1764 0 3.0882 3.0882 0 1 1 6.1764 0z" transform="matrix(1.1333 0 0 1.1333 3.2315 368.46)" fill="#bebebe"/>
 </g>
</svg>
