<?xml version="1.0" encoding="UTF-8"?>
<svg width="24" height="24" version="1.1" xmlns="http://www.w3.org/2000/svg"><g transform="translate(-624 -868.36)"><g transform="translate(176.03 56.002)"><g transform="translate(229.28,556.07)" display="none" fill="#859f46" opacity=".5"><rect x="-2.25" y="4.25" width="48" height="48" display="inline" style=""/><rect x="53.75" y="20.25" width="32" height="32" display="inline" style=""/><rect x="125.75" y="30.25" width="22" height="22" display="inline" style=""/><rect x="155.75" y="36.25" width="16" height="16" display="inline" style=""/></g><path d="m455.48 813.42c-3.5729 0-6.4904 2.9142-6.4904 6.4829s2.9176 6.4829 6.4904 6.4829c3.5729 0 6.4904-2.9142 6.4904-6.4829s-2.9176-6.4829-6.4904-6.4829zm0 1.997c2.4922 0 4.4912 1.9966 4.4912 4.4859 0 2.4894-1.9989 4.4859-4.4912 4.4859-2.4922 0-4.4911-1.9966-4.4911-4.4859 0-2.4894 1.9989-4.4859 4.4911-4.4859z" fill="#bebebe" line-height="normal"/><path d="m458.41 819.34a0.50306 0.50389 0 1 0 0.12479 1h3.931a0.49923 0.50005 0 1 0 0-1h-3.931a0.49923 0.50005 0 0 0-0.12479 0z" fill="#bebebe" line-height="normal"/><path d="m448.43 819.37a0.50136 0.50219 0 1 0 0.0935 1h3.9622a0.49923 0.50005 0 1 0 0-1h-3.9622a0.49923 0.50005 0 0 0-0.0935 0z" fill="#bebebe" line-height="normal"/><path d="m455.39 812.37a0.49923 0.50005 0 0 0-0.40558 0.5v4.0312a0.49923 0.50005 0 1 0 0.99835 0v-4.0312a0.49923 0.50005 0 0 0-0.59277-0.5z" fill="#bebebe" line-height="normal"/><path d="m455.42 822.4a0.49923 0.50005 0 0 0-0.43678 0.53125v3.9375a0.49923 0.50005 0 1 0 0.99835 0v-3.9375a0.49923 0.50005 0 0 0-0.56157-0.53125z" fill="#bebebe" line-height="normal"/><ellipse cx="455.48" cy="819.87" rx="1.4975" ry="1.5" fill="#bebebe"/><path d="m462.5 814.36c4.5 0 7.1737 6.2431 0.39529 11.334-1.5854 1.1907-3.8953 2.6659-3.8953 5.6659 0 3.3055 4.6459 4.2082 10 4l1-1c-1.5 1e-5 -9.4891 0.0816-5.5-5.5 2.446-3.4226 6.5-5.663 6.5-9.5 0-4-3-7-9-6z" fill="#bebebe"/></g></g></svg>
