<?xml version="1.0" encoding="UTF-8"?>
<svg width="24" height="24" version="1.1" xmlns="http://www.w3.org/2000/svg"><g transform="translate(-280 -548.36)" fill="#bebebe"><path transform="matrix(1.5 0 0 1.5 112 -502.18)" d="m115.33 706.36v6.6667h9.3333v-6.6667z"/><path transform="matrix(1.5 0 0 1.5 112 -502.18)" d="m120.73 714.36c-0.40626 0-0.73333 0.29734-0.73333 0.66667s0.32707 0.66667 0.73333 0.66667h6.6v-1.3333h-5.1333z"/><path transform="matrix(1.5 0 0 1.5 112 -502.18)" d="m115.73 714.36c0.51706 0 0.93333 0.29734 0.93333 0.66667s-0.41627 0.66667-0.93333 0.66667h-3.0667v-1.3333h3.0667z"/><path transform="matrix(1.5 0 0 1.5 112 -502.18)" d="m120 701.03c-1.833 0-3.3333 1.5003-3.3333 3.3333v4h1.3333v-4c0-1.1125 0.88753-2 2-2s2 0.88754 2 2v4h1.3333v-4c0-1.833-1.5003-3.3333-3.3333-3.3333z"/></g></svg>
