<?xml version="1.0" encoding="UTF-8"?>
<svg width="24" height="24" version="1.1" xmlns="http://www.w3.org/2000/svg"><g transform="translate(-120 -740.36)" fill="#bebebe"><path transform="translate(-16 144)" d="m151.92 604.45-6.3303 8.4716-2.5411 2.2328-1.0466-0.83875 1.4945-3.0715 6.3303-8.4716z"/><path transform="translate(-16 144)" d="m142 615.16s-2.2176 0.98901-2.2 3.1c0.022 2.6298 3.9752 2.782 4.1 0.45 0.0712-1.3328-1.9-3.55-1.9-3.55z"/><path transform="translate(-16 144)" d="m145.97 602.99 6.9738 5.2765 1.0567-1.3848-2.0921-1.5829c4.2056-1.1866 7.0799-6.245 4.2904-8.3556s-7.0586 1.8926-7.0799 6.2451l-2.0922-1.583z"/></g></svg>
