<?xml version="1.0" encoding="UTF-8" standalone="no"?>
<svg id="svg1" xmlns="http://www.w3.org/2000/svg" version="1.1" xmlns:dc="http://purl.org/dc/elements/1.1/" height="24" width="24" xmlns:rdf="http://www.w3.org/1999/02/22-rdf-syntax-ns#" xmlns:ns4="http://creativecommons.org/ns#">
 <title id="title13694">MyPaint symbolic icons</title>
 <metadata id="metadata7">
  <rdf:RDF>
   <ns4:Work rdf:about="">
    <dc:format>image/svg+xml</dc:format>
    <dc:type rdf:resource="http://purl.org/dc/dcmitype/StillImage"/>
    <dc:title>MyPaint symbolic icons</dc:title>
    <ns4:license rdf:resource=""/>
    <dc:creator>
     <ns4:Agent>
      <dc:title>GNOME Project</dc:title>
     </ns4:Agent>
    </dc:creator>
    <dc:contributor>
     <ns4:Agent>
      <dc:title>Andrew Chadwick</dc:title>
     </ns4:Agent>
    </dc:contributor>
   </ns4:Work>
  </rdf:RDF>
 </metadata>
 <g id="layer1" transform="translate(-360 -676.36)">
  <g id="layer2" opacity=".5" transform="translate(229.28 556.07)" display="none" fill="#859f46">
   <rect id="48x48" style="color:#000000" height="48" width="48" display="inline" y="4.25" x="-2.25"/>
   <rect id="32x32" style="color:#000000" height="32" width="32" display="inline" y="20.25" x="53.75"/>
   <rect id="24x24" style="color:#000000" height="24" width="24" display="inline" y="28.25" x="93.75"/>
   <rect id="22x22" style="color:#000000" height="22" width="22" display="inline" y="30.25" x="125.75"/>
   <rect id="16x16" style="color:#000000" height="16" width="16" display="inline" y="36.25" x="155.75"/>
  </g>
  <path id="path5046-1-5" style="color-rendering:auto;text-decoration-color:#000000;color:#000000;font-variant-numeric:normal;text-orientation:mixed;shape-padding:0;shape-rendering:auto;solid-color:#000000;text-decoration-line:none;text-rendering:auto;font-variant-position:normal;mix-blend-mode:normal;font-feature-settings:normal;font-variant-alternates:normal;text-indent:0;font-variant-ligatures:normal;dominant-baseline:auto;font-variant-caps:normal;image-rendering:auto;white-space:normal;text-decoration-style:solid;isolation:auto;text-transform:none" font-family="sans-serif" d="m362.14 289.03c-0.86656-0.17237-1.7729-0.14866-2.6484 0.0859a0.83342 0.83342 0 1 0 0.43165 1.6094c1.2519-0.33545 2.587-0.0683 3.6152 0.7207s1.6289 2.0086 1.6289 3.3047a0.83398 0.83398 0 1 0 1.668 0c0-1.8128-0.84498-3.5234-2.2832-4.627-0.71911-0.55179-1.5456-0.92138-2.4121-1.0938z" transform="matrix(-1.2 0 0 -1.2 805.2 1042.1)" line-height="normal" fill="#bebebe"/>
  <path id="path5046-8" style="color-rendering:auto;text-decoration-color:#000000;color:#000000;font-variant-numeric:normal;text-orientation:mixed;shape-padding:0;shape-rendering:auto;solid-color:#000000;text-decoration-line:none;text-rendering:auto;font-variant-position:normal;mix-blend-mode:normal;font-feature-settings:normal;font-variant-alternates:normal;text-indent:0;font-variant-ligatures:normal;dominant-baseline:auto;font-variant-caps:normal;image-rendering:auto;white-space:normal;text-decoration-style:solid;isolation:auto;text-transform:none" font-family="sans-serif" d="m362.14 289.03c-0.86656-0.17237-1.7729-0.14866-2.6484 0.0859a0.83342 0.83342 0 1 0 0.43165 1.6094c1.2519-0.33545 2.587-0.0683 3.6152 0.7207s1.6289 2.0086 1.6289 3.3047a0.83398 0.83398 0 1 0 1.668 0c0-1.8128-0.84498-3.5234-2.2832-4.627-0.71911-0.55179-1.5456-0.92138-2.4121-1.0938z" transform="matrix(1.2 0 0 1.2 -61.2 334.66)" line-height="normal" fill="#bebebe"/>
  <path id="path3228-0-7-9-2" d="m138 344.36h-8v-0.5l4-3.5 4 3.5z" fill="#bebebe" transform="translate(232,344)"/>
  <path id="path3228-0-7-9-2-5" d="m142 344.36h8v0.5l-4 3.5-4-3.5z" fill="#bebebe" transform="translate(232,344)"/>
 </g>
</svg>
