<?xml version="1.0" encoding="UTF-8" standalone="no"?>
<svg
   xmlns:dc="http://purl.org/dc/elements/1.1/"
   xmlns:cc="http://creativecommons.org/ns#"
   xmlns:rdf="http://www.w3.org/1999/02/22-rdf-syntax-ns#"
   xmlns:svg="http://www.w3.org/2000/svg"
   xmlns="http://www.w3.org/2000/svg"
   width="24"
   height="24"
   version="1.1"
   id="svg1">
  <defs
     id="defs23" />
  <title
     id="title13694">MyPaint symbolic icons</title>
  <metadata
     id="metadata7">
    <rdf:RDF>
      <cc:Work
         rdf:about="">
        <dc:format>image/svg+xml</dc:format>
        <dc:type
           rdf:resource="http://purl.org/dc/dcmitype/StillImage" />
        <dc:title>MyPaint symbolic icons</dc:title>
        <cc:license
           rdf:resource="" />
        <dc:creator>
          <cc:Agent>
            <dc:title>GNOME Project</dc:title>
          </cc:Agent>
        </dc:creator>
        <dc:contributor>
          <cc:Agent>
            <dc:title>Andrew Chadwick</dc:title>
          </cc:Agent>
        </dc:contributor>
      </cc:Work>
    </rdf:RDF>
  </metadata>
  <g
     id="layer2"
     transform="translate(189.28,-448.33)"
     display="none"
     style="display:none;opacity:0.5;fill:#859f46">
    <rect
       id="48x48"
       style="color:#000000;display:inline"
       height="48"
       width="48"
       display="inline"
       y="4.25"
       x="-2.25" />
    <rect
       id="32x32"
       style="color:#000000;display:inline"
       height="32"
       width="32"
       display="inline"
       y="20.25"
       x="53.75" />
    <rect
       id="24x24"
       style="color:#000000;display:inline"
       height="24"
       width="24"
       display="inline"
       y="28.25"
       x="93.75" />
    <rect
       id="22x22"
       style="color:#000000;display:inline"
       height="22"
       width="22"
       display="inline"
       y="30.25"
       x="125.75" />
    <rect
       id="16x16"
       style="color:#000000;display:inline"
       height="16"
       width="16"
       display="inline"
       y="36.25"
       x="155.75" />
  </g>
  <path
     id="path5256-7-6-4"
     d="m 1,22 4,-4 18,0 -4,4 z"
     style="fill:#bebebe" />
  <path
     id="path24341-7-3"
     style="color:#000000;line-height:normal;font-family:sans-serif;text-indent:0;text-decoration:none;text-decoration-line:none;text-decoration-style:solid;text-decoration-color:#000000;text-transform:none;block-progression:tb;white-space:normal;isolation:auto;mix-blend-mode:normal;solid-color:#000000;fill:#bebebe;color-rendering:auto;image-rendering:auto;shape-rendering:auto;text-rendering:auto"
     d="M 7.5,2 C 5.5729,2 4,3.573 4,5.5 4,7.4271 5.5729,9 7.5,9 9.4271,9 11,7.4271 11,5.5 11,3.573 9.4271,2 7.5,2 Z m 0,1 C 8.8866,3 10,4.1134 10,5.5 10,6.8867 8.8866,8 7.5,8 6.1134,8 5,6.8867 5,5.5 5,4.1134 6.1134,3 7.5,3 Z"
     line-height="normal" />
  <circle
     id="path14496-7-2"
     cy="12.500025"
     cx="11.5"
     r="2"
     style="fill:#bebebe" />
  <circle
     id="use24347-3-2"
     cy="12.500025"
     cx="3.5"
     r="2"
     style="opacity:0.3;fill:#bebebe" />
  <path
     id="path24341-7-3-4"
     style="color:#000000;line-height:normal;font-family:sans-serif;text-indent:0;text-decoration:none;text-decoration-line:none;text-decoration-style:solid;text-decoration-color:#000000;text-transform:none;block-progression:tb;white-space:normal;isolation:auto;mix-blend-mode:normal;solid-color:#000000;fill:#bebebe;color-rendering:auto;image-rendering:auto;shape-rendering:auto;text-rendering:auto"
     d="M 3.5,9 C 1.5729,9 0,10.573 0,12.5 0,14.4271 1.5729,16 3.5,16 5.4271,16 7,14.4271 7,12.5 7,10.573 5.4271,9 3.5,9 Z m 0,1 C 4.8866,10 6,11.1134 6,12.5 6,13.8867 4.8866,15 3.5,15 2.1134,15 1,13.8867 1,12.5 1,11.1134 2.1134,10 3.5,10 Z"
     line-height="normal" />
  <path
     id="path24341-7-3-6"
     style="color:#000000;line-height:normal;font-family:sans-serif;text-indent:0;text-decoration:none;text-decoration-line:none;text-decoration-style:solid;text-decoration-color:#000000;text-transform:none;block-progression:tb;white-space:normal;isolation:auto;mix-blend-mode:normal;solid-color:#000000;fill:#bebebe;color-rendering:auto;image-rendering:auto;shape-rendering:auto;text-rendering:auto"
     d="M 11.5,9 C 9.5729,9 8,10.573 8,12.5 8,14.4271 9.5729,16 11.5,16 13.4271,16 15,14.4271 15,12.5 15,10.573 13.4271,9 11.5,9 Z m 0,1 C 12.8866,10 14,11.1134 14,12.5 14,13.8867 12.8866,15 11.5,15 10.1134,15 9,13.8867 9,12.5 9,11.1134 10.1134,10 11.5,10 Z"
     line-height="normal" />
  <path
     id="path4760-9-0-2"
     style="color:#000000;fill:#bebebe"
     d="M 23.5,1 22,7 18,6 18,-10e-5 C 21.5,0 20,1 23.5,1 Z" />
  <path
     id="path5783-32-6-1"
     style="color:#000000;fill:#bebebe"
     d="m 18.719,7.5 c -0.96065,0.068 -1.8572,0.6032 -2.375,1.5 -0.39641,0.6865 -0.51049,1.4407 -0.34375,2.1563 0.17243,0.7399 0.89298,1.6042 -0.3125,3.9062 -0.01073,0.01 -0.02132,0.021 -0.03125,0.031 -0.09048,0.091 -0.15625,0.2057 -0.15625,0.3438 0,0.2761 0.22386,0.5 0.5,0.5 1.4366,-0.7173 3.172,-1.319 4.2812,-2.4063 0.55798,-0.5612 1.0086,-1.1132 1.25,-1.5312 0.82843,-1.4349 0.34112,-3.2654 -1.0938,-4.0938 -0.53808,-0.3107 -1.1424,-0.447 -1.7188,-0.4062 z" />
</svg>
