<?xml version="1.0" encoding="UTF-8"?>
<svg width="24" height="24" fill="#bebebe" version="1.1" xmlns="http://www.w3.org/2000/svg"><path transform="translate(0,1)" d="m1 1v5a1 1 0 0 0 1 1 1 1 0 0 0 1-1v-3h4a1 1 0 0 0 1-1 1 1 0 0 0-1-1zm16 0a1 1 0 0 0-1 1 1 1 0 0 0 1 1h4v3a1 1 0 0 0 1 1 1 1 0 0 0 1-1v-5zm-15 14a1 1 0 0 0-1 1v5h6a1 1 0 0 0 1-1 1 1 0 0 0-1-1h-4v-3a1 1 0 0 0-1-1zm20 0a1 1 0 0 0-1 1v3h-4a1 1 0 0 0-1 1 1 1 0 0 0 1 1h6v-5a1 1 0 0 0-1-1z" opacity=".3"/><path d="m8 17.5 4 4 4-4v-0.5h-3v-10h3v-0.5l-4-4-4 4v0.5h3v10h-3z"/></svg>
