<?xml version="1.0" encoding="UTF-8" standalone="no"?>
<svg id="svg1" xmlns="http://www.w3.org/2000/svg" version="1.1" xmlns:dc="http://purl.org/dc/elements/1.1/" height="24" width="24" xmlns:rdf="http://www.w3.org/1999/02/22-rdf-syntax-ns#" xmlns:ns3="http://www.openswatchbook.org/uri/2009/osb" xmlns:ns5="http://creativecommons.org/ns#">
 <title id="title13694">MyPaint symbolic icons</title>
 <metadata id="metadata7">
  <rdf:RDF>
   <ns5:Work rdf:about="">
    <dc:format>image/svg+xml</dc:format>
    <dc:type rdf:resource="http://purl.org/dc/dcmitype/StillImage"/>
    <dc:title>MyPaint symbolic icons</dc:title>
    <ns5:license rdf:resource=""/>
    <dc:creator>
     <ns5:Agent>
      <dc:title>GNOME Project</dc:title>
     </ns5:Agent>
    </dc:creator>
    <dc:contributor>
     <ns5:Agent>
      <dc:title>Andrew Chadwick</dc:title>
     </ns5:Agent>
    </dc:contributor>
   </ns5:Work>
  </rdf:RDF>
 </metadata>
 <g id="layer1" transform="translate(-40 -708.36)">
  <g id="layer2" opacity=".5" transform="translate(229.28 556.07)" display="none" fill="#859f46">
   <rect id="48x48" style="color:#000000" height="48" width="48" display="inline" y="4.25" x="-2.25"/>
   <rect id="32x32" style="color:#000000" height="32" width="32" display="inline" y="20.25" x="53.75"/>
   <rect id="22x22" style="color:#000000" height="22" width="22" display="inline" y="30.25" x="125.75"/>
   <rect id="16x16" style="color:#000000" height="16" width="16" display="inline" y="36.25" x="155.75"/>
  </g>
  <path id="path6331" d="m54.311 722.9-1.5845 4.5332c-0.41924 1.2312 1.2997 1.8893 1.7358 0.61268l1.7599-4.4986z" fill-rule="evenodd" fill="#bebebe"/>
  <path id="path6315" d="m53.305 716.81 0.79348 1.1876 5.9242 2.4359 1.5611-0.51192 1.9892-5.5319c-2.5 0-0.5-6.0323-7-6.0323l-3.268 8.4527z" fill-rule="evenodd" fill="#bebebe"/>
  <path id="path5211" d="m54 719.43-0.70159 2.0108 5 1.9094 0.70159-1.9094z" fill-rule="evenodd" fill="#bebebe"/>
  <path id="path6270" style="block-progression:tb;text-indent:0;color:#000000;text-transform:none" font-family="Sans" d="m41.406 709.34 0.6875 0.84375s3.2888 4.0212 5.125 8.2188c0.91812 2.0988 1.4433 4.2035 1.0938 5.8125-0.3496 1.609-1.461 2.815-4.25 3.2812l0.1875 1c3.0416-0.50843 4.6334-2.0878 5.0625-4.0625 0.42907-1.9747-0.19726-4.2453-1.1562-6.4375-1.6182-3.6991-3.8989-6.6598-4.6875-7.6562l10.531 0.05v-1l-11.531-0.0312h-1.0625z" line-height="normal" fill="#bebebe"/>
  <path id="rect6272" style="color:#000000" d="m41 727.36h4v4.0215h-4z" fill-rule="evenodd" fill="#bebebe"/>
  <path id="path18601" style="block-progression:tb;text-indent:0;color:#000000;text-transform:none" font-family="Sans" d="m42 729.38v1h9v-1h-9z" line-height="normal" fill="#bebebe"/>
  <rect id="rect18603" height="4.0215" width="4" y="708.37" x="41" fill="#bebebe"/>
 </g>
</svg>
