<?xml version="1.0" encoding="UTF-8" standalone="no"?>
<svg id="svg1" xmlns="http://www.w3.org/2000/svg" version="1.1" xmlns:dc="http://purl.org/dc/elements/1.1/" height="24.001" width="24" xmlns:rdf="http://www.w3.org/1999/02/22-rdf-syntax-ns#" xmlns:ns4="http://creativecommons.org/ns#">
 <title id="title13694">MyPaint symbolic icons</title>
 <metadata id="metadata7">
  <rdf:RDF>
   <ns4:Work rdf:about="">
    <dc:format>image/svg+xml</dc:format>
    <dc:type rdf:resource="http://purl.org/dc/dcmitype/StillImage"/>
    <dc:title>MyPaint symbolic icons</dc:title>
    <ns4:license rdf:resource=""/>
    <dc:creator>
     <ns4:Agent>
      <dc:title>GNOME Project</dc:title>
     </ns4:Agent>
    </dc:creator>
    <dc:contributor>
     <ns4:Agent>
      <dc:title>Andrew Chadwick</dc:title>
     </ns4:Agent>
    </dc:contributor>
   </ns4:Work>
  </rdf:RDF>
 </metadata>
 <g id="layer1" transform="translate(-120 -772.36)">
  <path id="path4593-9-9" style="color:#000000" d="m219.38 710.54c-0.27852-0.263-0.55539-0.70058-0.8284-1.3138-1.3333-3.0661-3.0603-7.6587-6.0027-8.4844-0.99768-0.2799-1.8889-0.3087-2.8594-0.375l-0.00015-0.00063c-0.23436-0.0161-0.82373 0.25215-0.89063 0.375-0.72444 2.9327-0.0337 7.4226 0.47144 9.7969 0.49432 0.9574 1.7896 1.3492 3.3281 1.3125 0.68732-0.0236 0.75 0 2.25 0-1.9117 0.13455-3.8438 0.51562-4.5938 1.2656-1.5 1.5-0.44739 4.7851 0.75 6.75 0.76566 1.2564 2.2315 3.9046 3.6562 3.5 1.5753-1.0954 0.0937-5 4.5938-8.75v0.14055c-0.25 0.60943-0.25 0.85951-0.25 1.8595v0.74993c-0.0105 0.79247 0.20745 2 1 2 0.79256 0 1.0112-1.2075 0.99999-2v-0.74993c0-1 0-1.2501-0.29686-1.8595 0.0105-0.0741 0.0346-0.0519 0.0468-0.14055 4.5 3.75 3.0185 7.6546 4.5938 8.75 1.4247 0.40465 2.8906-1.3217 3.6562-2.5781 1.1974-1.9649 2.25-6.1719 0.75-7.6719-0.75-0.75-2.682-1.1311-4.5938-1.2656 1.5 0 1.5627-0.0236 2.25 0 1.5385 0.0367 2.8338-0.3551 3.3281-1.3125 0.50522-2.3743 1.2843-6.8642 0.55982-9.7969-0.0669-0.12285-0.65627-0.39105-0.89063-0.375-0.97044 0.0663-1.8617 0.0951-2.8594 0.375-2.9543 0.82905-4.7558 5.4623-6.0911 8.5312-0.26353 0.57895-0.53067 0.99783-0.79939 1.2556-0.21789-0.38728-0.43577-0.77457-0.65366-1.1619z" transform="translate(-88 72)" fill="#bebebe"/>
  <circle id="path23899" style="color:#000000" cx="220" transform="translate(-88 484.36)" cy="297" r="1" fill="#bebebe"/>
  <path id="path23901" style="color-rendering:auto;text-decoration-color:#000000;color:#000000;font-variant-numeric:normal;text-orientation:mixed;shape-padding:0;shape-rendering:auto;solid-color:#000000;text-decoration-line:none;text-rendering:auto;font-variant-position:normal;mix-blend-mode:normal;font-feature-settings:normal;font-variant-alternates:normal;text-indent:0;font-variant-ligatures:normal;dominant-baseline:auto;font-variant-caps:normal;image-rendering:auto;white-space:normal;text-decoration-style:solid;isolation:auto;text-transform:none" font-family="sans-serif" d="m218.85 705.51-0.70704 0.70703c0.44108 0.44108 0.64297 0.84685 0.81641 1.3672 0.17345 0.52034 0.30196 1.1559 0.5625 1.9375l0.47461 1.4238 0.47461-1.4238c0.26054-0.78162 0.38905-1.4172 0.5625-1.9375 0.17344-0.52034 0.37533-0.92611 0.81641-1.3672l-0.70704-0.70703c-0.55892 0.55893-0.85703 1.1532-1.0586 1.7578-0.0315 0.0945-0.0596 0.20742-0.0879 0.30274-0.0283-0.0953-0.0564-0.20826-0.0879-0.30274-0.20156-0.60466-0.49967-1.1989-1.0586-1.7578z" transform="translate(-88 72)" line-height="normal" fill="#bebebe"/>
  <circle id="path23903" style="color:#000000" cx="219.75" transform="matrix(3 0 0 3 -528.75 -97.388)" cy="291.75" r=".25" fill="#bebebe"/>
  <circle id="path23903-6" style="color:#000000" cx="219.75" transform="matrix(3 0 0 3 -525.75 -97.388)" cy="291.75" r=".25" fill="#bebebe"/>
  <g id="layer2" opacity=".5" transform="translate(229.28 556.07)" display="none" fill="#859f46">
   <rect id="48x48" style="color:#000000" height="48" width="48" display="inline" y="4.25" x="-2.25"/>
   <rect id="32x32" style="color:#000000" height="32" width="32" display="inline" y="20.25" x="53.75"/>
   <rect id="24x24" style="color:#000000" height="24" width="24" display="inline" y="28.25" x="93.75"/>
   <rect id="22x22" style="color:#000000" height="22" width="22" display="inline" y="30.25" x="125.75"/>
   <rect id="16x16" style="color:#000000" height="16" width="16" display="inline" y="36.25" x="155.75"/>
  </g>
 </g>
</svg>
