<?xml version="1.0" encoding="UTF-8"?>
<svg width="24" height="24" version="1.1" xmlns="http://www.w3.org/2000/svg"><g transform="translate(-280 -612.36)" fill="#bebebe"><path transform="translate(72,-56)" d="m224.73 669.86c-0.11827 0.0242-0.23924 0.1044-0.32812 0.1875l-6.4219 6 6.0469 6.5156 6.2344-5.8125c0.35549-0.33216 0.26759-1.0242-0.1875-1.5469l-4.1719-4.8281c-0.34131-0.39198-0.81704-0.58813-1.1719-0.51562z"/><path transform="translate(72,-56)" d="m216.25 677.69-3.5156 3.2813c-0.35548 0.3321-0.31446 1.0242 0.14063 1.5468l4.2188 4.8282c0.45508 0.5226 1.0976 0.6602 1.4531 0.3281l3.7031-3.4688z"/><path transform="translate(72,-56)" d="m221.1 689.36c-0.6094 0-1.1 0.446-1.1 1s0.4906 1 1.1 1h9.9v-2z"/><path transform="translate(72,-56)" d="m213.6 689.36c0.7756 0 1.4 0.446 1.4 1s-0.6244 1-1.4 1h-4.6v-2z"/></g></svg>
