<?xml version="1.0" encoding="UTF-8"?>
<svg width="24" height="24" version="1.1" xmlns="http://www.w3.org/2000/svg"><g transform="translate(-40 -708.36)" fill="#bebebe"><path d="m54.311 722.9-1.5845 4.5332c-0.41924 1.2312 1.2997 1.8893 1.7358 0.61268l1.7599-4.4986z"/><path d="m53.305 716.81 0.79348 1.1876 5.9242 2.4359 1.5611-0.51192 1.9892-5.5319c-2.5 0-0.5-6.0323-7-6.0323z"/><path d="m54 719.43-0.70159 2.0108 5 1.9094 0.70159-1.9094z"/><path d="m41.42 709.36 0.67383 0.81836s3.3024 4.0232 5.1387 8.2207c0.91812 2.0988 1.4433 4.2289 1.0938 5.8379-0.3496 1.609-1.4629 2.8033-4.252 3.2695l0.16602 0.98632c3.0416-0.50843 4.6334-2.0682 5.0625-4.043 0.42907-1.9748-0.1953-4.259-1.1543-6.4512-1.615-3.6917-3.8814-6.6344-4.6758-7.6387l10.527 0.00391v-1z"/><path d="m41 727.36h4v4.0215h-4z"/><path d="m42 729.36v1h9v-1z"/><rect x="41" y="708.37" width="4" height="4.0215"/></g></svg>
