<?xml version="1.0" encoding="UTF-8" standalone="no"?>
<svg id="svg1" xmlns="http://www.w3.org/2000/svg" version="1.1" xmlns:dc="http://purl.org/dc/elements/1.1/" height="24" width="24" xmlns:rdf="http://www.w3.org/1999/02/22-rdf-syntax-ns#" xmlns:ns3="http://www.openswatchbook.org/uri/2009/osb" xmlns:ns5="http://creativecommons.org/ns#">
 <title id="title13694">MyPaint symbolic icons</title>
 <metadata id="metadata7">
  <rdf:RDF>
   <ns5:Work rdf:about="">
    <dc:format>image/svg+xml</dc:format>
    <dc:type rdf:resource="http://purl.org/dc/dcmitype/StillImage"/>
    <dc:title>MyPaint symbolic icons</dc:title>
    <ns5:license rdf:resource=""/>
    <dc:creator>
     <ns5:Agent>
      <dc:title>GNOME Project</dc:title>
     </ns5:Agent>
    </dc:creator>
    <dc:contributor>
     <ns5:Agent>
      <dc:title>Andrew Chadwick</dc:title>
     </ns5:Agent>
    </dc:contributor>
   </ns5:Work>
  </rdf:RDF>
 </metadata>
 <g id="layer1" transform="translate(-232 -548.36)">
  <g id="layer2" opacity=".5" transform="translate(229.28 556.07)" display="none" fill="#859f46">
   <rect id="48x48" style="color:#000000" height="48" width="48" display="inline" y="4.25" x="-2.25"/>
   <rect id="32x32" style="color:#000000" height="32" width="32" display="inline" y="20.25" x="53.75"/>
   <rect id="22x22" style="color:#000000" height="22" width="22" display="inline" y="30.25" x="125.75"/>
   <rect id="16x16" style="color:#000000" height="16" width="16" display="inline" y="36.25" x="155.75"/>
  </g>
  <path id="path31387-7-9-5" style="color:#000000" d="m237 557.36v10h14v-10z" fill="#bebebe"/>
  <path id="path30005-3" fill="#bebebe" d="m245.1 569.36c-0.60939 0-1.1 0.44601-1.1 1 0 0.554 0.49061 1 1.1 1h2.2 6.6 1.1v-1-1h-1.1-6.6-2.2z"/>
  <path id="path30007-8" fill="#bebebe" d="m237.6 569.36c0.77559 0 1.4 0.44601 1.4 1 0 0.554-0.6244 1-1.4 1h-4.6v-1-1h4.6z"/>
  <path id="path12048" style="block-progression:tb;text-indent:0;color:#000000;text-transform:none" font-family="Sans" d="m244 549.36c-2.7496 0-5 2.2504-5 5v6h2v-6c0-1.6687 1.3313-3 3-3s3 1.3313 3 3v6h2v-6c0-2.7496-2.2504-5-5-5z" line-height="normal" fill="#bebebe"/>
 </g>
</svg>
