<?xml version="1.0" encoding="UTF-8" standalone="no"?>
<svg id="svg1" xmlns="http://www.w3.org/2000/svg" version="1.1" xmlns:dc="http://purl.org/dc/elements/1.1/" height="24" width="24" xmlns:rdf="http://www.w3.org/1999/02/22-rdf-syntax-ns#" xmlns:ns3="http://www.openswatchbook.org/uri/2009/osb" xmlns:ns5="http://creativecommons.org/ns#">
 <title id="title13694">MyPaint symbolic icons</title>
 <metadata id="metadata7">
  <rdf:RDF>
   <ns5:Work rdf:about="">
    <dc:format>image/svg+xml</dc:format>
    <dc:type rdf:resource="http://purl.org/dc/dcmitype/StillImage"/>
    <dc:title>MyPaint symbolic icons</dc:title>
    <ns5:license rdf:resource=""/>
    <dc:creator>
     <ns5:Agent>
      <dc:title>GNOME Project</dc:title>
     </ns5:Agent>
    </dc:creator>
    <dc:contributor>
     <ns5:Agent>
      <dc:title>Andrew Chadwick</dc:title>
     </ns5:Agent>
    </dc:contributor>
   </ns5:Work>
  </rdf:RDF>
 </metadata>
 <g id="layer1" transform="translate(-40 -836.36)">
  <g id="layer2" opacity=".5" transform="translate(229.28 556.07)" display="none" fill="#859f46">
   <rect id="48x48" style="color:#000000" height="48" width="48" display="inline" y="4.25" x="-2.25"/>
   <rect id="32x32" style="color:#000000" height="32" width="32" display="inline" y="20.25" x="53.75"/>
   <rect id="22x22" style="color:#000000" height="22" width="22" display="inline" y="30.25" x="125.75"/>
   <rect id="16x16" style="color:#000000" height="16" width="16" display="inline" y="36.25" x="155.75"/>
  </g>
  <path id="use4326" style="block-progression:tb;text-indent:0;color:#000000;text-transform:none" font-family="Sans" d="m43 853.36v-1.4998c0.0025-0.25358 0.32408-0.81735 0.5-1l8.5-8.5 8.5 8.5c0.17592 0.18265 0.49746 0.74642 0.5 1v1.4998l-1.5 0.00025c-0.26399 0.006-0.80987-0.31675-1-0.5l-6.5-6.5-6.5 6.5c-0.19013 0.18323-0.73601 0.506-1 0.5z" line-height="normal" fill="#bebebe"/>
 </g>
</svg>
