<?xml version="1.0" encoding="UTF-8" standalone="no"?>
<svg id="svg1" xmlns="http://www.w3.org/2000/svg" version="1.1" xmlns:dc="http://purl.org/dc/elements/1.1/" height="24" width="24" xmlns:rdf="http://www.w3.org/1999/02/22-rdf-syntax-ns#" xmlns:ns4="http://creativecommons.org/ns#">
 <title id="title13694">MyPaint symbolic icons</title>
 <metadata id="metadata7">
  <rdf:RDF>
   <ns4:Work rdf:about="">
    <dc:format>image/svg+xml</dc:format>
    <dc:type rdf:resource="http://purl.org/dc/dcmitype/StillImage"/>
    <dc:title>MyPaint symbolic icons</dc:title>
    <ns4:license rdf:resource=""/>
    <dc:creator>
     <ns4:Agent>
      <dc:title>GNOME Project</dc:title>
     </ns4:Agent>
    </dc:creator>
    <dc:contributor>
     <ns4:Agent>
      <dc:title>Andrew Chadwick</dc:title>
     </ns4:Agent>
    </dc:contributor>
   </ns4:Work>
  </rdf:RDF>
 </metadata>
 <g id="layer1" transform="translate(-40 -708.36)">
  <g id="layer2" opacity=".5" transform="translate(229.28 556.07)" display="none" fill="#859f46">
   <rect id="48x48" style="color:#000000" height="48" width="48" display="inline" y="4.25" x="-2.25"/>
   <rect id="32x32" style="color:#000000" height="32" width="32" display="inline" y="20.25" x="53.75"/>
   <rect id="24x24" style="color:#000000" height="24" width="24" display="inline" y="28.25" x="93.75"/>
   <rect id="22x22" style="color:#000000" height="22" width="22" display="inline" y="30.25" x="125.75"/>
   <rect id="16x16" style="color:#000000" height="16" width="16" display="inline" y="36.25" x="155.75"/>
  </g>
  <rect id="use4931-842-5-1" style="color:#000000" fill-opacity=".3" transform="matrix(1 0 0 -1 0 1048.7)" height="24" width="24" y="316.36" x="40" fill="#606060"/>
  <path id="path6331" d="m54.311 722.9-1.5845 4.5332c-0.41924 1.2312 1.2997 1.8893 1.7358 0.61268l1.7599-4.4986z" fill-rule="evenodd" fill="#bebebe"/>
  <path id="path6315" d="m53.305 716.81 0.79348 1.1876 5.9242 2.4359 1.5611-0.51192 1.9892-5.5319c-2.5 0-0.5-6.0323-7-6.0323z" fill-rule="evenodd" fill="#bebebe"/>
  <path id="path5211" d="m54 719.43-0.70159 2.0108 5 1.9094 0.70159-1.9094z" fill-rule="evenodd" fill="#bebebe"/>
  <path id="path6270" style="color-rendering:auto;text-decoration-color:#000000;color:#000000;font-variant-numeric:normal;text-orientation:mixed;shape-padding:0;shape-rendering:auto;solid-color:#000000;text-decoration-line:none;text-rendering:auto;font-variant-position:normal;mix-blend-mode:normal;font-feature-settings:normal;font-variant-alternates:normal;text-indent:0;font-variant-ligatures:normal;dominant-baseline:auto;font-variant-caps:normal;image-rendering:auto;white-space:normal;text-decoration-style:solid;isolation:auto;text-transform:none" font-family="sans-serif" d="m41.42 709.36 0.67383 0.81836s3.3024 4.0232 5.1387 8.2207c0.91812 2.0988 1.4433 4.2289 1.0938 5.8379-0.3496 1.609-1.4629 2.8033-4.252 3.2695l0.16602 0.98632c3.0416-0.50843 4.6334-2.0682 5.0625-4.043 0.42907-1.9748-0.1953-4.259-1.1543-6.4512-1.615-3.6917-3.8814-6.6344-4.6758-7.6387l10.528-0.01v-1z" line-height="normal" fill="#bebebe"/>
  <path id="rect6272" style="color:#000000" d="m41 727.36h4v4.0215h-4z" fill-rule="evenodd" fill="#bebebe"/>
  <path id="path18601" style="color-rendering:auto;text-decoration-color:#000000;color:#000000;font-variant-numeric:normal;text-orientation:mixed;shape-padding:0;shape-rendering:auto;solid-color:#000000;text-decoration-line:none;text-rendering:auto;font-variant-position:normal;mix-blend-mode:normal;font-feature-settings:normal;font-variant-alternates:normal;text-indent:0;font-variant-ligatures:normal;dominant-baseline:auto;font-variant-caps:normal;image-rendering:auto;white-space:normal;text-decoration-style:solid;isolation:auto;text-transform:none" font-family="sans-serif" d="m42 729.36v1h9v-1z" line-height="normal" fill="#bebebe"/>
  <rect id="rect18603" height="4.0215" width="4" y="708.37" x="41" fill="#bebebe"/>
 </g>
</svg>
