<?xml version="1.0" encoding="UTF-8"?>
<svg width="24" height="24.007" version="1.1" xmlns="http://www.w3.org/2000/svg"><g transform="translate(-200 -516.35)"><path transform="translate(-176 348.36)" d="m381 169c-1.636 0-3 1.364-3 3v17c0 1.636 1.364 3 3 3h13c1.636 0 3-1.364 3-3v-17c0-1.636-1.364-3-3-3v2.375c0.014 0.5881-0.35288 1.1677-0.89045 1.4066s-1.2137 0.12287-1.6408-0.28163c-0.54016 0.46971-1.4286 0.46971-1.9688 0-0.54394 0.48642-1.4561 0.48642-2 0-0.54739 0.50355-1.4838 0.50355-2.0312 0-0.54016 0.46971-1.4286 0.46971-1.9688 0-0.85917 0.76814-2.5051 0.0275-2.5-1.125z" fill="#bebebe"/><path transform="matrix(1.5 0 0 1.5 -352 -270.18)" d="m372.33 524.36a0.33353 0.33353 0 0 0-0.32812 0.33789v2a0.33353 0.33353 0 1 0 0.66602 0v-2a0.33353 0.33353 0 0 0-0.3379-0.33789zm1.334 0a0.33353 0.33353 0 0 0-0.32813 0.33789v2a0.33353 0.33353 0 1 0 0.66602 0v-2a0.33353 0.33353 0 0 0-0.33789-0.33789zm1.332 0a0.33353 0.33353 0 0 0-0.32812 0.33789v2a0.33398 0.33398 0 1 0 0.66796 0v-2a0.33353 0.33353 0 0 0-0.33984-0.33789zm1.334 0a0.33353 0.33353 0 0 0-0.32812 0.33789v2a0.33353 0.33353 0 1 0 0.66602 0v-2a0.33353 0.33353 0 0 0-0.3379-0.33789zm1.334 0a0.33353 0.33353 0 0 0-0.32813 0.33789v2a0.33353 0.33353 0 1 0 0.66602 0v-2a0.33353 0.33353 0 0 0-0.33789-0.33789zm1.332 0a0.33353 0.33353 0 0 0-0.32812 0.33789v2a0.33398 0.33398 0 1 0 0.66796 0v-2a0.33353 0.33353 0 0 0-0.33984-0.33789z" fill="#bebebe"/><path transform="matrix(1.5 0 0 1.5 -352 -270.18)" d="m380.33 524.7-0.66667 2.6667m-0.66665-2.6667-0.66667 2.6667m-0.66667-2.6667-0.66667 2.6667m-0.66666-2.6667-0.66667 2.6667m-0.66667-2.6667-0.66667 2.6667m-0.66666-2.6667-0.66667 2.6667m-0.66667-2.6667-0.66667 2.6667" fill="none"/></g></svg>
