<?xml version="1.0" encoding="UTF-8" standalone="no"?>
<svg id="svg1" xmlns="http://www.w3.org/2000/svg" version="1.1" xmlns:dc="http://purl.org/dc/elements/1.1/" height="24" width="24" xmlns:rdf="http://www.w3.org/1999/02/22-rdf-syntax-ns#" xmlns:ns4="http://creativecommons.org/ns#">
 <title id="title13694">MyPaint symbolic icons</title>
 <metadata id="metadata7">
  <rdf:RDF>
   <ns4:Work rdf:about="">
    <dc:format>image/svg+xml</dc:format>
    <dc:type rdf:resource="http://purl.org/dc/dcmitype/StillImage"/>
    <dc:title>MyPaint symbolic icons</dc:title>
    <ns4:license rdf:resource=""/>
    <dc:creator>
     <ns4:Agent>
      <dc:title>GNOME Project</dc:title>
     </ns4:Agent>
    </dc:creator>
    <dc:contributor>
     <ns4:Agent>
      <dc:title>Andrew Chadwick</dc:title>
     </ns4:Agent>
    </dc:contributor>
   </ns4:Work>
  </rdf:RDF>
 </metadata>
 <g id="layer1" transform="translate(-120 -900.36)">
  <g id="layer2" opacity=".5" transform="translate(229.28 556.07)" display="none" fill="#859f46">
   <rect id="48x48" style="color:#000000" height="48" width="48" display="inline" y="4.25" x="-2.25"/>
   <rect id="32x32" style="color:#000000" height="32" width="32" display="inline" y="20.25" x="53.75"/>
   <rect id="24x24" style="color:#000000" height="24" width="24" display="inline" y="28.25" x="93.75"/>
   <rect id="22x22" style="color:#000000" height="22" width="22" display="inline" y="30.25" x="125.75"/>
   <rect id="16x16" style="color:#000000" height="16" width="16" display="inline" y="36.25" x="155.75"/>
  </g>
  <rect id="use4931-842-5-1-9-9-9-4-9-5-8-3" style="color:#000000" fill-opacity=".3" transform="matrix(1 0 0 -1 80 1240.7)" height="24" width="24" y="316.36" x="40" fill="#606060"/>
  <path id="path2273-6-2-3-4" d="m148.5 957.36-1.5 1.5 2.5 2.5 1.5-1.5c0-2-0.5-2.5-2.5-2.5zm-3 3-10.5 10.5v2.5h2.5l10.5-10.5z" fill-rule="evenodd" transform="translate(-8 -56)" fill="#bebebe"/>
  <rect id="rect30216-1" transform="translate(-8 -56)" height="2" width="12" y="960.36" x="128" fill="#bebebe"/>
  <rect id="rect30218-7" transform="translate(-8 -56)" height="2" width="6" y="965.36" x="128" fill="#bebebe"/>
  <rect id="rect30220-0" transform="translate(-8 -56)" height="2" width="5" y="970.36" x="128" fill="#bebebe"/>
  <rect id="rect30222-5" transform="translate(-8 -56)" height="2" width="18" y="975.36" x="128" fill="#bebebe"/>
 </g>
</svg>
