<?xml version="1.0" encoding="UTF-8"?>
<svg width="24" height="24" version="1.1" xmlns="http://www.w3.org/2000/svg"><g transform="translate(-360 -612.36)" fill="#bebebe"><path d="m372 614.36v8h0.5l3.5-4-3.5-4z"/><path transform="matrix(0 1.5 -1.5 0 431.25 376.11)" d="m165.5 34.834a0.66673 0.66673 0 1 0 0 1.332c1.4305 0 2.6964 0.90711 3.1562 2.2617 0.45983 1.3546 8e-3 2.8459-1.127 3.7168-1.1349 0.87085-2.6914 0.92171-3.8809 0.12695-1.1894-0.79476-1.7394-2.253-1.3691-3.6348a0.66673 0.66673 0 1 0-1.2871-0.34375c-0.5168 1.9287 0.25579 3.9786 1.916 5.0879 1.6602 1.1093 3.8495 1.0378 5.4336-0.17773 1.5841-1.2155 2.22-3.3124 1.5781-5.2031s-2.4232-3.166-4.4199-3.166z"/></g></svg>
