<?xml version="1.0" encoding="UTF-8"?>
<svg width="24" height="24" version="1.1" xmlns="http://www.w3.org/2000/svg"><g transform="translate(-360 -676.36)" fill="#bebebe"><path transform="matrix(-1.2 0 0 -1.2 805.2 1042.1)" d="m362.14 289.03c-0.86658-0.17238-1.7729-0.14867-2.6484 0.0859a0.83358 0.83358 0 1 0 0.43165 1.6094c1.2518-0.33543 2.587-0.0683 3.6152 0.7207 1.0282 0.78896 1.6289 2.0087 1.6289 3.3047a0.83398 0.83398 0 1 0 1.668 0c0-1.8129-0.84494-3.5253-2.2832-4.6289-0.71913-0.5518-1.5455-0.91942-2.4121-1.0918z"/><path transform="matrix(1.2 0 0 1.2 -61.2 334.66)" d="m362.14 289.03c-0.86658-0.17238-1.7729-0.14867-2.6484 0.0859a0.83358 0.83358 0 1 0 0.43165 1.6094c1.2518-0.33543 2.587-0.0683 3.6152 0.7207 1.0282 0.78896 1.6289 2.0087 1.6289 3.3047a0.83398 0.83398 0 1 0 1.668 0c0-1.8129-0.84494-3.5253-2.2832-4.6289-0.71913-0.5518-1.5455-0.91942-2.4121-1.0918z"/><path transform="translate(232,344)" d="m138 344.36h-8v-0.5l4-3.5 4 3.5z"/><path transform="translate(232,344)" d="m142 344.36h8v0.5l-4 3.5-4-3.5z"/></g></svg>
