<?xml version="1.0" encoding="UTF-8" standalone="no"?>
<svg id="svg1" xmlns="http://www.w3.org/2000/svg" version="1.1" xmlns:dc="http://purl.org/dc/elements/1.1/" height="24" width="24" xmlns:rdf="http://www.w3.org/1999/02/22-rdf-syntax-ns#" xmlns:ns4="http://creativecommons.org/ns#">
 <title id="title13694">MyPaint symbolic icons</title>
 <metadata id="metadata7">
  <rdf:RDF>
   <ns4:Work rdf:about="">
    <dc:format>image/svg+xml</dc:format>
    <dc:type rdf:resource="http://purl.org/dc/dcmitype/StillImage"/>
    <dc:title>MyPaint symbolic icons</dc:title>
    <ns4:license rdf:resource=""/>
    <dc:creator>
     <ns4:Agent>
      <dc:title>GNOME Project</dc:title>
     </ns4:Agent>
    </dc:creator>
    <dc:contributor>
     <ns4:Agent>
      <dc:title>Andrew Chadwick</dc:title>
     </ns4:Agent>
    </dc:contributor>
   </ns4:Work>
  </rdf:RDF>
 </metadata>
 <g id="layer1" transform="translate(-280 -548.36)">
  <g id="layer2" opacity=".5" transform="translate(229.28 556.07)" display="none" fill="#859f46">
   <rect id="48x48" style="color:#000000" height="48" width="48" display="inline" y="4.25" x="-2.25"/>
   <rect id="32x32" style="color:#000000" height="32" width="32" display="inline" y="20.25" x="53.75"/>
   <rect id="24x24" style="color:#000000" height="24" width="24" display="inline" y="28.25" x="93.75"/>
   <rect id="22x22" style="color:#000000" height="22" width="22" display="inline" y="30.25" x="125.75"/>
   <rect id="16x16" style="color:#000000" height="16" width="16" display="inline" y="36.25" x="155.75"/>
  </g>
  <path id="path31387-7-9-5" style="color:#000000" d="m115.33 706.36v6.6667h9.3333v-6.6667z" transform="matrix(1.5 0 0 1.5 112 -502.18)" fill="#bebebe"/>
  <path id="path30005-3" d="m120.73 714.36c-0.40626 0-0.73333 0.29734-0.73333 0.66667s0.32707 0.66667 0.73333 0.66667h6.6v-1.3333h-5.13z" transform="matrix(1.5 0 0 1.5 112 -502.18)" fill="#bebebe"/>
  <path id="path30007-8" d="m115.73 714.36c0.51706 0 0.93333 0.29734 0.93333 0.66667s-0.41627 0.66667-0.93333 0.66667h-3.0667v-1.3333h3.0667z" transform="matrix(1.5 0 0 1.5 112 -502.18)" fill="#bebebe"/>
  <path id="path12048" style="color:#000000;text-indent:0;text-decoration-line:none;text-transform:none" font-family="Sans" d="m120 701.03c-1.833 0-3.3333 1.5003-3.3333 3.3333v4h1.33v-4c0-1.1125 0.88753-2 2-2s2 0.88754 2 2v4h1.3333v-4c0-1.833-1.5003-3.3333-3.3333-3.3333z" transform="matrix(1.5 0 0 1.5 112 -502.18)" line-height="normal" fill="#bebebe"/>
 </g>
</svg>
