<?xml version="1.0" encoding="UTF-8" standalone="no"?>
<svg id="svg1" xmlns="http://www.w3.org/2000/svg" version="1.1" xmlns:dc="http://purl.org/dc/elements/1.1/" height="24" width="24" xmlns:rdf="http://www.w3.org/1999/02/22-rdf-syntax-ns#" xmlns:ns3="http://www.openswatchbook.org/uri/2009/osb" xmlns:ns5="http://creativecommons.org/ns#">
 <title id="title13694">MyPaint symbolic icons</title>
 <metadata id="metadata7">
  <rdf:RDF>
   <ns5:Work rdf:about="">
    <dc:format>image/svg+xml</dc:format>
    <dc:type rdf:resource="http://purl.org/dc/dcmitype/StillImage"/>
    <dc:title>MyPaint symbolic icons</dc:title>
    <ns5:license rdf:resource=""/>
    <dc:creator>
     <ns5:Agent>
      <dc:title>GNOME Project</dc:title>
     </ns5:Agent>
    </dc:creator>
    <dc:contributor>
     <ns5:Agent>
      <dc:title>Andrew Chadwick</dc:title>
     </ns5:Agent>
    </dc:contributor>
   </ns5:Work>
  </rdf:RDF>
 </metadata>
 <g id="layer1" transform="translate(-120 -868.36)">
  <g id="layer2" opacity=".5" transform="translate(229.28 556.07)" display="none" fill="#859f46">
   <rect id="48x48" style="color:#000000" height="48" width="48" display="inline" y="4.25" x="-2.25"/>
   <rect id="32x32" style="color:#000000" height="32" width="32" display="inline" y="20.25" x="53.75"/>
   <rect id="22x22" style="color:#000000" height="22" width="22" display="inline" y="30.25" x="125.75"/>
   <rect id="16x16" style="color:#000000" height="16" width="16" display="inline" y="36.25" x="155.75"/>
  </g>
  <path id="path6682-4" style="block-progression:tb;text-indent:0;color:#000000;text-transform:none" font-family="Sans" d="m131 890.36h-6v-19h8l6 6v10.5l2 3v-14.047c-0.003-0.40264-0.22323-0.80128-0.51565-1.0781l-5.9531-5.9062c-0.27684-0.29241-0.67548-0.46574-1.0781-0.46875h-8.9531c-0.78537 0.00007-1.4999 0.71463-1.5 1.5v20c0.00008 0.78538 0.71463 1.4999 1.5 1.5h7.5234z" line-height="normal" fill="#bebebe"/>
  <path id="path3908-6-6-1" style="block-progression:tb;text-indent:0;color:#000000;text-transform:none" font-family="Sans" d="m133.55 880.22c-0.48729-0.0885-1.0004-0.0682-1.4911-0.005l1.4638 2.5931c0.30132 0.53261-0.0356 1.1442-0.67533 1.5136l-1.1549 0.66676c-0.64578 0.35898-1.3652 0.31167-1.666-0.2212l-1.4635-2.5933c-0.31027 0.38426-0.59402 0.81063-0.77122 1.2715-0.84807 2.2059 0.35514 4.3376 2.6874 4.7612 0.48727 0.0886 1.0003 0.0682 1.491 0.005 0.0395-0.006 2.5276 4.1476 2.5276 4.1476h5l-3.9936-6.1015c0.31021-0.38426 0.55609-0.81567 0.7333-1.2766 0.84802-2.2058-0.35518-4.3375-2.6874-4.7612z" line-height="normal" fill="#bebebe"/>
 </g>
</svg>
