<?xml version="1.0" encoding="UTF-8" standalone="no"?>
<svg id="svg1" xmlns="http://www.w3.org/2000/svg" version="1.1" xmlns:dc="http://purl.org/dc/elements/1.1/" height="24" width="24" xmlns:rdf="http://www.w3.org/1999/02/22-rdf-syntax-ns#" xmlns:ns4="http://creativecommons.org/ns#">
 <title id="title13694">MyPaint symbolic icons</title>
 <metadata id="metadata7">
  <rdf:RDF>
   <ns4:Work rdf:about="">
    <dc:format>image/svg+xml</dc:format>
    <dc:type rdf:resource="http://purl.org/dc/dcmitype/StillImage"/>
    <dc:title>MyPaint symbolic icons</dc:title>
    <ns4:license rdf:resource=""/>
    <dc:creator>
     <ns4:Agent>
      <dc:title>GNOME Project</dc:title>
     </ns4:Agent>
    </dc:creator>
    <dc:contributor>
     <ns4:Agent>
      <dc:title>Andrew Chadwick</dc:title>
     </ns4:Agent>
    </dc:contributor>
   </ns4:Work>
  </rdf:RDF>
 </metadata>
 <g id="layer1" transform="translate(-280 -516.36)">
  <rect id="rect4505-4-4-1" style="color:#000000" rx="0" ry=".47140" transform="matrix(1.5 0 0 1.5 76 -486.18)" width="14.667" y="682.36" x="136.67" height="1.3333" fill="#bebebe"/>
  <path id="path4760-2" style="color:#000000" d="m141.83 668.36 0.83334 3.3333h3.34l0.66667-3.3333z" transform="matrix(1.5 0 0 1.5 76 -486.18)" fill="#bebebe"/>
  <path id="path5783-3" style="color:#000000" d="m147.33 675.36c0 0.48277-0.11403 1.1936-0.31664 1.9586-0.49272 1.8605-2.0167 4.3747-3.0167 4.3747 0-3-1.3096-3.6987-1.857-4.2833-0.5022-0.53635-0.80969-1.2573-0.80969-2.05 0-1.6568 1.3432-3 3-3s3 1.3432 3 3z" transform="matrix(1.5 0 0 1.5 76 -486.18)" fill="#bebebe"/>
  <g id="layer2" opacity=".5" transform="translate(229.28 556.07)" display="none" fill="#859f46">
   <rect id="48x48" style="color:#000000" height="48" width="48" display="inline" y="4.25" x="-2.25"/>
   <rect id="32x32" style="color:#000000" height="32" width="32" display="inline" y="20.25" x="53.75"/>
   <rect id="24x24" style="color:#000000" height="24" width="24" display="inline" y="28.25" x="93.75"/>
   <rect id="22x22" style="color:#000000" height="22" width="22" display="inline" y="30.25" x="125.75"/>
   <rect id="16x16" style="color:#000000" height="16" width="16" display="inline" y="36.25" x="155.75"/>
  </g>
 </g>
</svg>
