<?xml version="1.0" encoding="UTF-8" standalone="no"?>
<svg id="svg1" xmlns="http://www.w3.org/2000/svg" version="1.1" xmlns:dc="http://purl.org/dc/elements/1.1/" height="24" width="24" xmlns:rdf="http://www.w3.org/1999/02/22-rdf-syntax-ns#" xmlns:ns3="http://www.openswatchbook.org/uri/2009/osb" xmlns:ns5="http://creativecommons.org/ns#">
 <title id="title13694">MyPaint symbolic icons</title>
 <metadata id="metadata7">
  <rdf:RDF>
   <ns5:Work rdf:about="">
    <dc:format>image/svg+xml</dc:format>
    <dc:type rdf:resource="http://purl.org/dc/dcmitype/StillImage"/>
    <dc:title>MyPaint symbolic icons</dc:title>
    <ns5:license rdf:resource=""/>
    <dc:creator>
     <ns5:Agent>
      <dc:title>GNOME Project</dc:title>
     </ns5:Agent>
    </dc:creator>
    <dc:contributor>
     <ns5:Agent>
      <dc:title>Andrew Chadwick</dc:title>
     </ns5:Agent>
    </dc:contributor>
   </ns5:Work>
  </rdf:RDF>
 </metadata>
 <g id="layer1" transform="translate(-104 -676.36)">
  <g id="layer2" opacity=".5" transform="translate(229.28 556.07)" display="none" fill="#859f46">
   <rect id="48x48" style="color:#000000" height="48" width="48" display="inline" y="4.25" x="-2.25"/>
   <rect id="32x32" style="color:#000000" height="32" width="32" display="inline" y="20.25" x="53.75"/>
   <rect id="22x22" style="color:#000000" height="22" width="22" display="inline" y="30.25" x="125.75"/>
   <rect id="16x16" style="color:#000000" height="16" width="16" display="inline" y="36.25" x="155.75"/>
  </g>
  <rect id="rect26194" rx="1.5" ry="1.5" height="12" width="3" y="676.36" x="117" fill="#bebebe"/>
  <path id="path26192" d="m116 682.36-3.7188 1.4688s-0.0292-0.0421-0.40625 0.0312c-6 1.1662-5.875 2.5001-5.875 4.5v7.5001c0 1.5 0.669 1.5 1.5 1.5s1.5-0.5 1.5-1.5c0-3.1667-1-7 0-9.5001 7 11 0 0.0156 7.1875 11.625 0.57546 0.8523 1.5948 1.1547 2.2812 0.65625l7.4688-5.4062c0.68643-0.4985 0.76299-1.5852 0.1875-2.4375l-5.125-7.9374v4.5c0 1-1 2-2 2h-1c-1 0-2-1-2-2v-5.0001z" fill="#bebebe"/>
 </g>
</svg>
