<?xml version="1.0" encoding="UTF-8"?>
<svg width="16" height="16" fill="#bebebe" version="1.1" xmlns="http://www.w3.org/2000/svg"><path d="m7 3v4h-4v2h4v4h2v-4h4v-2h-4v-4z"/><path d="m0 1v3.5a0.5 0.5 0 0 0 0.5 0.5 0.5 0.5 0 0 0 0.5-0.5v-2.5h3.5a0.5 0.5 0 0 0 0.5-0.5 0.5 0.5 0 0 0-0.5-0.5zm11.5 0a0.5 0.5 0 0 0-0.5 0.5 0.5 0.5 0 0 0 0.5 0.5h3.5v2.5a0.5 0.5 0 0 0 0.5 0.5 0.5 0.5 0 0 0 0.5-0.5v-3.5zm-11 10a0.5 0.5 0 0 0-0.5 0.5v3.5h4.5a0.5 0.5 0 0 0 0.5-0.5 0.5 0.5 0 0 0-0.5-0.5h-3.5v-2.5a0.5 0.5 0 0 0-0.5-0.5zm15 0a0.5 0.5 0 0 0-0.5 0.5v2.5h-3.5a0.5 0.5 0 0 0-0.5 0.5 0.5 0.5 0 0 0 0.5 0.5h4.5v-3.5a0.5 0.5 0 0 0-0.5-0.5z" opacity=".3"/></svg>
