<?xml version="1.0" encoding="UTF-8"?>
<svg width="16" height="16" fill="#bebebe" version="1.1" xmlns="http://www.w3.org/2000/svg"><path d="m8 1v6h0.5l2.5-3-2.5-3z"/><path d="m0 1v3.5a0.5 0.5 0 0 0 0.5 0.5 0.5 0.5 0 0 0 0.5-0.5v-2.5h3.5a0.5 0.5 0 0 0 0.5-0.5 0.5 0.5 0 0 0-0.5-0.5zm11.5 0a0.5 0.5 0 0 0-0.5 0.5 0.5 0.5 0 0 0 0.5 0.5h3.5v2.5a0.5 0.5 0 0 0 0.5 0.5 0.5 0.5 0 0 0 0.5-0.5v-3.5zm-11 10a0.5 0.5 0 0 0-0.5 0.5v3.5h4.5a0.5 0.5 0 0 0 0.5-0.5 0.5 0.5 0 0 0-0.5-0.5h-3.5v-2.5a0.5 0.5 0 0 0-0.5-0.5zm15 0a0.5 0.5 0 0 0-0.5 0.5v2.5h-3.5a0.5 0.5 0 0 0-0.5 0.5 0.5 0.5 0 0 0 0.5 0.5h4.5v-3.5a0.5 0.5 0 0 0-0.5-0.5z" opacity=".3"/><path d="m7.94 3c-2.74 0.03-4.96 2.3-4.94 5.04s2.28 4.97 5.02 4.96 4.98-2.26 4.98-5c0-0.55-0.45-1-1-1s-1 0.45-1 1c0 1.66-1.32 3-2.99 3-1.66 0-3-1.31-3.01-2.97-0.01-1.67 1.3-3.01 2.96-3.03l1.04-1z"/></svg>
