<?xml version="1.0" encoding="UTF-8"?>
<svg width="16" height="16" fill="#bebebe" version="1.1" xmlns="http://www.w3.org/2000/svg"><path d="m8.26 3c-1.26 0-2.26 0.46-3.26 1l1 2c1.2-0.8 1.62-1 2.22-1s1.2 0.16 1.44 0.38 0.36 0.5 0.34 1c0 0.36-0.26 0.75-0.72 1.1-0.46 0.32-1.1 0.52-1.28 0.52-0.5 0-1 0.5-1 1v1.46c0 0.54 0 0.54 0.47 0.54h1.03c0.5 0 0.5 0 0.5-0.5v-0.88c0-0.62 1-0.37 1.5-0.62 1-0.5 1.46-1.4 1.5-2.56 0.04-0.98-0.33-1.91-1-2.53-0.67-0.61-1.76-0.91-2.74-0.91z"/><rect x="7" y="12" width="2" height="2" ry=".5"/></svg>
