<?xml version="1.0" encoding="UTF-8"?>
<svg width="16" height="16" fill="#bebebe" version="1.1" xmlns="http://www.w3.org/2000/svg"><path d="m4 5v1c0 0.27 0.1 0.53 0.28 0.72l3.28 3.28h0.88l3.28-3.28c0.18-0.19 0.28-0.45 0.28-0.72v-1h-1c-0.27 0-0.53 0.1-0.72 0.28l-2.28 2.28-2.28-2.28c-0.19-0.18-0.45-0.28-0.72-0.28z"/><path d="m7 3v5h2v-5z"/><path d="m3 11v4h10v-4zm6.5 1.43c0.26 0 0.5 0.24 0.5 0.51v0.06c0 0.55-0.45 1-1 1h-2c-0.55 0-1-0.45-1-1v-0.06c-0.01-0.22 0.14-0.44 0.34-0.5h0.06c0.3-0.06 0.6 0.2 0.6 0.5v0.06h2v-0.06c0-0.27 0.24-0.51 0.5-0.51z"/><path d="m3 0c-0.55 0-1 0.45-1 1v2c0 0.55 0.45 1 1 1h10c0.55 0 1-0.45 1-1v-2c0-0.55-0.45-1-1-1zm0 1h10v2h-10z"/><path d="m4.41 9a0.5 0.5 0 0 0-0.31 0.22l-1 1.5a0.5 0.5 0 1 0 0.81 0.56l1-1.5a0.5 0.5 0 0 0-0.5-0.78zm7 0a0.5 0.5 0 0 0-0.31 0.78l1 1.5a0.5 0.5 0 1 0 0.81-0.56l-1-1.5a0.5 0.5 0 0 0-0.5-0.22z"/></svg>
