<?xml version="1.0" encoding="UTF-8"?>
<svg width="16" height="16" fill="#bebebe" version="1.1" xmlns="http://www.w3.org/2000/svg"><path d="m9 0 0.5 1c5.65 0.52 6.34 4.2 1 8-1.15 0.82-2.5 2-2.5 4 0 3 4 3 6 3l0.5-1c-1.5 0-5.59-0.48-2.5-4 1.9-2.16 4-4.07 4-6 0-2.5-1-5-7-5z"/><path d="m5.5 1c-2.45 0-4.45 2.02-4.45 4.48s2 4.47 4.45 4.47 4.45-2.02 4.45-4.48c0-2.45-2-4.47-4.45-4.47zm0 1.5c1.64 0 2.95 1.32 2.95 2.98 0 1.65-1.31 2.97-2.95 2.97s-2.95-1.32-2.95-2.97c0-1.66 1.31-2.98 2.95-2.98z"/><path d="m5.5 0a0.5 0.5 0 0 0-0.5 0.5v2.5a0.5 0.5 0 1 0 1 0v-2.5a0.5 0.5 0 0 0-0.5-0.5zm-5 5a0.5 0.5 0 1 0 0 1h2.5a0.5 0.5 0 1 0 0-1zm7.5 0a0.5 0.5 0 1 0 0 1h2.5a0.5 0.5 0 1 0 0-1zm-2.5 2.5a0.5 0.5 0 0 0-0.5 0.5v2.5a0.5 0.5 0 1 0 1 0v-2.5a0.5 0.5 0 0 0-0.5-0.5z"/><circle cx="5.5" cy="5.5" r="1.075" fill="#bebebe"/></svg>
