<?xml version="1.0" encoding="UTF-8" ?><svg height="38.4pt" viewBox="0 0 38.4 38.4" width="38.4pt" xmlns="http://www.w3.org/2000/svg" xmlns:xlink="http://www.w3.org/1999/xlink"><clipPath id="a"><path d="m38 19.199219c0 10.382812-8.417969 18.800781-18.800781 18.800781-10.382813 0-18.800781-8.417969-18.800781-18.800781 0-10.382813 8.417968-18.800781 18.800781-18.800781 10.382812 0 18.800781 8.417968 18.800781 18.800781"/></clipPath><linearGradient id="b" gradientTransform="matrix(.793156 .104421 -.104421 .793156 19.2 19.2)" gradientUnits="userSpaceOnUse" x1="20.5" x2="20.414062" y1="0" y2="-2.675781"><stop offset="0" stop-color="#cc1a00"/><stop offset="1" stop-color="#cc1a00" stop-opacity="0"/></linearGradient><linearGradient id="c" gradientTransform="matrix(.772741 .207055 -.207055 .772741 19.2 19.2)" gradientUnits="userSpaceOnUse" x1="20.5" x2="20.414062" y1="0" y2="-2.675781"><stop offset="0" stop-color="#c30"/><stop offset="1" stop-color="#c30" stop-opacity="0"/></linearGradient><linearGradient id="d" gradientTransform="matrix(.739104 .306147 -.306147 .739104 19.2 19.2)" gradientUnits="userSpaceOnUse" x1="20.5" x2="20.414062" y1="0" y2="-2.675781"><stop offset="0" stop-color="#cc4d00"/><stop offset="1" stop-color="#cc4d00" stop-opacity="0"/></linearGradient><linearGradient id="e" gradientTransform="matrix(.69282 .4 -.4 .69282 19.2 19.2)" gradientUnits="userSpaceOnUse" x1="20.5" x2="20.414062" y1="0" y2="-2.675781"><stop offset="0" stop-color="#c60"/><stop offset="1" stop-color="#c60" stop-opacity="0"/></linearGradient><linearGradient id="f" gradientTransform="matrix(.634683 .487009 -.487009 .634683 19.2 19.2)" gradientUnits="userSpaceOnUse" x1="20.5" x2="20.410156" y1="0" y2="-2.675781"><stop offset="0" stop-color="#cc7f00"/><stop offset="1" stop-color="#cc7f00" stop-opacity="0"/></linearGradient><linearGradient id="g" gradientTransform="matrix(.565685 .565685 -.565685 .565685 19.2 19.2)" gradientUnits="userSpaceOnUse" x1="20.5" x2="20.414062" y1="0" y2="-2.675781"><stop offset="0" stop-color="#c90"/><stop offset="1" stop-color="#c90" stop-opacity="0"/></linearGradient><linearGradient id="h" gradientTransform="matrix(.487009 .634683 -.634683 .487009 19.2 19.2)" gradientUnits="userSpaceOnUse" x1="20.5" x2="20.414062" y1="0" y2="-2.675781"><stop offset="0" stop-color="#ccb300"/><stop offset="1" stop-color="#ccb300" stop-opacity="0"/></linearGradient><linearGradient id="i" gradientTransform="matrix(.4 .69282 -.69282 .4 19.2 19.2)" gradientUnits="userSpaceOnUse" x1="20.5" x2="20.414062" y1="0" y2="-2.675781"><stop offset="0" stop-color="#cc0"/><stop offset="1" stop-color="#cc0" stop-opacity="0"/></linearGradient><linearGradient id="j" gradientTransform="matrix(.306147 .739104 -.739104 .306147 19.2 19.2)" gradientUnits="userSpaceOnUse" x1="20.5" x2="20.410156" y1="0" y2="-2.675781"><stop offset="0" stop-color="#b3cc00"/><stop offset="1" stop-color="#b3cc00" stop-opacity="0"/></linearGradient><linearGradient id="k" gradientTransform="matrix(.207055 .772741 -.772741 .207055 19.2 19.2)" gradientUnits="userSpaceOnUse" x1="20.5" x2="20.414062" y1="0" y2="-2.675781"><stop offset="0" stop-color="#9c0"/><stop offset="1" stop-color="#9c0" stop-opacity="0"/></linearGradient><linearGradient id="l" gradientTransform="matrix(.104421 .793156 -.793156 .104421 19.2 19.2)" gradientUnits="userSpaceOnUse" x1="20.5" x2="20.414062" y1="0" y2="-2.675781"><stop offset="0" stop-color="#7fcc00"/><stop offset="1" stop-color="#7fcc00" stop-opacity="0"/></linearGradient><linearGradient id="m" gradientTransform="matrix(0 .8 -.8 0 19.2 19.2)" gradientUnits="userSpaceOnUse" x1="20.5" x2="20.414062" y1="0" y2="-2.675781"><stop offset="0" stop-color="#6c0"/><stop offset="1" stop-color="#6c0" stop-opacity="0"/></linearGradient><linearGradient id="n" gradientTransform="matrix(-.104421 .793156 -.793156 -.104421 19.2 19.2)" gradientUnits="userSpaceOnUse" x1="20.5" x2="20.414062" y1="0" y2="-2.675781"><stop offset="0" stop-color="#4dcc00"/><stop offset="1" stop-color="#4dcc00" stop-opacity="0"/></linearGradient><linearGradient id="o" gradientTransform="matrix(-.207055 .772741 -.772741 -.207055 19.2 19.2)" gradientUnits="userSpaceOnUse" x1="20.5" x2="20.414062" y1="0" y2="-2.675781"><stop offset="0" stop-color="#3c0"/><stop offset="1" stop-color="#3c0" stop-opacity="0"/></linearGradient><linearGradient id="p" gradientTransform="matrix(-.306147 .739104 -.739104 -.306147 19.2 19.2)" gradientUnits="userSpaceOnUse" x1="20.5" x2="20.414062" y1="0" y2="-2.679688"><stop offset="0" stop-color="#1acc00"/><stop offset="1" stop-color="#1acc00" stop-opacity="0"/></linearGradient><linearGradient id="q" gradientTransform="matrix(-.4 .69282 -.69282 -.4 19.2 19.2)" gradientUnits="userSpaceOnUse" x1="20.5" x2="20.410156" y1="0" y2="-2.675781"><stop offset="0" stop-color="#0c0"/><stop offset="1" stop-color="#0c0" stop-opacity="0"/></linearGradient><linearGradient id="r" gradientTransform="matrix(-.487009 .634683 -.634683 -.487009 19.2 19.2)" gradientUnits="userSpaceOnUse" x1="20.5" x2="20.410156" y1="0" y2="-2.675781"><stop offset="0" stop-color="#00cc1a"/><stop offset="1" stop-color="#00cc1a" stop-opacity="0"/></linearGradient><linearGradient id="s" gradientTransform="matrix(-.565685 .565685 -.565685 -.565685 19.2 19.2)" gradientUnits="userSpaceOnUse" x1="20.5" x2="20.414062" y1="0" y2="-2.675781"><stop offset="0" stop-color="#0c3"/><stop offset="1" stop-color="#0c3" stop-opacity="0"/></linearGradient><linearGradient id="t" gradientTransform="matrix(-.634683 .487009 -.487009 -.634683 19.2 19.2)" gradientUnits="userSpaceOnUse" x1="20.5" x2="20.414062" y1="0" y2="-2.675781"><stop offset="0" stop-color="#00cc4d"/><stop offset="1" stop-color="#00cc4d" stop-opacity="0"/></linearGradient><linearGradient id="u" gradientTransform="matrix(-.69282 .4 -.4 -.69282 19.2 19.2)" gradientUnits="userSpaceOnUse" x1="20.5" x2="20.414062" y1="0" y2="-2.675781"><stop offset="0" stop-color="#0c6"/><stop offset="1" stop-color="#0c6" stop-opacity="0"/></linearGradient><linearGradient id="v" gradientTransform="matrix(-.739104 .306147 -.306147 -.739104 19.2 19.2)" gradientUnits="userSpaceOnUse" x1="20.5" x2="20.414062" y1="0" y2="-2.671875"><stop offset="0" stop-color="#00cc7f"/><stop offset="1" stop-color="#00cc7f" stop-opacity="0"/></linearGradient><linearGradient id="w" gradientTransform="matrix(-.772741 .207055 -.207055 -.772741 19.2 19.2)" gradientUnits="userSpaceOnUse" x1="20.5" x2="20.414062" y1="0" y2="-2.675781"><stop offset="0" stop-color="#0c9"/><stop offset="1" stop-color="#0c9" stop-opacity="0"/></linearGradient><linearGradient id="x" gradientTransform="matrix(-.793156 .104421 -.104421 -.793156 19.2 19.2)" gradientUnits="userSpaceOnUse" x1="20.5" x2="20.410156" y1="0" y2="-2.675781"><stop offset="0" stop-color="#00ccb3"/><stop offset="1" stop-color="#00ccb3" stop-opacity="0"/></linearGradient><linearGradient id="y" gradientTransform="matrix(-.8 0 0 -.8 19.2 19.2)" gradientUnits="userSpaceOnUse" x1="20.5" x2="20.410156" y1="0" y2="-2.675781"><stop offset="0" stop-color="#0cc"/><stop offset="1" stop-color="#0cc" stop-opacity="0"/></linearGradient><linearGradient id="z" gradientTransform="matrix(-.793156 -.104421 .104421 -.793156 19.2 19.2)" gradientUnits="userSpaceOnUse" x1="20.5" x2="20.410156" y1="0" y2="-2.675781"><stop offset="0" stop-color="#00b3cc"/><stop offset="1" stop-color="#00b3cc" stop-opacity="0"/></linearGradient><linearGradient id="A" gradientTransform="matrix(-.772741 -.207055 .207055 -.772741 19.2 19.2)" gradientUnits="userSpaceOnUse" x1="20.5" x2="20.410156" y1="0" y2="-2.675781"><stop offset="0" stop-color="#09c"/><stop offset="1" stop-color="#09c" stop-opacity="0"/></linearGradient><linearGradient id="B" gradientTransform="matrix(-.739104 -.306147 .306147 -.739104 19.2 19.2)" gradientUnits="userSpaceOnUse" x1="20.5" x2="20.410156" y1="0" y2="-2.675781"><stop offset="0" stop-color="#007fcc"/><stop offset="1" stop-color="#007fcc" stop-opacity="0"/></linearGradient><linearGradient id="C" gradientTransform="matrix(-.69282 -.4 .4 -.69282 19.2 19.2)" gradientUnits="userSpaceOnUse" x1="20.5" x2="20.414062" y1="0" y2="-2.679688"><stop offset="0" stop-color="#06c"/><stop offset="1" stop-color="#06c" stop-opacity="0"/></linearGradient><linearGradient id="D" gradientTransform="matrix(-.634683 -.487009 .487009 -.634683 19.2 19.2)" gradientUnits="userSpaceOnUse" x1="20.5" x2="20.414062" y1="0" y2="-2.675781"><stop offset="0" stop-color="#004dcc"/><stop offset="1" stop-color="#004dcc" stop-opacity="0"/></linearGradient><linearGradient id="E" gradientTransform="matrix(-.565685 -.565685 .565685 -.565685 19.2 19.2)" gradientUnits="userSpaceOnUse" x1="20.5" x2="20.414062" y1="0" y2="-2.675781"><stop offset="0" stop-color="#03c"/><stop offset="1" stop-color="#03c" stop-opacity="0"/></linearGradient><linearGradient id="F" gradientTransform="matrix(-.487009 -.634683 .634683 -.487009 19.2 19.2)" gradientUnits="userSpaceOnUse" x1="20.5" x2="20.414062" y1="0" y2="-2.675781"><stop offset="0" stop-color="#001acc"/><stop offset="1" stop-color="#001acc" stop-opacity="0"/></linearGradient><linearGradient id="G" gradientTransform="matrix(-.4 -.69282 .69282 -.4 19.2 19.2)" gradientUnits="userSpaceOnUse" x1="20.5" x2="20.414062" y1="0" y2="-2.675781"><stop offset="0" stop-color="#00c"/><stop offset="1" stop-color="#00c" stop-opacity="0"/></linearGradient><linearGradient id="H" gradientTransform="matrix(-.306147 -.739104 .739104 -.306147 19.2 19.2)" gradientUnits="userSpaceOnUse" x1="20.5" x2="20.414062" y1="0" y2="-2.675781"><stop offset="0" stop-color="#1a00cc"/><stop offset="1" stop-color="#1a00cc" stop-opacity="0"/></linearGradient><linearGradient id="I" gradientTransform="matrix(-.207055 -.772741 .772741 -.207055 19.2 19.2)" gradientUnits="userSpaceOnUse" x1="20.5" x2="20.414062" y1="0" y2="-2.671875"><stop offset="0" stop-color="#30c"/><stop offset="1" stop-color="#30c" stop-opacity="0"/></linearGradient><linearGradient id="J" gradientTransform="matrix(-.104421 -.793156 .793156 -.104421 19.2 19.2)" gradientUnits="userSpaceOnUse" x1="20.5" x2="20.410156" y1="0" y2="-2.671875"><stop offset="0" stop-color="#4d00cc"/><stop offset="1" stop-color="#4d00cc" stop-opacity="0"/></linearGradient><linearGradient id="K" gradientTransform="matrix(0 -.8 .8 0 19.2 19.2)" gradientUnits="userSpaceOnUse" x1="20.5" x2="20.410156" y1="0" y2="-2.675781"><stop offset="0" stop-color="#60c"/><stop offset="1" stop-color="#60c" stop-opacity="0"/></linearGradient><linearGradient id="L" gradientTransform="matrix(.104421 -.793156 .793156 .104421 19.2 19.2)" gradientUnits="userSpaceOnUse" x1="20.5" x2="20.410156" y1="0" y2="-2.675781"><stop offset="0" stop-color="#7f00cc"/><stop offset="1" stop-color="#7f00cc" stop-opacity="0"/></linearGradient><linearGradient id="M" gradientTransform="matrix(.207055 -.772741 .772741 .207055 19.2 19.2)" gradientUnits="userSpaceOnUse" x1="20.5" x2="20.410156" y1="0" y2="-2.675781"><stop offset="0" stop-color="#90c"/><stop offset="1" stop-color="#90c" stop-opacity="0"/></linearGradient><linearGradient id="N" gradientTransform="matrix(.306147 -.739104 .739104 .306147 19.2 19.2)" gradientUnits="userSpaceOnUse" x1="20.5" x2="20.414062" y1="0" y2="-2.675781"><stop offset="0" stop-color="#b300cc"/><stop offset="1" stop-color="#b300cc" stop-opacity="0"/></linearGradient><linearGradient id="O" gradientTransform="matrix(.4 -.69282 .69282 .4 19.2 19.2)" gradientUnits="userSpaceOnUse" x1="20.5" x2="20.414062" y1="0" y2="-2.675781"><stop offset="0" stop-color="#c0c"/><stop offset="1" stop-color="#c0c" stop-opacity="0"/></linearGradient><linearGradient id="P" gradientTransform="matrix(.487009 -.634683 .634683 .487009 19.2 19.2)" gradientUnits="userSpaceOnUse" x1="20.5" x2="20.414062" y1="0" y2="-2.679688"><stop offset="0" stop-color="#cc00b3"/><stop offset="1" stop-color="#cc00b3" stop-opacity="0"/></linearGradient><linearGradient id="Q" gradientTransform="matrix(.565685 -.565685 .565685 .565685 19.2 19.2)" gradientUnits="userSpaceOnUse" x1="20.5" x2="20.414062" y1="0" y2="-2.675781"><stop offset="0" stop-color="#c09"/><stop offset="1" stop-color="#c09" stop-opacity="0"/></linearGradient><linearGradient id="R" gradientTransform="matrix(.634683 -.487009 .487009 .634683 19.2 19.2)" gradientUnits="userSpaceOnUse" x1="20.5" x2="20.414062" y1="0" y2="-2.675781"><stop offset="0" stop-color="#cc007f"/><stop offset="1" stop-color="#cc007f" stop-opacity="0"/></linearGradient><linearGradient id="S" gradientTransform="matrix(.69282 -.4 .4 .69282 19.2 19.2)" gradientUnits="userSpaceOnUse" x1="20.5" x2="20.414062" y1="0" y2="-2.675781"><stop offset="0" stop-color="#c06"/><stop offset="1" stop-color="#c06" stop-opacity="0"/></linearGradient><linearGradient id="T" gradientTransform="matrix(.739104 -.306147 .306147 .739104 19.2 19.2)" gradientUnits="userSpaceOnUse" x1="20.5" x2="20.410156" y1="0" y2="-2.675781"><stop offset="0" stop-color="#cc004d"/><stop offset="1" stop-color="#cc004d" stop-opacity="0"/></linearGradient><linearGradient id="U" gradientTransform="matrix(.772741 -.207055 .207055 .772741 19.2 19.2)" gradientUnits="userSpaceOnUse" x1="20.5" x2="20.410156" y1="0" y2="-2.671875"><stop offset="0" stop-color="#c03"/><stop offset="1" stop-color="#c03" stop-opacity="0"/></linearGradient><linearGradient id="V" gradientTransform="matrix(.793156 -.104421 .104421 .793156 19.2 19.2)" gradientUnits="userSpaceOnUse" x1="20.5" x2="20.414062" y1="0" y2="-2.671875"><stop offset="0" stop-color="#cc001a"/><stop offset="1" stop-color="#cc001a" stop-opacity="0"/></linearGradient><linearGradient id="W" gradientUnits="userSpaceOnUse" x1="35.6" x2="35.5312496" y1="19.2" y2="17.0593752"><stop offset="0" stop-color="#c00"/><stop offset="1" stop-color="#c00" stop-opacity="0"/></linearGradient><radialGradient id="X" cx="0" cy="0" gradientUnits="userSpaceOnUse" r="20.5"><stop offset="0" stop-color="#ccc"/><stop offset=".142857" stop-color="#ccc" stop-opacity=".88398"/><stop offset=".285714" stop-color="#ccc" stop-opacity=".764007"/><stop offset=".428571" stop-color="#ccc" stop-opacity=".639101"/><stop offset=".571429" stop-color="#ccc" stop-opacity=".507713"/><stop offset=".714286" stop-color="#ccc" stop-opacity=".367067"/><stop offset=".857143" stop-color="#ccc" stop-opacity=".210825"/><stop offset="1" stop-color="#ccc" stop-opacity="0"/></radialGradient><g clip-path="url(#a)"><path d="m20.501953-.00097656c0 11.32324256-9.179687 20.50292956-20.50292956 20.50292956-11.32324244 0-20.49804644-9.179687-20.49804644-20.50292956 0-11.32324244 9.174804-20.49804644 20.49804644-20.49804644 11.32324256 0 20.50292956 9.174804 20.50292956 20.49804644" fill="none" stroke="#000" stroke-miterlimit="10" stroke-opacity=".4" stroke-width="3" transform="matrix(.8 0 0 .8 19.2 19.2)"/><path d="m20.501953-.00097656c0 .89355456-.058594 1.79199256-.175781 2.67578156l-20.32714856-2.67578156zm0 0" fill="none" stroke="#c00" stroke-linejoin="round" stroke-miterlimit="10" transform="matrix(.8 0 0 .8 19.2 19.2)"/><path d="m35.601562 19.199219c0 .714843-.046874 1.433593-.140624 2.140625l-16.261719-2.140625zm0 0" fill="#c00"/><path d="m35.460938 21.339844c.09375-.707032.140624-1.425782.140624-2.140625h-16.402343zm0 0" fill="url(#b)"/><path d="m20.501411-.00117645c-.00019.89636545-.059747 1.79069645-.174468 2.67751545l-20.32803867-2.67717974zm0 0" fill="none" stroke="#cc1a00" stroke-linejoin="round" stroke-miterlimit="10" transform="matrix(.793156 .104421 -.104421 .793156 19.2 19.2)"/><path d="m35.460938 21.339844c-.09375.710937-.234376 1.414062-.417969 2.105468l-15.84375-4.246093zm0 0" fill="#cc1a00"/><path d="m35.042969 23.445312c.183593-.691406.324219-1.394531.417969-2.105468l-16.261719-2.140625zm0 0" fill="url(#c)"/><path d="m20.502376.00024368c-.002703.89546932-.061078 1.79069132-.177652 2.67623232l-20.32592004-2.67716653zm0 0" fill="none" stroke="#c30" stroke-linejoin="round" stroke-miterlimit="10" transform="matrix(.772741 .207055 -.207055 .772741 19.2 19.2)"/><path d="m35.042969 23.445312c-.1875.691407-.417969 1.371094-.691407 2.03125l-15.152343-6.277343zm0 0" fill="#c30"/><path d="m34.351562 25.476562c.273438-.660156.503907-1.339843.691407-2.03125l-15.84375-4.246093zm0 0" fill="url(#d)"/><path d="m20.500194.00066961c.000009.89318139-.057078 1.78887139-.176868 2.67353939l-20.32460194-2.67473751zm0 0" fill="none" stroke="#cc4d00" stroke-linejoin="round" stroke-miterlimit="10" transform="matrix(.739104 .306147 -.306147 .739104 19.2 19.2)"/><path d="m34.351562 25.476562c-.273437.660157-.589843 1.304688-.949218 1.921876l-14.203125-8.199219zm0 0" fill="#cc4d00"/><path d="m33.402344 27.398438c.359375-.617188.675781-1.261719.949218-1.921876l-15.152343-6.277343zm0 0" fill="url(#e)"/><path d="m20.498512-.00139591c-.000852.89696291-.054409 1.79052691-.174013 2.67711691l-20.32583301-2.67607845zm0 0" fill="none" stroke="#c60" stroke-linejoin="round" stroke-miterlimit="10" transform="matrix(.69282 .4 -.4 .69282 19.2 19.2)"/><path d="m33.402344 27.398438c-.359375.621093-.753906 1.21875-1.191406 1.785156l-13.011719-9.984375zm0 0" fill="#c60"/><path d="m32.210938 29.183594c.4375-.566406.832031-1.164063 1.191406-1.785156l-14.203125-8.199219zm0 0" fill="url(#f)"/><path d="m20.499872-.00004932c-.002857.89461632-.061386 1.78886932-.174685 2.67591132l-20.32655625-2.67604227zm0 0" fill="none" stroke="#cc7f00" stroke-linejoin="round" stroke-miterlimit="10" transform="matrix(.634683 .487009 -.487009 .634683 19.2 19.2)"/><path d="m32.210938 29.183594c-.4375.566406-.910157 1.105468-1.414063 1.613281l-11.597656-11.597656zm0 0" fill="#cc7f00"/><path d="m30.796875 30.796875c.503906-.507813.976563-1.046875 1.414063-1.613281l-13.011719-9.984375zm0 0" fill="url(#g)"/><path d="m20.500572 0c-.003452.894241-.062148 1.788483-.176086 2.675819l-20.32586707-2.675819zm0 0" fill="none" stroke="#c90" stroke-linejoin="round" stroke-miterlimit="10" transform="matrix(.565685 .565685 -.565685 .565685 19.2 19.2)"/><path d="m30.796875 30.796875c-.507813.503906-1.046875.976563-1.613281 1.414063l-9.984375-13.011719zm0 0" fill="#c90"/><path d="m29.183594 32.210938c.566406-.4375 1.105468-.910157 1.613281-1.414063l-11.597656-11.597656zm0 0" fill="url(#h)"/><path d="m20.499872.00004932c.002857.89461668-.060677 1.78752668-.17691 2.67692768l-20.32433125-2.67679673zm0 0" fill="none" stroke="#ccb300" stroke-linejoin="round" stroke-miterlimit="10" transform="matrix(.487009 .634683 -.634683 .487009 19.2 19.2)"/><path d="m29.183594 32.210938c-.566406.4375-1.164063.832031-1.785156 1.191406l-8.199219-14.203125zm0 0" fill="#ccb300"/><path d="m27.398438 33.402344c.621093-.359375 1.21875-.753906 1.785156-1.191406l-9.984375-13.011719zm0 0" fill="url(#i)"/><path d="m20.498512.00139591c.003292.89273409-.05702 1.78821409-.173613 2.67375209l-20.32623301-2.67479055zm0 0" fill="none" stroke="#cc0" stroke-linejoin="round" stroke-miterlimit="10" transform="matrix(.4 .69282 -.69282 .4 19.2 19.2)"/><path d="m27.398438 33.402344c-.617188.359375-1.261719.675781-1.921876.949218l-6.277343-15.152343zm0 0" fill="#cc0"/><path d="m25.476562 34.351562c.660157-.273437 1.304688-.589843 1.921876-.949218l-8.199219-14.203125zm0 0" fill="url(#j)"/><path d="m20.500194-.00066961c-.00001.89318061-.058984 1.78836361-.173187 2.67652461l-20.32828294-2.67532649zm0 0" fill="none" stroke="#b3cc00" stroke-linejoin="round" stroke-miterlimit="10" transform="matrix(.306147 .739104 -.739104 .306147 19.2 19.2)"/><path d="m25.476562 34.351562c-.660156.273438-1.339843.503907-2.03125.691407l-4.246093-15.84375zm0 0" fill="#b3cc00"/><path d="m23.445312 35.042969c.691407-.1875 1.371094-.417969 2.03125-.691407l-6.277343-15.152343zm0 0" fill="url(#k)"/><path d="m20.502376-.00024368c-.002014.89420568-.0597 1.78865968-.176511 2.67738068l-20.32706104-2.67644647zm0 0" fill="none" stroke="#9c0" stroke-linejoin="round" stroke-miterlimit="10" transform="matrix(.207055 .772741 -.772741 .207055 19.2 19.2)"/><path d="m23.445312 35.042969c-.691406.183593-1.394531.324219-2.105468.417969l-2.140625-16.261719zm0 0" fill="#9c0"/><path d="m21.339844 35.460938c.710937-.09375 1.414062-.234376 2.105468-.417969l-4.246093-15.84375zm0 0" fill="url(#l)"/><path d="m20.501411.00117645c.000827.89152455-.05835 1.78992355-.174982 2.67583355l-20.32752467-2.67616926zm0 0" fill="none" stroke="#7fcc00" stroke-linejoin="round" stroke-miterlimit="10" transform="matrix(.104421 .793156 -.793156 .104421 19.2 19.2)"/><path d="m21.339844 35.460938c-.707032.09375-1.425782.140624-2.140625.140624v-16.402343zm0 0" fill="#7fcc00"/><path d="m19.199219 35.601562c.714843 0 1.433593-.046874 2.140625-.140624l-2.140625-16.261719zm0 0" fill="url(#m)"/><path d="m20.501953.00097656c0 .89355444-.058594 1.78710944-.175781 2.67578144l-20.32714856-2.67578144zm0 0" fill="none" stroke="#6c0" stroke-linejoin="round" stroke-miterlimit="10" transform="matrix(0 .8 -.8 0 19.2 19.2)"/><path d="m19.199219 35.601562c-.714844 0-1.429688-.046874-2.140625-.140624l2.140625-16.261719zm0 0" fill="#6c0"/><path d="m17.058594 35.460938c.710937.09375 1.425781.140624 2.140625.140624v-16.402343zm0 0" fill="url(#n)"/><path d="m20.501666.00075996c-.000828.89152404-.060385 1.78585504-.175105 2.67267404l-20.32740174-2.67233833zm0 0" fill="none" stroke="#4dcc00" stroke-linejoin="round" stroke-miterlimit="10" transform="matrix(-.104421 .793156 -.793156 -.104421 19.2 19.2)"/><path d="m17.058594 35.460938c-.707032-.09375-1.410156-.234376-2.101563-.417969l4.242188-15.84375zm0 0" fill="#4dcc00"/><path d="m14.957031 35.042969c.691407.183593 1.394531.324219 2.101563.417969l2.140625-16.261719zm0 0" fill="url(#o)"/><path d="m20.501617-.00258618c-.002702.89546918-.061077 1.79069118-.177651 2.67623218l-20.32465653-2.67244996zm0 0" fill="none" stroke="#3c0" stroke-linejoin="round" stroke-miterlimit="10" transform="matrix(-.207055 .772741 -.772741 -.207055 19.2 19.2)"/><path d="m14.957031 35.042969c-.691406-.1875-1.371093-.417969-2.03125-.691407l6.273438-15.152343zm0 0" fill="#3c0"/><path d="m12.925781 34.351562c.660157.273438 1.339844.503907 2.03125.691407l4.242188-15.84375zm0 0" fill="url(#p)"/><path d="m20.499073-.00203707c.001878.89769207-.057078 1.78887207-.174999 2.67805007l-20.32460251-2.67473706zm0 0" fill="none" stroke="#1acc00" stroke-linejoin="round" stroke-miterlimit="10" transform="matrix(-.306147 .739104 -.739104 -.306147 19.2 19.2)"/><path d="m12.925781 34.351562c-.664062-.273437-1.304687-.589843-1.925781-.949218l8.199219-14.203125zm0 0" fill="#1acc00"/><path d="m11 33.402344c.621094.359375 1.261719.675781 1.925781.949218l6.273438-15.152343zm0 0" fill="url(#q)"/><path d="m20.499488.00029554c-.000851.89696346-.05685 1.78629846-.174012 2.67711746l-20.32583345-2.67607899zm0 0" fill="none" stroke="#0c0" stroke-linejoin="round" stroke-miterlimit="10" transform="matrix(-.4 .69282 -.69282 -.4 19.2 19.2)"/><path d="m11 33.402344c-.621094-.359375-1.214844-.753906-1.785156-1.191406l9.984375-13.011719zm0 0" fill="#0c0"/><path d="m9.214844 32.210938c.570312.4375 1.164062.832031 1.785156 1.191406l8.199219-14.203125zm0 0" fill="url(#r)"/><path d="m20.501061.0015002c-.002857.8946168-.061386 1.7888688-.174685 2.6759108l-20.32655627-2.67604175zm0 0" fill="none" stroke="#00cc1a" stroke-linejoin="round" stroke-miterlimit="10" transform="matrix(-.487009 .634683 -.634683 -.487009 19.2 19.2)"/><path d="m9.214844 32.210938c-.566406-.4375-1.105469-.910157-1.613282-1.414063l11.597657-11.597656zm0 0" fill="#00cc1a"/><path d="m7.601562 30.796875c.507813.503906 1.046876.976563 1.613282 1.414063l9.984375-13.011719zm0 0" fill="url(#s)"/><path d="m20.501953.00138107c-.003452.89424193-.062148 1.78848293-.176086 2.67581893l-20.325867-2.67581893zm0 0" fill="none" stroke="#0c3" stroke-linejoin="round" stroke-miterlimit="10" transform="matrix(-.565685 .565685 -.565685 -.565685 19.2 19.2)"/><path d="m7.601562 30.796875c-.503906-.507813-.976562-1.046875-1.414062-1.613281l13.011719-9.984375zm0 0" fill="#0c3"/><path d="m6.1875 29.183594c.4375.566406.910156 1.105468 1.414062 1.613281l11.597657-11.597656zm0 0" fill="url(#t)"/><path d="m20.501421.00123831c-.001016.89164469-.060677 1.78752669-.17691 2.67692769l-20.32433073-2.67679675zm0 0" fill="none" stroke="#00cc4d" stroke-linejoin="round" stroke-miterlimit="10" transform="matrix(-.634683 .487009 -.487009 -.634683 19.2 19.2)"/><path d="m6.1875 29.183594c-.433594-.566406-.832031-1.164063-1.191406-1.785156l14.203125-8.199219zm0 0" fill="#00cc4d"/><path d="m4.996094 27.398438c.359375.621093.757812 1.21875 1.191406 1.785156l13.011719-9.984375zm0 0" fill="url(#u)"/><path d="m20.500203.00237247c-.000936.89029353-.061248 1.78577253-.173612 2.67375253l-20.32623355-2.67479099zm0 0" fill="none" stroke="#0c6" stroke-linejoin="round" stroke-miterlimit="10" transform="matrix(-.69282 .4 -.4 -.69282 19.2 19.2)"/><path d="m4.996094 27.398438c-.355469-.617188-.671875-1.261719-.949219-1.921876l15.152344-6.277343zm0 0" fill="#0c6"/><path d="m4.046875 25.476562c.277344.660157.59375 1.304688.949219 1.921876l14.203125-8.199219zm0 0" fill="url(#v)"/><path d="m20.501998.00007782c-.000009.89318118-.058984 1.78836318-.177698 2.67465618l-20.32377149-2.67345806zm0 0" fill="none" stroke="#00cc7f" stroke-linejoin="round" stroke-miterlimit="10" transform="matrix(-.739104 .306147 -.306147 -.739104 19.2 19.2)"/><path d="m4.046875 25.476562c-.273437-.660156-.503906-1.339843-.6875-2.03125l15.839844-4.246093zm0 0" fill="#00cc7f"/><path d="m3.359375 23.445312c.183594.691407.414063 1.371094.6875 2.03125l15.152344-6.277343zm0 0" fill="url(#w)"/><path d="m20.499546-.00100194c.002702.89546994-.0597 1.78865994-.176511 2.67738094l-20.32234447-2.67518296zm0 0" fill="none" stroke="#0c9" stroke-linejoin="round" stroke-miterlimit="10" transform="matrix(-.772741 .207055 -.207055 -.772741 19.2 19.2)"/><path d="m3.359375 23.445312c-.1875-.691406-.324219-1.394531-.417969-2.105468l16.257813-2.140625zm0 0" fill="#0c9"/><path d="m2.941406 21.339844c.09375.710937.230469 1.414062.417969 2.105468l15.839844-4.246093zm0 0" fill="url(#x)"/><path d="m20.498506.00079405c.000827.89152395-.05835 1.78992295-.174982 2.67583395l-20.32268326-2.67553233zm0 0" fill="none" stroke="#00ccb3" stroke-linejoin="round" stroke-miterlimit="10" transform="matrix(-.793156 .104421 -.104421 -.793156 19.2 19.2)"/><path d="m2.941406 21.339844c-.09375-.707032-.140625-1.425782-.140625-2.140625h16.398438zm0 0" fill="#00ccb3"/><path d="m2.800781 19.199219c0 .714843.046875 1.433593.140625 2.140625l16.257813-2.140625zm0 0" fill="url(#y)"/><path d="m20.499023.00097656c0 .89355444-.058593 1.78710944-.175781 2.67578144l-20.32226544-2.67578144zm0 0" fill="none" stroke="#0cc" stroke-linejoin="round" stroke-miterlimit="10" transform="matrix(-.8 0 0 -.8 19.2 19.2)"/><path d="m2.800781 19.199219c0-.714844.046875-1.429688.140625-2.140625l16.257813 2.140625zm0 0" fill="#0cc"/><path d="m2.941406 17.058594c-.09375.710937-.140625 1.425781-.140625 2.140625h16.398438zm0 0" fill="url(#z)"/><path d="m20.498761.00114236c-.000827.89152464-.055543 1.78521764-.175105 2.67267364l-20.32256033-2.67297526zm0 0" fill="none" stroke="#00b3cc" stroke-linejoin="round" stroke-miterlimit="10" transform="matrix(-.793156 -.104421 .104421 -.793156 19.2 19.2)"/><path d="m2.941406 17.058594c.09375-.707032.230469-1.410156.417969-2.101563l15.839844 4.242188zm0 0" fill="#00b3cc"/><path d="m3.359375 14.957031c-.1875.691407-.324219 1.394531-.417969 2.101563l16.257813 2.140625zm0 0" fill="url(#A)"/><path d="m20.498787-.00182793c.002014.89420593-.05636 1.78942793-.172934 2.67496893l-20.32465696-2.67245047zm0 0" fill="none" stroke="#09c" stroke-linejoin="round" stroke-miterlimit="10" transform="matrix(-.772741 -.207055 .207055 -.772741 19.2 19.2)"/><path d="m3.359375 14.957031c.183594-.691406.414063-1.371093.6875-2.03125l15.152344 6.273438zm0 0" fill="#09c"/><path d="m4.046875 12.925781c-.273437.660157-.503906 1.339844-.6875 2.03125l15.839844 4.242188zm0 0" fill="url(#B)"/><path d="m20.500877-.0027845c-.002633.8995605-.061589 1.7907405-.174999 2.6780505l-20.32460206-2.67473749zm0 0" fill="none" stroke="#007fcc" stroke-linejoin="round" stroke-miterlimit="10" transform="matrix(-.739104 -.306147 .306147 -.739104 19.2 19.2)"/><path d="m4.046875 12.925781c.277344-.664062.59375-1.304687.949219-1.925781l14.203125 8.199219zm0 0" fill="#007fcc"/><path d="m4.996094 11c-.355469.621094-.671875 1.261719-.949219 1.925781l15.152344 6.273438zm0 0" fill="url(#C)"/><path d="m20.50118-.00068102c-.000852.89696302-.061079 1.78874002-.174013 2.67711702l-20.32583299-2.67607855zm0 0" fill="none" stroke="#06c" stroke-linejoin="round" stroke-miterlimit="10" transform="matrix(-.69282 -.4 .4 -.69282 19.2 19.2)"/><path d="m4.996094 11c.359375-.621094.757812-1.214844 1.191406-1.785156l13.011719 9.984375zm0 0" fill="#06c"/><path d="m6.1875 9.214844c-.433594.570312-.832031 1.164062-1.191406 1.785156l14.203125 8.199219zm0 0" fill="url(#D)"/><path d="m20.50261.00031121c-.002857.89461679-.061386 1.78886879-.174684 2.67591079l-20.32655675-2.67604173zm0 0" fill="none" stroke="#004dcc" stroke-linejoin="round" stroke-miterlimit="10" transform="matrix(-.634683 -.487009 .487009 -.634683 19.2 19.2)"/><path d="m6.1875 9.214844c.4375-.566406.910156-1.105469 1.414062-1.613282l11.597657 11.597657zm0 0" fill="#004dcc"/><path d="m7.601562 7.601562c-.503906.507813-.976562 1.046876-1.414062 1.613282l13.011719 9.984375zm0 0" fill="url(#E)"/><path d="m20.503335 0c-.003453.894241-.062149 1.788483-.176087 2.675819l-20.32586693-2.675819zm0 0" fill="none" stroke="#03c" stroke-linejoin="round" stroke-miterlimit="10" transform="matrix(-.565685 -.565685 .565685 -.565685 19.2 19.2)"/><path d="m7.601562 7.601562c.507813-.503906 1.046876-.976562 1.613282-1.414062l9.984375 13.011719zm0 0" fill="#03c"/><path d="m9.214844 6.1875c-.566406.4375-1.105469.910156-1.613282 1.414062l11.597657 11.597657zm0 0" fill="url(#F)"/><path d="m20.50261-.00031121c-.003989.89551821-.060677 1.78752721-.17691 2.67692721l-20.32433075-2.67679627zm0 0" fill="none" stroke="#001acc" stroke-linejoin="round" stroke-miterlimit="10" transform="matrix(-.487009 -.634683 .634683 -.487009 19.2 19.2)"/><path d="m9.214844 6.1875c.570312-.433594 1.164062-.832031 1.785156-1.191406l8.199219 14.203125zm0 0" fill="#001acc"/><path d="m11 4.996094c-.621094.359375-1.214844.757812-1.785156 1.191406l9.984375 13.011719zm0 0" fill="url(#G)"/><path d="m20.50118.00068102c-.003378.89452198-.061249 1.78577298-.176054 2.67798098l-20.32379199-2.67901945zm0 0" fill="none" stroke="#00c" stroke-linejoin="round" stroke-miterlimit="10" transform="matrix(-.4 -.69282 .69282 -.4 19.2 19.2)"/><path d="m11 4.996094c.621094-.355469 1.261719-.671875 1.925781-.949219l6.273438 15.152344zm0 0" fill="#00c"/><path d="m12.925781 4.046875c-.664062.277344-1.304687.59375-1.925781.949219l8.199219 14.203125zm0 0" fill="url(#H)"/><path d="m20.500877.0027845c-.000009.8931815-.058984 1.7883635-.177698 2.6746565l-20.32190306-2.67796951zm0 0" fill="none" stroke="#1a00cc" stroke-linejoin="round" stroke-miterlimit="10" transform="matrix(-.306147 -.739104 .739104 -.306147 19.2 19.2)"/><path d="m12.925781 4.046875c.660157-.273437 1.339844-.503906 2.03125-.6875l4.242188 15.839844zm0 0" fill="#1a00cc"/><path d="m14.957031 3.359375c-.691406.183594-1.371093.414063-2.03125.6875l6.273438 15.152344zm0 0" fill="url(#I)"/><path d="m20.498787.00182793c.002703.89547007-.0597 1.78866007-.175247 2.67266507l-20.32234396-2.67518353zm0 0" fill="none" stroke="#30c" stroke-linejoin="round" stroke-miterlimit="10" transform="matrix(-.207055 -.772741 .772741 -.207055 19.2 19.2)"/><path d="m14.957031 3.359375c.691407-.1875 1.394531-.324219 2.101563-.417969l2.140625 16.257813zm0 0" fill="#30c"/><path d="m17.058594 2.941406c-.707032.09375-1.410156.230469-2.101563.417969l4.242188 15.839844zm0 0" fill="url(#J)"/><path d="m20.498761-.00114236c.00019.89636536-.05835 1.78992336-.174982 2.67583336l-20.32268333-2.67553174zm0 0" fill="none" stroke="#4d00cc" stroke-linejoin="round" stroke-miterlimit="10" transform="matrix(-.104421 -.793156 .793156 -.104421 19.2 19.2)"/><path d="m17.058594 2.941406c.710937-.09375 1.425781-.140625 2.140625-.140625v16.398438zm0 0" fill="#4d00cc"/><path d="m19.199219 2.800781c-.714844 0-1.429688.046875-2.140625.140625l2.140625 16.257813zm0 0" fill="url(#K)"/><path d="m20.499023-.00097656c0 .89355456-.058593 1.79199256-.175781 2.67578156l-20.32226544-2.67578156zm0 0" fill="none" stroke="#60c" stroke-linejoin="round" stroke-miterlimit="10" transform="matrix(0 -.8 .8 0 19.2 19.2)"/><path d="m19.199219 2.800781c.714843 0 1.433593.046875 2.140625.140625l-2.140625 16.257813zm0 0" fill="#60c"/><path d="m21.339844 2.941406c-.707032-.09375-1.425782-.140625-2.140625-.140625v16.398438zm0 0" fill="url(#L)"/><path d="m20.498506-.00079405c-.00019.89636505-.054906 1.79005905-.174468 2.67751505l-20.32319726-2.67781667zm0 0" fill="none" stroke="#7f00cc" stroke-linejoin="round" stroke-miterlimit="10" transform="matrix(.104421 -.793156 .793156 .104421 19.2 19.2)"/><path d="m21.339844 2.941406c.710937.09375 1.414062.230469 2.105468.417969l-4.246093 15.839844zm0 0" fill="#7f00cc"/><path d="m23.445312 3.359375c-.691406-.1875-1.394531-.324219-2.105468-.417969l-2.140625 16.257813zm0 0" fill="url(#M)"/><path d="m20.499546.00100194c.002014.89420606-.056361 1.78942806-.172935 2.67496906l-20.32592047-2.67716704zm0 0" fill="none" stroke="#90c" stroke-linejoin="round" stroke-miterlimit="10" transform="matrix(.207055 -.772741 .772741 .207055 19.2 19.2)"/><path d="m23.445312 3.359375c.691407.183594 1.371094.414063 2.03125.6875l-6.277343 15.152344zm0 0" fill="#90c"/><path d="m25.476562 4.046875c-.660156-.273437-1.339843-.503906-2.03125-.6875l-4.246093 15.839844zm0 0" fill="url(#N)"/><path d="m20.501998-.00007782c-.004502.89504982-.061589 1.79074082-.176867 2.67353882l-20.32460249-2.67473694zm0 0" fill="none" stroke="#b300cc" stroke-linejoin="round" stroke-miterlimit="10" transform="matrix(.306147 -.739104 .739104 .306147 19.2 19.2)"/><path d="m25.476562 4.046875c.660157.277344 1.304688.59375 1.921876.949219l-8.199219 14.203125zm0 0" fill="#b300cc"/><path d="m27.398438 4.996094c-.617188-.355469-1.261719-.671875-1.921876-.949219l-6.277343 15.152344zm0 0" fill="url(#O)"/><path d="m20.500203-.00237247c-.000851.89696347-.058637 1.79296847-.174012 2.67711747l-20.32583355-2.67607901zm0 0" fill="none" stroke="#c0c" stroke-linejoin="round" stroke-miterlimit="10" transform="matrix(.4 -.69282 .69282 .4 19.2 19.2)"/><path d="m27.398438 4.996094c.621093.359375 1.21875.757812 1.785156 1.191406l-9.984375 13.011719zm0 0" fill="#c0c"/><path d="m29.183594 6.1875c-.566406-.433594-1.164063-.832031-1.785156-1.191406l-8.199219 14.203125zm0 0" fill="url(#P)"/><path d="m20.501421-.00123831c-.002857.89461631-.061386 1.78886931-.174684 2.67591131l-20.32655673-2.67604225zm0 0" fill="none" stroke="#cc00b3" stroke-linejoin="round" stroke-miterlimit="10" transform="matrix(.487009 -.634683 .634683 .487009 19.2 19.2)"/><path d="m29.183594 6.1875c.566406.4375 1.105468.910156 1.613281 1.414062l-11.597656 11.597657zm0 0" fill="#cc00b3"/><path d="m30.796875 7.601562c-.507813-.503906-1.046875-.976562-1.613281-1.414062l-9.984375 13.011719zm0 0" fill="url(#Q)"/><path d="m20.501953-.00138107c-.003452.89424107-.062148 1.78848307-.176086 2.67581907l-20.325867-2.67581907zm0 0" fill="none" stroke="#c09" stroke-linejoin="round" stroke-miterlimit="10" transform="matrix(.565685 -.565685 .565685 .565685 19.2 19.2)"/><path d="m30.796875 7.601562c.503906.507813.976563 1.046876 1.414063 1.613282l-13.011719 9.984375zm0 0" fill="#c09"/><path d="m32.210938 9.214844c-.4375-.566406-.910157-1.105469-1.414063-1.613282l-11.597656 11.597657zm0 0" fill="url(#R)"/><path d="m20.501061-.0015002c-.000115.8984902-.060677 1.7875272-.17691 2.6769272l-20.32433127-2.67679625zm0 0" fill="none" stroke="#cc007f" stroke-linejoin="round" stroke-miterlimit="10" transform="matrix(.634683 -.487009 .487009 .634683 19.2 19.2)"/><path d="m32.210938 9.214844c.4375.570312.832031 1.164062 1.191406 1.785156l-14.203125 8.199219zm0 0" fill="#cc007f"/><path d="m33.402344 11c-.359375-.621094-.753906-1.214844-1.191406-1.785156l-13.011719 9.984375zm0 0" fill="url(#S)"/><path d="m20.499488-.00029554c.000851.89696354-.057019 1.78821354-.176054 2.67798154l-20.32379145-2.67902001zm0 0" fill="none" stroke="#c06" stroke-linejoin="round" stroke-miterlimit="10" transform="matrix(.69282 -.4 .4 .69282 19.2 19.2)"/><path d="m33.402344 11c.359375.621094.675781 1.261719.949218 1.925781l-15.152343 6.273438zm0 0" fill="#c06"/><path d="m34.351562 12.925781c-.273437-.664062-.589843-1.304687-.949218-1.925781l-14.203125 8.199219zm0 0" fill="url(#T)"/><path d="m20.499073.00203707c-.00001.89318093-.058985 1.78836393-.173187 2.67652493l-20.32641451-2.67983794zm0 0" fill="none" stroke="#cc004d" stroke-linejoin="round" stroke-miterlimit="10" transform="matrix(.739104 -.306147 .306147 .739104 19.2 19.2)"/><path d="m34.351562 12.925781c.273438.660157.503907 1.339844.691407 2.03125l-15.84375 4.242188zm0 0" fill="#cc004d"/><path d="m35.042969 14.957031c-.1875-.691406-.417969-1.371093-.691407-2.03125l-15.152343 6.273438zm0 0" fill="url(#U)"/><path d="m20.501617.00258618c-.002014.89420582-.0597 1.78865982-.175247 2.67266482l-20.32706053-2.67644704zm0 0" fill="none" stroke="#c03" stroke-linejoin="round" stroke-miterlimit="10" transform="matrix(.772741 -.207055 .207055 .772741 19.2 19.2)"/><path d="m35.042969 14.957031c.183593.691407.324219 1.394531.417969 2.101563l-16.261719 2.140625zm0 0" fill="#c03"/><path d="m35.460938 17.058594c-.09375-.707032-.234376-1.410156-.417969-2.101563l-15.84375 4.242188zm0 0" fill="url(#V)"/><path d="m20.501666-.00075996c.00019.89636496-.05835 1.78992296-.174982 2.67583396l-20.32752474-2.67616967zm0 0" fill="none" stroke="#cc001a" stroke-linejoin="round" stroke-miterlimit="10" transform="matrix(.793156 -.104421 .104421 .793156 19.2 19.2)"/><path d="m35.460938 17.058594c.09375.710937.140624 1.425781.140624 2.140625h-16.402343zm0 0" fill="#cc001a"/><path d="m35.601562 19.199219c0-.714844-.046874-1.429688-.140624-2.140625l-16.261719 2.140625zm0 0" fill="url(#W)"/><path d="m20.501953-.00097656c0 11.32324256-9.179687 20.50292956-20.50292956 20.50292956-11.32324244 0-20.49804644-9.179687-20.49804644-20.50292956 0-11.32324244 9.174804-20.49804644 20.49804644-20.49804644 11.32324256 0 20.50292956 9.174804 20.50292956 20.49804644" fill="url(#X)" stroke="#fff" stroke-miterlimit="10" stroke-opacity=".25" transform="matrix(.8 0 0 .8 19.2 19.2)"/></g></svg>
