<?xml version="1.0" encoding="UTF-8"?>
<svg width="16" height="16" version="1.1" xmlns="http://www.w3.org/2000/svg"><path d="m13.16 1.04-1.88 1.99c1.32 0.03 2.67 1.21 2.72 2.43l2-1.99c-0.06-1.27-1.47-2.48-2.84-2.43zm-3.01 2.99-7.52 8.01-1.63 3.96 4.5-1.78 7.5-7.77c-0.06-1.26-1.48-2.47-2.85-2.42z" fill="#bebebe"/><path transform="matrix(1 0 0 .99692 -318 -741.03)" d="m320.5 751.85c-4-2.0062-0.5-1.0031 0.5-2.0062 0.5-0.50154-0.48478-1.5952-1-2.0062-0.54122-0.43167-1-1.0031-1-1.5046 0-2.5077 4.5-2.5077 5.5-1.5046" fill="none"/></svg>
