<?xml version="1.0" encoding="UTF-8" ?><svg height="38.4pt" viewBox="0 0 38.4 38.4" width="38.4pt" xmlns="http://www.w3.org/2000/svg" xmlns:xlink="http://www.w3.org/1999/xlink"><linearGradient id="a" gradientUnits="userSpaceOnUse" x1="2.4" x2="2.4" y1="2.4" y2="36"><stop offset="0" stop-color="#00bfff"/><stop offset="1"/></linearGradient><linearGradient id="b" gradientUnits="userSpaceOnUse" x1="3.2" x2="3.2" y1="2.4" y2="36"><stop offset="0" stop-color="#06c1ff"/><stop offset="1"/></linearGradient><linearGradient id="c" gradientUnits="userSpaceOnUse" x1="4" x2="4" y1="2.4" y2="36"><stop offset="0" stop-color="#0cc2ff"/><stop offset="1"/></linearGradient><linearGradient id="d" gradientUnits="userSpaceOnUse" x1="4.8" x2="4.8" y1="2.4" y2="36"><stop offset="0" stop-color="#12c4ff"/><stop offset="1"/></linearGradient><linearGradient id="e" gradientUnits="userSpaceOnUse" x1="5.6" x2="5.6" y1="2.4" y2="36"><stop offset="0" stop-color="#18c5ff"/><stop offset="1"/></linearGradient><linearGradient id="f" gradientUnits="userSpaceOnUse" x1="6.4" x2="6.4" y1="2.4" y2="36"><stop offset="0" stop-color="#1ec7ff"/><stop offset="1"/></linearGradient><linearGradient id="g" gradientUnits="userSpaceOnUse" x1="7.2" x2="7.2" y1="2.4" y2="36"><stop offset="0" stop-color="#24c8ff"/><stop offset="1"/></linearGradient><linearGradient id="h" gradientUnits="userSpaceOnUse" x1="8" x2="8" y1="2.4" y2="36"><stop offset="0" stop-color="#2bcaff"/><stop offset="1"/></linearGradient><linearGradient id="i" gradientUnits="userSpaceOnUse" x1="8.8" x2="8.8" y1="2.4" y2="36"><stop offset="0" stop-color="#31cbff"/><stop offset="1"/></linearGradient><linearGradient id="j" gradientUnits="userSpaceOnUse" x1="9.6" x2="9.6" y1="2.4" y2="36"><stop offset="0" stop-color="#37cdff"/><stop offset="1"/></linearGradient><linearGradient id="k" gradientUnits="userSpaceOnUse" x1="10.4" x2="10.4" y1="2.4" y2="36"><stop offset="0" stop-color="#3dceff"/><stop offset="1"/></linearGradient><linearGradient id="l" gradientUnits="userSpaceOnUse" x1="11.2" x2="11.2" y1="2.4" y2="36"><stop offset="0" stop-color="#43d0ff"/><stop offset="1"/></linearGradient><linearGradient id="m" gradientUnits="userSpaceOnUse" x1="12" x2="12" y1="2.4" y2="36"><stop offset="0" stop-color="#49d1ff"/><stop offset="1"/></linearGradient><linearGradient id="n" gradientUnits="userSpaceOnUse" x1="12.8" x2="12.8" y1="2.4" y2="36"><stop offset="0" stop-color="#4fd3ff"/><stop offset="1"/></linearGradient><linearGradient id="o" gradientUnits="userSpaceOnUse" x1="13.6" x2="13.6" y1="2.4" y2="36"><stop offset="0" stop-color="#55d4ff"/><stop offset="1"/></linearGradient><linearGradient id="p" gradientUnits="userSpaceOnUse" x1="14.4" x2="14.4" y1="2.4" y2="36"><stop offset="0" stop-color="#5bd6ff"/><stop offset="1"/></linearGradient><linearGradient id="q" gradientUnits="userSpaceOnUse" x1="15.2" x2="15.2" y1="2.4" y2="36"><stop offset="0" stop-color="#61d8ff"/><stop offset="1"/></linearGradient><linearGradient id="r" gradientUnits="userSpaceOnUse" x1="16" x2="16" y1="2.4" y2="36"><stop offset="0" stop-color="#67d9ff"/><stop offset="1"/></linearGradient><linearGradient id="s" gradientUnits="userSpaceOnUse" x1="16.8" x2="16.8" y1="2.4" y2="36"><stop offset="0" stop-color="#6ddbff"/><stop offset="1"/></linearGradient><linearGradient id="t" gradientUnits="userSpaceOnUse" x1="17.6" x2="17.6" y1="2.4" y2="36"><stop offset="0" stop-color="#73dcff"/><stop offset="1"/></linearGradient><linearGradient id="u" gradientUnits="userSpaceOnUse" x1="18.4" x2="18.4" y1="2.4" y2="36"><stop offset="0" stop-color="#79deff"/><stop offset="1"/></linearGradient><linearGradient id="v" gradientUnits="userSpaceOnUse" x1="19.2" x2="19.2" y1="2.4" y2="36"><stop offset="0" stop-color="#7fdfff"/><stop offset="1"/></linearGradient><linearGradient id="w" gradientUnits="userSpaceOnUse" x1="20" x2="20" y1="2.4" y2="36"><stop offset="0" stop-color="#86e1ff"/><stop offset="1"/></linearGradient><linearGradient id="x" gradientUnits="userSpaceOnUse" x1="20.8" x2="20.8" y1="2.4" y2="36"><stop offset="0" stop-color="#8ce2ff"/><stop offset="1"/></linearGradient><linearGradient id="y" gradientUnits="userSpaceOnUse" x1="21.6" x2="21.6" y1="2.4" y2="36"><stop offset="0" stop-color="#92e4ff"/><stop offset="1"/></linearGradient><linearGradient id="z" gradientUnits="userSpaceOnUse" x1="22.4" x2="22.4" y1="2.4" y2="36"><stop offset="0" stop-color="#98e5ff"/><stop offset="1"/></linearGradient><linearGradient id="A" gradientUnits="userSpaceOnUse" x1="23.2" x2="23.2" y1="2.4" y2="36"><stop offset="0" stop-color="#9ee7ff"/><stop offset="1"/></linearGradient><linearGradient id="B" gradientUnits="userSpaceOnUse" x1="24" x2="24" y1="2.4" y2="36"><stop offset="0" stop-color="#a4e8ff"/><stop offset="1"/></linearGradient><linearGradient id="C" gradientUnits="userSpaceOnUse" x1="24.8" x2="24.8" y1="2.4" y2="36"><stop offset="0" stop-color="#aaeaff"/><stop offset="1"/></linearGradient><linearGradient id="D" gradientUnits="userSpaceOnUse" x1="25.6" x2="25.6" y1="2.4" y2="36"><stop offset="0" stop-color="#b0ebff"/><stop offset="1"/></linearGradient><linearGradient id="E" gradientUnits="userSpaceOnUse" x1="26.4" x2="26.4" y1="2.4" y2="36"><stop offset="0" stop-color="#b6edff"/><stop offset="1"/></linearGradient><linearGradient id="F" gradientUnits="userSpaceOnUse" x1="27.2" x2="27.2" y1="2.4" y2="36"><stop offset="0" stop-color="#bceeff"/><stop offset="1"/></linearGradient><linearGradient id="G" gradientUnits="userSpaceOnUse" x1="28" x2="28" y1="2.4" y2="36"><stop offset="0" stop-color="#c2f0ff"/><stop offset="1"/></linearGradient><linearGradient id="H" gradientUnits="userSpaceOnUse" x1="28.8" x2="28.8" y1="2.4" y2="36"><stop offset="0" stop-color="#c8f1ff"/><stop offset="1"/></linearGradient><linearGradient id="I" gradientUnits="userSpaceOnUse" x1="29.6" x2="29.6" y1="2.4" y2="36"><stop offset="0" stop-color="#cef3ff"/><stop offset="1"/></linearGradient><linearGradient id="J" gradientUnits="userSpaceOnUse" x1="30.4" x2="30.4" y1="2.4" y2="36"><stop offset="0" stop-color="#d4f4ff"/><stop offset="1"/></linearGradient><linearGradient id="K" gradientUnits="userSpaceOnUse" x1="31.2" x2="31.2" y1="2.4" y2="36"><stop offset="0" stop-color="#dbf6ff"/><stop offset="1"/></linearGradient><linearGradient id="L" gradientUnits="userSpaceOnUse" x1="32" x2="32" y1="2.4" y2="36"><stop offset="0" stop-color="#e1f7ff"/><stop offset="1"/></linearGradient><linearGradient id="M" gradientUnits="userSpaceOnUse" x1="32.8" x2="32.8" y1="2.4" y2="36"><stop offset="0" stop-color="#e7f9ff"/><stop offset="1"/></linearGradient><linearGradient id="N" gradientUnits="userSpaceOnUse" x1="33.6" x2="33.6" y1="2.4" y2="36"><stop offset="0" stop-color="#edfaff"/><stop offset="1"/></linearGradient><linearGradient id="O" gradientUnits="userSpaceOnUse" x1="34.4" x2="34.4" y1="2.4" y2="36"><stop offset="0" stop-color="#f3fcff"/><stop offset="1"/></linearGradient><linearGradient id="P" gradientUnits="userSpaceOnUse" x1="35.2" x2="35.2" y1="2.4" y2="36"><stop offset="0" stop-color="#f9fdff"/><stop offset="1"/></linearGradient><clipPath id="Q"><path d="m0 0h39v39h-39z"/></clipPath><path d="m3.500977 3.500977h41.000976v41.000976h-41.000976zm0 0" style="fill:none;stroke-width:3;stroke-linejoin:round;stroke:#000;stroke-opacity:.4;stroke-miterlimit:10" transform="scale(.8)"/><g clip-path="url(#Q)"><path d="m2.398438 2.398438h.800781v33.601562h-.800781zm0 0" fill="url(#a)"/><path d="m3.199219 2.398438h.800781v33.601562h-.800781zm0 0" fill="url(#b)"/><path d="m4 2.398438h.800781v33.601562h-.800781zm0 0" fill="url(#c)"/><path d="m4.800781 2.398438h.800781v33.601562h-.800781zm0 0" fill="url(#d)"/><path d="m5.601562 2.398438h.800782v33.601562h-.800782zm0 0" fill="url(#e)"/><path d="m6.398438 2.398438h.800781v33.601562h-.800781zm0 0" fill="url(#f)"/><path d="m7.199219 2.398438h.800781v33.601562h-.800781zm0 0" fill="url(#g)"/><path d="m8 2.398438h.800781v33.601562h-.800781zm0 0" fill="url(#h)"/><path d="m8.800781 2.398438h.800781v33.601562h-.800781zm0 0" fill="url(#i)"/><path d="m9.601562 2.398438h.800782v33.601562h-.800782zm0 0" fill="url(#j)"/><path d="m10.398438 2.398438h.800781v33.601562h-.800781zm0 0" fill="url(#k)"/><path d="m11.199219 2.398438h.800781v33.601562h-.800781zm0 0" fill="url(#l)"/><path d="m12 2.398438h.800781v33.601562h-.800781zm0 0" fill="url(#m)"/><path d="m12.800781 2.398438h.800781v33.601562h-.800781zm0 0" fill="url(#n)"/><path d="m13.601562 2.398438h.800782v33.601562h-.800782zm0 0" fill="url(#o)"/><path d="m14.398438 2.398438h.800781v33.601562h-.800781zm0 0" fill="url(#p)"/><path d="m15.199219 2.398438h.800781v33.601562h-.800781zm0 0" fill="url(#q)"/><path d="m16 2.398438h.800781v33.601562h-.800781zm0 0" fill="url(#r)"/><path d="m16.800781 2.398438h.800781v33.601562h-.800781zm0 0" fill="url(#s)"/><path d="m17.601562 2.398438h.800782v33.601562h-.800782zm0 0" fill="url(#t)"/><path d="m18.398438 2.398438h.800781v33.601562h-.800781zm0 0" fill="url(#u)"/><path d="m19.199219 2.398438h.800781v33.601562h-.800781zm0 0" fill="url(#v)"/><path d="m20 2.398438h.800781v33.601562h-.800781zm0 0" fill="url(#w)"/><path d="m20.800781 2.398438h.800781v33.601562h-.800781zm0 0" fill="url(#x)"/><path d="m21.601562 2.398438h.800782v33.601562h-.800782zm0 0" fill="url(#y)"/><path d="m22.398438 2.398438h.800781v33.601562h-.800781zm0 0" fill="url(#z)"/><path d="m23.199219 2.398438h.800781v33.601562h-.800781zm0 0" fill="url(#A)"/><path d="m24 2.398438h.800781v33.601562h-.800781zm0 0" fill="url(#B)"/><path d="m24.800781 2.398438h.800781v33.601562h-.800781zm0 0" fill="url(#C)"/><path d="m25.601562 2.398438h.800782v33.601562h-.800782zm0 0" fill="url(#D)"/><path d="m26.398438 2.398438h.800781v33.601562h-.800781zm0 0" fill="url(#E)"/><path d="m27.199219 2.398438h.800781v33.601562h-.800781zm0 0" fill="url(#F)"/><path d="m28 2.398438h.800781v33.601562h-.800781zm0 0" fill="url(#G)"/><path d="m28.800781 2.398438h.800781v33.601562h-.800781zm0 0" fill="url(#H)"/><path d="m29.601562 2.398438h.800782v33.601562h-.800782zm0 0" fill="url(#I)"/><path d="m30.398438 2.398438h.800781v33.601562h-.800781zm0 0" fill="url(#J)"/><path d="m31.199219 2.398438h.800781v33.601562h-.800781zm0 0" fill="url(#K)"/><path d="m32 2.398438h.800781v33.601562h-.800781zm0 0" fill="url(#L)"/><path d="m32.800781 2.398438h.800781v33.601562h-.800781zm0 0" fill="url(#M)"/><path d="m33.601562 2.398438h.800782v33.601562h-.800782zm0 0" fill="url(#N)"/><path d="m34.398438 2.398438h.800781v33.601562h-.800781zm0 0" fill="url(#O)"/><path d="m35.199219 2.398438h.800781v33.601562h-.800781zm0 0" fill="url(#P)"/></g><path d="m3.500977 3.500977h41.000976v41.000976h-41.000976zm0 0" fill="none" stroke="#fff" stroke-linejoin="round" stroke-miterlimit="10" stroke-opacity=".25" transform="scale(.8)"/></svg>
