<?xml version="1.0" encoding="UTF-8" ?><svg height="38.4pt" viewBox="0 0 38.4 38.4" width="38.4pt" xmlns="http://www.w3.org/2000/svg" xmlns:xlink="http://www.w3.org/1999/xlink"><linearGradient id="a" gradientUnits="userSpaceOnUse" x1="2.4" x2="36" y1="0" y2="0"><stop offset="0" stop-color="#004d66"/><stop offset=".5" stop-color="#7f4d66"/><stop offset="1" stop-color="#ff4d66"/></linearGradient><linearGradient id="b" gradientUnits="userSpaceOnUse" x1="2.4" x2="36" y1="12.8" y2="12.8"><stop offset="0" stop-color="#4d0066"/><stop offset=".5" stop-color="#4d7f66"/><stop offset="1" stop-color="#4dff66"/></linearGradient><linearGradient id="c" gradientUnits="userSpaceOnUse" x1="2.4" x2="36" y1="25.6" y2="25.6"><stop offset="0" stop-color="#4d4d00"/><stop offset=".5" stop-color="#4d4d7f"/><stop offset="1" stop-color="#4d4dff"/></linearGradient><path d="m3.500977 3.500977h41.000976v8.999023h-41.000976zm0 0" style="fill:none;stroke-width:3;stroke-linejoin:round;stroke:#000;stroke-opacity:.4;stroke-miterlimit:10" transform="scale(.8)"/><path d="m2.398438 2.398438h33.601562v8h-33.601562zm0 0" fill="url(#a)"/><path d="m3.500977 3.500977h41.000976v8.999023h-41.000976zm0 0" fill="none" stroke="#fff" stroke-linejoin="round" stroke-miterlimit="10" stroke-opacity=".25" transform="scale(.8)"/><path d="m3.500977 3.501953h41.000976v8.999024h-41.000976zm0 0" style="fill:none;stroke-width:3;stroke-linejoin:round;stroke:#000;stroke-opacity:.4;stroke-miterlimit:10" transform="matrix(.8 0 0 .8 0 12.8)"/><path d="m2.398438 15.199219h33.601562v8h-33.601562zm0 0" fill="url(#b)"/><path d="m3.500977 3.501953h41.000976v8.999024h-41.000976zm0 0" fill="none" stroke="#fff" stroke-linejoin="round" stroke-miterlimit="10" stroke-opacity=".25" transform="matrix(.8 0 0 .8 0 12.8)"/><path d="m3.500977 3.498047h41.000976v8.999023h-41.000976zm0 0" style="fill:none;stroke-width:3;stroke-linejoin:round;stroke:#000;stroke-opacity:.4;stroke-miterlimit:10" transform="matrix(.8 0 0 .8 0 25.6)"/><path d="m2.398438 28h33.601562v8h-33.601562zm0 0" fill="url(#c)"/><path d="m3.500977 3.498047h41.000976v8.999023h-41.000976zm0 0" fill="none" stroke="#fff" stroke-linejoin="round" stroke-miterlimit="10" stroke-opacity=".25" transform="matrix(.8 0 0 .8 0 25.6)"/></svg>
