<?xml version="1.0" encoding="UTF-8"?>
<svg width="16" height="16" fill="#bebebe" version="1.1" xmlns="http://www.w3.org/2000/svg"><path d="m5.47 0c-0.27 0-0.5 0.22-0.5 0.5v3c0 0.28 0.23 0.5 0.5 0.5h4.06c0.27 0 0.5-0.22 0.5-0.5v-3c0-0.28-0.23-0.5-0.5-0.5zm-3 1c-0.29 0-0.65 0.04-1 0.31-0.35 0.29-0.53 0.77-0.53 1.13v12.03c0 0.38 0.13 0.82 0.44 1.13 0.28 0.28 0.7 0.38 1.09 0.37v0.03h9.97c0.36 0 0.76-0.13 1.06-0.4s0.47-0.72 0.47-1.13v-12.09c0-0.33-0.12-0.72-0.4-1-0.3-0.28-0.67-0.38-0.97-0.38h-1.6l0.03 2h0.97l-0.03 11h-8.97v-11h1v-2zm1.53 4.03v6.97h5l2-2-0.03-4.97z"/></svg>
