<?xml version="1.0" encoding="UTF-8"?>
<svg width="16" height="16" fill="#bebebe" version="1.1" xmlns="http://www.w3.org/2000/svg"><g transform="translate(.00192 -.0483)"><path d="m9.9981 9.0483h1v2.5h3v-2.5h1v6h-1v-2.5h-3v2.5h-1z"/></g><path d="m12.34 0c-1.7-0.01-3.58 2.2-3.59 4.56l-1.4-1.06-0.7 0.93 1.57 1.19-3.22 4.33-1 2.05 0.7 0.56 1.7-1.49 3.24-4.37 1.66 1.26 0.7-0.93-1.4-1.06c2.8-0.79 4.72-4.17 2.86-5.58-0.34-0.27-0.73-0.39-1.12-0.39zm-8.34 12.57s-1.46 0.66-1.45 2.06c0.02 1.73 2.63 1.82 2.71 0.27 0.04-0.87-1.26-2.33-1.26-2.33z"/></svg>
