<?xml version="1.0" encoding="UTF-8"?>
<svg width="16" height="16" fill="#bebebe" version="1.1" xmlns:xlink="http://www.w3.org/1999/xlink" xmlns="http://www.w3.org/2000/svg"><path id="a" d="m15 0c-0.65 0.04-1 0-2 0.25-1.97 0.55-3.14 3.64-4.03 5.69-0.02-0.3-0.17-0.54-0.4-0.72 0.33-1.2 0.88-2.22 0.93-2.22 0.29 0 0.5-0.22 0.5-0.5s-0.21-0.5-0.5-0.5c-0.27 0-0.5 0.22-0.5 0.5 0 0-0.69 1.7-0.87 2.54-0.05-0.01-0.08-0.04-0.13-0.04l-0.5 3 0.5 5c0.53 0 1-0.47 1-1v-1.5c0-0.37-0.2-0.73-0.53-0.9l0.03-0.1c3 2.5 1.95 4.77 3 5.5 1 0.27 2-0.88 2.5-1.72 0.8-1.3 1.5-4.28 0.5-4.78s-1.5-0.5-3-0.5c1-0.5 2.9-0.06 3.66-1.22 0.84-1.28 0.84-4.78 0.34-6.53-0.04-0.08 0-0.25-0.5-0.25z"/><use transform="matrix(-1,0,0,1,16,0)" xlink:href="#a"/></svg>
