<?xml version="1.0" encoding="UTF-8"?>
<svg width="16" height="16" fill="#bebebe" version="1.1" xmlns="http://www.w3.org/2000/svg"><path d="m8 0c-4.42 0-8 3.58-8 8s3.58 8 8 8 8-3.58 8-8-3.58-8-8-8zm0 3c2.76 0 5 2.24 5 5s-2.24 5-5 5-5-2.24-5-5 2.24-5 5-5z" opacity=".3"/><path d="m4.97 0.6c-1.99 0.8-3.54 2.4-4.35 4.4l2.91 0.78c0.49-0.95 1.29-1.73 2.25-2.22zm6.06 0-0.81 2.96c0.96 0.49 1.76 1.27 2.25 2.22l2.91-0.78c-0.81-2-2.36-3.6-4.35-4.4zm-7.5 9.62-2.91 0.78c0.81 2 2.36 3.6 4.35 4.4l0.81-2.96c-0.96-0.49-1.76-1.27-2.25-2.22zm8.91 0c-0.49 0.96-1.27 1.76-2.22 2.25l0.78 2.91c2-0.81 3.6-2.36 4.4-4.35z"/></svg>
