<?xml version="1.0" encoding="UTF-8"?>
<svg width="16" height="16" fill="#bebebe" version="1.1" xmlns="http://www.w3.org/2000/svg"><path d="m11.38 0.25c-0.24 0.44-0.48 1.01-0.72 1.44-0.1-0.01-0.19-0.03-0.28-0.03-0.34 0-0.67 0.04-0.98 0.12-0.3-0.38-0.62-0.9-0.93-1.28-0.29 0.1-0.55 0.23-0.81 0.38 0.09 0.48 0.27 1.07 0.37 1.56-0.34 0.25-0.63 0.53-0.87 0.87-0.5-0.1-1.08-0.28-1.56-0.37-0.15 0.26-0.28 0.53-0.38 0.81 0.38 0.31 0.9 0.63 1.28 0.94-0.08 0.31-0.12 0.63-0.12 0.97 0 0.09 0.02 0.18 0.02 0.28-0.43 0.25-1 0.48-1.43 0.72 0.05 0.27 0.13 0.54 0.22 0.81 0.49-0.01 1.1-0.1 1.59-0.09 0.19 0.39 0.42 0.75 0.72 1.06-0.17 0.46-0.45 1.01-0.62 1.46 0.21 0.18 0.44 0.33 0.68 0.48 0.37-0.33 0.78-0.78 1.16-1.1 0.38 0.17 0.78 0.27 1.22 0.32 0.16 0.47 0.3 1.08 0.46 1.56 0.3-0.01 0.6-0.02 0.88-0.06 0.08-0.5 0.12-1.12 0.19-1.63 0.41-0.12 0.81-0.27 1.15-0.5 0.43 0.26 0.9 0.63 1.32 0.87 0.22-0.19 0.43-0.4 0.62-0.62-0.24-0.42-0.61-0.89-0.87-1.32 0.23-0.34 0.38-0.74 0.5-1.15 0.51-0.08 1.13-0.11 1.62-0.19 0.05-0.29 0.06-0.57 0.07-0.87-0.48-0.17-1.09-0.31-1.57-0.47-0.04-0.43-0.14-0.84-0.31-1.22 0.32-0.38 0.77-0.79 1.1-1.16-0.15-0.24-0.3-0.47-0.48-0.68-0.46 0.17-1 0.44-1.46 0.62-0.31-0.3-0.67-0.53-1.06-0.72 0-0.49 0.08-1.1 0.09-1.59-0.26-0.09-0.54-0.17-0.81-0.22zm-1 3.41c1.1 0 2 0.89 2 2 0 1.1-0.9 2-2 2-1.11 0-2-0.9-2-2 0-1.11 0.89-2 2-2zm-7.35 4.31c-0.02 0.63 0.09 1.44-0.15 1.65-0.24 0.22-1.04 0.04-1.66-0.02-0.13 0.23-0.24 0.48-0.32 0.74 0.48 0.4 1.15 0.84 1.16 1.16 0.02 0.32-0.62 0.8-1.06 1.25 0.1 0.25 0.25 0.49 0.4 0.72 0.61-0.13 1.37-0.37 1.63-0.19 0.27 0.19 0.27 1.01 0.35 1.62 0.24 0.08 0.51 0.11 0.78 0.13 0.28-0.55 0.56-1.32 0.87-1.41 0.32-0.08 0.97 0.46 1.5 0.78 0.22-0.15 0.41-0.33 0.59-0.52-0.25-0.58-0.72-1.3-0.59-1.6s0.97-0.47 1.57-0.68c0-0.08 0-0.6-0.04-0.79-0.6-0.16-1.46-0.24-1.62-0.53-0.16-0.28 0.24-1.06 0.44-1.66-0.21-0.17-0.42-0.33-0.66-0.46-0.5 0.37-1.09 0.99-1.41 0.94-0.31-0.06-0.66-0.83-1-1.35-0.04 0.01-0.57 0.13-0.78 0.22zm1.28 1.65c0.93 0 1.69 0.76 1.69 1.69s-0.76 1.69-1.69 1.69-1.69-0.76-1.69-1.69 0.76-1.69 1.69-1.69z"/></svg>
