<?xml version="1.0" encoding="UTF-8"?>
<svg width="16" height="16" fill="#bebebe" version="1.1" xmlns="http://www.w3.org/2000/svg"><path d="m6 2c-0.5 0-1 0.5-1 1v1h-3c-0.5 0-1 0.5-1 1v8c0 0.5 0.5 1 1 1h12c0.55 0 1-0.45 1-1v-8c0-0.55-0.45-1-1-1h-3v-1c0-0.5-0.5-1-1-1zm2 2.5c2.5 0 4.5 2.01 4.5 4.5s-2.01 4.5-4.5 4.5-4.5-2.01-4.5-4.5 2-4.5 4.5-4.5zm1e-6 1.5c-1.66 0-3 1.34-3 3s1.34 3 3 3 3-1.34 3-3-1.34-3-3-3zm-0.5 0.75c0.41 0 0.75 0.34 0.75 0.75s-0.34 0.75-0.75 0.75-0.75-0.34-0.75-0.75 0.34-0.75 0.75-0.75z"/></svg>
