<?xml version="1.0" encoding="UTF-8"?>
<svg width="16" height="16" fill="#bebebe" version="1.1" xmlns="http://www.w3.org/2000/svg"><path d="m3 1c-0.52 0-1 0.48-1 1v12.97c0 0.53 0.48 1 1 1h4.96l-2-2-1.96 0.03v-11h4.55l3.41 3.4v1.57h1.99v-2c0-0.27-0.11-0.54-0.31-0.72l-3.96-3.94c-0.18-0.19-0.45-0.31-0.72-0.31z"/><path d="m9 6-4 4 4 4z"/><path d="m7.35 9.05v1.9h5.65c0.3 0 0.5 0.11 0.7 0.37s0.36 0.68 0.36 1.2-0.16 0.93-0.35 1.18c-0.19 0.24-0.39 0.35-0.71 0.35h-0.44v1.9h0.44c0.88 0 1.69-0.43 2.2-1.07 0.5-0.64 0.76-1.48 0.76-2.36s-0.25-1.72-0.76-2.36c-0.5-0.66-1.3-1.11-2.2-1.11z"/></svg>
