<?xml version="1.0" encoding="UTF-8"?>
<svg width="16" height="16" fill="#bebebe" version="1.1" xmlns="http://www.w3.org/2000/svg"><path d="m3 1c-0.52 0-1 0.47-1 1v13c0 0.52 0.48 1 1 1h5.02l-1.05-1.97h-2.97v-11h4.56l3.41 3.41v5.58l2 3v-9.02c0-0.27-0.12-0.53-0.31-0.72l-3.97-3.94c-0.19-0.2-0.45-0.31-0.72-0.31zm5.54 6.87c-0.17 0-0.34 0.01-0.5 0.03l0.98 1.73c0.2 0.36-0.02 0.76-0.45 1l-0.77 0.44c-0.43 0.24-0.91 0.2-1.11-0.15l-0.98-1.71c-0.2 0.26-0.4 0.54-0.52 0.85-0.57 1.47 0.24 2.9 1.8 3.17 0.32 0.06 0.67 0.04 1 0 0.01 0 1.51 2.77 1.51 2.77h3.5l-2.66-4.07c0.2-0.26 0.37-0.54 0.49-0.85 0.57-1.47-0.24-2.89-1.79-3.18-0.17-0.02-0.34-0.03-0.5-0.03z"/></svg>
