<?xml version="1.0" encoding="UTF-8" ?><svg height="48" width="48" xmlns="http://www.w3.org/2000/svg"><g fill="#2e3436" stroke="#2e3436" stroke-linecap="round" stroke-linejoin="round"><path d="m7.5 7.5h34v34h-34z" opacity=".667"/><path d="m6.5 6.5h36v36h-36z" opacity=".333"/><path d="m5.5 5.5h36v36h-36z" opacity=".333"/></g><path d="m6.5 6.5h10v10h-10z" fill="#edd400" stroke="#ffea3d"/><path d="m18.5 6.5h10v10h-10z" fill="#eeeeec" stroke="#fff"/><path d="m30.5 6.5h10v10h-10z" fill="#ef2929" stroke="#f14c4c"/><path d="m6.5 18.5h10v10h-10z" fill="#fcaf3e" stroke="#fdcc84"/><path d="m18.5 18.5h10v10h-10z" fill="#e65289" stroke="#eb75a1"/><path d="m30.5 18.5h10v10h-10z" fill="#3465a4" stroke="#537db2"/><path d="m6.5 30.5h10v10h-10z" fill="#babdb6" stroke="#d3d6d1"/><path d="m18.5 30.5h10v10h-10z" fill="#c17d11" stroke="#e59414"/><path d="m30.5 30.5h10v10h-10z" fill="#73d216" stroke="#85f319"/></svg>
