<?xml version="1.0" encoding="UTF-8"?>
<svg width="16" height="16" fill="#bebebe" version="1.1" xmlns="http://www.w3.org/2000/svg"><path d="m11.6 0.08c-0.1-0.01-0.21 0-0.32 0.02-0.29 0.06-0.54 0.24-0.68 0.5l-3.32 5.62 1.75 1 3.31-5.62c0.41-0.66-0.05-1.45-0.74-1.52z"/><path d="m5.2 4.58c-0.35 0.02-0.6 0.25-0.78 0.62l-0.55 1.06 6.59 3.87 0.63-0.81c0.48-0.62 0.39-1.19-0.21-1.51l-4.95-3.05c-0.28-0.14-0.53-0.2-0.73-0.18z"/><path d="m3.5 7.5s-2.5 3.5-1 5 4.5 1.5 6 1.5l4 0.04c-2-0.54-3.5-1.54-2.5-3.04z"/></svg>
