<?xml version="1.0" encoding="UTF-8"?>
<svg width="16" height="16" fill="#bebebe" version="1.1" xmlns="http://www.w3.org/2000/svg"><path d="m9.5 0.66c-0.55 0-1 0.45-1 1v5.84c0 0.55 0.45 1 1 1s1-0.45 1-1v-5.84c0-0.55-0.45-1-1-1zm1.9 2.97c-0.09-0.01-0.16 0-0.23 0.02v4.18c0 0.67-0.67 1.33-1.34 1.33h-0.66c-0.67 0-1.34-0.66-1.34-1.33v-3.33l-1.33 0.52c-0.02-0.01-0.46-0.34-2.55-0.2-2.1 0.13-3.28 1.68-3.41 2.35-0.24 1.25 0.51 1.63 0.82 2.98 0.3 1.35-0.86 2.07-0.86 3.28 0.01 1.32 1.32 2.11 2.14 2.02 0.81-0.09 1.78-0.35 1.88-1.93s-1.31-2.35-1.26-3.69c0.05-0.73 0.15-0.96 0.41-1.28 0.98 3.29 1.53 4.75 4.23 6.4 0.38 0.2 1.2 0.3 1.77 0.15 1.89-0.47 3.85-1.8 4.91-3.2 0.4-0.53 0.67-1.06 0.53-1.93-0.46-2.86-2.51-6.17-3.71-6.34z"/></svg>
