<?xml version="1.0" encoding="UTF-8"?>
<svg xmlns="http://www.w3.org/2000/svg" xmlns:xlink="http://www.w3.org/1999/xlink" width="16px" height="16px" viewBox="0 0 16 16" version="1.1">
<defs>
<filter id="alpha" filterUnits="objectBoundingBox" x="0%" y="0%" width="100%" height="100%">
  <feColorMatrix type="matrix" in="SourceGraphic" values="0 0 0 0 1 0 0 0 0 1 0 0 0 0 1 0 0 0 1 0"/>
</filter>
<mask id="mask0">
  <g filter="url(#alpha)">
<rect x="0" y="0" width="16" height="16" style="fill:rgb(0%,0%,0%);fill-opacity:0.123747;stroke:none;"/>
  </g>
</mask>
<clipPath id="clip1">
  <rect x="0" y="0" width="192" height="152"/>
</clipPath>
<g id="surface18015" clip-path="url(#clip1)">
<path style=" stroke:none;fill-rule:nonzero;fill:rgb(0%,0%,0%);fill-opacity:1;" d="M 35.199219 129.445312 L 34.574219 131.445312 L 50.183594 131.445312 L 50.707031 129.472656 Z M 93.074219 129.445312 L 93.574219 131.445312 L 108.933594 131.445312 L 108.308594 129.445312 Z M 93.074219 129.445312 "/>
</g>
</defs>
<g id="surface18007">
<path style=" stroke:none;fill-rule:nonzero;fill:rgb(14.117648%,12.156863%,19.215687%);fill-opacity:1;" d="M 2.085938 0.96875 C 1.441406 0.96875 0.925781 1.488281 0.925781 2.128906 L 0.925781 12.839844 C 0.925781 13.480469 1.441406 14 2.085938 14 L 13.824219 14 C 14.464844 14 14.984375 13.480469 14.984375 12.839844 L 14.984375 6.65625 L 12 10 C 10.800781 12.066406 8.757812 12.632812 7.175781 12.6875 C 4.289062 12.660156 3.101562 11.230469 2.058594 10.171875 C 3.703125 8.976562 3.65625 8.253906 4.3125 7.117188 C 4.683594 6.539062 4.878906 6.121094 5.464844 5.660156 C 6.207031 5.078125 7.195312 4.835938 8 4.792969 L 12 0.96875 Z M 2.085938 0.96875 "/>
<path style=" stroke:none;fill-rule:nonzero;fill:rgb(14.117648%,12.156863%,19.215687%);fill-opacity:1;" d="M 3.265625 13.386719 L 5.609375 13.386719 L 5.609375 15.03125 L 3.265625 15.03125 Z M 3.265625 13.386719 "/>
<path style=" stroke:none;fill-rule:nonzero;fill:rgb(14.117648%,12.156863%,19.215687%);fill-opacity:1;" d="M 10.296875 13.386719 L 12.640625 13.386719 L 12.640625 15.03125 L 10.296875 15.03125 Z M 10.296875 13.386719 "/>
<path style=" stroke:none;fill-rule:nonzero;fill:rgb(14.117648%,12.156863%,19.215687%);fill-opacity:1;" d="M 14.488281 1.5 C 14.203125 1.5 13.914062 1.609375 13.695312 1.828125 L 9.054688 6.414062 C 8.328125 6.3125 7.640625 6.429688 6.921875 6.992188 C 6.207031 7.558594 5.734375 8.640625 5.292969 9.183594 C 4.855469 9.722656 4.617188 9.90625 4.183594 10.144531 C 4.953125 10.902344 6.042969 11.320312 7.121094 11.269531 C 8.199219 11.222656 9.246094 10.707031 9.945312 9.878906 C 10.441406 9.347656 10.546875 8.769531 10.570312 8.15625 L 15.28125 3.414062 C 15.71875 2.976562 15.722656 2.261719 15.285156 1.824219 C 15.066406 1.605469 14.777344 1.496094 14.488281 1.5 Z M 14.488281 1.5 "/>
<use xlink:href="#surface18015" transform="matrix(1,0,0,1,-168,-16)" mask="url(#mask0)"/>
</g>
</svg>
