<?xml version="1.0" encoding="UTF-8"?>
<svg xmlns="http://www.w3.org/2000/svg" xmlns:xlink="http://www.w3.org/1999/xlink" width="16px" height="16px" viewBox="0 0 16 16" version="1.1">
<defs>
<filter id="alpha" filterUnits="objectBoundingBox" x="0%" y="0%" width="100%" height="100%">
  <feColorMatrix type="matrix" in="SourceGraphic" values="0 0 0 0 1 0 0 0 0 1 0 0 0 0 1 0 0 0 1 0"/>
</filter>
<mask id="mask0">
  <g filter="url(#alpha)">
<rect x="0" y="0" width="16" height="16" style="fill:rgb(0%,0%,0%);fill-opacity:0.3;stroke:none;"/>
  </g>
</mask>
<clipPath id="clip1">
  <rect x="0" y="0" width="192" height="152"/>
</clipPath>
<g id="surface80" clip-path="url(#clip1)">
<path style=" stroke:none;fill-rule:nonzero;fill:rgb(100%,100%,100%);fill-opacity:1;" d="M 72.003906 95 C 72.003906 93.34375 73.34375 92.003906 75 92.003906 C 76.65625 92.003906 77.996094 93.34375 77.996094 95 C 77.996094 96.65625 76.65625 97.996094 75 97.996094 C 73.34375 97.996094 72.003906 96.65625 72.003906 95 Z M 72.003906 95 "/>
</g>
<mask id="mask1">
  <g filter="url(#alpha)">
<rect x="0" y="0" width="16" height="16" style="fill:rgb(0%,0%,0%);fill-opacity:0.2;stroke:none;"/>
  </g>
</mask>
<clipPath id="clip2">
  <rect x="0" y="0" width="192" height="152"/>
</clipPath>
<g id="surface83" clip-path="url(#clip2)">
<path style=" stroke:none;fill-rule:nonzero;fill:rgb(0%,0%,0%);fill-opacity:1;" d="M 35 128 L 34.378906 130 L 50.433594 130 L 50.957031 128.027344 Z M 92.988281 128 L 93.488281 130 L 109.621094 130 L 109 128 Z M 92.988281 128 "/>
</g>
</defs>
<g id="surface72">
<path style=" stroke:none;fill-rule:nonzero;fill:rgb(0%,0%,0%);fill-opacity:1;" d="M 13.894531 0.53125 C 13.480469 0.519531 13.050781 0.660156 12.695312 0.96875 L 8.335938 5.324219 C 7.929688 5.125 7.480469 5 7 5 C 5.34375 5 4 6.34375 4 8 L 4 11 L 7 11 C 8.65625 11 10 9.65625 10 8 C 10 7.429688 9.832031 6.898438 9.554688 6.445312 L 15 1 C 14.707031 0.707031 14.308594 0.546875 13.894531 0.53125 Z M 13.894531 0.53125 "/>
<path style=" stroke:none;fill-rule:nonzero;fill:rgb(0%,0%,0%);fill-opacity:1;" d="M 3.921875 0 C 2.320312 0 1 1.320312 1 2.921875 L 1 11.078125 C 1 12.679688 2.320312 14 3.921875 14 L 12.078125 14 C 13.679688 14 15 12.679688 15 11.078125 L 15 5 L 13 5 L 13 11.078125 C 13 11.605469 12.605469 12 12.078125 12 L 3.921875 12 C 3.394531 12 3 11.605469 3 11.078125 L 3 2.921875 C 3 2.394531 3.394531 2 3.921875 2 L 10 2 L 10 0 Z M 3.921875 0 "/>
<path style=" stroke:none;fill-rule:nonzero;fill:rgb(0%,0%,0%);fill-opacity:1;" d="M 5 13 L 7 13 L 6 16 L 4 16 Z M 5 13 "/>
<path style=" stroke:none;fill-rule:nonzero;fill:rgb(0%,0%,0%);fill-opacity:1;" d="M 11.5 13 L 9.5 13 L 10.5 16 L 12.5 16 Z M 11.5 13 "/>
<use xlink:href="#surface80" transform="matrix(1,0,0,1,-168,-16)" mask="url(#mask0)"/>
<use xlink:href="#surface83" transform="matrix(1,0,0,1,-168,-16)" mask="url(#mask1)"/>
</g>
</svg>
