<?xml version="1.0" encoding="UTF-8" ?><svg height="128" width="128" xmlns="http://www.w3.org/2000/svg" xmlns:xlink="http://www.w3.org/1999/xlink"><linearGradient id="a" gradientTransform="matrix(.25 0 0 .24405 -.750885 51.640579)" gradientUnits="userSpaceOnUse" x1="51.003555" x2="467.003571" y1="43.921288" y2="43.921288"><stop offset="0" stop-color="#babdb6"/><stop offset=".038462" stop-color="#f6f5f4"/><stop offset=".115385" stop-color="#d5d3cf"/><stop offset=".884615" stop-color="#deddda"/><stop offset=".961538" stop-color="#f6f5f4"/><stop offset="1" stop-color="#babdb6"/></linearGradient><linearGradient id="b" gradientTransform="matrix(.73973976 .73973976 -.73973976 .73973976 -2.648818 -144.258573)" gradientUnits="userSpaceOnUse" x1="195.347656" x2="211.371094" y1="90.037666" y2="90.037666"><stop offset="0" stop-color="#9497a9"/><stop offset="1" stop-color="#4d5167"/></linearGradient><linearGradient id="c" gradientTransform="matrix(1.52897204 1.13165692 -1.13165692 1.52897204 57.123838 -120.869016)" gradientUnits="userSpaceOnUse" x1="61.443886" x2="70.099663" y1="97.697983" y2="76.563164"><stop offset="0" stop-color="#a1886c"/><stop offset="1" stop-color="#250c03"/></linearGradient><linearGradient id="d" gradientTransform="matrix(.94927796 -.31443817 .31443817 .94927796 -38.782526 8.897673)" gradientUnits="userSpaceOnUse" x1="46.208195" x2="58.283535" y1="107.775642" y2="109.131493"><stop offset="0" stop-color="#0acbfc"/><stop offset="1" stop-color="#0acbfc" stop-opacity="0"/></linearGradient><radialGradient id="e" cx="-46.61" cy="89.1" gradientTransform="matrix(8.99763 -.7141 .95465 12.02868 375.101802 -1009.7405)" gradientUnits="userSpaceOnUse" r="5.6537"><stop offset="0" stop-color="#00caff" stop-opacity=".972549"/><stop offset="1" stop-color="#f0c100"/></radialGradient><clipPath id="f"><path d="m0 0h192v152h-192z"/></clipPath><filter id="g" height="100%" width="100%" x="0%" y="0%"><feColorMatrix in="SourceGraphic" values="0 0 0 0 1 0 0 0 0 1 0 0 0 0 1 0 0 0 1 0"/></filter><mask id="h"><g filter="url(#g)"><path d="m0 0h128v128h-128z" fill-opacity=".123747"/></g></mask><path d="m24 124v2h16v-2zm64 0v2h16v-2zm0 0" fill="#a9713c"/><path d="m88 122-24-100v4l24 100zm0 0" fill="#b5835a" fill-rule="evenodd"/><path d="m40 122 24-100v4l-24 100zm0 0" fill="#6b4b2f" fill-rule="evenodd"/><path d="m54.0039 16.0039-.0039-.0039-30 108h16l24-100 24 100h16l-32-108zm0 0" fill="#d18b48"/><path d="m20 32h88c4.418 0 8 3.582 8 8v66c0 4.418-3.582 8-8 8h-88c-4.418 0-8-3.582-8-8v-66c0-4.418 3.582-8 8-8zm0 0" fill="url(#a)"/><path d="m58 4h12c2.2109 0 4 1.7891 4 4v6c0 2.2109-1.7891 4-4 4h-12c-2.2109 0-4-1.7891-4-4v-6c0-2.2109 1.7891-4 4-4zm0 0" fill="#d18b48"/><path d="m54 12v4h20v-4zm0 0" fill="#ca823f"/><path d="m47.7031 14h32.5938c.9414 0 1.7031.7617 1.7031 1.7031v4.5938c0 .9414-.7617 1.7031-1.7031 1.7031h-32.5938c-.9414 0-1.7031-.7617-1.7031-1.7031v-4.5938c0-.9414.7617-1.7031 1.7031-1.7031zm0 0" fill="#d99552"/><path d="m46.7656 18h34.4688c.4219 0 .7656.3438.7656.7656v2.3633c0 .4258-.3438.7656-.7656.7656h-34.4688c-.4219 0-.7656-.3398-.7656-.7656v-2.3633c0-.4219.3438-.7656.7656-.7656zm0 0" fill="#ca823f"/><path d="m20 20h88c4.418 0 8 3.582 8 8v72c0 4.418-3.582 8-8 8h-88c-4.418 0-8-3.582-8-8v-72c0-4.418 3.582-8 8-8zm0 0" fill="#f3f2f1"/><g clip-path="url(#f)" mask="url(#h)" transform="translate(-8 -16)"><path d="m35.1992 129.4453-.625 2h15.6094l.5234-1.9727zm57.875 0 .5 2h15.3594l-.625-2zm0 0"/></g><path d="m24 108h78c2.2109 0 4 .8945 4 2v4c0 1.1055-1.7891 2-4 2h-78c-2.2109 0-4-.8945-4-2v-4c0-1.1055 1.7891-2 4-2zm0 0" fill="#d99552"/><path d="m24 112h78c2.2109 0 4 .875 4 1.9531v.0938c0 1.0781-1.7891 1.9531-4 1.9531h-78c-2.2109 0-4-.875-4-1.9531v-.0938c0-1.0781 1.7891-1.9531 4-1.9531zm0 0" fill="#a9713c"/><path d="m24.6289 108.3984h76.7188c.332 0 .5977.2578.5977.582v1.8711c0 .3242-.2656.5859-.5977.5859h-76.7188c-.332 0-.5977-.2617-.5977-.5859v-1.8711c0-.3242.2656-.582.5977-.582zm0 0" fill="#fff" fill-opacity=".15"/><path d="m55.9531 103.7773c-5.9336.457-12.0117-1.3359-16.7422-4.9453-4.7344-3.6055-8.0781-8.9922-9.2109-14.832-.8867-4.5781-.4336-9.4141 1.3281-13.7344.957-2.3516 2.2891-4.5391 3.3086-6.8672s1.7383-4.8828 1.3633-7.3984c-.2578-1.7344-1.0391-3.3867-2.2188-4.6836-1.1758-1.3008-2.7422-2.2383-4.4453-2.6641-1.6992-.4258-3.5234-.332-5.1758.2578-2.6953.9648-4.793.3906-4.5586-2.9375.3008-4.2188 1.7813-8.3594 4.3008-11.7578 3.7227-5.0274 9.6484-8.3555 15.8789-8.918 6.2266-.5664 12.6523 1.6441 17.2188 5.9219 4.5625 4.2734 7.1875 10.5469 7.0313 16.7969-.1016 4.0547-1.332 8.0625-3.4492 11.5234-2.1172 3.457-5.1094 6.3672-8.582 8.4609-3.4766 2.0977-7.4219 3.3906-10.7344 5.7461-1.6523 1.1758-3.1484 2.625-4.1484 4.3906-1.0039 1.7656-1.4922 3.8672-1.1172 5.8633.2383 1.2695.8203 2.4727 1.668 3.4453.8477.9727 1.9609 1.7148 3.1836 2.125 1.2266.4102 2.5586.4883 3.8242.2227 1.2617-.2695 2.4492-.8789 3.4063-1.7461" fill="url(#e)"/><path d="m116 44v8l-38 38v-6zm0 0" fill="#312d2a" fill-opacity=".15"/><path d="m121.7852 32.207c-2.7695-2.7695-7.2656-2.7578-10.0508.0273l-33.0664 33.0664 10.0234 10.0234 33.0664-33.0664c2.7852-2.7852 2.7969-7.2852.0273-10.0508zm0 0" fill="#cd8742"/><path d="m121.7852 32.207c-.6055-.6016-1.3125-1.0898-2.0938-1.4375 2.2852 2.8164 1.4766 6.0781-1.1016 8.6602l-32.5899 32.5703 2.6875 3.3281 33.0703-33.0742c2.7852-2.7813 2.7969-7.2813.0273-10.0469zm0 0" fill="#a9713c"/><path d="m89.9648 64.0273c-2.7813-2.7813-6.3125-3.75-7.8984-2.1719-.0156.0156-.0273.0313-.043.0508l-14.1563 12.332.0078.0078c-.0078.0039-.0117.0078-.0156.0117 2.5313.625 5.1914 2.2188 7.4102 4.4336 2.2188 2.2188 3.8125 4.8828 4.4336 7.418.1094-.125.2852-.3125.3125-.3516l12.2969-14.0312c1.332-1.6836.3047-5.0508-2.3477-7.6992zm0 0" fill="url(#b)"/><path d="m77.543 81.3555c.668 1.1719 1.8711 3.582 2.1602 4.7539.1094-.125.2852-.3125.3125-.3516l12.1875-13.9219c.918-.9414 1.0391-3.1406-.4688-5.5664zm0 0" fill="#16110d" fill-opacity=".25"/><path d="m70.6641 71.2188c-4.3828-.6289-8.8984.9141-12.4297 3.5781-3.3594 2.5352-5.8945 6.0039-8.082 9.6016-1.1602 1.9063-2.2383 3.8711-3.582 5.6563-1.9727 2.6211-4.5039 4.8164-7.3789 6.3945 5.1055 5.0273 12.3516 7.8008 19.5039 7.4688 7.1563-.3281 14.1133-3.7578 18.7344-9.2305 1.4336-1.6953 2.6523-3.5859 3.4609-5.6523.8047-2.0703 1.1914-4.3203.9609-6.5273-.293-2.8359-1.625-5.5469-3.6445-7.5586-2.0234-2.0117-4.7188-3.3242-7.543-3.7305zm0 0" fill="url(#c)"/><path d="m77.7109 74.4844c-.2148 7.0352-3.0547 13.9609-7.8398 19.1211-4.9922 5.3867-12.0586 8.7969-19.3789 9.3555 2.9219.8398 5.9922 1.1484 9.0234.9063 6.0039-.4766 11.7734-3.1523 16.1484-7.293 2.1602-2.0469 4.0117-4.4688 5.1289-7.2266 1.1172-2.7617 1.4727-5.875.7031-8.75-.293-1.0859-.7383-2.1289-1.3086-3.0938-.668-1.125-1.5039-2.1484-2.4766-3.0195zm0 0" fill-opacity=".2"/><path d="m46.5508 89.5977-.0469.0039c-.0625.0859-.1211.1797-.1875.2656-1.9453 2.582-4.4453 4.7461-7.2813 6.3086-.0859.0469-.1445.1328-.1602.2344-.0117.0977.0234.1992.0938.2656 3.1641 3.043 7.0977 5.2422 11.3164 6.4336.4258-.2617.7344-.7148.8086-1.2109.0742-.5156-.1016-1.0625-.4609-1.4375-.3281-.3438-.7852-.5391-1.2461-.6484-.4648-.1055-.9414-.1367-1.4102-.2031-.4727-.0703-.9453-.1836-1.3477-.4336-.2031-.125-.3867-.2852-.5234-.4766-.1406-.1914-.2344-.4219-.2617-.6563-.0234-.2266.0156-.4609.1016-.6719.082-.2148.2109-.4102.3594-.582.3008-.3477.6836-.6094 1.0547-.8789s.7422-.5547.9961-.9375c.125-.1914.2227-.4063.2617-.6289.043-.2266.0313-.4648-.0469-.6758-.0781-.2031-.2109-.3828-.3711-.5273-.1563-.1484-.3398-.2617-.5273-.3711-.375-.2148-.7773-.3906-1.0859-.6953-.3281-.3203-.5195-.7734-.5234-1.2305-.0078-.457.1719-.918.4883-1.2461zm0 0" fill="url(#d)" fill-rule="evenodd"/><path d="m68 80c0 2.2109-1.7891 4-4 4s-4-1.7891-4-4 1.7891-4 4-4 4 1.7891 4 4zm0 0" fill="#fff" fill-opacity=".031373"/></svg>
