<?xml version="1.0" encoding="UTF-8"?>
<svg width="24" height="24" fill="#bebebe" version="1.1" xmlns:xlink="http://www.w3.org/1999/xlink" xmlns="http://www.w3.org/2000/svg"><path d="m5 18-4 4h18l4-4z"/><circle cx="11.5" cy="12.5" r="2" fill="#bebebe"/><circle transform="translate(0,1e-4)" cx="3.5" cy="12.5" r="2" fill="#bebebe" opacity=".3"/><path id="a" d="m11.5 9c-1.93 0-3.5 1.57-3.5 3.5s1.57 3.5 3.5 3.5 3.5-1.57 3.5-3.5-1.57-3.5-3.5-3.5zm0 1c1.39 0 2.5 1.11 2.5 2.5s-1.11 2.5-2.5 2.5-2.5-1.11-2.5-2.5 1.11-2.5 2.5-2.5z"/><path transform="translate(0,1e-4)" d="M 23.5,1 22,7 18,6 V -1e-4 C 21.5,0 20,1 23.5,1 Z"/><path d="m16.34 9c-0.4 0.69-0.51 1.44-0.34 2.16 0.17 0.74 0.9 1.6 0.23 2.82-0.66 1.21-0.73 1.33-0.73 1.46 0 0.28 0.22 0.5 0.5 0.5 1.44-0.72 3.17-1.32 4.28-2.4 0.56-0.56 1-1.11 1.25-1.53 0.83-1.45 0.34-3.28-1.09-4.11-0.54-0.3-1.14-0.44-1.91-0.39-0.77 0.06-1.67 0.59-2.19 1.49z"/><use transform="translate(-8)" xlink:href="#a"/><use transform="translate(-4,-7)" xlink:href="#a"/></svg>
