<?xml version="1.0" encoding="UTF-8"?>
<svg width="16" height="16" fill="#bebebe" version="1.1" xmlns="http://www.w3.org/2000/svg"><g transform="translate(.00192 -.0483)"><path d="m14.498 9.5413v0.84441c-0.25415-0.25108-0.52575-0.39782-0.81478-0.51961-0.28654-0.1218-0.59178-0.17457-0.9157-0.17457-0.63787 0-0.92234 0.14993-1.2612 0.56486-0.33887 0.41229-0.50831 0.79188-0.50831 1.7919s0.16944 1.3769 0.50831 1.7919c0.33887 0.41229 0.62334 0.56582 1.2612 0.56582 0.32392 0 0.62915-0.05277 0.9157-0.17457 0.28904-0.1218 0.56063-0.26854 0.81478-0.51961v0.83648c-0.26412 0.19029-0.54444 0.333-0.84095 0.42815-0.29402 0.09514-0.60548 0.14272-0.93438 0.14272-0.84468 0-1.51-0.27354-1.9958-0.82062-0.48588-0.54972-0.72882-1.299-0.72882-2.2478 0-0.95144 0.24294-1.7007 0.72882-2.2478 0.48588-0.54972 1.1512-0.82458 1.9958-0.82458 0.33389 0 0.64784 0.047572 0.94186 0.14272 0.29651 0.092501 0.57433 0.23258 0.83347 0.42022z"/></g><path d="m12.34 0c-1.7-0.01-3.58 2.2-3.59 4.56l-1.4-1.06-0.7 0.93 1.57 1.19-3.22 4.33-1 2.05 0.7 0.56 1.7-1.49 3.24-4.37 1.66 1.26 0.7-0.93-1.4-1.06c2.8-0.79 4.72-4.17 2.86-5.58-0.34-0.27-0.73-0.39-1.12-0.39zm-8.34 12.57s-1.46 0.66-1.45 2.06c0.02 1.73 2.63 1.82 2.71 0.27 0.04-0.87-1.26-2.33-1.26-2.33z"/></svg>
