<?xml version="1.0" encoding="UTF-8"?>
<svg width="16" height="16" fill="#bebebe" version="1.1" xmlns="http://www.w3.org/2000/svg"><path d="m7.5 1-2.5 3 2.5 3h0.5v-6z"/><path d="m0 1v3.5a0.5 0.5 0 0 0 0.5 0.5 0.5 0.5 0 0 0 0.5-0.5v-2.5h3.5a0.5 0.5 0 0 0 0.5-0.5 0.5 0.5 0 0 0-0.5-0.5zm11.5 0a0.5 0.5 0 0 0-0.5 0.5 0.5 0.5 0 0 0 0.5 0.5h3.5v2.5a0.5 0.5 0 0 0 0.5 0.5 0.5 0.5 0 0 0 0.5-0.5v-3.5zm-11 10a0.5 0.5 0 0 0-0.5 0.5v3.5h4.5a0.5 0.5 0 0 0 0.5-0.5 0.5 0.5 0 0 0-0.5-0.5h-3.5v-2.5a0.5 0.5 0 0 0-0.5-0.5zm15 0a0.5 0.5 0 0 0-0.5 0.5v2.5h-3.5a0.5 0.5 0 0 0-0.5 0.5 0.5 0.5 0 0 0 0.5 0.5h4.5v-3.5a0.5 0.5 0 0 0-0.5-0.5z" opacity=".3"/><path d="m8.04 3-1.04 1 1.02 1c1.22 0 2.3 0.75 2.76 1.87 0.46 1.13 0.19 2.42-0.68 3.27-0.86 0.86-2.15 1.1-3.27 0.62-1.12-0.47-1.84-1.56-1.83-2.79 0-0.55-0.44-1-1-1-0.54-0.01-1 0.43-1 0.99-0.02 2.02 1.19 3.86 3.05 4.64 1.85 0.8 4.02 0.38 5.45-1.04 1.45-1.41 1.9-3.56 1.13-5.44-0.75-1.87-2.57-3.1-4.59-3.12z"/></svg>
