<?xml version="1.0" encoding="UTF-8"?>
<svg width="16" height="16" version="1.1" xmlns="http://www.w3.org/2000/svg"><g><path d="m9 4 0.5-3m1 4 1.5-2.5m0.5 3 1.5-1.5m-7 0-0.5-3m-1 4-1.5-2.5m-0.5 3-1.5-1.5m12 3 1-1m-13 1-1-1" fill="none"/><path d="m6.42 0.5c-0.28 0.05-0.46 0.3-0.42 0.58l0.5 3 0.99-0.16-0.5-3c-0.04-0.28-0.29-0.46-0.57-0.42zm3.16 0c-0.28-0.04-0.53 0.14-0.58 0.42l-0.5 3 0.99 0.16 0.5-3c0.05-0.28-0.13-0.53-0.41-0.58zm-5.84 1.57c-0.24 0.14-0.31 0.45-0.17 0.69l1.5 2.5 0.86-0.52-1.5-2.5c-0.14-0.24-0.45-0.31-0.69-0.17zm8.52 0c-0.24-0.14-0.55-0.07-0.69 0.17l-1.5 2.5 0.86 0.52 1.5-2.5c0.14-0.24 0.07-0.55-0.17-0.69zm-10.26 1.43c-0.13 0-0.26 0.05-0.35 0.15-0.2 0.2-0.2 0.51 0 0.7l1.5 1.5 0.7-0.7-1.5-1.5c-0.09-0.1-0.22-0.15-0.35-0.15zm11.65 0.15-1.5 1.5 0.7 0.7 1.5-1.5c0.2-0.2 0.2-0.51 0-0.7-0.2-0.2-0.51-0.2-0.7 0zm-12.65 1.85c-0.13 0-0.26 0.05-0.35 0.15-0.2 0.2-0.2 0.51 0 0.7l1 1 0.7-0.7-1-1c-0.09-0.1-0.22-0.15-0.35-0.15zm13.65 0.15-1 1 0.7 0.7 1-1c0.2-0.2 0.2-0.51 0-0.7-0.2-0.2-0.51-0.2-0.7 0z" fill="#bebebe"/></g><path d="m8 6c-1.5 0-3 1.5-3 3s1.5 3 3 3 3-1.5 3-3-1.5-3-3-3zm-0.5 0.75c0.5 0 0.75 0.25 0.75 0.75s-0.25 0.75-0.75 0.75-0.75-0.25-0.75-0.75 0.25-0.75 0.75-0.75zm0.5-3.75c-4.5 0-8 6-8 6s3.5 6 8 6 8-6 8-6-3.5-6-8-6zm0 2c4 0 6 4 6 4s-2 4-6 4-6-4-6-4 2-4 6-4z" fill="#bebebe"/></svg>
