<svg xmlns="http://www.w3.org/2000/svg" xmlns:xlink="http://www.w3.org/1999/xlink" width="128" height="128"><defs><linearGradient id="c" gradientUnits="userSpaceOnUse" x1="51.003555" y1="43.921288" x2="467.003571" y2="43.921288" gradientTransform="matrix(.25 0 0 .24405 -.750885 51.640579)"><stop offset="0" stop-color="#babdb6"/><stop offset=".038462" stop-color="#f6f5f4"/><stop offset=".115385" stop-color="#d5d3cf"/><stop offset=".884615" stop-color="#deddda"/><stop offset=".961538" stop-color="#f6f5f4"/><stop offset="1" stop-color="#babdb6"/></linearGradient><linearGradient id="g" gradientUnits="userSpaceOnUse" x1="195.347656" y1="90.037666" x2="211.371094" y2="90.037666" gradientTransform="rotate(45 172.811092 -75.326693) scale(1.04615)"><stop offset="0" stop-color="#9497a9"/><stop offset="1" stop-color="#4d5167"/></linearGradient><linearGradient id="h" gradientUnits="userSpaceOnUse" x1="61.443886" y1="97.697983" x2="70.099663" y2="76.563164" gradientTransform="rotate(36.50671 211.799254 26.165186) scale(1.90221)"><stop offset="0" stop-color="#a1886c"/><stop offset="1" stop-color="#250c03"/></linearGradient><linearGradient id="i" gradientUnits="userSpaceOnUse" x1="46.208195" y1="107.775642" x2="58.283535" y2="109.131493" gradientTransform="rotate(-18.3269 8.188146 124.659946)"><stop offset="0" stop-color="#0acbfc"/><stop offset="1" stop-color="#0acbfc" stop-opacity="0"/></linearGradient><radialGradient id="f" gradientUnits="userSpaceOnUse" cx="-46.609802" cy="89.100845" fx="-46.609802" fy="89.100845" r="5.653707" gradientTransform="matrix(8.99763 -.7141 .95465 12.02868 375.101802 -1009.740486)"><stop offset="0" stop-color="#00caff" stop-opacity=".972549"/><stop offset="1" stop-color="#f0c100"/></radialGradient><clipPath id="b"><path d="M0 0h192v152H0z"/></clipPath><filter id="a" filterUnits="objectBoundingBox" x="0%" y="0%" width="100%" height="100%"><feColorMatrix in="SourceGraphic" values="0 0 0 0 1 0 0 0 0 1 0 0 0 0 1 0 0 0 1 0"/></filter><mask id="e"><g filter="url(#a)"><path fill-opacity=".123747" d="M0 0h128v128H0z"/></g></mask><g id="d" clip-path="url(#b)"><path d="M35.199219 129.445312l-.625 2h15.609375l.523437-1.972656zm57.875 0l.5 2h15.359375l-.625-2zm0 0"/></g></defs><path d="M24 124v2h16v-2zm64 0v2h16v-2zm0 0" fill="#a9713c"/><path d="M88 122L64 22v4l24 100zm0 0" fill-rule="evenodd" fill="#b5835a"/><path d="M40 122L64 22v4L40 126zm0 0" fill-rule="evenodd" fill="#6b4b2f"/><path d="M54.003906 16.003906L54 16 24 124h16L64 24l24 100h16L72 16zm0 0" fill="#d18b48"/><path d="M20 32h88c4.417969 0 8 3.582031 8 8v66c0 4.417969-3.582031 8-8 8H20c-4.417969 0-8-3.582031-8-8V40c0-4.417969 3.582031-8 8-8zm0 0" fill="url(#c)"/><path d="M58 4h12c2.210938 0 4 1.789062 4 4v6c0 2.210938-1.789062 4-4 4H58c-2.210938 0-4-1.789062-4-4V8c0-2.210938 1.789062-4 4-4zm0 0" fill="#d18b48"/><path d="M54 12v4h20v-4zm0 0" fill="#ca823f"/><path d="M47.703125 14h32.59375C81.238281 14 82 14.761719 82 15.703125v4.59375C82 21.238281 81.238281 22 80.296875 22h-32.59375C46.761719 22 46 21.238281 46 20.296875v-4.59375C46 14.761719 46.761719 14 47.703125 14zm0 0" fill="#d99552"/><path d="M46.765625 18h34.46875C81.65625 18 82 18.34375 82 18.765625v2.363281c0 .425782-.34375.765625-.765625.765625h-34.46875c-.421875 0-.765625-.339843-.765625-.765625v-2.363281C46 18.34375 46.34375 18 46.765625 18zm0 0" fill="#ca823f"/><path d="M20 20h88c4.417969 0 8 3.582031 8 8v72c0 4.417969-3.582031 8-8 8H20c-4.417969 0-8-3.582031-8-8V28c0-4.417969 3.582031-8 8-8zm0 0" fill="#f3f2f1"/><use xlink:href="#d" transform="translate(-8 -16)" mask="url(#e)"/><path d="M24 108h78c2.210938 0 4 .894531 4 2v4c0 1.105469-1.789062 2-4 2H24c-2.210938 0-4-.894531-4-2v-4c0-1.105469 1.789062-2 4-2zm0 0" fill="#d99552"/><path d="M24 112h78c2.210938 0 4 .875 4 1.953125v.09375C106 115.125 104.210938 116 102 116H24c-2.210938 0-4-.875-4-1.953125v-.09375C20 112.875 21.789062 112 24 112zm0 0" fill="#a9713c"/><path d="M24.628906 108.398438h76.71875c.332032 0 .597656.257812.597656.582031v1.871093c0 .324219-.265624.585938-.597656.585938h-76.71875c-.332031 0-.597656-.261719-.597656-.585938v-1.871093c0-.324219.265625-.582031.597656-.582031zm0 0" fill="#fff" fill-opacity=".15"/><path d="M55.953125 103.777344c-5.933594.457031-12.011719-1.335938-16.742187-4.945313C34.476562 95.226562 31.132812 89.839844 30 84c-.886719-4.578125-.433594-9.414062 1.328125-13.734375.957031-2.351563 2.289063-4.539063 3.308594-6.867187C35.65625 61.070312 36.375 58.515625 36 56c-.257812-1.734375-1.039062-3.386719-2.21875-4.683594-1.175781-1.300781-2.742188-2.238281-4.445312-2.664062-1.699219-.425782-3.523438-.332032-5.175782.257812-2.695312.964844-4.792968.390625-4.558594-2.9375.300782-4.21875 1.78125-8.359375 4.300782-11.757812C27.625 29.1875 33.550781 25.859375 39.78125 25.296875 46.007812 24.730469 52.433594 26.941406 57 31.21875c4.5625 4.273438 7.1875 10.546875 7.03125 16.796875-.101562 4.054687-1.332031 8.0625-3.449219 11.523437C58.464844 62.996094 55.472656 65.90625 52 68c-3.476562 2.097656-7.421875 3.390625-10.734375 5.746094-1.652344 1.175781-3.148437 2.625-4.148437 4.390625C36.113281 79.902344 35.625 82.003906 36 84c.238281 1.269531.820312 2.472656 1.667969 3.445312.847656.972657 1.960937 1.714844 3.183593 2.125 1.226563.410157 2.558594.488282 3.824219.222657 1.261719-.269531 2.449219-.878907 3.40625-1.746094" fill="url(#f)"/><path d="M116 44v8L78 90v-6zm0 0" fill="#312d2a" fill-opacity=".15"/><path d="M121.785156 32.207031c-2.769531-2.769531-7.265625-2.757812-10.050781.027344L78.667969 65.300781l10.023437 10.023438 33.066406-33.066407c2.785157-2.785156 2.796876-7.285156.027344-10.050781zm0 0" fill="#cd8742"/><path d="M121.785156 32.207031c-.605468-.601562-1.3125-1.089843-2.09375-1.4375 2.285156 2.816407 1.476563 6.078125-1.101562 8.660157L86 72l2.6875 3.328125 33.070312-33.074219c2.785157-2.78125 2.796876-7.28125.027344-10.046875zm0 0" fill="#a9713c"/><path d="M89.964844 64.027344c-2.78125-2.78125-6.3125-3.75-7.898438-2.171875-.015625.015625-.027344.03125-.042968.050781l-14.15625 12.332031.007812.007813c-.007812.003906-.011719.007812-.015625.011718 2.53125.625 5.191406 2.21875 7.410156 4.433594 2.21875 2.21875 3.8125 4.882813 4.433594 7.417969.109375-.125.285156-.3125.3125-.351563L92.3125 71.726562c1.332031-1.683593.304688-5.050781-2.347656-7.699218zm0 0" fill="url(#g)"/><path d="M77.542969 81.355469c.667969 1.171875 1.871093 3.582031 2.160156 4.753906.109375-.125.285156-.3125.3125-.351563l12.1875-13.921874c.917969-.941407 1.039063-3.140626-.46875-5.566407zm0 0" fill="#16110d" fill-opacity=".25"/><path d="M70.664062 71.21875c-4.382812-.628906-8.898437.914062-12.429687 3.578125-3.359375 2.535156-5.894531 6.003906-8.082031 9.601563-1.160156 1.90625-2.238282 3.871093-3.582032 5.65625-1.972656 2.621093-4.503906 4.816406-7.378906 6.394531 5.105469 5.027343 12.351563 7.800781 19.503906 7.46875 7.15625-.328125 14.113282-3.757813 18.734376-9.230469 1.433593-1.695312 2.652343-3.585938 3.460937-5.652344.804687-2.070312 1.191406-4.320312.960937-6.527344-.292968-2.835937-1.625-5.546874-3.644531-7.558593-2.023437-2.011719-4.71875-3.324219-7.542969-3.730469zm0 0" fill="url(#h)"/><path d="M77.710938 74.484375c-.214844 7.035156-3.054688 13.960937-7.839844 19.121094-4.992188 5.386719-12.058594 8.796875-19.378906 9.355469 2.921874.839843 5.992187 1.148437 9.023437.90625 6.003906-.476563 11.773437-3.152344 16.148437-7.292969 2.160157-2.046875 4.011719-4.46875 5.128907-7.226563 1.117187-2.761718 1.472656-5.875.703125-8.75-.292969-1.085937-.738282-2.128906-1.308594-3.09375-.667969-1.125-1.503906-2.148437-2.476562-3.019531zm0 0" fill-opacity=".2"/><path d="M46.550781 89.597656l-.046875.003906c-.0625.085938-.121094.179688-.1875.265626-1.945312 2.582031-4.445312 4.746093-7.28125 6.308593-.085937.046875-.144531.132813-.160156.234375-.011719.097656.023438.199219.09375.265625 3.164062 3.042969 7.097656 5.242188 11.316406 6.433594.425782-.261719.734375-.714844.808594-1.210937.074219-.515626-.101562-1.0625-.460938-1.4375-.328124-.34375-.785156-.539063-1.246093-.648438-.464844-.105469-.941407-.136719-1.410157-.203125-.472656-.070313-.945312-.183594-1.347656-.433594-.203125-.125-.386718-.285156-.523437-.476562-.140625-.191407-.234375-.421875-.261719-.65625-.023438-.226563.015625-.460938.101562-.671875.082032-.214844.210938-.410156.359376-.582032.300781-.347656.683593-.609374 1.054687-.878906.371094-.269531.742187-.554687.996094-.9375.125-.191406.222656-.40625.261719-.628906.042968-.226562.03125-.464844-.046876-.675781-.078124-.203125-.210937-.382813-.371093-.527344-.15625-.148437-.339844-.261719-.527344-.371094-.375-.214843-.777344-.390625-1.085937-.695312-.328126-.320313-.519532-.773438-.523438-1.230469-.007812-.457031.171875-.917969.488281-1.246094zm0 0" fill-rule="evenodd" fill="url(#i)"/><path d="M68 80c0 2.210938-1.789062 4-4 4s-4-1.789062-4-4 1.789062-4 4-4 4 1.789062 4 4zm0 0" fill="#fff" fill-opacity=".031373"/></svg>